<?xml version='1.0' encoding='UTF-8' standalone='no'?>
<!-- Created with Fritzing (http://www.fritzing.org/) -->
<svg xmlns="http://www.w3.org/2000/svg" y="0in" height="2.04869in" version="1.2" viewBox="0 0 169.946 147.506" xmlns:svg="http://www.w3.org/2000/svg" width="2.36035in"  x="0in" baseProfile="tiny">
 <g partID="57660">
  <g  id="board">
   <rect y="0.288" height="146.93" stroke="black" fill-opacity="0.5" width="169.37"  x="0.288" fill="none" id="boardoutline" stroke-width="0.5"/>
  </g>
 </g>
 <g partID="124761">
  <g transform="translate(1.55376,78.8644)">
   <g id="copper1">
    <g id="copper0">
     <rect y="3.24" height="4.32" stroke="black" width="4.32" x="5.616" fill="black" id="square" stroke-width="2.16"/>
     <circle stroke="black" cx="7.776" r="2.16" fill="black" cy="5.4" id="connector0pin" stroke-width="2.16"/>
     <circle stroke="black" cx="7.776" r="2.16" fill="black" cy="12.6" id="connector1pin" stroke-width="2.16"/>
    </g>
   </g>
  </g>
 </g>
 <g partID="126031">
  <g transform="translate(1.55376,102.704)">
   <g id="copper1">
    <g id="copper0">
     <rect y="4.60063" height="4.32" stroke="black" width="4.32" x="5.616" fill="black" id="square" stroke-width="2.16"/>
     <circle stroke="black" cx="7.776" r="2.16" fill="black" cy="6.76063" id="connector0pin" stroke-width="2.16"/>
     <circle stroke="black" cx="7.776" r="2.16" fill="black" cy="16.6819" id="connector1pin" stroke-width="2.16"/>
    </g>
   </g>
  </g>
 </g>
 <g partID="134711">
  <g transform="translate(102.793,137.183)">
   <g  id="copper1">
    <circle stroke="black" cx="4.71811"  r="3.11811" fill="black" cy="4.71811" id="nonconn0" stroke-width="0.72"/>
   </g>
  </g>
 </g>
 <g partID="134741">
  <g transform="translate(35.0116,137.207)">
   <g  id="copper1">
    <circle stroke="black" cx="4.71811"  r="3.11811" fill="black" cy="4.71811" id="nonconn0" stroke-width="0.72"/>
   </g>
  </g>
 </g>
 <g partID="134771">
  <g transform="translate(102.769,2.56448)">
   <g  id="copper1">
    <circle stroke="black" cx="4.71811"  r="3.11811" fill="black" cy="4.71811" id="nonconn0" stroke-width="0.72"/>
   </g>
  </g>
 </g>
 <g partID="134801">
  <g transform="translate(34.9631,2.56448)">
   <g  id="copper1">
    <circle stroke="black" cx="4.71811"  r="3.11811" fill="black" cy="4.71811" id="nonconn0" stroke-width="0.72"/>
   </g>
  </g>
 </g>
 <g partID="134901">
  <g transform="translate(-0.7144,135.843)">
   <g  id="copper1">
    <circle stroke="black" cx="6.13543"  r="4.53543" fill="black" cy="6.13543" id="nonconn0" stroke-width="0.72"/>
   </g>
  </g>
 </g>
 <g partID="134881">
  <g transform="translate(157.994,135.729)">
   <g  id="copper1">
    <circle stroke="black" cx="6.13543"  r="4.53543" fill="black" cy="6.13543" id="nonconn0" stroke-width="0.72"/>
   </g>
  </g>
 </g>
 <g partID="134861">
  <g transform="translate(-0.4664,-0.4768)">
   <g  id="copper1">
    <circle stroke="black" cx="6.13543"  r="4.53543" fill="black" cy="6.13543" id="nonconn0" stroke-width="0.72"/>
   </g>
  </g>
 </g>
 <g partID="134831">
  <g transform="translate(158.173,-0.57584)">
   <g  id="copper1">
    <circle stroke="black" cx="6.13543"  r="4.53543" fill="black" cy="6.13543" id="nonconn0" stroke-width="0.72"/>
   </g>
  </g>
 </g>
 <g partID="135351">
  <g transform="translate(121.434,76.1644)">
   <g transform="matrix(0,-1,1,0,0,0)">
    <g  id="copper1">
     <!-- <rect width="55" x="10" y="15.5" fill="none" height="55" stroke="rgb(255, 191, 0)" stroke-width="20" />  -->
     <circle stroke="black" cx="2.7"  r="1.98" fill="black" cy="3.096" id="connector0pin" stroke-width="2.16"/>
     <circle stroke="black" cx="31.5"  r="1.98" fill="black" cy="3.096" id="connector1pin" stroke-width="2.16"/>
    </g>
   </g>
  </g>
 </g>
 <g partID="157841">
  <g transform="translate(152.754,17.6644)">
   <g id="copper1">
    <g id="copper0">
     <rect y="3.24" height="4.32" stroke="black" width="4.32" x="5.616" fill="black" id="square" stroke-width="2.16"/>
     <circle stroke="black" cx="7.776" r="2.16" fill="black" cy="5.4" id="connector0pin" stroke-width="2.16"/>
     <circle stroke="black" cx="7.776" r="2.16" fill="black" cy="12.6" id="connector1pin" stroke-width="2.16"/>
     <circle stroke="black" cx="7.776" r="2.16" fill="black" cy="19.8" id="connector2pin" stroke-width="2.16"/>
    </g>
   </g>
  </g>
 </g>
 <g partID="163911">
  <g transform="translate(141.954,46.4644)">
   <g id="copper1">
    <g id="copper0">
     <rect y="3.24" height="4.32" stroke="black" width="4.32" x="5.616" fill="black" id="square" stroke-width="2.16"/>
     <circle stroke="black" cx="7.776" r="2.16" fill="black" cy="5.4" id="connector0pin" stroke-width="2.16"/>
     <circle stroke="black" cx="7.776" r="2.16" fill="black" cy="12.6" id="connector1pin" stroke-width="2.16"/>
     <circle stroke="black" cx="7.776" r="2.16" fill="black" cy="19.8" id="connector2pin" stroke-width="2.16"/>
    </g>
   </g>
  </g>
 </g>
 <g partID="165661">
  <g transform="translate(33.788,0.036324)">
   <g gorn="0.4"  id="copper1">
    <g gorn="0.4.0"  id="copper0">
     <circle gorn="0.4.0.0" stroke="black" cx="76.3427"  r="1.62" fill="black" id="connector0pin" cy="116.628" stroke-width="1.224"/>
     <path gorn="0.4.0.1" stroke="black"  fill="black" id="path423" d="m80.0049,116.629a1.87105,1.87105,0,0,1,-1.87105,1.87108l-3.7421,0a1.87105,1.87105,0,0,1,-1.87105,-1.87108l0,0a1.87105,1.87105,0,0,1,1.87105,-1.87108l3.7421,0a1.87105,1.87105,0,0,1,1.87105,1.87108zm-3.79649,-1.14761a1.15148,1.15148,0,1,0,0,2.30296,1.15148,1.15148,0,1,0,0,-2.30296z" stroke-width="1.43963"/>
     <circle gorn="0.4.0.2" stroke="black" cx="76.3427"  r="1.62" fill="black" id="connector1pin" cy="109.428" stroke-width="1.224"/>
     <path gorn="0.4.0.3" stroke="black"  fill="black" id="path467" d="m80.0107,109.429a1.87105,1.87105,0,0,1,-1.87105,1.87108l-3.7421,0a1.87105,1.87105,0,0,1,-1.87105,-1.87108l0,0a1.87105,1.87105,0,0,1,1.87105,-1.87108l3.7421,0a1.87105,1.87105,0,0,1,1.87105,1.87108zm-3.79649,-1.14732a1.15142,1.15142,0,1,0,0,2.30266,1.15142,1.15142,0,1,0,0,-2.30266z" stroke-width="1.43963"/>
     <circle gorn="0.4.0.4" stroke="black" cx="76.3427"  r="1.62" fill="black" id="connector2pin" cy="102.228" stroke-width="1.224"/>
     <path gorn="0.4.0.5" stroke="black"  fill="black" id="path13574-4" d="m80.015,102.229a1.872,1.87105,0,0,1,-1.872,1.87108l-3.744,0a1.872,1.87105,0,0,1,-1.872,-1.87108l0,0a1.872,1.87105,0,0,1,1.872,-1.87108l3.744,0a1.872,1.87105,0,0,1,1.872,1.87108zm-3.79842,-1.14761a1.152,1.15142,0,1,0,0,2.30267,1.152,1.15142,0,1,0,0,-2.30267z" stroke-width="1.43963"/>
     <circle gorn="0.4.0.6" stroke="black" cx="76.3427"  r="1.62" fill="black" id="connector3pin" cy="95.0281" stroke-width="1.224"/>
     <path gorn="0.4.0.7" stroke="black"  fill="black" id="path461" d="m80.0107,95.0292a1.87105,1.87105,0,0,1,-1.87105,1.87108l-3.7421,0a1.87105,1.87105,0,0,1,-1.87105,-1.87108l0,0a1.87105,1.87105,0,0,1,1.87105,-1.87108l3.7421,0a1.87105,1.87105,0,0,1,1.87105,1.87108zm-3.79649,-1.14733a1.15142,1.15142,0,1,0,0,2.30267,1.15142,1.15142,0,1,0,0,-2.30267z" stroke-width="1.43963"/>
     <circle gorn="0.4.0.8" stroke="black" cx="76.3427"  r="1.62" fill="black" id="connector4pin" cy="87.8281" stroke-width="1.224"/>
     <path gorn="0.4.0.9" stroke="black"  fill="black" id="path459" d="m80.015,87.8292a1.872,1.87105,0,0,1,-1.872,1.87108l-3.744,0a1.872,1.87105,0,0,1,-1.872,-1.87108l0,0a1.872,1.87105,0,0,1,1.872,-1.87108l3.744,0a1.872,1.87105,0,0,1,1.872,1.87108zm-3.79842,-1.14732a1.15206,1.15148,0,1,0,0,2.30296,1.15206,1.15148,0,1,0,0,-2.30296z" stroke-width="1.43963"/>
     <circle gorn="0.4.0.10" stroke="black" cx="76.3427"  r="1.62" fill="black" id="connector5pin" cy="80.6281" stroke-width="1.224"/>
     <path gorn="0.4.0.11" stroke="black"  fill="black" id="path479" d="m80.0107,80.6292a1.87105,1.87105,0,0,1,-1.87105,1.87108l-3.7421,0a1.87105,1.87105,0,0,1,-1.87105,-1.87108l0,0a1.87105,1.87105,0,0,1,1.87105,-1.87108l3.7421,0a1.87105,1.87105,0,0,1,1.87105,1.87108zm-3.79649,-1.14732a1.15148,1.15148,0,1,0,0,2.30296,1.15148,1.15148,0,1,0,0,-2.30296z" stroke-width="1.43963"/>
     <circle gorn="0.4.0.12" stroke="black" cx="76.3427"  r="1.62" fill="black" id="connector6pin" cy="73.4281" stroke-width="1.224"/>
     <path gorn="0.4.0.13" stroke="black"  fill="black" id="path481" d="m80.0107,73.4292a1.87105,1.87105,0,0,1,-1.87105,1.87108l-3.7421,0a1.87105,1.87105,0,0,1,-1.87105,-1.87108l0,0a1.87105,1.87105,0,0,1,1.87105,-1.87108l3.7421,0a1.87105,1.87105,0,0,1,1.87105,1.87108zm-3.79649,-1.14732a1.15148,1.15148,0,1,0,0,2.30296,1.15148,1.15148,0,1,0,0,-2.30296z" stroke-width="1.43963"/>
     <circle gorn="0.4.0.14" stroke="black" cx="76.3427"  r="1.62" fill="black" id="connector7pin" cy="66.2281" stroke-width="1.224"/>
     <path gorn="0.4.0.15" stroke="black"  fill="black" id="path485" d="m80.015,66.229a1.872,1.87105,0,0,1,-1.872,1.87108l-3.744,0a1.872,1.87105,0,0,1,-1.87201,-1.87108l0,0a1.872,1.87105,0,0,1,1.87201,-1.87079l3.744,0a1.872,1.87105,0,0,1,1.872,1.87079zm-3.79843,-1.14733a1.15207,1.15149,0,1,0,0,2.30297,1.15207,1.15149,0,1,0,0,-2.30297z" stroke-width="1.43963"/>
     <circle gorn="0.4.0.16" stroke="black" cx="76.3427"  r="1.62" fill="black" id="connector8pin" cy="59.0281" stroke-width="1.224"/>
     <path gorn="0.4.0.17" stroke="black"  fill="black" id="path483" d="m80.0107,59.0293a1.87105,1.87105,0,0,1,-1.87105,1.87078l-3.7421,0a1.87105,1.87105,0,0,1,-1.87106,-1.87078l0,0a1.87105,1.87105,0,0,1,1.87106,-1.87108l3.7421,0a1.87105,1.87105,0,0,1,1.87105,1.87108zm-3.7965,-1.14761a1.15148,1.15148,0,1,0,0,2.30296,1.15148,1.15148,0,1,0,0,-2.30296z" stroke-width="1.43963"/>
     <circle gorn="0.4.0.18" stroke="black" cx="76.3427"  r="1.62" fill="black" id="connector9pin" cy="51.8281" stroke-width="1.224"/>
     <path gorn="0.4.0.19" stroke="black"  fill="black" id="path469" d="m80.0107,51.829a1.87105,1.87105,0,0,1,-1.87105,1.87108l-3.7421,0a1.87105,1.87105,0,0,1,-1.87106,-1.87108l0,0a1.87105,1.87105,0,0,1,1.87106,-1.87108l3.7421,0a1.87105,1.87105,0,0,1,1.87105,1.87108zm-3.7965,-1.14761a1.15148,1.15148,0,1,0,0,2.30296,1.15148,1.15148,0,1,0,0,-2.30296z" stroke-width="1.43963"/>
     <circle gorn="0.4.0.20" stroke="black" cx="76.3427"  r="1.62" fill="black" id="connector10pin" cy="44.6281" stroke-width="1.224"/>
     <path gorn="0.4.0.21" stroke="black"  fill="black" id="path457" d="m80.0107,44.629a1.87105,1.87105,0,0,1,-1.87105,1.87108l-3.7421,0a1.87105,1.87105,0,0,1,-1.87106,-1.87108l0,0a1.87105,1.87105,0,0,1,1.87106,-1.87108l3.7421,0a1.87105,1.87105,0,0,1,1.87105,1.87108zm-3.7965,-1.14761a1.15148,1.15148,0,1,0,0,2.30296,1.15148,1.15148,0,1,0,0,-2.30296z" stroke-width="1.43963"/>
     <circle gorn="0.4.0.22" stroke="black" cx="76.3427"  r="1.62" fill="black" id="connector11pin" cy="37.4281" stroke-width="1.224"/>
     <path gorn="0.4.0.23" stroke="black"  fill="black" id="path477" d="m80.015,37.429a1.872,1.87105,0,0,1,-1.872,1.87108l-3.744,0a1.872,1.87105,0,0,1,-1.87201,-1.87108l0,0a1.872,1.87105,0,0,1,1.87201,-1.87108l3.744,0a1.872,1.87105,0,0,1,1.872,1.87108zm-3.79843,-1.14732a1.152,1.15142,0,1,0,0,2.30237,1.152,1.15142,0,1,0,0,-2.30237z" stroke-width="1.43963"/>
     <circle gorn="0.4.0.24" stroke="black" cx="76.3427"  r="1.62" fill="black" id="connector12pin" cy="30.2281" stroke-width="1.224"/>
     <path gorn="0.4.0.25" stroke="black"  fill="black" id="path475" d="m80.0107,30.229a1.87105,1.87105,0,0,1,-1.87105,1.87108l-3.7421,0a1.87105,1.87105,0,0,1,-1.87106,-1.87108l0,0a1.87105,1.87105,0,0,1,1.87106,-1.87108l3.7421,0a1.87105,1.87105,0,0,1,1.87105,1.87108zm-3.7965,-1.14732a1.15142,1.15142,0,1,0,0,2.30267,1.15142,1.15142,0,1,0,0,-2.30267z" stroke-width="1.43963"/>
     <circle gorn="0.4.0.26" stroke="black" cx="76.3427"  r="1.62" fill="black" id="connector13pin" cy="23.0281" stroke-width="1.224"/>
     <path gorn="0.4.0.27" stroke="black"  fill="black" id="path473" d="m80.015,23.029a1.872,1.87105,0,0,1,-1.872,1.87108l-3.744,0a1.872,1.87105,0,0,1,-1.87201,-1.87108l0,0a1.872,1.87105,0,0,1,1.87201,-1.87108l3.744,0a1.872,1.87105,0,0,1,1.872,1.87108zm-3.79843,-1.14732a1.152,1.15142,0,1,0,0,2.30267,1.152,1.15142,0,1,0,0,-2.30267z" stroke-width="1.43963"/>
     <circle gorn="0.4.0.28" stroke="black" cx="76.3427"  r="1.62" fill="black" id="connector14pin" cy="15.8281" stroke-width="1.224"/>
     <path gorn="0.4.0.29" stroke="black"  fill="black" id="path471" d="m80.0107,15.8291a1.87105,1.87105,0,0,1,-1.87105,1.87108l-3.7421,0a1.87105,1.87105,0,0,1,-1.87106,-1.87108l0,0a1.87105,1.87105,0,0,1,1.87106,-1.87108l3.7421,0a1.87105,1.87105,0,0,1,1.87105,1.87108zm-3.7965,-1.14732a1.15142,1.15142,0,1,0,0,2.30267,1.15142,1.15142,0,1,0,0,-2.30267z" stroke-width="1.43963"/>
     <circle gorn="0.4.0.30" stroke="black" cx="4.34173"  r="1.62" fill="black" id="connector15pin" cy="15.8281" stroke-width="1.224"/>
     <path gorn="0.4.0.31" stroke="black"  fill="black" id="path425" d="M8.18712,15.8291A1.87105,1.87105,0,0,1,6.31608,17.7001L2.57398,17.7001A1.87105,1.87105,0,0,1,0.702927,15.8291l0,0A1.87105,1.87105,0,0,1,2.57398,13.9579l3.7421,0a1.87105,1.87105,0,0,1,1.87105,1.87108zM4.44729,14.6823a1.15142,1.15142,0,1,0,0,2.30267,1.15142,1.15142,0,1,0,0,-2.30267z" stroke-width="1.43963"/>
     <circle gorn="0.4.0.32" stroke="black" cx="4.34173"  r="1.62" fill="black" id="connector16pin" cy="23.0281" stroke-width="1.224"/>
     <path gorn="0.4.0.33" stroke="black"  fill="black" id="path431" d="M8.18712,23.029A1.87105,1.87105,0,0,1,6.31608,24.9001L2.57398,24.9001A1.87105,1.87105,0,0,1,0.702927,23.029l0,0A1.87105,1.87105,0,0,1,2.57398,21.1579l3.7421,0a1.87105,1.87105,0,0,1,1.87105,1.87108zM4.44729,21.8817a1.15142,1.15142,0,1,0,0,2.30267,1.15142,1.15142,0,1,0,0,-2.30267z" stroke-width="1.43963"/>
     <circle gorn="0.4.0.34" stroke="black" cx="4.34173"  r="1.62" fill="black" id="connector17pin" cy="30.2281" stroke-width="1.224"/>
     <path gorn="0.4.0.35" stroke="black"  fill="black" id="path433" d="M8.18712,30.229A1.87105,1.87105,0,0,1,6.31608,32.1001L2.57398,32.1001A1.87105,1.87105,0,0,1,0.702927,30.229l0,0A1.87105,1.87105,0,0,1,2.57398,28.3579l3.7421,0a1.87105,1.87105,0,0,1,1.87105,1.87108zM4.44729,29.0817a1.15142,1.15142,0,1,0,0,2.30267,1.15142,1.15142,0,1,0,0,-2.30267z" stroke-width="1.43963"/>
     <circle gorn="0.4.0.36" stroke="black" cx="4.34173"  r="1.62" fill="black" id="connector18pin" cy="37.4281" stroke-width="1.224"/>
     <path gorn="0.4.0.37" stroke="black"  fill="black" id="path435" d="M8.18712,37.429A1.87105,1.87105,0,0,1,6.31608,39.3001L2.57398,39.3001A1.87105,1.87105,0,0,1,0.702927,37.429l0,0A1.87105,1.87105,0,0,1,2.57398,35.5579l3.7421,0a1.87105,1.87105,0,0,1,1.87105,1.87108zM4.44729,36.2817a1.15142,1.15142,0,1,0,0,2.30237,1.15142,1.15142,0,1,0,0,-2.30237z" stroke-width="1.43963"/>
     <circle gorn="0.4.0.38" stroke="black" cx="4.34173"  r="1.62" fill="black" id="connector19pin" cy="44.6281" stroke-width="1.224"/>
     <path gorn="0.4.0.39" stroke="black"  fill="black" id="path437" d="M8.11339,44.629A1.87105,1.87105,0,0,1,6.24231,46.5001L2.50021,46.5001A1.87105,1.87105,0,0,1,0.629162,44.629l0,0A1.87105,1.87105,0,0,1,2.50021,42.7579l3.7421,0a1.87105,1.87105,0,0,1,1.87105,1.87108zM4.37353,43.4814a1.15148,1.15148,0,1,0,0,2.30296,1.15148,1.15148,0,1,0,0,-2.30296z" stroke-width="1.43963"/>
     <circle gorn="0.4.0.40" stroke="black" cx="4.34173"  r="1.62" fill="black" id="connector20pin" cy="51.8281" stroke-width="1.224"/>
     <path gorn="0.4.0.41" stroke="black"  fill="black" id="path439" d="M8.18712,51.829A1.87105,1.87105,0,0,1,6.31608,53.7001L2.57398,53.7001A1.87105,1.87105,0,0,1,0.702927,51.829l0,0A1.87105,1.87105,0,0,1,2.57398,49.9579l3.7421,0a1.87105,1.87105,0,0,1,1.87105,1.87108zM4.44729,50.6814a1.15148,1.15148,0,1,0,0,2.30296,1.15148,1.15148,0,1,0,0,-2.30296z" stroke-width="1.43963"/>
     <circle gorn="0.4.0.42" stroke="black" cx="4.34173"  r="1.62" fill="black" id="connector21pin" cy="59.0281" stroke-width="1.224"/>
     <path gorn="0.4.0.43" stroke="black"  fill="black" id="path441" d="M8.18712,59.0293A1.87105,1.87105,0,0,1,6.31608,60.9001L2.57398,60.9001A1.87105,1.87105,0,0,1,0.702927,59.0293l0,0A1.87105,1.87105,0,0,1,2.57398,57.1583l3.7421,0a1.87105,1.87105,0,0,1,1.87105,1.87108zM4.44729,57.8817a1.15148,1.15148,0,1,0,0,2.30296,1.15148,1.15148,0,1,0,0,-2.30296z" stroke-width="1.43963"/>
     <circle gorn="0.4.0.44" stroke="black" cx="4.34173"  r="1.62" fill="black" id="connector22pin" cy="66.2281" stroke-width="1.224"/>
     <path gorn="0.4.0.45" stroke="black"  fill="black" id="path443" d="m8.18712,66.229a1.87105,1.87105,0,0,1,-1.87105,1.87108L2.57398,68.1001A1.87105,1.87105,0,0,1,0.702927,66.229l0,0A1.87105,1.87105,0,0,1,2.57398,64.3583l3.7421,0a1.87105,1.87105,0,0,1,1.87105,1.87079zM4.44729,65.0817a1.15149,1.15149,0,1,0,0,2.30297,1.15149,1.15149,0,1,0,0,-2.30297z" stroke-width="1.43963"/>
     <circle gorn="0.4.0.46" stroke="black" cx="4.34173"  r="1.62" fill="black" id="connector23pin" cy="73.4281" stroke-width="1.224"/>
     <path gorn="0.4.0.47" stroke="black"  fill="black" id="path445" d="m8.18683,73.4292a1.87105,1.87105,0,0,1,-1.87105,1.87108L2.5737,75.3005A1.87105,1.87105,0,0,1,0.702644,73.4292l0,0A1.87105,1.87105,0,0,1,2.5737,71.5579l3.7421,0a1.87105,1.87105,0,0,1,1.87105,1.87108zm-3.73984,-1.14672a1.15146,1.15146,0,1,0,0,2.30266,1.15146,1.15146,0,1,0,0,-2.30266z" stroke-width="1.43963"/>
     <circle gorn="0.4.0.48" stroke="black" cx="4.34173"  r="1.62" fill="black" id="connector24pin" cy="80.6281" stroke-width="1.224"/>
     <path gorn="0.4.0.49" stroke="black"  fill="black" id="path447" d="m8.18683,80.6292a1.87105,1.87105,0,0,1,-1.87105,1.87108L2.5737,82.5005A1.87105,1.87105,0,0,1,0.702644,80.6292l0,0a1.87105,1.87105,0,0,1,1.87105,-1.87108l3.7421,0a1.87105,1.87105,0,0,1,1.87105,1.87108zm-3.73984,-1.14732a1.15148,1.15148,0,1,0,0,2.30296,1.15148,1.15148,0,1,0,0,-2.30296z" stroke-width="1.43963"/>
     <circle gorn="0.4.0.50" stroke="black" cx="4.34173"  r="1.62" fill="black" id="connector25pin" cy="87.8281" stroke-width="1.224"/>
     <path gorn="0.4.0.51" stroke="black"  fill="black" id="path449" d="m8.18683,87.8292a1.87105,1.87105,0,0,1,-1.87105,1.87108L2.5737,89.7004A1.87105,1.87105,0,0,1,0.702644,87.8292l0,0a1.87105,1.87105,0,0,1,1.87105,-1.87108l3.7421,0a1.87105,1.87105,0,0,1,1.87105,1.87108zm-3.73984,-1.14732a1.15148,1.15148,0,1,0,0,2.30296,1.15148,1.15148,0,1,0,0,-2.30296z" stroke-width="1.43963"/>
     <circle gorn="0.4.0.52" stroke="black" cx="4.34173"  r="1.62" fill="black" id="connector26pin" cy="95.0281" stroke-width="1.224"/>
     <path gorn="0.4.0.53" stroke="black"  fill="black" id="path451" d="m8.18683,95.0292a1.87105,1.87105,0,0,1,-1.87105,1.87108L2.5737,96.9004A1.87105,1.87105,0,0,1,0.702644,95.0292l0,0a1.87105,1.87105,0,0,1,1.87105,-1.87108l3.7421,0a1.87105,1.87105,0,0,1,1.87105,1.87108zm-3.73984,-1.14733a1.15142,1.15142,0,1,0,0,2.30267,1.15142,1.15142,0,1,0,0,-2.30267z" stroke-width="1.43963"/>
     <circle gorn="0.4.0.54" stroke="black" cx="4.34173"  r="1.62" fill="black" id="connector27pin" cy="102.228" stroke-width="1.224"/>
     <path gorn="0.4.0.55" stroke="black"  fill="black" id="path455" d="m8.18683,102.229a1.87105,1.87105,0,0,1,-1.87105,1.87108L2.5737,104.1A1.87105,1.87105,0,0,1,0.702644,102.229l0,0a1.87105,1.87105,0,0,1,1.87105,-1.87108l3.7421,0a1.87105,1.87105,0,0,1,1.87105,1.87108zm-3.73984,-1.14761a1.15142,1.15142,0,1,0,0,2.30267,1.15142,1.15142,0,1,0,0,-2.30267z" stroke-width="1.43963"/>
     <circle gorn="0.4.0.56" stroke="black" cx="4.34193"  r="1.62" fill="black" id="connector28pin" cy="109.428" stroke-width="1.224"/>
     <path gorn="0.4.0.57" stroke="black"  fill="black" id="path453" d="m8.18683,109.429a1.87105,1.87105,0,0,1,-1.87105,1.87108L2.5737,111.3A1.87105,1.87105,0,0,1,0.702644,109.429l0,0a1.87105,1.87105,0,0,1,1.87105,-1.87108l3.7421,0a1.87105,1.87105,0,0,1,1.87105,1.87108zm-3.73984,-1.14732a1.15142,1.15142,0,1,0,0,2.30266,1.15142,1.15142,0,1,0,0,-2.30266z" stroke-width="1.43963"/>
     <circle gorn="0.4.0.58" stroke="black" cx="4.34173"  r="1.62" fill="black" id="connector29pin" cy="116.628" stroke-width="1.224"/>
     <path gorn="0.4.0.59" stroke="black"  fill="black" id="path463" d="m8.18683,116.629a1.87105,1.87105,0,0,1,-1.87105,1.87108L2.5737,118.5A1.87105,1.87105,0,0,1,0.702644,116.629l0,0a1.87105,1.87105,0,0,1,1.87105,-1.87108l3.7421,0a1.87105,1.87105,0,0,1,1.87105,1.87108zm-3.73984,-1.14761a1.15148,1.15148,0,1,0,0,2.30296,1.15148,1.15148,0,1,0,0,-2.30296z" stroke-width="1.43963"/>
    </g>
   </g>
  </g>
 </g>
 <g partID="59601">
  <g transform="translate(133.89,3.6244)">
   <g  id="copper1">
    <g  id="copper0">
     <circle stroke="black" cx="5.04"  r="2.088" fill="black" cy="5.04" id="connector0pin" stroke-width="2.16"/>
     <circle stroke="black" cx="5.04"  r="2.088" fill="black" cy="12.24" id="connector1pin" stroke-width="2.16"/>
     <circle stroke="black" cx="5.04"  r="2.088" fill="black" cy="19.44" id="connector2pin" stroke-width="2.16"/>
     <circle stroke="black" cx="5.04"  r="2.088" fill="black" cy="26.64" id="connector3pin" stroke-width="2.16"/>
    </g>
   </g>
  </g>
 </g>
 <g partID="116811">
  <g transform="translate(165.57,90.0244)">
   <g transform="matrix(0,1,-1,0,0,0)">
    <g  id="copper1">
     <g  id="copper0">
      <circle stroke="black" cx="5.04"  r="2.088" fill="black" cy="5.04" id="connector0pin" stroke-width="2.16"/>
      <circle stroke="black" cx="5.04"  r="2.088" fill="black" cy="12.24" id="connector1pin" stroke-width="2.16"/>
      <circle stroke="black" cx="5.04"  r="2.088" fill="black" cy="19.44" id="connector2pin" stroke-width="2.16"/>
      <circle stroke="black" cx="5.04"  r="2.088" fill="black" cy="26.64" id="connector3pin" stroke-width="2.16"/>
      <circle stroke="black" cx="5.04"  r="2.088" fill="black" cy="33.84" id="connector4pin" stroke-width="2.16"/>
      <circle stroke="black" cx="5.04"  r="2.088" fill="black" cy="41.04" id="connector5pin" stroke-width="2.16"/>
     </g>
    </g>
   </g>
  </g>
 </g>
 <g partID="63601">
  <g transform="translate(161.555,144.477)">
   <g transform="matrix(-1,0,0,-1,0,0)">
    <g  id="copper1">
     <circle connectorname="-" stroke="black" cx="7.79981"  r="1.8978" fill="black" id="connector1pad" cy="17.0124" stroke-width="1.96441"/>
     <circle connectorname="+" stroke="black" cx="26.225"  r="1.8978" fill="black" id="connector0pad" cy="17.0124" stroke-width="1.96441"/>
     <g  id="copper0">
      <circle connectorname="-" stroke="black" cx="7.79981"  r="1.8978" fill="black" id="connector1pad" cy="17.0124" stroke-width="1.96441"/>
      <circle connectorname="+" stroke="black" cx="26.225"  r="1.8978" fill="black" id="connector0pad" cy="17.0124" stroke-width="1.96441"/>
     </g>
    </g>
   </g>
  </g>
 </g>
 <g partID="166331">
  <g transform="translate(4.28976,32.4244)">
   <g  id="copper1">
    <g  id="copper0">
     <circle stroke="black" cx="5.04"  r="2.088" fill="black" cy="5.04" id="connector0pin" stroke-width="2.16"/>
     <circle stroke="black" cx="5.04"  r="2.088" fill="black" cy="12.24" id="connector1pin" stroke-width="2.16"/>
     <circle stroke="black" cx="5.04"  r="2.088" fill="black" cy="19.44" id="connector2pin" stroke-width="2.16"/>
     <circle stroke="black" cx="5.04"  r="2.088" fill="black" cy="26.64" id="connector3pin" stroke-width="2.16"/>
     <circle stroke="black" cx="5.04"  r="2.088" fill="black" cy="33.84" id="connector4pin" stroke-width="2.16"/>
    </g>
   </g>
  </g>
 </g>
</svg>
