<?xml version='1.0' encoding='UTF-8' standalone='no'?>
<!-- Created with Fritzing (http://www.fritzing.org/) -->
<svg xmlns="http://www.w3.org/2000/svg" y="0in" height="2.04869in" version="1.2" viewBox="0 0 169.946 147.506" xmlns:svg="http://www.w3.org/2000/svg" width="2.36035in"  x="0in" baseProfile="tiny">
 <g transform="matrix(-1, 0, 0, 1, 169.946, 0)">
  <g partID="57660">
   <g  id="board">
    <rect y="0.288" height="146.93" stroke="black" fill-opacity="0.5" width="169.37"  x="0.288" fill="none" id="boardoutline" stroke-width="0.5"/>
   </g>
  </g>
  <g partID="124760">
   <g transform="translate(1.55376,78.8644)">
    <g id="copper0">
     <rect y="3.24" height="4.32" stroke="black" width="4.32" x="5.616" fill="none" id="square" stroke-width="1.44"/>
     <circle stroke="black" cx="7.776" r="2.16" fill="none" cy="5.4" id="connector0pin" stroke-width="1.44"/>
     <circle stroke="black" cx="7.776" r="2.16" fill="none" cy="12.6" id="connector1pin" stroke-width="1.44"/>
    </g>
   </g>
  </g>
  <g partID="126030">
   <g transform="translate(1.55376,102.704)">
    <g id="copper0">
     <rect y="4.60063" height="4.32" stroke="black" width="4.32" x="5.616" fill="none" id="square" stroke-width="1.44"/>
     <circle stroke="black" cx="7.776" r="2.16" fill="none" cy="6.76063" id="connector0pin" stroke-width="1.44"/>
     <circle stroke="black" cx="7.776" r="2.16" fill="none" cy="16.6819" id="connector1pin" stroke-width="1.44"/>
    </g>
   </g>
  </g>
  <g partID="134710">
   <g transform="translate(102.793,137.183)">
    <g  id="copper0">
     <circle stroke="black" cx="4.71811"  r="3.11811" fill="black" cy="4.71811" id="nonconn0" stroke-width="0"/>
    </g>
   </g>
  </g>
  <g partID="134740">
   <g transform="translate(35.0116,137.207)">
    <g  id="copper0">
     <circle stroke="black" cx="4.71811"  r="3.11811" fill="black" cy="4.71811" id="nonconn0" stroke-width="0"/>
    </g>
   </g>
  </g>
  <g partID="134770">
   <g transform="translate(102.769,2.56448)">
    <g  id="copper0">
     <circle stroke="black" cx="4.71811"  r="3.11811" fill="black" cy="4.71811" id="nonconn0" stroke-width="0"/>
    </g>
   </g>
  </g>
  <g partID="134800">
   <g transform="translate(34.9631,2.56448)">
    <g  id="copper0">
     <circle stroke="black" cx="4.71811"  r="3.11811" fill="black" cy="4.71811" id="nonconn0" stroke-width="0"/>
    </g>
   </g>
  </g>
  <g partID="134900">
   <g transform="translate(-0.7144,135.843)">
    <g  id="copper0">
     <circle stroke="black" cx="6.13543"  r="4.53543" fill="black" cy="6.13543" id="nonconn0" stroke-width="0"/>
    </g>
   </g>
  </g>
  <g partID="134880">
   <g transform="translate(157.994,135.729)">
    <g  id="copper0">
     <circle stroke="black" cx="6.13543"  r="4.53543" fill="black" cy="6.13543" id="nonconn0" stroke-width="0"/>
    </g>
   </g>
  </g>
  <g partID="134860">
   <g transform="translate(-0.4664,-0.4768)">
    <g  id="copper0">
     <circle stroke="black" cx="6.13543"  r="4.53543" fill="black" cy="6.13543" id="nonconn0" stroke-width="0"/>
    </g>
   </g>
  </g>
  <g partID="134830">
   <g transform="translate(158.173,-0.57584)">
    <g  id="copper0">
     <circle stroke="black" cx="6.13543"  r="4.53543" fill="black" cy="6.13543" id="nonconn0" stroke-width="0"/>
    </g>
   </g>
  </g>
  <g partID="135350">
   <g transform="translate(121.434,76.1644)">
    <g transform="matrix(0,-1,1,0,0,0)">
     <g  id="copper0">
      <g  id="copper1">
       <!-- <rect width="55" x="10" y="15.5" fill="none" height="55" stroke="rgb(255, 191, 0)" stroke-width="20" />  -->
       <circle stroke="black" cx="2.7"  r="1.98" fill="none" cy="3.096" id="connector0pin" stroke-width="1.44"/>
       <circle stroke="black" cx="31.5"  r="1.98" fill="none" cy="3.096" id="connector1pin" stroke-width="1.44"/>
      </g>
     </g>
    </g>
   </g>
  </g>
  <g partID="157840">
   <g transform="translate(152.754,17.6644)">
    <g id="copper0">
     <rect y="3.24" height="4.32" stroke="black" width="4.32" x="5.616" fill="none" id="square" stroke-width="1.44"/>
     <circle stroke="black" cx="7.776" r="2.16" fill="none" cy="5.4" id="connector0pin" stroke-width="1.44"/>
     <circle stroke="black" cx="7.776" r="2.16" fill="none" cy="12.6" id="connector1pin" stroke-width="1.44"/>
     <circle stroke="black" cx="7.776" r="2.16" fill="none" cy="19.8" id="connector2pin" stroke-width="1.44"/>
    </g>
   </g>
  </g>
  <g partID="163910">
   <g transform="translate(141.954,46.4644)">
    <g id="copper0">
     <rect y="3.24" height="4.32" stroke="black" width="4.32" x="5.616" fill="none" id="square" stroke-width="1.44"/>
     <circle stroke="black" cx="7.776" r="2.16" fill="none" cy="5.4" id="connector0pin" stroke-width="1.44"/>
     <circle stroke="black" cx="7.776" r="2.16" fill="none" cy="12.6" id="connector1pin" stroke-width="1.44"/>
     <circle stroke="black" cx="7.776" r="2.16" fill="none" cy="19.8" id="connector2pin" stroke-width="1.44"/>
    </g>
   </g>
  </g>
  <g partID="165660">
   <g transform="translate(33.788,0.036324)">
    <g gorn="0.4.0"  id="copper0">
     <circle gorn="0.4.0.0" stroke="black" cx="76.3427"  r="1.62" fill="none" id="connector0pin" cy="116.628" stroke-width="0.504"/>
     <path gorn="0.4.0.1" stroke="none"  fill="black" id="path423" d="m80.0049,116.629a1.87105,1.87105,0,0,1,-1.87105,1.87108l-3.7421,0a1.87105,1.87105,0,0,1,-1.87105,-1.87108l0,0a1.87105,1.87105,0,0,1,1.87105,-1.87108l3.7421,0a1.87105,1.87105,0,0,1,1.87105,1.87108zm-3.79649,-1.14761a1.15148,1.15148,0,1,0,0,2.30296,1.15148,1.15148,0,1,0,0,-2.30296z" stroke-width="0.719635"/>
     <circle gorn="0.4.0.2" stroke="black" cx="76.3427"  r="1.62" fill="none" id="connector1pin" cy="109.428" stroke-width="0.504"/>
     <path gorn="0.4.0.3" stroke="none"  fill="black" id="path467" d="m80.0107,109.429a1.87105,1.87105,0,0,1,-1.87105,1.87108l-3.7421,0a1.87105,1.87105,0,0,1,-1.87105,-1.87108l0,0a1.87105,1.87105,0,0,1,1.87105,-1.87108l3.7421,0a1.87105,1.87105,0,0,1,1.87105,1.87108zm-3.79649,-1.14732a1.15142,1.15142,0,1,0,0,2.30266,1.15142,1.15142,0,1,0,0,-2.30266z" stroke-width="0.719635"/>
     <circle gorn="0.4.0.4" stroke="black" cx="76.3427"  r="1.62" fill="none" id="connector2pin" cy="102.228" stroke-width="0.504"/>
     <path gorn="0.4.0.5" stroke="none"  fill="black" id="path13574-4" d="m80.015,102.229a1.872,1.87105,0,0,1,-1.872,1.87108l-3.744,0a1.872,1.87105,0,0,1,-1.872,-1.87108l0,0a1.872,1.87105,0,0,1,1.872,-1.87108l3.744,0a1.872,1.87105,0,0,1,1.872,1.87108zm-3.79842,-1.14761a1.152,1.15142,0,1,0,0,2.30267,1.152,1.15142,0,1,0,0,-2.30267z" stroke-width="0.719635"/>
     <circle gorn="0.4.0.6" stroke="black" cx="76.3427"  r="1.62" fill="none" id="connector3pin" cy="95.0281" stroke-width="0.504"/>
     <path gorn="0.4.0.7" stroke="none"  fill="black" id="path461" d="m80.0107,95.0292a1.87105,1.87105,0,0,1,-1.87105,1.87108l-3.7421,0a1.87105,1.87105,0,0,1,-1.87105,-1.87108l0,0a1.87105,1.87105,0,0,1,1.87105,-1.87108l3.7421,0a1.87105,1.87105,0,0,1,1.87105,1.87108zm-3.79649,-1.14733a1.15142,1.15142,0,1,0,0,2.30267,1.15142,1.15142,0,1,0,0,-2.30267z" stroke-width="0.719635"/>
     <circle gorn="0.4.0.8" stroke="black" cx="76.3427"  r="1.62" fill="none" id="connector4pin" cy="87.8281" stroke-width="0.504"/>
     <path gorn="0.4.0.9" stroke="none"  fill="black" id="path459" d="m80.015,87.8292a1.872,1.87105,0,0,1,-1.872,1.87108l-3.744,0a1.872,1.87105,0,0,1,-1.872,-1.87108l0,0a1.872,1.87105,0,0,1,1.872,-1.87108l3.744,0a1.872,1.87105,0,0,1,1.872,1.87108zm-3.79842,-1.14732a1.15206,1.15148,0,1,0,0,2.30296,1.15206,1.15148,0,1,0,0,-2.30296z" stroke-width="0.719635"/>
     <circle gorn="0.4.0.10" stroke="black" cx="76.3427"  r="1.62" fill="none" id="connector5pin" cy="80.6281" stroke-width="0.504"/>
     <path gorn="0.4.0.11" stroke="none"  fill="black" id="path479" d="m80.0107,80.6292a1.87105,1.87105,0,0,1,-1.87105,1.87108l-3.7421,0a1.87105,1.87105,0,0,1,-1.87105,-1.87108l0,0a1.87105,1.87105,0,0,1,1.87105,-1.87108l3.7421,0a1.87105,1.87105,0,0,1,1.87105,1.87108zm-3.79649,-1.14732a1.15148,1.15148,0,1,0,0,2.30296,1.15148,1.15148,0,1,0,0,-2.30296z" stroke-width="0.719635"/>
     <circle gorn="0.4.0.12" stroke="black" cx="76.3427"  r="1.62" fill="none" id="connector6pin" cy="73.4281" stroke-width="0.504"/>
     <path gorn="0.4.0.13" stroke="none"  fill="black" id="path481" d="m80.0107,73.4292a1.87105,1.87105,0,0,1,-1.87105,1.87108l-3.7421,0a1.87105,1.87105,0,0,1,-1.87105,-1.87108l0,0a1.87105,1.87105,0,0,1,1.87105,-1.87108l3.7421,0a1.87105,1.87105,0,0,1,1.87105,1.87108zm-3.79649,-1.14732a1.15148,1.15148,0,1,0,0,2.30296,1.15148,1.15148,0,1,0,0,-2.30296z" stroke-width="0.719635"/>
     <circle gorn="0.4.0.14" stroke="black" cx="76.3427"  r="1.62" fill="none" id="connector7pin" cy="66.2281" stroke-width="0.504"/>
     <path gorn="0.4.0.15" stroke="none"  fill="black" id="path485" d="m80.015,66.229a1.872,1.87105,0,0,1,-1.872,1.87108l-3.744,0a1.872,1.87105,0,0,1,-1.87201,-1.87108l0,0a1.872,1.87105,0,0,1,1.87201,-1.87079l3.744,0a1.872,1.87105,0,0,1,1.872,1.87079zm-3.79843,-1.14733a1.15207,1.15149,0,1,0,0,2.30297,1.15207,1.15149,0,1,0,0,-2.30297z" stroke-width="0.719635"/>
     <circle gorn="0.4.0.16" stroke="black" cx="76.3427"  r="1.62" fill="none" id="connector8pin" cy="59.0281" stroke-width="0.504"/>
     <path gorn="0.4.0.17" stroke="none"  fill="black" id="path483" d="m80.0107,59.0293a1.87105,1.87105,0,0,1,-1.87105,1.87078l-3.7421,0a1.87105,1.87105,0,0,1,-1.87106,-1.87078l0,0a1.87105,1.87105,0,0,1,1.87106,-1.87108l3.7421,0a1.87105,1.87105,0,0,1,1.87105,1.87108zm-3.7965,-1.14761a1.15148,1.15148,0,1,0,0,2.30296,1.15148,1.15148,0,1,0,0,-2.30296z" stroke-width="0.719635"/>
     <circle gorn="0.4.0.18" stroke="black" cx="76.3427"  r="1.62" fill="none" id="connector9pin" cy="51.8281" stroke-width="0.504"/>
     <path gorn="0.4.0.19" stroke="none"  fill="black" id="path469" d="m80.0107,51.829a1.87105,1.87105,0,0,1,-1.87105,1.87108l-3.7421,0a1.87105,1.87105,0,0,1,-1.87106,-1.87108l0,0a1.87105,1.87105,0,0,1,1.87106,-1.87108l3.7421,0a1.87105,1.87105,0,0,1,1.87105,1.87108zm-3.7965,-1.14761a1.15148,1.15148,0,1,0,0,2.30296,1.15148,1.15148,0,1,0,0,-2.30296z" stroke-width="0.719635"/>
     <circle gorn="0.4.0.20" stroke="black" cx="76.3427"  r="1.62" fill="none" id="connector10pin" cy="44.6281" stroke-width="0.504"/>
     <path gorn="0.4.0.21" stroke="none"  fill="black" id="path457" d="m80.0107,44.629a1.87105,1.87105,0,0,1,-1.87105,1.87108l-3.7421,0a1.87105,1.87105,0,0,1,-1.87106,-1.87108l0,0a1.87105,1.87105,0,0,1,1.87106,-1.87108l3.7421,0a1.87105,1.87105,0,0,1,1.87105,1.87108zm-3.7965,-1.14761a1.15148,1.15148,0,1,0,0,2.30296,1.15148,1.15148,0,1,0,0,-2.30296z" stroke-width="0.719635"/>
     <circle gorn="0.4.0.22" stroke="black" cx="76.3427"  r="1.62" fill="none" id="connector11pin" cy="37.4281" stroke-width="0.504"/>
     <path gorn="0.4.0.23" stroke="none"  fill="black" id="path477" d="m80.015,37.429a1.872,1.87105,0,0,1,-1.872,1.87108l-3.744,0a1.872,1.87105,0,0,1,-1.87201,-1.87108l0,0a1.872,1.87105,0,0,1,1.87201,-1.87108l3.744,0a1.872,1.87105,0,0,1,1.872,1.87108zm-3.79843,-1.14732a1.152,1.15142,0,1,0,0,2.30237,1.152,1.15142,0,1,0,0,-2.30237z" stroke-width="0.719635"/>
     <circle gorn="0.4.0.24" stroke="black" cx="76.3427"  r="1.62" fill="none" id="connector12pin" cy="30.2281" stroke-width="0.504"/>
     <path gorn="0.4.0.25" stroke="none"  fill="black" id="path475" d="m80.0107,30.229a1.87105,1.87105,0,0,1,-1.87105,1.87108l-3.7421,0a1.87105,1.87105,0,0,1,-1.87106,-1.87108l0,0a1.87105,1.87105,0,0,1,1.87106,-1.87108l3.7421,0a1.87105,1.87105,0,0,1,1.87105,1.87108zm-3.7965,-1.14732a1.15142,1.15142,0,1,0,0,2.30267,1.15142,1.15142,0,1,0,0,-2.30267z" stroke-width="0.719635"/>
     <circle gorn="0.4.0.26" stroke="black" cx="76.3427"  r="1.62" fill="none" id="connector13pin" cy="23.0281" stroke-width="0.504"/>
     <path gorn="0.4.0.27" stroke="none"  fill="black" id="path473" d="m80.015,23.029a1.872,1.87105,0,0,1,-1.872,1.87108l-3.744,0a1.872,1.87105,0,0,1,-1.87201,-1.87108l0,0a1.872,1.87105,0,0,1,1.87201,-1.87108l3.744,0a1.872,1.87105,0,0,1,1.872,1.87108zm-3.79843,-1.14732a1.152,1.15142,0,1,0,0,2.30267,1.152,1.15142,0,1,0,0,-2.30267z" stroke-width="0.719635"/>
     <circle gorn="0.4.0.28" stroke="black" cx="76.3427"  r="1.62" fill="none" id="connector14pin" cy="15.8281" stroke-width="0.504"/>
     <path gorn="0.4.0.29" stroke="none"  fill="black" id="path471" d="m80.0107,15.8291a1.87105,1.87105,0,0,1,-1.87105,1.87108l-3.7421,0a1.87105,1.87105,0,0,1,-1.87106,-1.87108l0,0a1.87105,1.87105,0,0,1,1.87106,-1.87108l3.7421,0a1.87105,1.87105,0,0,1,1.87105,1.87108zm-3.7965,-1.14732a1.15142,1.15142,0,1,0,0,2.30267,1.15142,1.15142,0,1,0,0,-2.30267z" stroke-width="0.719635"/>
     <circle gorn="0.4.0.30" stroke="black" cx="4.34173"  r="1.62" fill="none" id="connector15pin" cy="15.8281" stroke-width="0.504"/>
     <path gorn="0.4.0.31" stroke="none"  fill="black" id="path425" d="M8.18712,15.8291A1.87105,1.87105,0,0,1,6.31608,17.7001L2.57398,17.7001A1.87105,1.87105,0,0,1,0.702927,15.8291l0,0A1.87105,1.87105,0,0,1,2.57398,13.9579l3.7421,0a1.87105,1.87105,0,0,1,1.87105,1.87108zM4.44729,14.6823a1.15142,1.15142,0,1,0,0,2.30267,1.15142,1.15142,0,1,0,0,-2.30267z" stroke-width="0.719635"/>
     <circle gorn="0.4.0.32" stroke="black" cx="4.34173"  r="1.62" fill="none" id="connector16pin" cy="23.0281" stroke-width="0.504"/>
     <path gorn="0.4.0.33" stroke="none"  fill="black" id="path431" d="M8.18712,23.029A1.87105,1.87105,0,0,1,6.31608,24.9001L2.57398,24.9001A1.87105,1.87105,0,0,1,0.702927,23.029l0,0A1.87105,1.87105,0,0,1,2.57398,21.1579l3.7421,0a1.87105,1.87105,0,0,1,1.87105,1.87108zM4.44729,21.8817a1.15142,1.15142,0,1,0,0,2.30267,1.15142,1.15142,0,1,0,0,-2.30267z" stroke-width="0.719635"/>
     <circle gorn="0.4.0.34" stroke="black" cx="4.34173"  r="1.62" fill="none" id="connector17pin" cy="30.2281" stroke-width="0.504"/>
     <path gorn="0.4.0.35" stroke="none"  fill="black" id="path433" d="M8.18712,30.229A1.87105,1.87105,0,0,1,6.31608,32.1001L2.57398,32.1001A1.87105,1.87105,0,0,1,0.702927,30.229l0,0A1.87105,1.87105,0,0,1,2.57398,28.3579l3.7421,0a1.87105,1.87105,0,0,1,1.87105,1.87108zM4.44729,29.0817a1.15142,1.15142,0,1,0,0,2.30267,1.15142,1.15142,0,1,0,0,-2.30267z" stroke-width="0.719635"/>
     <circle gorn="0.4.0.36" stroke="black" cx="4.34173"  r="1.62" fill="none" id="connector18pin" cy="37.4281" stroke-width="0.504"/>
     <path gorn="0.4.0.37" stroke="none"  fill="black" id="path435" d="M8.18712,37.429A1.87105,1.87105,0,0,1,6.31608,39.3001L2.57398,39.3001A1.87105,1.87105,0,0,1,0.702927,37.429l0,0A1.87105,1.87105,0,0,1,2.57398,35.5579l3.7421,0a1.87105,1.87105,0,0,1,1.87105,1.87108zM4.44729,36.2817a1.15142,1.15142,0,1,0,0,2.30237,1.15142,1.15142,0,1,0,0,-2.30237z" stroke-width="0.719635"/>
     <circle gorn="0.4.0.38" stroke="black" cx="4.34173"  r="1.62" fill="none" id="connector19pin" cy="44.6281" stroke-width="0.504"/>
     <path gorn="0.4.0.39" stroke="none"  fill="black" id="path437" d="M8.11339,44.629A1.87105,1.87105,0,0,1,6.24231,46.5001L2.50021,46.5001A1.87105,1.87105,0,0,1,0.629162,44.629l0,0A1.87105,1.87105,0,0,1,2.50021,42.7579l3.7421,0a1.87105,1.87105,0,0,1,1.87105,1.87108zM4.37353,43.4814a1.15148,1.15148,0,1,0,0,2.30296,1.15148,1.15148,0,1,0,0,-2.30296z" stroke-width="0.719635"/>
     <circle gorn="0.4.0.40" stroke="black" cx="4.34173"  r="1.62" fill="none" id="connector20pin" cy="51.8281" stroke-width="0.504"/>
     <path gorn="0.4.0.41" stroke="none"  fill="black" id="path439" d="M8.18712,51.829A1.87105,1.87105,0,0,1,6.31608,53.7001L2.57398,53.7001A1.87105,1.87105,0,0,1,0.702927,51.829l0,0A1.87105,1.87105,0,0,1,2.57398,49.9579l3.7421,0a1.87105,1.87105,0,0,1,1.87105,1.87108zM4.44729,50.6814a1.15148,1.15148,0,1,0,0,2.30296,1.15148,1.15148,0,1,0,0,-2.30296z" stroke-width="0.719635"/>
     <circle gorn="0.4.0.42" stroke="black" cx="4.34173"  r="1.62" fill="none" id="connector21pin" cy="59.0281" stroke-width="0.504"/>
     <path gorn="0.4.0.43" stroke="none"  fill="black" id="path441" d="M8.18712,59.0293A1.87105,1.87105,0,0,1,6.31608,60.9001L2.57398,60.9001A1.87105,1.87105,0,0,1,0.702927,59.0293l0,0A1.87105,1.87105,0,0,1,2.57398,57.1583l3.7421,0a1.87105,1.87105,0,0,1,1.87105,1.87108zM4.44729,57.8817a1.15148,1.15148,0,1,0,0,2.30296,1.15148,1.15148,0,1,0,0,-2.30296z" stroke-width="0.719635"/>
     <circle gorn="0.4.0.44" stroke="black" cx="4.34173"  r="1.62" fill="none" id="connector22pin" cy="66.2281" stroke-width="0.504"/>
     <path gorn="0.4.0.45" stroke="none"  fill="black" id="path443" d="m8.18712,66.229a1.87105,1.87105,0,0,1,-1.87105,1.87108L2.57398,68.1001A1.87105,1.87105,0,0,1,0.702927,66.229l0,0A1.87105,1.87105,0,0,1,2.57398,64.3583l3.7421,0a1.87105,1.87105,0,0,1,1.87105,1.87079zM4.44729,65.0817a1.15149,1.15149,0,1,0,0,2.30297,1.15149,1.15149,0,1,0,0,-2.30297z" stroke-width="0.719635"/>
     <circle gorn="0.4.0.46" stroke="black" cx="4.34173"  r="1.62" fill="none" id="connector23pin" cy="73.4281" stroke-width="0.504"/>
     <path gorn="0.4.0.47" stroke="none"  fill="black" id="path445" d="m8.18683,73.4292a1.87105,1.87105,0,0,1,-1.87105,1.87108L2.5737,75.3005A1.87105,1.87105,0,0,1,0.702644,73.4292l0,0A1.87105,1.87105,0,0,1,2.5737,71.5579l3.7421,0a1.87105,1.87105,0,0,1,1.87105,1.87108zm-3.73984,-1.14672a1.15146,1.15146,0,1,0,0,2.30266,1.15146,1.15146,0,1,0,0,-2.30266z" stroke-width="0.719635"/>
     <circle gorn="0.4.0.48" stroke="black" cx="4.34173"  r="1.62" fill="none" id="connector24pin" cy="80.6281" stroke-width="0.504"/>
     <path gorn="0.4.0.49" stroke="none"  fill="black" id="path447" d="m8.18683,80.6292a1.87105,1.87105,0,0,1,-1.87105,1.87108L2.5737,82.5005A1.87105,1.87105,0,0,1,0.702644,80.6292l0,0a1.87105,1.87105,0,0,1,1.87105,-1.87108l3.7421,0a1.87105,1.87105,0,0,1,1.87105,1.87108zm-3.73984,-1.14732a1.15148,1.15148,0,1,0,0,2.30296,1.15148,1.15148,0,1,0,0,-2.30296z" stroke-width="0.719635"/>
     <circle gorn="0.4.0.50" stroke="black" cx="4.34173"  r="1.62" fill="none" id="connector25pin" cy="87.8281" stroke-width="0.504"/>
     <path gorn="0.4.0.51" stroke="none"  fill="black" id="path449" d="m8.18683,87.8292a1.87105,1.87105,0,0,1,-1.87105,1.87108L2.5737,89.7004A1.87105,1.87105,0,0,1,0.702644,87.8292l0,0a1.87105,1.87105,0,0,1,1.87105,-1.87108l3.7421,0a1.87105,1.87105,0,0,1,1.87105,1.87108zm-3.73984,-1.14732a1.15148,1.15148,0,1,0,0,2.30296,1.15148,1.15148,0,1,0,0,-2.30296z" stroke-width="0.719635"/>
     <circle gorn="0.4.0.52" stroke="black" cx="4.34173"  r="1.62" fill="none" id="connector26pin" cy="95.0281" stroke-width="0.504"/>
     <path gorn="0.4.0.53" stroke="none"  fill="black" id="path451" d="m8.18683,95.0292a1.87105,1.87105,0,0,1,-1.87105,1.87108L2.5737,96.9004A1.87105,1.87105,0,0,1,0.702644,95.0292l0,0a1.87105,1.87105,0,0,1,1.87105,-1.87108l3.7421,0a1.87105,1.87105,0,0,1,1.87105,1.87108zm-3.73984,-1.14733a1.15142,1.15142,0,1,0,0,2.30267,1.15142,1.15142,0,1,0,0,-2.30267z" stroke-width="0.719635"/>
     <circle gorn="0.4.0.54" stroke="black" cx="4.34173"  r="1.62" fill="none" id="connector27pin" cy="102.228" stroke-width="0.504"/>
     <path gorn="0.4.0.55" stroke="none"  fill="black" id="path455" d="m8.18683,102.229a1.87105,1.87105,0,0,1,-1.87105,1.87108L2.5737,104.1A1.87105,1.87105,0,0,1,0.702644,102.229l0,0a1.87105,1.87105,0,0,1,1.87105,-1.87108l3.7421,0a1.87105,1.87105,0,0,1,1.87105,1.87108zm-3.73984,-1.14761a1.15142,1.15142,0,1,0,0,2.30267,1.15142,1.15142,0,1,0,0,-2.30267z" stroke-width="0.719635"/>
     <circle gorn="0.4.0.56" stroke="black" cx="4.34193"  r="1.62" fill="none" id="connector28pin" cy="109.428" stroke-width="0.504"/>
     <path gorn="0.4.0.57" stroke="none"  fill="black" id="path453" d="m8.18683,109.429a1.87105,1.87105,0,0,1,-1.87105,1.87108L2.5737,111.3A1.87105,1.87105,0,0,1,0.702644,109.429l0,0a1.87105,1.87105,0,0,1,1.87105,-1.87108l3.7421,0a1.87105,1.87105,0,0,1,1.87105,1.87108zm-3.73984,-1.14732a1.15142,1.15142,0,1,0,0,2.30266,1.15142,1.15142,0,1,0,0,-2.30266z" stroke-width="0.719635"/>
     <circle gorn="0.4.0.58" stroke="black" cx="4.34173"  r="1.62" fill="none" id="connector29pin" cy="116.628" stroke-width="0.504"/>
     <path gorn="0.4.0.59" stroke="none"  fill="black" id="path463" d="m8.18683,116.629a1.87105,1.87105,0,0,1,-1.87105,1.87108L2.5737,118.5A1.87105,1.87105,0,0,1,0.702644,116.629l0,0a1.87105,1.87105,0,0,1,1.87105,-1.87108l3.7421,0a1.87105,1.87105,0,0,1,1.87105,1.87108zm-3.73984,-1.14761a1.15148,1.15148,0,1,0,0,2.30296,1.15148,1.15148,0,1,0,0,-2.30296z" stroke-width="0.719635"/>
    </g>
   </g>
  </g>
  <g partID="166330">
   <g transform="translate(4.28976,32.4244)">
    <g  id="copper0">
     <circle stroke="black" cx="5.04"  r="2.088" fill="none" cy="5.04" id="connector0pin" stroke-width="1.44"/>
     <circle stroke="black" cx="5.04"  r="2.088" fill="none" cy="12.24" id="connector1pin" stroke-width="1.44"/>
     <circle stroke="black" cx="5.04"  r="2.088" fill="none" cy="19.44" id="connector2pin" stroke-width="1.44"/>
     <circle stroke="black" cx="5.04"  r="2.088" fill="none" cy="26.64" id="connector3pin" stroke-width="1.44"/>
     <circle stroke="black" cx="5.04"  r="2.088" fill="none" cy="33.84" id="connector4pin" stroke-width="1.44"/>
    </g>
   </g>
  </g>
  <g partID="59600">
   <g transform="translate(133.89,3.6244)">
    <g  id="copper0">
     <circle stroke="black" cx="5.04"  r="2.088" fill="none" cy="5.04" id="connector0pin" stroke-width="1.44"/>
     <circle stroke="black" cx="5.04"  r="2.088" fill="none" cy="12.24" id="connector1pin" stroke-width="1.44"/>
     <circle stroke="black" cx="5.04"  r="2.088" fill="none" cy="19.44" id="connector2pin" stroke-width="1.44"/>
     <circle stroke="black" cx="5.04"  r="2.088" fill="none" cy="26.64" id="connector3pin" stroke-width="1.44"/>
    </g>
   </g>
  </g>
  <g partID="116810">
   <g transform="translate(165.57,90.0244)">
    <g transform="matrix(0,1,-1,0,0,0)">
     <g  id="copper0">
      <circle stroke="black" cx="5.04"  r="2.088" fill="none" cy="5.04" id="connector0pin" stroke-width="1.44"/>
      <circle stroke="black" cx="5.04"  r="2.088" fill="none" cy="12.24" id="connector1pin" stroke-width="1.44"/>
      <circle stroke="black" cx="5.04"  r="2.088" fill="none" cy="19.44" id="connector2pin" stroke-width="1.44"/>
      <circle stroke="black" cx="5.04"  r="2.088" fill="none" cy="26.64" id="connector3pin" stroke-width="1.44"/>
      <circle stroke="black" cx="5.04"  r="2.088" fill="none" cy="33.84" id="connector4pin" stroke-width="1.44"/>
      <circle stroke="black" cx="5.04"  r="2.088" fill="none" cy="41.04" id="connector5pin" stroke-width="1.44"/>
     </g>
    </g>
   </g>
  </g>
  <g partID="63600">
   <g transform="translate(161.555,144.477)">
    <g transform="matrix(-1,0,0,-1,0,0)">
     <g  id="copper0">
      <circle connectorname="-" stroke="black" cx="7.79981"  r="1.8978" fill="none" id="connector1pad" cy="17.0124" stroke-width="1.24441"/>
      <circle connectorname="+" stroke="black" cx="26.225"  r="1.8978" fill="none" id="connector0pad" cy="17.0124" stroke-width="1.24441"/>
     </g>
    </g>
   </g>
  </g>
  <g partID="125530">
   <line stroke-linecap="round" stroke="black" y1="91.5978" y2="91.5059" x1="16.5298" x2="11.5694" stroke-width="1.728"/>
  </g>
  <g partID="125470">
   <line stroke-linecap="round" stroke="black" y1="73.5659" y2="91.5978" x1="16.6681" x2="16.5298" stroke-width="1.728"/>
  </g>
  <g partID="125480">
   <line stroke-linecap="round" stroke="black" y1="73.4747" y2="73.5659" x1="35.9618" x2="16.6681" stroke-width="1.728"/>
  </g>
  <g partID="126840">
   <line stroke-linecap="round" stroke="black" y1="116.606" y2="116.66" x1="9.36664" x2="35.9618" stroke-width="1.728"/>
  </g>
  <g partID="126850">
   <line stroke-linecap="round" stroke="black" y1="117.146" y2="116.606" x1="9.35948" x2="9.36664" stroke-width="1.728"/>
  </g>
  <g partID="150800">
   <line stroke-linecap="round" stroke="black" y1="116.664" y2="116.664" x1="146.13" x2="138.93" stroke-width="1.728"/>
  </g>
  <g partID="149530">
   <line stroke-linecap="round" stroke="black" y1="116.664" y2="97.2324" x1="138.93" x2="138.93" stroke-width="1.728"/>
  </g>
  <g partID="128490">
   <line stroke-linecap="round" stroke="black" y1="134.664" y2="116.664" x1="146.13" x2="146.13" stroke-width="1.728"/>
  </g>
  <g partID="128600">
   <line stroke-linecap="round" stroke="black" y1="80.6644" y2="134.664" x1="52.5298" x2="52.5298" stroke-width="1.728"/>
  </g>
  <g partID="128550">
   <line stroke-linecap="round" stroke="black" y1="134.664" y2="134.664" x1="52.5298" x2="146.13" stroke-width="1.728"/>
  </g>
  <g partID="128500">
   <line stroke-linecap="round" stroke="black" y1="80.6644" y2="80.6644" x1="40.2978" x2="52.5298" stroke-width="1.728"/>
  </g>
  <g partID="155990">
   <line stroke-linecap="round" stroke="black" y1="84.3978" y2="84.3978" x1="121.063" x2="153.33" stroke-width="1.728"/>
  </g>
  <g partID="155940">
   <line stroke-linecap="round" stroke="black" y1="77.1978" y2="84.3978" x1="121.063" x2="121.063" stroke-width="1.728"/>
  </g>
  <g partID="154800">
   <line stroke-linecap="round" stroke="black" y1="73.4644" y2="77.1977" x1="117.33" x2="121.063" stroke-width="1.728"/>
  </g>
  <g partID="113480">
   <line stroke-linecap="round" stroke="black" y1="73.4644" y2="73.4644" x1="112.299" x2="117.33" stroke-width="1.728"/>
  </g>
  <g partID="113470">
   <line stroke-linecap="round" stroke="black" y1="84.3978" y2="92.8964" x1="153.33" x2="153.33" stroke-width="1.728"/>
  </g>
  <g partID="155890">
   <line stroke-linecap="round" stroke="black" y1="87.8644" y2="87.8644" x1="117.33" x2="146.13" stroke-width="1.728"/>
  </g>
  <g partID="155840">
   <line stroke-linecap="round" stroke="black" y1="80.6644" y2="87.8644" x1="117.33" x2="117.33" stroke-width="1.728"/>
  </g>
  <g partID="113560">
   <line stroke-linecap="round" stroke="black" y1="80.6644" y2="80.6644" x1="112.299" x2="117.33" stroke-width="1.728"/>
  </g>
  <g partID="113550">
   <line stroke-linecap="round" stroke="black" y1="87.8644" y2="92.8964" x1="146.13" x2="146.13" stroke-width="1.728"/>
  </g>
  <g partID="148210">
   <line stroke-linecap="round" stroke="black" y1="127.544" y2="127.489" x1="160.53" x2="155.83" stroke-width="1.728"/>
  </g>
  <g partID="148220">
   <line stroke-linecap="round" stroke="black" y1="97.2324" y2="127.544" x1="160.53" x2="160.53" stroke-width="1.728"/>
  </g>
  <g partID="149400">
   <line stroke-linecap="round" stroke="black" y1="23.0644" y2="23.0644" x1="131.73" x2="136.762" stroke-width="1.728"/>
  </g>
  <g partID="149350">
   <line stroke-linecap="round" stroke="black" y1="12.2644" y2="23.0644" x1="131.73" x2="131.73" stroke-width="1.728"/>
  </g>
  <g partID="149300">
   <line stroke-linecap="round" stroke="black" y1="12.2644" y2="12.2644" x1="95.7298" x2="131.73" stroke-width="1.728"/>
  </g>
  <g partID="149240">
   <line stroke-linecap="round" stroke="black" y1="44.6644" y2="12.2644" x1="95.7298" x2="95.7298" stroke-width="1.728"/>
  </g>
  <g partID="149250">
   <line stroke-linecap="round" stroke="black" y1="44.6644" y2="44.6644" x1="107.963" x2="95.7298" stroke-width="1.728"/>
  </g>
  <g partID="150750">
   <line stroke-linecap="round" stroke="black" y1="127.544" y2="127.469" x1="95.7298" x2="133.254" stroke-width="1.728"/>
  </g>
  <g partID="150690">
   <line stroke-linecap="round" stroke="black" y1="59.0644" y2="127.544" x1="95.9964" x2="95.7298" stroke-width="1.728"/>
  </g>
  <g partID="150700">
   <line stroke-linecap="round" stroke="black" y1="59.0644" y2="59.0644" x1="107.963" x2="95.9964" stroke-width="1.728"/>
  </g>
  <g partID="155570">
   <line stroke-linecap="round" stroke="black" y1="15.8644" y2="42.6044" x1="124.53" x2="124.53" stroke-width="1.728"/>
  </g>
  <g partID="155580">
   <line stroke-linecap="round" stroke="black" y1="15.8644" y2="15.8644" x1="112.299" x2="124.53" stroke-width="1.728"/>
  </g>
  <g partID="163110">
   <line stroke-linecap="round" stroke="black" y1="12.2644" y2="20.8244" x1="160.53" x2="160.53" stroke-width="1.728"/>
  </g>
  <g partID="162920">
   <line stroke-linecap="round" stroke="black" y1="8.6644" y2="12.2644" x1="156.93" x2="160.53" stroke-width="1.728"/>
  </g>
  <g partID="162730">
   <line stroke-linecap="round" stroke="black" y1="8.6644" y2="8.6644" x1="141.098" x2="156.93" stroke-width="1.728"/>
  </g>
  <g partID="164060">
   <line stroke-linecap="round" stroke="black" y1="73.4644" y2="73.4644" x1="149.73" x2="126.59" stroke-width="1.728"/>
  </g>
  <g partID="163930">
   <line stroke-linecap="round" stroke="black" y1="68.5044" y2="73.4644" x1="149.73" x2="149.73" stroke-width="1.728"/>
  </g>
  <g partID="164370">
   <line stroke-linecap="round" stroke="black" y1="59.0644" y2="44.6644" x1="135.33" x2="135.33" stroke-width="1.728"/>
  </g>
  <g partID="164280">
   <line stroke-linecap="round" stroke="black" y1="44.6644" y2="44.6644" x1="135.33" x2="126.59" stroke-width="1.728"/>
  </g>
  <g partID="164190">
   <line stroke-linecap="round" stroke="black" y1="59.0644" y2="59.0644" x1="147.49" x2="135.33" stroke-width="1.728"/>
  </g>
  <g partID="164690">
   <line stroke-linecap="round" stroke="black" y1="23.0644" y2="49.6244" x1="149.73" x2="149.73" stroke-width="1.728"/>
  </g>
  <g partID="164460">
   <line stroke-linecap="round" stroke="black" y1="23.0644" y2="23.0644" x1="158.29" x2="149.73" stroke-width="1.728"/>
  </g>
  <g partID="164940">
   <line stroke-linecap="round" stroke="black" y1="51.8644" y2="51.8644" x1="160.53" x2="151.97" stroke-width="1.728"/>
  </g>
  <g partID="164950">
   <line stroke-linecap="round" stroke="black" y1="92.8964" y2="51.8644" x1="160.53" x2="160.53" stroke-width="1.728"/>
  </g>
  <g partID="168260">
   <line stroke-linecap="round" stroke="black" y1="1.39138" y2="1.39138" x1="23.6567" x2="138.941" stroke-width="1.728"/>
  </g>
  <g partID="167760">
   <line stroke-linecap="round" stroke="black" y1="44.6503" y2="44.5712" x1="11.4977" x2="23.6567" stroke-width="1.728"/>
  </g>
  <g partID="168510">
   <line stroke-linecap="round" stroke="black" y1="44.5712" y2="1.39138" x1="23.6567" x2="23.6567" stroke-width="1.728"/>
  </g>
  <g partID="168010">
   <line stroke-linecap="round" stroke="black" y1="1.39138" y2="6.49641" x1="138.941" x2="138.933" stroke-width="1.728"/>
  </g>
 </g>
</svg>
