<?xml version='1.0' encoding='UTF-8' standalone='no'?>
<!-- Created with Fritzing (http://www.fritzing.org/) -->
<svg xmlns="http://www.w3.org/2000/svg" version="1.2" baseProfile="tiny" xmlns:svg="http://www.w3.org/2000/svg" width="2.36035in" x="0in" viewBox="0 0 169.946 147.506" y="0in"  height="2.04869in">
 <g transform="matrix(-1, 0, 0, 1, 169.946, 0)">
  <g partID="57660">
   <g  id="board">
    <rect stroke-width="0.5" fill-opacity="0.5" width="169.37" stroke="black" x="0.288" y="0.288"  id="boardoutline" fill="none" height="146.93"/>
   </g>
  </g>
  <g partID="124760">
   <g transform="translate(-0.1072,78.792)">
    <g id="copper0">
     <rect stroke-width="2.16" width="4.32" stroke="black" x="5.616" y="3.24" id="square" height="4.32" fill="black"/>
     <circle cy="5.4" stroke-width="2.16" r="2.16" stroke="black" fill="black" id="connector0pin" cx="7.776"/>
     <circle cy="12.6" stroke-width="2.16" r="2.16" stroke="black" fill="black" id="connector1pin" cx="7.776"/>
    </g>
   </g>
  </g>
  <g partID="126030">
   <g transform="translate(-0.1072,102.631)">
    <g id="copper0">
     <rect stroke-width="2.16" width="4.32" stroke="black" x="5.616" y="4.60063" id="square" height="4.32" fill="black"/>
     <circle cy="6.76063" stroke-width="2.16" r="2.16" stroke="black" fill="black" id="connector0pin" cx="7.776"/>
     <circle cy="16.6819" stroke-width="2.16" r="2.16" stroke="black" fill="black" id="connector1pin" cx="7.776"/>
    </g>
   </g>
  </g>
  <g partID="134710">
   <g transform="translate(101.132,137.11)">
    <g  id="copper0">
     <circle cy="4.71811" stroke-width="0.72" r="3.11811" stroke="black"  fill="black" id="nonconn0" cx="4.71811"/>
    </g>
   </g>
  </g>
  <g partID="134740">
   <g transform="translate(33.3506,137.134)">
    <g  id="copper0">
     <circle cy="4.71811" stroke-width="0.72" r="3.11811" stroke="black"  fill="black" id="nonconn0" cx="4.71811"/>
    </g>
   </g>
  </g>
  <g partID="134770">
   <g transform="translate(101.108,2.49208)">
    <g  id="copper0">
     <circle cy="4.71811" stroke-width="0.72" r="3.11811" stroke="black"  fill="black" id="nonconn0" cx="4.71811"/>
    </g>
   </g>
  </g>
  <g partID="134800">
   <g transform="translate(33.3022,2.49208)">
    <g  id="copper0">
     <circle cy="4.71811" stroke-width="0.72" r="3.11811" stroke="black"  fill="black" id="nonconn0" cx="4.71811"/>
    </g>
   </g>
  </g>
  <g partID="134900">
   <g transform="translate(-0.7144,135.843)">
    <g  id="copper0">
     <circle cy="6.13543" stroke-width="0.72" r="4.53543" stroke="black"  fill="black" id="nonconn0" cx="6.13543"/>
    </g>
   </g>
  </g>
  <g partID="134880">
   <g transform="translate(157.994,135.729)">
    <g  id="copper0">
     <circle cy="6.13543" stroke-width="0.72" r="4.53543" stroke="black"  fill="black" id="nonconn0" cx="6.13543"/>
    </g>
   </g>
  </g>
  <g partID="134860">
   <g transform="translate(-0.4664,-0.4768)">
    <g  id="copper0">
     <circle cy="6.13543" stroke-width="0.72" r="4.53543" stroke="black"  fill="black" id="nonconn0" cx="6.13543"/>
    </g>
   </g>
  </g>
  <g partID="134830">
   <g transform="translate(158.173,-0.57584)">
    <g  id="copper0">
     <circle cy="6.13543" stroke-width="0.72" r="4.53543" stroke="black"  fill="black" id="nonconn0" cx="6.13543"/>
    </g>
   </g>
  </g>
  <g partID="135350">
   <g transform="translate(119.773,76.092)">
    <g transform="matrix(0,-1,1,0,0,0)">
     <g  id="copper0">
      <g  id="copper1">
       <!-- <rect width="55" x="10" y="15.5" fill="none" height="55" stroke="rgb(255, 191, 0)" stroke-width="20" />  -->
       <circle cy="3.096" stroke-width="2.16" r="1.98" stroke="black"  fill="black" id="connector0pin" cx="2.7"/>
       <circle cy="3.096" stroke-width="2.16" r="1.98" stroke="black"  fill="black" id="connector1pin" cx="31.5"/>
      </g>
     </g>
    </g>
   </g>
  </g>
  <g partID="157840">
   <g transform="translate(151.093,17.592)">
    <g id="copper0">
     <rect stroke-width="2.16" width="4.32" stroke="black" x="5.616" y="3.24" id="square" height="4.32" fill="black"/>
     <circle cy="5.4" stroke-width="2.16" r="2.16" stroke="black" fill="black" id="connector0pin" cx="7.776"/>
     <circle cy="12.6" stroke-width="2.16" r="2.16" stroke="black" fill="black" id="connector1pin" cx="7.776"/>
     <circle cy="19.8" stroke-width="2.16" r="2.16" stroke="black" fill="black" id="connector2pin" cx="7.776"/>
    </g>
   </g>
  </g>
  <g partID="163910">
   <g transform="translate(140.293,46.392)">
    <g id="copper0">
     <rect stroke-width="2.16" width="4.32" stroke="black" x="5.616" y="3.24" id="square" height="4.32" fill="black"/>
     <circle cy="5.4" stroke-width="2.16" r="2.16" stroke="black" fill="black" id="connector0pin" cx="7.776"/>
     <circle cy="12.6" stroke-width="2.16" r="2.16" stroke="black" fill="black" id="connector1pin" cx="7.776"/>
     <circle cy="19.8" stroke-width="2.16" r="2.16" stroke="black" fill="black" id="connector2pin" cx="7.776"/>
    </g>
   </g>
  </g>
  <g partID="165660">
   <g transform="translate(32.127,-0.03608)">
    <g gorn="0.4.0"  id="copper0">
     <circle cy="116.628" stroke-width="1.224" r="1.62" gorn="0.4.0.0" stroke="black"  id="connector0pin" fill="black" cx="76.3427"/>
     <path stroke-width="1.43963" gorn="0.4.0.1" d="m80.0049,116.629a1.87105,1.87105,0,0,1,-1.87105,1.87108l-3.7421,0a1.87105,1.87105,0,0,1,-1.87105,-1.87108l0,0a1.87105,1.87105,0,0,1,1.87105,-1.87108l3.7421,0a1.87105,1.87105,0,0,1,1.87105,1.87108zm-3.79649,-1.14761a1.15148,1.15148,0,1,0,0,2.30296,1.15148,1.15148,0,1,0,0,-2.30296z" stroke="black"  id="path423" fill="black"/>
     <circle cy="109.428" stroke-width="1.224" r="1.62" gorn="0.4.0.2" stroke="black"  id="connector1pin" fill="black" cx="76.3427"/>
     <path stroke-width="1.43963" gorn="0.4.0.3" d="m80.0107,109.429a1.87105,1.87105,0,0,1,-1.87105,1.87108l-3.7421,0a1.87105,1.87105,0,0,1,-1.87105,-1.87108l0,0a1.87105,1.87105,0,0,1,1.87105,-1.87108l3.7421,0a1.87105,1.87105,0,0,1,1.87105,1.87108zm-3.79649,-1.14732a1.15142,1.15142,0,1,0,0,2.30266,1.15142,1.15142,0,1,0,0,-2.30266z" stroke="black"  id="path467" fill="black"/>
     <circle cy="102.228" stroke-width="1.224" r="1.62" gorn="0.4.0.4" stroke="black"  id="connector2pin" fill="black" cx="76.3427"/>
     <path stroke-width="1.43963" gorn="0.4.0.5" d="m80.015,102.229a1.872,1.87105,0,0,1,-1.872,1.87108l-3.744,0a1.872,1.87105,0,0,1,-1.872,-1.87108l0,0a1.872,1.87105,0,0,1,1.872,-1.87108l3.744,0a1.872,1.87105,0,0,1,1.872,1.87108zm-3.79842,-1.14761a1.152,1.15142,0,1,0,0,2.30267,1.152,1.15142,0,1,0,0,-2.30267z" stroke="black"  id="path13574-4" fill="black"/>
     <circle cy="95.0281" stroke-width="1.224" r="1.62" gorn="0.4.0.6" stroke="black"  id="connector3pin" fill="black" cx="76.3427"/>
     <path stroke-width="1.43963" gorn="0.4.0.7" d="m80.0107,95.0292a1.87105,1.87105,0,0,1,-1.87105,1.87108l-3.7421,0a1.87105,1.87105,0,0,1,-1.87105,-1.87108l0,0a1.87105,1.87105,0,0,1,1.87105,-1.87108l3.7421,0a1.87105,1.87105,0,0,1,1.87105,1.87108zm-3.79649,-1.14733a1.15142,1.15142,0,1,0,0,2.30267,1.15142,1.15142,0,1,0,0,-2.30267z" stroke="black"  id="path461" fill="black"/>
     <circle cy="87.8281" stroke-width="1.224" r="1.62" gorn="0.4.0.8" stroke="black"  id="connector4pin" fill="black" cx="76.3427"/>
     <path stroke-width="1.43963" gorn="0.4.0.9" d="m80.015,87.8292a1.872,1.87105,0,0,1,-1.872,1.87108l-3.744,0a1.872,1.87105,0,0,1,-1.872,-1.87108l0,0a1.872,1.87105,0,0,1,1.872,-1.87108l3.744,0a1.872,1.87105,0,0,1,1.872,1.87108zm-3.79842,-1.14732a1.15206,1.15148,0,1,0,0,2.30296,1.15206,1.15148,0,1,0,0,-2.30296z" stroke="black"  id="path459" fill="black"/>
     <circle cy="80.6281" stroke-width="1.224" r="1.62" gorn="0.4.0.10" stroke="black"  id="connector5pin" fill="black" cx="76.3427"/>
     <path stroke-width="1.43963" gorn="0.4.0.11" d="m80.0107,80.6292a1.87105,1.87105,0,0,1,-1.87105,1.87108l-3.7421,0a1.87105,1.87105,0,0,1,-1.87105,-1.87108l0,0a1.87105,1.87105,0,0,1,1.87105,-1.87108l3.7421,0a1.87105,1.87105,0,0,1,1.87105,1.87108zm-3.79649,-1.14732a1.15148,1.15148,0,1,0,0,2.30296,1.15148,1.15148,0,1,0,0,-2.30296z" stroke="black"  id="path479" fill="black"/>
     <circle cy="73.4281" stroke-width="1.224" r="1.62" gorn="0.4.0.12" stroke="black"  id="connector6pin" fill="black" cx="76.3427"/>
     <path stroke-width="1.43963" gorn="0.4.0.13" d="m80.0107,73.4292a1.87105,1.87105,0,0,1,-1.87105,1.87108l-3.7421,0a1.87105,1.87105,0,0,1,-1.87105,-1.87108l0,0a1.87105,1.87105,0,0,1,1.87105,-1.87108l3.7421,0a1.87105,1.87105,0,0,1,1.87105,1.87108zm-3.79649,-1.14732a1.15148,1.15148,0,1,0,0,2.30296,1.15148,1.15148,0,1,0,0,-2.30296z" stroke="black"  id="path481" fill="black"/>
     <circle cy="66.2281" stroke-width="1.224" r="1.62" gorn="0.4.0.14" stroke="black"  id="connector7pin" fill="black" cx="76.3427"/>
     <path stroke-width="1.43963" gorn="0.4.0.15" d="m80.015,66.229a1.872,1.87105,0,0,1,-1.872,1.87108l-3.744,0a1.872,1.87105,0,0,1,-1.87201,-1.87108l0,0a1.872,1.87105,0,0,1,1.87201,-1.87079l3.744,0a1.872,1.87105,0,0,1,1.872,1.87079zm-3.79843,-1.14733a1.15207,1.15149,0,1,0,0,2.30297,1.15207,1.15149,0,1,0,0,-2.30297z" stroke="black"  id="path485" fill="black"/>
     <circle cy="59.0281" stroke-width="1.224" r="1.62" gorn="0.4.0.16" stroke="black"  id="connector8pin" fill="black" cx="76.3427"/>
     <path stroke-width="1.43963" gorn="0.4.0.17" d="m80.0107,59.0293a1.87105,1.87105,0,0,1,-1.87105,1.87078l-3.7421,0a1.87105,1.87105,0,0,1,-1.87106,-1.87078l0,0a1.87105,1.87105,0,0,1,1.87106,-1.87108l3.7421,0a1.87105,1.87105,0,0,1,1.87105,1.87108zm-3.7965,-1.14761a1.15148,1.15148,0,1,0,0,2.30296,1.15148,1.15148,0,1,0,0,-2.30296z" stroke="black"  id="path483" fill="black"/>
     <circle cy="51.8281" stroke-width="1.224" r="1.62" gorn="0.4.0.18" stroke="black"  id="connector9pin" fill="black" cx="76.3427"/>
     <path stroke-width="1.43963" gorn="0.4.0.19" d="m80.0107,51.829a1.87105,1.87105,0,0,1,-1.87105,1.87108l-3.7421,0a1.87105,1.87105,0,0,1,-1.87106,-1.87108l0,0a1.87105,1.87105,0,0,1,1.87106,-1.87108l3.7421,0a1.87105,1.87105,0,0,1,1.87105,1.87108zm-3.7965,-1.14761a1.15148,1.15148,0,1,0,0,2.30296,1.15148,1.15148,0,1,0,0,-2.30296z" stroke="black"  id="path469" fill="black"/>
     <circle cy="44.6281" stroke-width="1.224" r="1.62" gorn="0.4.0.20" stroke="black"  id="connector10pin" fill="black" cx="76.3427"/>
     <path stroke-width="1.43963" gorn="0.4.0.21" d="m80.0107,44.629a1.87105,1.87105,0,0,1,-1.87105,1.87108l-3.7421,0a1.87105,1.87105,0,0,1,-1.87106,-1.87108l0,0a1.87105,1.87105,0,0,1,1.87106,-1.87108l3.7421,0a1.87105,1.87105,0,0,1,1.87105,1.87108zm-3.7965,-1.14761a1.15148,1.15148,0,1,0,0,2.30296,1.15148,1.15148,0,1,0,0,-2.30296z" stroke="black"  id="path457" fill="black"/>
     <circle cy="37.4281" stroke-width="1.224" r="1.62" gorn="0.4.0.22" stroke="black"  id="connector11pin" fill="black" cx="76.3427"/>
     <path stroke-width="1.43963" gorn="0.4.0.23" d="m80.015,37.429a1.872,1.87105,0,0,1,-1.872,1.87108l-3.744,0a1.872,1.87105,0,0,1,-1.87201,-1.87108l0,0a1.872,1.87105,0,0,1,1.87201,-1.87108l3.744,0a1.872,1.87105,0,0,1,1.872,1.87108zm-3.79843,-1.14732a1.152,1.15142,0,1,0,0,2.30237,1.152,1.15142,0,1,0,0,-2.30237z" stroke="black"  id="path477" fill="black"/>
     <circle cy="30.2281" stroke-width="1.224" r="1.62" gorn="0.4.0.24" stroke="black"  id="connector12pin" fill="black" cx="76.3427"/>
     <path stroke-width="1.43963" gorn="0.4.0.25" d="m80.0107,30.229a1.87105,1.87105,0,0,1,-1.87105,1.87108l-3.7421,0a1.87105,1.87105,0,0,1,-1.87106,-1.87108l0,0a1.87105,1.87105,0,0,1,1.87106,-1.87108l3.7421,0a1.87105,1.87105,0,0,1,1.87105,1.87108zm-3.7965,-1.14732a1.15142,1.15142,0,1,0,0,2.30267,1.15142,1.15142,0,1,0,0,-2.30267z" stroke="black"  id="path475" fill="black"/>
     <circle cy="23.0281" stroke-width="1.224" r="1.62" gorn="0.4.0.26" stroke="black"  id="connector13pin" fill="black" cx="76.3427"/>
     <path stroke-width="1.43963" gorn="0.4.0.27" d="m80.015,23.029a1.872,1.87105,0,0,1,-1.872,1.87108l-3.744,0a1.872,1.87105,0,0,1,-1.87201,-1.87108l0,0a1.872,1.87105,0,0,1,1.87201,-1.87108l3.744,0a1.872,1.87105,0,0,1,1.872,1.87108zm-3.79843,-1.14732a1.152,1.15142,0,1,0,0,2.30267,1.152,1.15142,0,1,0,0,-2.30267z" stroke="black"  id="path473" fill="black"/>
     <circle cy="15.8281" stroke-width="1.224" r="1.62" gorn="0.4.0.28" stroke="black"  id="connector14pin" fill="black" cx="76.3427"/>
     <path stroke-width="1.43963" gorn="0.4.0.29" d="m80.0107,15.8291a1.87105,1.87105,0,0,1,-1.87105,1.87108l-3.7421,0a1.87105,1.87105,0,0,1,-1.87106,-1.87108l0,0a1.87105,1.87105,0,0,1,1.87106,-1.87108l3.7421,0a1.87105,1.87105,0,0,1,1.87105,1.87108zm-3.7965,-1.14732a1.15142,1.15142,0,1,0,0,2.30267,1.15142,1.15142,0,1,0,0,-2.30267z" stroke="black"  id="path471" fill="black"/>
     <circle cy="15.8281" stroke-width="1.224" r="1.62" gorn="0.4.0.30" stroke="black"  id="connector15pin" fill="black" cx="4.34173"/>
     <path stroke-width="1.43963" gorn="0.4.0.31" d="M8.18712,15.8291A1.87105,1.87105,0,0,1,6.31608,17.7001L2.57398,17.7001A1.87105,1.87105,0,0,1,0.702927,15.8291l0,0A1.87105,1.87105,0,0,1,2.57398,13.9579l3.7421,0a1.87105,1.87105,0,0,1,1.87105,1.87108zM4.44729,14.6823a1.15142,1.15142,0,1,0,0,2.30267,1.15142,1.15142,0,1,0,0,-2.30267z" stroke="black"  id="path425" fill="black"/>
     <circle cy="23.0281" stroke-width="1.224" r="1.62" gorn="0.4.0.32" stroke="black"  id="connector16pin" fill="black" cx="4.34173"/>
     <path stroke-width="1.43963" gorn="0.4.0.33" d="M8.18712,23.029A1.87105,1.87105,0,0,1,6.31608,24.9001L2.57398,24.9001A1.87105,1.87105,0,0,1,0.702927,23.029l0,0A1.87105,1.87105,0,0,1,2.57398,21.1579l3.7421,0a1.87105,1.87105,0,0,1,1.87105,1.87108zM4.44729,21.8817a1.15142,1.15142,0,1,0,0,2.30267,1.15142,1.15142,0,1,0,0,-2.30267z" stroke="black"  id="path431" fill="black"/>
     <circle cy="30.2281" stroke-width="1.224" r="1.62" gorn="0.4.0.34" stroke="black"  id="connector17pin" fill="black" cx="4.34173"/>
     <path stroke-width="1.43963" gorn="0.4.0.35" d="M8.18712,30.229A1.87105,1.87105,0,0,1,6.31608,32.1001L2.57398,32.1001A1.87105,1.87105,0,0,1,0.702927,30.229l0,0A1.87105,1.87105,0,0,1,2.57398,28.3579l3.7421,0a1.87105,1.87105,0,0,1,1.87105,1.87108zM4.44729,29.0817a1.15142,1.15142,0,1,0,0,2.30267,1.15142,1.15142,0,1,0,0,-2.30267z" stroke="black"  id="path433" fill="black"/>
     <circle cy="37.4281" stroke-width="1.224" r="1.62" gorn="0.4.0.36" stroke="black"  id="connector18pin" fill="black" cx="4.34173"/>
     <path stroke-width="1.43963" gorn="0.4.0.37" d="M8.18712,37.429A1.87105,1.87105,0,0,1,6.31608,39.3001L2.57398,39.3001A1.87105,1.87105,0,0,1,0.702927,37.429l0,0A1.87105,1.87105,0,0,1,2.57398,35.5579l3.7421,0a1.87105,1.87105,0,0,1,1.87105,1.87108zM4.44729,36.2817a1.15142,1.15142,0,1,0,0,2.30237,1.15142,1.15142,0,1,0,0,-2.30237z" stroke="black"  id="path435" fill="black"/>
     <circle cy="44.6281" stroke-width="1.224" r="1.62" gorn="0.4.0.38" stroke="black"  id="connector19pin" fill="black" cx="4.34173"/>
     <path stroke-width="1.43963" gorn="0.4.0.39" d="M8.11339,44.629A1.87105,1.87105,0,0,1,6.24231,46.5001L2.50021,46.5001A1.87105,1.87105,0,0,1,0.629162,44.629l0,0A1.87105,1.87105,0,0,1,2.50021,42.7579l3.7421,0a1.87105,1.87105,0,0,1,1.87105,1.87108zM4.37353,43.4814a1.15148,1.15148,0,1,0,0,2.30296,1.15148,1.15148,0,1,0,0,-2.30296z" stroke="black"  id="path437" fill="black"/>
     <circle cy="51.8281" stroke-width="1.224" r="1.62" gorn="0.4.0.40" stroke="black"  id="connector20pin" fill="black" cx="4.34173"/>
     <path stroke-width="1.43963" gorn="0.4.0.41" d="M8.18712,51.829A1.87105,1.87105,0,0,1,6.31608,53.7001L2.57398,53.7001A1.87105,1.87105,0,0,1,0.702927,51.829l0,0A1.87105,1.87105,0,0,1,2.57398,49.9579l3.7421,0a1.87105,1.87105,0,0,1,1.87105,1.87108zM4.44729,50.6814a1.15148,1.15148,0,1,0,0,2.30296,1.15148,1.15148,0,1,0,0,-2.30296z" stroke="black"  id="path439" fill="black"/>
     <circle cy="59.0281" stroke-width="1.224" r="1.62" gorn="0.4.0.42" stroke="black"  id="connector21pin" fill="black" cx="4.34173"/>
     <path stroke-width="1.43963" gorn="0.4.0.43" d="M8.18712,59.0293A1.87105,1.87105,0,0,1,6.31608,60.9001L2.57398,60.9001A1.87105,1.87105,0,0,1,0.702927,59.0293l0,0A1.87105,1.87105,0,0,1,2.57398,57.1583l3.7421,0a1.87105,1.87105,0,0,1,1.87105,1.87108zM4.44729,57.8817a1.15148,1.15148,0,1,0,0,2.30296,1.15148,1.15148,0,1,0,0,-2.30296z" stroke="black"  id="path441" fill="black"/>
     <circle cy="66.2281" stroke-width="1.224" r="1.62" gorn="0.4.0.44" stroke="black"  id="connector22pin" fill="black" cx="4.34173"/>
     <path stroke-width="1.43963" gorn="0.4.0.45" d="m8.18712,66.229a1.87105,1.87105,0,0,1,-1.87105,1.87108L2.57398,68.1001A1.87105,1.87105,0,0,1,0.702927,66.229l0,0A1.87105,1.87105,0,0,1,2.57398,64.3583l3.7421,0a1.87105,1.87105,0,0,1,1.87105,1.87079zM4.44729,65.0817a1.15149,1.15149,0,1,0,0,2.30297,1.15149,1.15149,0,1,0,0,-2.30297z" stroke="black"  id="path443" fill="black"/>
     <circle cy="73.4281" stroke-width="1.224" r="1.62" gorn="0.4.0.46" stroke="black"  id="connector23pin" fill="black" cx="4.34173"/>
     <path stroke-width="1.43963" gorn="0.4.0.47" d="m8.18683,73.4292a1.87105,1.87105,0,0,1,-1.87105,1.87108L2.5737,75.3005A1.87105,1.87105,0,0,1,0.702644,73.4292l0,0A1.87105,1.87105,0,0,1,2.5737,71.5579l3.7421,0a1.87105,1.87105,0,0,1,1.87105,1.87108zm-3.73984,-1.14672a1.15146,1.15146,0,1,0,0,2.30266,1.15146,1.15146,0,1,0,0,-2.30266z" stroke="black"  id="path445" fill="black"/>
     <circle cy="80.6281" stroke-width="1.224" r="1.62" gorn="0.4.0.48" stroke="black"  id="connector24pin" fill="black" cx="4.34173"/>
     <path stroke-width="1.43963" gorn="0.4.0.49" d="m8.18683,80.6292a1.87105,1.87105,0,0,1,-1.87105,1.87108L2.5737,82.5005A1.87105,1.87105,0,0,1,0.702644,80.6292l0,0a1.87105,1.87105,0,0,1,1.87105,-1.87108l3.7421,0a1.87105,1.87105,0,0,1,1.87105,1.87108zm-3.73984,-1.14732a1.15148,1.15148,0,1,0,0,2.30296,1.15148,1.15148,0,1,0,0,-2.30296z" stroke="black"  id="path447" fill="black"/>
     <circle cy="87.8281" stroke-width="1.224" r="1.62" gorn="0.4.0.50" stroke="black"  id="connector25pin" fill="black" cx="4.34173"/>
     <path stroke-width="1.43963" gorn="0.4.0.51" d="m8.18683,87.8292a1.87105,1.87105,0,0,1,-1.87105,1.87108L2.5737,89.7004A1.87105,1.87105,0,0,1,0.702644,87.8292l0,0a1.87105,1.87105,0,0,1,1.87105,-1.87108l3.7421,0a1.87105,1.87105,0,0,1,1.87105,1.87108zm-3.73984,-1.14732a1.15148,1.15148,0,1,0,0,2.30296,1.15148,1.15148,0,1,0,0,-2.30296z" stroke="black"  id="path449" fill="black"/>
     <circle cy="95.0281" stroke-width="1.224" r="1.62" gorn="0.4.0.52" stroke="black"  id="connector26pin" fill="black" cx="4.34173"/>
     <path stroke-width="1.43963" gorn="0.4.0.53" d="m8.18683,95.0292a1.87105,1.87105,0,0,1,-1.87105,1.87108L2.5737,96.9004A1.87105,1.87105,0,0,1,0.702644,95.0292l0,0a1.87105,1.87105,0,0,1,1.87105,-1.87108l3.7421,0a1.87105,1.87105,0,0,1,1.87105,1.87108zm-3.73984,-1.14733a1.15142,1.15142,0,1,0,0,2.30267,1.15142,1.15142,0,1,0,0,-2.30267z" stroke="black"  id="path451" fill="black"/>
     <circle cy="102.228" stroke-width="1.224" r="1.62" gorn="0.4.0.54" stroke="black"  id="connector27pin" fill="black" cx="4.34173"/>
     <path stroke-width="1.43963" gorn="0.4.0.55" d="m8.18683,102.229a1.87105,1.87105,0,0,1,-1.87105,1.87108L2.5737,104.1A1.87105,1.87105,0,0,1,0.702644,102.229l0,0a1.87105,1.87105,0,0,1,1.87105,-1.87108l3.7421,0a1.87105,1.87105,0,0,1,1.87105,1.87108zm-3.73984,-1.14761a1.15142,1.15142,0,1,0,0,2.30267,1.15142,1.15142,0,1,0,0,-2.30267z" stroke="black"  id="path455" fill="black"/>
     <circle cy="109.428" stroke-width="1.224" r="1.62" gorn="0.4.0.56" stroke="black"  id="connector28pin" fill="black" cx="4.34193"/>
     <path stroke-width="1.43963" gorn="0.4.0.57" d="m8.18683,109.429a1.87105,1.87105,0,0,1,-1.87105,1.87108L2.5737,111.3A1.87105,1.87105,0,0,1,0.702644,109.429l0,0a1.87105,1.87105,0,0,1,1.87105,-1.87108l3.7421,0a1.87105,1.87105,0,0,1,1.87105,1.87108zm-3.73984,-1.14732a1.15142,1.15142,0,1,0,0,2.30266,1.15142,1.15142,0,1,0,0,-2.30266z" stroke="black"  id="path453" fill="black"/>
     <circle cy="116.628" stroke-width="1.224" r="1.62" gorn="0.4.0.58" stroke="black"  id="connector29pin" fill="black" cx="4.34173"/>
     <path stroke-width="1.43963" gorn="0.4.0.59" d="m8.18683,116.629a1.87105,1.87105,0,0,1,-1.87105,1.87108L2.5737,118.5A1.87105,1.87105,0,0,1,0.702644,116.629l0,0a1.87105,1.87105,0,0,1,1.87105,-1.87108l3.7421,0a1.87105,1.87105,0,0,1,1.87105,1.87108zm-3.73984,-1.14761a1.15148,1.15148,0,1,0,0,2.30296,1.15148,1.15148,0,1,0,0,-2.30296z" stroke="black"  id="path463" fill="black"/>
    </g>
   </g>
  </g>
  <g partID="57830">
   <g transform="translate(2.6288,46.752)">
    <g  id="copper0">
     <circle cy="5.04" stroke-width="2.16" r="2.088" stroke="black"  fill="black" id="connector0pin" cx="5.04"/>
     <circle cy="12.24" stroke-width="2.16" r="2.088" stroke="black"  fill="black" id="connector1pin" cx="5.04"/>
     <circle cy="19.44" stroke-width="2.16" r="2.088" stroke="black"  fill="black" id="connector2pin" cx="5.04"/>
    </g>
   </g>
  </g>
  <g partID="59600">
   <g transform="translate(132.229,3.552)">
    <g  id="copper0">
     <circle cy="5.04" stroke-width="2.16" r="2.088" stroke="black"  fill="black" id="connector0pin" cx="5.04"/>
     <circle cy="12.24" stroke-width="2.16" r="2.088" stroke="black"  fill="black" id="connector1pin" cx="5.04"/>
     <circle cy="19.44" stroke-width="2.16" r="2.088" stroke="black"  fill="black" id="connector2pin" cx="5.04"/>
     <circle cy="26.64" stroke-width="2.16" r="2.088" stroke="black"  fill="black" id="connector3pin" cx="5.04"/>
    </g>
   </g>
  </g>
  <g partID="116810">
   <g transform="translate(163.909,89.952)">
    <g transform="matrix(0,1,-1,0,0,0)">
     <g  id="copper0">
      <circle cy="5.04" stroke-width="2.16" r="2.088" stroke="black"  fill="black" id="connector0pin" cx="5.04"/>
      <circle cy="12.24" stroke-width="2.16" r="2.088" stroke="black"  fill="black" id="connector1pin" cx="5.04"/>
      <circle cy="19.44" stroke-width="2.16" r="2.088" stroke="black"  fill="black" id="connector2pin" cx="5.04"/>
      <circle cy="26.64" stroke-width="2.16" r="2.088" stroke="black"  fill="black" id="connector3pin" cx="5.04"/>
      <circle cy="33.84" stroke-width="2.16" r="2.088" stroke="black"  fill="black" id="connector4pin" cx="5.04"/>
      <circle cy="41.04" stroke-width="2.16" r="2.088" stroke="black"  fill="black" id="connector5pin" cx="5.04"/>
     </g>
    </g>
   </g>
  </g>
  <g partID="63600">
   <g transform="translate(159.894,144.404)">
    <g transform="matrix(-1,0,0,-1,0,0)">
     <g  id="copper0">
      <circle cy="17.0124" stroke-width="1.96441" r="1.8978" stroke="black" connectorname="-"  id="connector1pad" fill="black" cx="7.79981"/>
      <circle cy="17.0124" stroke-width="1.96441" r="1.8978" stroke="black" connectorname="+"  id="connector0pad" fill="black" cx="26.225"/>
     </g>
    </g>
   </g>
  </g>
 </g>
</svg>
