G04 MADE WITH FRITZING*
G04 WWW.FRITZING.ORG*
G04 DOUBLE SIDED*
G04 HOLES PLATED*
G04 CONTOUR ON CENTER OF CONTOUR VECTOR*
%ASAXBY*%
%FSLAX23Y23*%
%MOIN*%
%OFA0B0*%
%SFA1.0B1.0*%
%ADD10R,0.001000X0.001000*%
%LNSILK0*%
G90*
G70*
G54D10*
X0Y2049D02*
X2359Y2049D01*
X0Y2048D02*
X2359Y2048D01*
X0Y2047D02*
X2359Y2047D01*
X0Y2046D02*
X2359Y2046D01*
X0Y2045D02*
X2359Y2045D01*
X0Y2044D02*
X2359Y2044D01*
X0Y2043D02*
X2359Y2043D01*
X0Y2042D02*
X2359Y2042D01*
X0Y2041D02*
X7Y2041D01*
X2352Y2041D02*
X2359Y2041D01*
X0Y2040D02*
X7Y2040D01*
X2352Y2040D02*
X2359Y2040D01*
X0Y2039D02*
X7Y2039D01*
X2352Y2039D02*
X2359Y2039D01*
X0Y2038D02*
X7Y2038D01*
X2352Y2038D02*
X2359Y2038D01*
X0Y2037D02*
X7Y2037D01*
X2352Y2037D02*
X2359Y2037D01*
X0Y2036D02*
X7Y2036D01*
X2352Y2036D02*
X2359Y2036D01*
X0Y2035D02*
X7Y2035D01*
X2352Y2035D02*
X2359Y2035D01*
X0Y2034D02*
X7Y2034D01*
X2352Y2034D02*
X2359Y2034D01*
X0Y2033D02*
X7Y2033D01*
X2352Y2033D02*
X2359Y2033D01*
X0Y2032D02*
X7Y2032D01*
X2352Y2032D02*
X2359Y2032D01*
X0Y2031D02*
X7Y2031D01*
X2352Y2031D02*
X2359Y2031D01*
X0Y2030D02*
X7Y2030D01*
X2352Y2030D02*
X2359Y2030D01*
X0Y2029D02*
X7Y2029D01*
X2352Y2029D02*
X2359Y2029D01*
X0Y2028D02*
X7Y2028D01*
X2352Y2028D02*
X2359Y2028D01*
X0Y2027D02*
X7Y2027D01*
X2352Y2027D02*
X2359Y2027D01*
X0Y2026D02*
X7Y2026D01*
X2352Y2026D02*
X2359Y2026D01*
X0Y2025D02*
X7Y2025D01*
X2352Y2025D02*
X2359Y2025D01*
X0Y2024D02*
X7Y2024D01*
X2352Y2024D02*
X2359Y2024D01*
X0Y2023D02*
X7Y2023D01*
X2352Y2023D02*
X2359Y2023D01*
X0Y2022D02*
X7Y2022D01*
X2352Y2022D02*
X2359Y2022D01*
X0Y2021D02*
X7Y2021D01*
X2352Y2021D02*
X2359Y2021D01*
X0Y2020D02*
X7Y2020D01*
X2352Y2020D02*
X2359Y2020D01*
X0Y2019D02*
X7Y2019D01*
X2352Y2019D02*
X2359Y2019D01*
X0Y2018D02*
X7Y2018D01*
X2352Y2018D02*
X2359Y2018D01*
X0Y2017D02*
X7Y2017D01*
X2352Y2017D02*
X2359Y2017D01*
X0Y2016D02*
X7Y2016D01*
X2352Y2016D02*
X2359Y2016D01*
X0Y2015D02*
X7Y2015D01*
X2352Y2015D02*
X2359Y2015D01*
X0Y2014D02*
X7Y2014D01*
X2352Y2014D02*
X2359Y2014D01*
X0Y2013D02*
X7Y2013D01*
X2352Y2013D02*
X2359Y2013D01*
X0Y2012D02*
X7Y2012D01*
X2352Y2012D02*
X2359Y2012D01*
X0Y2011D02*
X7Y2011D01*
X2352Y2011D02*
X2359Y2011D01*
X0Y2010D02*
X7Y2010D01*
X2352Y2010D02*
X2359Y2010D01*
X0Y2009D02*
X7Y2009D01*
X2352Y2009D02*
X2359Y2009D01*
X0Y2008D02*
X7Y2008D01*
X2352Y2008D02*
X2359Y2008D01*
X0Y2007D02*
X7Y2007D01*
X2352Y2007D02*
X2359Y2007D01*
X0Y2006D02*
X7Y2006D01*
X2352Y2006D02*
X2359Y2006D01*
X0Y2005D02*
X7Y2005D01*
X2352Y2005D02*
X2359Y2005D01*
X0Y2004D02*
X7Y2004D01*
X2352Y2004D02*
X2359Y2004D01*
X0Y2003D02*
X7Y2003D01*
X2352Y2003D02*
X2359Y2003D01*
X0Y2002D02*
X7Y2002D01*
X2352Y2002D02*
X2359Y2002D01*
X0Y2001D02*
X7Y2001D01*
X2352Y2001D02*
X2359Y2001D01*
X0Y2000D02*
X7Y2000D01*
X2352Y2000D02*
X2359Y2000D01*
X0Y1999D02*
X7Y1999D01*
X2352Y1999D02*
X2359Y1999D01*
X0Y1998D02*
X7Y1998D01*
X2352Y1998D02*
X2359Y1998D01*
X0Y1997D02*
X7Y1997D01*
X2352Y1997D02*
X2359Y1997D01*
X0Y1996D02*
X7Y1996D01*
X2352Y1996D02*
X2359Y1996D01*
X0Y1995D02*
X7Y1995D01*
X2352Y1995D02*
X2359Y1995D01*
X0Y1994D02*
X7Y1994D01*
X2352Y1994D02*
X2359Y1994D01*
X0Y1993D02*
X7Y1993D01*
X2352Y1993D02*
X2359Y1993D01*
X0Y1992D02*
X7Y1992D01*
X2352Y1992D02*
X2359Y1992D01*
X0Y1991D02*
X7Y1991D01*
X2352Y1991D02*
X2359Y1991D01*
X0Y1990D02*
X7Y1990D01*
X2352Y1990D02*
X2359Y1990D01*
X0Y1989D02*
X7Y1989D01*
X2352Y1989D02*
X2359Y1989D01*
X0Y1988D02*
X7Y1988D01*
X2352Y1988D02*
X2359Y1988D01*
X0Y1987D02*
X7Y1987D01*
X2352Y1987D02*
X2359Y1987D01*
X0Y1986D02*
X7Y1986D01*
X2352Y1986D02*
X2359Y1986D01*
X0Y1985D02*
X7Y1985D01*
X2352Y1985D02*
X2359Y1985D01*
X0Y1984D02*
X7Y1984D01*
X2352Y1984D02*
X2359Y1984D01*
X0Y1983D02*
X7Y1983D01*
X2352Y1983D02*
X2359Y1983D01*
X0Y1982D02*
X7Y1982D01*
X2352Y1982D02*
X2359Y1982D01*
X0Y1981D02*
X7Y1981D01*
X2352Y1981D02*
X2359Y1981D01*
X0Y1980D02*
X7Y1980D01*
X2352Y1980D02*
X2359Y1980D01*
X0Y1979D02*
X7Y1979D01*
X2352Y1979D02*
X2359Y1979D01*
X0Y1978D02*
X7Y1978D01*
X2352Y1978D02*
X2359Y1978D01*
X0Y1977D02*
X7Y1977D01*
X2352Y1977D02*
X2359Y1977D01*
X0Y1976D02*
X7Y1976D01*
X2352Y1976D02*
X2359Y1976D01*
X0Y1975D02*
X7Y1975D01*
X2352Y1975D02*
X2359Y1975D01*
X0Y1974D02*
X7Y1974D01*
X2352Y1974D02*
X2359Y1974D01*
X0Y1973D02*
X7Y1973D01*
X2352Y1973D02*
X2359Y1973D01*
X0Y1972D02*
X7Y1972D01*
X2352Y1972D02*
X2359Y1972D01*
X0Y1971D02*
X7Y1971D01*
X2352Y1971D02*
X2359Y1971D01*
X0Y1970D02*
X7Y1970D01*
X2352Y1970D02*
X2359Y1970D01*
X0Y1969D02*
X7Y1969D01*
X2352Y1969D02*
X2359Y1969D01*
X0Y1968D02*
X7Y1968D01*
X2352Y1968D02*
X2359Y1968D01*
X0Y1967D02*
X7Y1967D01*
X2352Y1967D02*
X2359Y1967D01*
X0Y1966D02*
X7Y1966D01*
X2352Y1966D02*
X2359Y1966D01*
X0Y1965D02*
X7Y1965D01*
X2352Y1965D02*
X2359Y1965D01*
X0Y1964D02*
X7Y1964D01*
X2352Y1964D02*
X2359Y1964D01*
X0Y1963D02*
X7Y1963D01*
X2352Y1963D02*
X2359Y1963D01*
X0Y1962D02*
X7Y1962D01*
X2352Y1962D02*
X2359Y1962D01*
X0Y1961D02*
X7Y1961D01*
X2352Y1961D02*
X2359Y1961D01*
X0Y1960D02*
X7Y1960D01*
X2352Y1960D02*
X2359Y1960D01*
X0Y1959D02*
X7Y1959D01*
X2352Y1959D02*
X2359Y1959D01*
X0Y1958D02*
X7Y1958D01*
X2352Y1958D02*
X2359Y1958D01*
X0Y1957D02*
X7Y1957D01*
X2352Y1957D02*
X2359Y1957D01*
X0Y1956D02*
X7Y1956D01*
X2352Y1956D02*
X2359Y1956D01*
X0Y1955D02*
X7Y1955D01*
X2352Y1955D02*
X2359Y1955D01*
X0Y1954D02*
X7Y1954D01*
X2352Y1954D02*
X2359Y1954D01*
X0Y1953D02*
X7Y1953D01*
X2352Y1953D02*
X2359Y1953D01*
X0Y1952D02*
X7Y1952D01*
X2352Y1952D02*
X2359Y1952D01*
X0Y1951D02*
X7Y1951D01*
X2352Y1951D02*
X2359Y1951D01*
X0Y1950D02*
X7Y1950D01*
X2352Y1950D02*
X2359Y1950D01*
X0Y1949D02*
X7Y1949D01*
X2352Y1949D02*
X2359Y1949D01*
X0Y1948D02*
X7Y1948D01*
X2352Y1948D02*
X2359Y1948D01*
X0Y1947D02*
X7Y1947D01*
X2352Y1947D02*
X2359Y1947D01*
X0Y1946D02*
X7Y1946D01*
X2352Y1946D02*
X2359Y1946D01*
X0Y1945D02*
X7Y1945D01*
X2352Y1945D02*
X2359Y1945D01*
X0Y1944D02*
X7Y1944D01*
X2352Y1944D02*
X2359Y1944D01*
X0Y1943D02*
X7Y1943D01*
X2352Y1943D02*
X2359Y1943D01*
X0Y1942D02*
X7Y1942D01*
X2352Y1942D02*
X2359Y1942D01*
X0Y1941D02*
X7Y1941D01*
X2352Y1941D02*
X2359Y1941D01*
X0Y1940D02*
X7Y1940D01*
X2352Y1940D02*
X2359Y1940D01*
X0Y1939D02*
X7Y1939D01*
X2352Y1939D02*
X2359Y1939D01*
X0Y1938D02*
X7Y1938D01*
X2352Y1938D02*
X2359Y1938D01*
X0Y1937D02*
X7Y1937D01*
X2352Y1937D02*
X2359Y1937D01*
X0Y1936D02*
X7Y1936D01*
X2352Y1936D02*
X2359Y1936D01*
X0Y1935D02*
X7Y1935D01*
X2352Y1935D02*
X2359Y1935D01*
X0Y1934D02*
X7Y1934D01*
X2352Y1934D02*
X2359Y1934D01*
X0Y1933D02*
X7Y1933D01*
X2352Y1933D02*
X2359Y1933D01*
X0Y1932D02*
X7Y1932D01*
X2352Y1932D02*
X2359Y1932D01*
X0Y1931D02*
X7Y1931D01*
X2352Y1931D02*
X2359Y1931D01*
X0Y1930D02*
X7Y1930D01*
X2352Y1930D02*
X2359Y1930D01*
X0Y1929D02*
X7Y1929D01*
X2352Y1929D02*
X2359Y1929D01*
X0Y1928D02*
X7Y1928D01*
X2352Y1928D02*
X2359Y1928D01*
X0Y1927D02*
X7Y1927D01*
X2352Y1927D02*
X2359Y1927D01*
X0Y1926D02*
X7Y1926D01*
X2352Y1926D02*
X2359Y1926D01*
X0Y1925D02*
X7Y1925D01*
X2352Y1925D02*
X2359Y1925D01*
X0Y1924D02*
X7Y1924D01*
X2352Y1924D02*
X2359Y1924D01*
X0Y1923D02*
X7Y1923D01*
X2352Y1923D02*
X2359Y1923D01*
X0Y1922D02*
X7Y1922D01*
X2352Y1922D02*
X2359Y1922D01*
X0Y1921D02*
X7Y1921D01*
X2352Y1921D02*
X2359Y1921D01*
X0Y1920D02*
X7Y1920D01*
X2352Y1920D02*
X2359Y1920D01*
X0Y1919D02*
X7Y1919D01*
X2352Y1919D02*
X2359Y1919D01*
X0Y1918D02*
X7Y1918D01*
X2352Y1918D02*
X2359Y1918D01*
X0Y1917D02*
X7Y1917D01*
X2352Y1917D02*
X2359Y1917D01*
X0Y1916D02*
X7Y1916D01*
X2352Y1916D02*
X2359Y1916D01*
X0Y1915D02*
X7Y1915D01*
X2352Y1915D02*
X2359Y1915D01*
X0Y1914D02*
X7Y1914D01*
X2352Y1914D02*
X2359Y1914D01*
X0Y1913D02*
X7Y1913D01*
X2352Y1913D02*
X2359Y1913D01*
X0Y1912D02*
X7Y1912D01*
X2352Y1912D02*
X2359Y1912D01*
X0Y1911D02*
X7Y1911D01*
X2352Y1911D02*
X2359Y1911D01*
X0Y1910D02*
X7Y1910D01*
X2352Y1910D02*
X2359Y1910D01*
X0Y1909D02*
X7Y1909D01*
X2352Y1909D02*
X2359Y1909D01*
X0Y1908D02*
X7Y1908D01*
X2352Y1908D02*
X2359Y1908D01*
X0Y1907D02*
X7Y1907D01*
X2352Y1907D02*
X2359Y1907D01*
X0Y1906D02*
X7Y1906D01*
X2352Y1906D02*
X2359Y1906D01*
X0Y1905D02*
X7Y1905D01*
X2352Y1905D02*
X2359Y1905D01*
X0Y1904D02*
X7Y1904D01*
X2352Y1904D02*
X2359Y1904D01*
X0Y1903D02*
X7Y1903D01*
X2352Y1903D02*
X2359Y1903D01*
X0Y1902D02*
X7Y1902D01*
X2352Y1902D02*
X2359Y1902D01*
X0Y1901D02*
X7Y1901D01*
X2352Y1901D02*
X2359Y1901D01*
X0Y1900D02*
X7Y1900D01*
X2352Y1900D02*
X2359Y1900D01*
X0Y1899D02*
X7Y1899D01*
X2352Y1899D02*
X2359Y1899D01*
X0Y1898D02*
X7Y1898D01*
X2352Y1898D02*
X2359Y1898D01*
X0Y1897D02*
X7Y1897D01*
X2352Y1897D02*
X2359Y1897D01*
X0Y1896D02*
X7Y1896D01*
X2352Y1896D02*
X2359Y1896D01*
X0Y1895D02*
X7Y1895D01*
X2352Y1895D02*
X2359Y1895D01*
X0Y1894D02*
X7Y1894D01*
X2352Y1894D02*
X2359Y1894D01*
X0Y1893D02*
X7Y1893D01*
X2352Y1893D02*
X2359Y1893D01*
X0Y1892D02*
X7Y1892D01*
X2352Y1892D02*
X2359Y1892D01*
X0Y1891D02*
X7Y1891D01*
X2352Y1891D02*
X2359Y1891D01*
X0Y1890D02*
X7Y1890D01*
X2352Y1890D02*
X2359Y1890D01*
X0Y1889D02*
X7Y1889D01*
X2352Y1889D02*
X2359Y1889D01*
X0Y1888D02*
X7Y1888D01*
X2352Y1888D02*
X2359Y1888D01*
X0Y1887D02*
X7Y1887D01*
X2352Y1887D02*
X2359Y1887D01*
X0Y1886D02*
X7Y1886D01*
X2352Y1886D02*
X2359Y1886D01*
X0Y1885D02*
X7Y1885D01*
X2352Y1885D02*
X2359Y1885D01*
X0Y1884D02*
X7Y1884D01*
X2352Y1884D02*
X2359Y1884D01*
X0Y1883D02*
X7Y1883D01*
X2352Y1883D02*
X2359Y1883D01*
X0Y1882D02*
X7Y1882D01*
X2352Y1882D02*
X2359Y1882D01*
X0Y1881D02*
X7Y1881D01*
X2352Y1881D02*
X2359Y1881D01*
X0Y1880D02*
X7Y1880D01*
X2352Y1880D02*
X2359Y1880D01*
X0Y1879D02*
X7Y1879D01*
X2352Y1879D02*
X2359Y1879D01*
X0Y1878D02*
X7Y1878D01*
X2352Y1878D02*
X2359Y1878D01*
X0Y1877D02*
X7Y1877D01*
X2352Y1877D02*
X2359Y1877D01*
X0Y1876D02*
X7Y1876D01*
X2352Y1876D02*
X2359Y1876D01*
X0Y1875D02*
X7Y1875D01*
X2352Y1875D02*
X2359Y1875D01*
X0Y1874D02*
X7Y1874D01*
X2352Y1874D02*
X2359Y1874D01*
X0Y1873D02*
X7Y1873D01*
X2352Y1873D02*
X2359Y1873D01*
X0Y1872D02*
X7Y1872D01*
X2352Y1872D02*
X2359Y1872D01*
X0Y1871D02*
X7Y1871D01*
X2352Y1871D02*
X2359Y1871D01*
X0Y1870D02*
X7Y1870D01*
X2352Y1870D02*
X2359Y1870D01*
X0Y1869D02*
X7Y1869D01*
X2352Y1869D02*
X2359Y1869D01*
X0Y1868D02*
X7Y1868D01*
X2352Y1868D02*
X2359Y1868D01*
X0Y1867D02*
X7Y1867D01*
X2352Y1867D02*
X2359Y1867D01*
X0Y1866D02*
X7Y1866D01*
X2352Y1866D02*
X2359Y1866D01*
X0Y1865D02*
X7Y1865D01*
X2352Y1865D02*
X2359Y1865D01*
X0Y1864D02*
X7Y1864D01*
X2352Y1864D02*
X2359Y1864D01*
X0Y1863D02*
X7Y1863D01*
X2352Y1863D02*
X2359Y1863D01*
X0Y1862D02*
X7Y1862D01*
X2352Y1862D02*
X2359Y1862D01*
X0Y1861D02*
X7Y1861D01*
X2352Y1861D02*
X2359Y1861D01*
X0Y1860D02*
X7Y1860D01*
X2352Y1860D02*
X2359Y1860D01*
X0Y1859D02*
X7Y1859D01*
X2352Y1859D02*
X2359Y1859D01*
X0Y1858D02*
X7Y1858D01*
X2352Y1858D02*
X2359Y1858D01*
X0Y1857D02*
X7Y1857D01*
X2352Y1857D02*
X2359Y1857D01*
X0Y1856D02*
X7Y1856D01*
X2352Y1856D02*
X2359Y1856D01*
X0Y1855D02*
X7Y1855D01*
X2352Y1855D02*
X2359Y1855D01*
X0Y1854D02*
X7Y1854D01*
X2352Y1854D02*
X2359Y1854D01*
X0Y1853D02*
X7Y1853D01*
X2352Y1853D02*
X2359Y1853D01*
X0Y1852D02*
X7Y1852D01*
X2352Y1852D02*
X2359Y1852D01*
X0Y1851D02*
X7Y1851D01*
X2352Y1851D02*
X2359Y1851D01*
X0Y1850D02*
X7Y1850D01*
X2352Y1850D02*
X2359Y1850D01*
X0Y1849D02*
X7Y1849D01*
X2352Y1849D02*
X2359Y1849D01*
X0Y1848D02*
X7Y1848D01*
X2352Y1848D02*
X2359Y1848D01*
X0Y1847D02*
X7Y1847D01*
X2352Y1847D02*
X2359Y1847D01*
X0Y1846D02*
X7Y1846D01*
X2352Y1846D02*
X2359Y1846D01*
X0Y1845D02*
X7Y1845D01*
X2352Y1845D02*
X2359Y1845D01*
X0Y1844D02*
X7Y1844D01*
X2352Y1844D02*
X2359Y1844D01*
X0Y1843D02*
X7Y1843D01*
X2352Y1843D02*
X2359Y1843D01*
X0Y1842D02*
X7Y1842D01*
X2352Y1842D02*
X2359Y1842D01*
X0Y1841D02*
X7Y1841D01*
X2352Y1841D02*
X2359Y1841D01*
X0Y1840D02*
X7Y1840D01*
X2352Y1840D02*
X2359Y1840D01*
X0Y1839D02*
X7Y1839D01*
X2352Y1839D02*
X2359Y1839D01*
X0Y1838D02*
X7Y1838D01*
X2352Y1838D02*
X2359Y1838D01*
X0Y1837D02*
X7Y1837D01*
X2352Y1837D02*
X2359Y1837D01*
X0Y1836D02*
X7Y1836D01*
X2352Y1836D02*
X2359Y1836D01*
X0Y1835D02*
X7Y1835D01*
X2352Y1835D02*
X2359Y1835D01*
X0Y1834D02*
X7Y1834D01*
X2352Y1834D02*
X2359Y1834D01*
X0Y1833D02*
X7Y1833D01*
X2352Y1833D02*
X2359Y1833D01*
X0Y1832D02*
X7Y1832D01*
X2352Y1832D02*
X2359Y1832D01*
X0Y1831D02*
X7Y1831D01*
X2352Y1831D02*
X2359Y1831D01*
X0Y1830D02*
X7Y1830D01*
X2352Y1830D02*
X2359Y1830D01*
X0Y1829D02*
X7Y1829D01*
X2352Y1829D02*
X2359Y1829D01*
X0Y1828D02*
X7Y1828D01*
X2352Y1828D02*
X2359Y1828D01*
X0Y1827D02*
X7Y1827D01*
X2352Y1827D02*
X2359Y1827D01*
X0Y1826D02*
X7Y1826D01*
X2352Y1826D02*
X2359Y1826D01*
X0Y1825D02*
X7Y1825D01*
X2352Y1825D02*
X2359Y1825D01*
X0Y1824D02*
X7Y1824D01*
X2352Y1824D02*
X2359Y1824D01*
X0Y1823D02*
X7Y1823D01*
X2352Y1823D02*
X2359Y1823D01*
X0Y1822D02*
X7Y1822D01*
X2352Y1822D02*
X2359Y1822D01*
X0Y1821D02*
X7Y1821D01*
X2352Y1821D02*
X2359Y1821D01*
X0Y1820D02*
X7Y1820D01*
X2352Y1820D02*
X2359Y1820D01*
X0Y1819D02*
X7Y1819D01*
X2352Y1819D02*
X2359Y1819D01*
X0Y1818D02*
X7Y1818D01*
X2352Y1818D02*
X2359Y1818D01*
X0Y1817D02*
X7Y1817D01*
X2352Y1817D02*
X2359Y1817D01*
X0Y1816D02*
X7Y1816D01*
X2352Y1816D02*
X2359Y1816D01*
X0Y1815D02*
X7Y1815D01*
X2352Y1815D02*
X2359Y1815D01*
X0Y1814D02*
X7Y1814D01*
X2352Y1814D02*
X2359Y1814D01*
X0Y1813D02*
X7Y1813D01*
X2352Y1813D02*
X2359Y1813D01*
X0Y1812D02*
X7Y1812D01*
X2352Y1812D02*
X2359Y1812D01*
X0Y1811D02*
X7Y1811D01*
X2352Y1811D02*
X2359Y1811D01*
X0Y1810D02*
X7Y1810D01*
X2352Y1810D02*
X2359Y1810D01*
X0Y1809D02*
X7Y1809D01*
X2352Y1809D02*
X2359Y1809D01*
X0Y1808D02*
X7Y1808D01*
X2352Y1808D02*
X2359Y1808D01*
X0Y1807D02*
X7Y1807D01*
X2352Y1807D02*
X2359Y1807D01*
X0Y1806D02*
X7Y1806D01*
X2352Y1806D02*
X2359Y1806D01*
X0Y1805D02*
X7Y1805D01*
X2352Y1805D02*
X2359Y1805D01*
X0Y1804D02*
X7Y1804D01*
X2352Y1804D02*
X2359Y1804D01*
X0Y1803D02*
X7Y1803D01*
X2352Y1803D02*
X2359Y1803D01*
X0Y1802D02*
X7Y1802D01*
X2352Y1802D02*
X2359Y1802D01*
X0Y1801D02*
X7Y1801D01*
X2352Y1801D02*
X2359Y1801D01*
X0Y1800D02*
X7Y1800D01*
X2352Y1800D02*
X2359Y1800D01*
X0Y1799D02*
X7Y1799D01*
X2352Y1799D02*
X2359Y1799D01*
X0Y1798D02*
X7Y1798D01*
X2352Y1798D02*
X2359Y1798D01*
X0Y1797D02*
X7Y1797D01*
X2352Y1797D02*
X2359Y1797D01*
X0Y1796D02*
X7Y1796D01*
X2352Y1796D02*
X2359Y1796D01*
X0Y1795D02*
X7Y1795D01*
X2352Y1795D02*
X2359Y1795D01*
X0Y1794D02*
X7Y1794D01*
X2352Y1794D02*
X2359Y1794D01*
X0Y1793D02*
X7Y1793D01*
X2352Y1793D02*
X2359Y1793D01*
X0Y1792D02*
X7Y1792D01*
X2352Y1792D02*
X2359Y1792D01*
X0Y1791D02*
X7Y1791D01*
X2352Y1791D02*
X2359Y1791D01*
X0Y1790D02*
X7Y1790D01*
X2352Y1790D02*
X2359Y1790D01*
X0Y1789D02*
X7Y1789D01*
X2352Y1789D02*
X2359Y1789D01*
X0Y1788D02*
X7Y1788D01*
X2352Y1788D02*
X2359Y1788D01*
X0Y1787D02*
X7Y1787D01*
X2352Y1787D02*
X2359Y1787D01*
X0Y1786D02*
X7Y1786D01*
X2352Y1786D02*
X2359Y1786D01*
X0Y1785D02*
X7Y1785D01*
X2352Y1785D02*
X2359Y1785D01*
X0Y1784D02*
X7Y1784D01*
X2352Y1784D02*
X2359Y1784D01*
X0Y1783D02*
X7Y1783D01*
X2352Y1783D02*
X2359Y1783D01*
X0Y1782D02*
X7Y1782D01*
X2352Y1782D02*
X2359Y1782D01*
X0Y1781D02*
X7Y1781D01*
X2352Y1781D02*
X2359Y1781D01*
X0Y1780D02*
X7Y1780D01*
X2352Y1780D02*
X2359Y1780D01*
X0Y1779D02*
X7Y1779D01*
X2352Y1779D02*
X2359Y1779D01*
X0Y1778D02*
X7Y1778D01*
X2352Y1778D02*
X2359Y1778D01*
X0Y1777D02*
X7Y1777D01*
X2352Y1777D02*
X2359Y1777D01*
X0Y1776D02*
X7Y1776D01*
X2352Y1776D02*
X2359Y1776D01*
X0Y1775D02*
X7Y1775D01*
X2352Y1775D02*
X2359Y1775D01*
X0Y1774D02*
X7Y1774D01*
X2352Y1774D02*
X2359Y1774D01*
X0Y1773D02*
X7Y1773D01*
X2352Y1773D02*
X2359Y1773D01*
X0Y1772D02*
X7Y1772D01*
X2352Y1772D02*
X2359Y1772D01*
X0Y1771D02*
X7Y1771D01*
X2352Y1771D02*
X2359Y1771D01*
X0Y1770D02*
X7Y1770D01*
X2352Y1770D02*
X2359Y1770D01*
X0Y1769D02*
X7Y1769D01*
X2352Y1769D02*
X2359Y1769D01*
X0Y1768D02*
X7Y1768D01*
X2352Y1768D02*
X2359Y1768D01*
X0Y1767D02*
X7Y1767D01*
X2352Y1767D02*
X2359Y1767D01*
X0Y1766D02*
X7Y1766D01*
X2352Y1766D02*
X2359Y1766D01*
X0Y1765D02*
X7Y1765D01*
X2352Y1765D02*
X2359Y1765D01*
X0Y1764D02*
X7Y1764D01*
X2352Y1764D02*
X2359Y1764D01*
X0Y1763D02*
X7Y1763D01*
X2352Y1763D02*
X2359Y1763D01*
X0Y1762D02*
X7Y1762D01*
X2352Y1762D02*
X2359Y1762D01*
X0Y1761D02*
X7Y1761D01*
X2352Y1761D02*
X2359Y1761D01*
X0Y1760D02*
X7Y1760D01*
X2352Y1760D02*
X2359Y1760D01*
X0Y1759D02*
X7Y1759D01*
X2352Y1759D02*
X2359Y1759D01*
X0Y1758D02*
X7Y1758D01*
X2352Y1758D02*
X2359Y1758D01*
X0Y1757D02*
X7Y1757D01*
X2352Y1757D02*
X2359Y1757D01*
X0Y1756D02*
X7Y1756D01*
X2352Y1756D02*
X2359Y1756D01*
X0Y1755D02*
X7Y1755D01*
X2352Y1755D02*
X2359Y1755D01*
X0Y1754D02*
X7Y1754D01*
X2352Y1754D02*
X2359Y1754D01*
X0Y1753D02*
X7Y1753D01*
X2352Y1753D02*
X2359Y1753D01*
X0Y1752D02*
X7Y1752D01*
X2352Y1752D02*
X2359Y1752D01*
X0Y1751D02*
X7Y1751D01*
X2352Y1751D02*
X2359Y1751D01*
X0Y1750D02*
X7Y1750D01*
X2352Y1750D02*
X2359Y1750D01*
X0Y1749D02*
X7Y1749D01*
X2352Y1749D02*
X2359Y1749D01*
X0Y1748D02*
X7Y1748D01*
X2352Y1748D02*
X2359Y1748D01*
X0Y1747D02*
X7Y1747D01*
X2352Y1747D02*
X2359Y1747D01*
X0Y1746D02*
X7Y1746D01*
X2352Y1746D02*
X2359Y1746D01*
X0Y1745D02*
X7Y1745D01*
X2352Y1745D02*
X2359Y1745D01*
X0Y1744D02*
X7Y1744D01*
X2352Y1744D02*
X2359Y1744D01*
X0Y1743D02*
X7Y1743D01*
X2352Y1743D02*
X2359Y1743D01*
X0Y1742D02*
X7Y1742D01*
X2352Y1742D02*
X2359Y1742D01*
X0Y1741D02*
X7Y1741D01*
X2352Y1741D02*
X2359Y1741D01*
X0Y1740D02*
X7Y1740D01*
X2352Y1740D02*
X2359Y1740D01*
X0Y1739D02*
X7Y1739D01*
X2352Y1739D02*
X2359Y1739D01*
X0Y1738D02*
X7Y1738D01*
X2352Y1738D02*
X2359Y1738D01*
X0Y1737D02*
X7Y1737D01*
X2352Y1737D02*
X2359Y1737D01*
X0Y1736D02*
X7Y1736D01*
X2352Y1736D02*
X2359Y1736D01*
X0Y1735D02*
X7Y1735D01*
X2352Y1735D02*
X2359Y1735D01*
X0Y1734D02*
X7Y1734D01*
X2352Y1734D02*
X2359Y1734D01*
X0Y1733D02*
X7Y1733D01*
X2352Y1733D02*
X2359Y1733D01*
X0Y1732D02*
X7Y1732D01*
X2352Y1732D02*
X2359Y1732D01*
X0Y1731D02*
X7Y1731D01*
X2352Y1731D02*
X2359Y1731D01*
X0Y1730D02*
X7Y1730D01*
X2352Y1730D02*
X2359Y1730D01*
X0Y1729D02*
X7Y1729D01*
X2352Y1729D02*
X2359Y1729D01*
X0Y1728D02*
X7Y1728D01*
X2352Y1728D02*
X2359Y1728D01*
X0Y1727D02*
X7Y1727D01*
X2352Y1727D02*
X2359Y1727D01*
X0Y1726D02*
X7Y1726D01*
X2352Y1726D02*
X2359Y1726D01*
X0Y1725D02*
X7Y1725D01*
X2352Y1725D02*
X2359Y1725D01*
X0Y1724D02*
X7Y1724D01*
X2352Y1724D02*
X2359Y1724D01*
X0Y1723D02*
X7Y1723D01*
X2352Y1723D02*
X2359Y1723D01*
X0Y1722D02*
X7Y1722D01*
X2352Y1722D02*
X2359Y1722D01*
X0Y1721D02*
X7Y1721D01*
X2352Y1721D02*
X2359Y1721D01*
X0Y1720D02*
X7Y1720D01*
X2352Y1720D02*
X2359Y1720D01*
X0Y1719D02*
X7Y1719D01*
X2352Y1719D02*
X2359Y1719D01*
X0Y1718D02*
X7Y1718D01*
X2352Y1718D02*
X2359Y1718D01*
X0Y1717D02*
X7Y1717D01*
X2352Y1717D02*
X2359Y1717D01*
X0Y1716D02*
X7Y1716D01*
X2352Y1716D02*
X2359Y1716D01*
X0Y1715D02*
X7Y1715D01*
X2352Y1715D02*
X2359Y1715D01*
X0Y1714D02*
X7Y1714D01*
X2352Y1714D02*
X2359Y1714D01*
X0Y1713D02*
X7Y1713D01*
X2352Y1713D02*
X2359Y1713D01*
X0Y1712D02*
X7Y1712D01*
X2352Y1712D02*
X2359Y1712D01*
X0Y1711D02*
X7Y1711D01*
X2352Y1711D02*
X2359Y1711D01*
X0Y1710D02*
X7Y1710D01*
X2352Y1710D02*
X2359Y1710D01*
X0Y1709D02*
X7Y1709D01*
X2352Y1709D02*
X2359Y1709D01*
X0Y1708D02*
X7Y1708D01*
X2352Y1708D02*
X2359Y1708D01*
X0Y1707D02*
X7Y1707D01*
X2352Y1707D02*
X2359Y1707D01*
X0Y1706D02*
X7Y1706D01*
X2352Y1706D02*
X2359Y1706D01*
X0Y1705D02*
X7Y1705D01*
X2352Y1705D02*
X2359Y1705D01*
X0Y1704D02*
X7Y1704D01*
X2352Y1704D02*
X2359Y1704D01*
X0Y1703D02*
X7Y1703D01*
X2352Y1703D02*
X2359Y1703D01*
X0Y1702D02*
X7Y1702D01*
X2352Y1702D02*
X2359Y1702D01*
X0Y1701D02*
X7Y1701D01*
X2352Y1701D02*
X2359Y1701D01*
X0Y1700D02*
X7Y1700D01*
X2352Y1700D02*
X2359Y1700D01*
X0Y1699D02*
X7Y1699D01*
X2352Y1699D02*
X2359Y1699D01*
X0Y1698D02*
X7Y1698D01*
X2352Y1698D02*
X2359Y1698D01*
X0Y1697D02*
X7Y1697D01*
X2352Y1697D02*
X2359Y1697D01*
X0Y1696D02*
X7Y1696D01*
X2352Y1696D02*
X2359Y1696D01*
X0Y1695D02*
X7Y1695D01*
X2352Y1695D02*
X2359Y1695D01*
X0Y1694D02*
X7Y1694D01*
X2352Y1694D02*
X2359Y1694D01*
X0Y1693D02*
X7Y1693D01*
X2352Y1693D02*
X2359Y1693D01*
X0Y1692D02*
X7Y1692D01*
X2352Y1692D02*
X2359Y1692D01*
X0Y1691D02*
X7Y1691D01*
X2352Y1691D02*
X2359Y1691D01*
X0Y1690D02*
X7Y1690D01*
X2352Y1690D02*
X2359Y1690D01*
X0Y1689D02*
X7Y1689D01*
X2352Y1689D02*
X2359Y1689D01*
X0Y1688D02*
X7Y1688D01*
X2352Y1688D02*
X2359Y1688D01*
X0Y1687D02*
X7Y1687D01*
X2352Y1687D02*
X2359Y1687D01*
X0Y1686D02*
X7Y1686D01*
X2352Y1686D02*
X2359Y1686D01*
X0Y1685D02*
X7Y1685D01*
X2352Y1685D02*
X2359Y1685D01*
X0Y1684D02*
X7Y1684D01*
X2352Y1684D02*
X2359Y1684D01*
X0Y1683D02*
X7Y1683D01*
X2352Y1683D02*
X2359Y1683D01*
X0Y1682D02*
X7Y1682D01*
X2352Y1682D02*
X2359Y1682D01*
X0Y1681D02*
X7Y1681D01*
X2352Y1681D02*
X2359Y1681D01*
X0Y1680D02*
X7Y1680D01*
X2352Y1680D02*
X2359Y1680D01*
X0Y1679D02*
X7Y1679D01*
X2352Y1679D02*
X2359Y1679D01*
X0Y1678D02*
X7Y1678D01*
X2352Y1678D02*
X2359Y1678D01*
X0Y1677D02*
X7Y1677D01*
X2352Y1677D02*
X2359Y1677D01*
X0Y1676D02*
X7Y1676D01*
X2352Y1676D02*
X2359Y1676D01*
X0Y1675D02*
X7Y1675D01*
X2352Y1675D02*
X2359Y1675D01*
X0Y1674D02*
X7Y1674D01*
X2352Y1674D02*
X2359Y1674D01*
X0Y1673D02*
X7Y1673D01*
X2352Y1673D02*
X2359Y1673D01*
X0Y1672D02*
X7Y1672D01*
X2352Y1672D02*
X2359Y1672D01*
X0Y1671D02*
X7Y1671D01*
X2352Y1671D02*
X2359Y1671D01*
X0Y1670D02*
X7Y1670D01*
X2352Y1670D02*
X2359Y1670D01*
X0Y1669D02*
X7Y1669D01*
X2352Y1669D02*
X2359Y1669D01*
X0Y1668D02*
X7Y1668D01*
X2352Y1668D02*
X2359Y1668D01*
X0Y1667D02*
X7Y1667D01*
X2352Y1667D02*
X2359Y1667D01*
X0Y1666D02*
X7Y1666D01*
X2352Y1666D02*
X2359Y1666D01*
X0Y1665D02*
X7Y1665D01*
X2352Y1665D02*
X2359Y1665D01*
X0Y1664D02*
X7Y1664D01*
X2352Y1664D02*
X2359Y1664D01*
X0Y1663D02*
X7Y1663D01*
X2352Y1663D02*
X2359Y1663D01*
X0Y1662D02*
X7Y1662D01*
X2352Y1662D02*
X2359Y1662D01*
X0Y1661D02*
X7Y1661D01*
X2352Y1661D02*
X2359Y1661D01*
X0Y1660D02*
X7Y1660D01*
X2352Y1660D02*
X2359Y1660D01*
X0Y1659D02*
X7Y1659D01*
X2352Y1659D02*
X2359Y1659D01*
X0Y1658D02*
X7Y1658D01*
X2352Y1658D02*
X2359Y1658D01*
X0Y1657D02*
X7Y1657D01*
X2352Y1657D02*
X2359Y1657D01*
X0Y1656D02*
X7Y1656D01*
X2352Y1656D02*
X2359Y1656D01*
X0Y1655D02*
X7Y1655D01*
X2352Y1655D02*
X2359Y1655D01*
X0Y1654D02*
X7Y1654D01*
X2352Y1654D02*
X2359Y1654D01*
X0Y1653D02*
X7Y1653D01*
X2352Y1653D02*
X2359Y1653D01*
X0Y1652D02*
X7Y1652D01*
X2352Y1652D02*
X2359Y1652D01*
X0Y1651D02*
X7Y1651D01*
X2352Y1651D02*
X2359Y1651D01*
X0Y1650D02*
X7Y1650D01*
X2352Y1650D02*
X2359Y1650D01*
X0Y1649D02*
X7Y1649D01*
X2352Y1649D02*
X2359Y1649D01*
X0Y1648D02*
X7Y1648D01*
X2352Y1648D02*
X2359Y1648D01*
X0Y1647D02*
X7Y1647D01*
X2352Y1647D02*
X2359Y1647D01*
X0Y1646D02*
X7Y1646D01*
X2352Y1646D02*
X2359Y1646D01*
X0Y1645D02*
X7Y1645D01*
X2352Y1645D02*
X2359Y1645D01*
X0Y1644D02*
X7Y1644D01*
X2352Y1644D02*
X2359Y1644D01*
X0Y1643D02*
X7Y1643D01*
X2352Y1643D02*
X2359Y1643D01*
X0Y1642D02*
X7Y1642D01*
X2352Y1642D02*
X2359Y1642D01*
X0Y1641D02*
X7Y1641D01*
X2352Y1641D02*
X2359Y1641D01*
X0Y1640D02*
X7Y1640D01*
X2352Y1640D02*
X2359Y1640D01*
X0Y1639D02*
X7Y1639D01*
X2352Y1639D02*
X2359Y1639D01*
X0Y1638D02*
X7Y1638D01*
X2352Y1638D02*
X2359Y1638D01*
X0Y1637D02*
X7Y1637D01*
X2352Y1637D02*
X2359Y1637D01*
X0Y1636D02*
X7Y1636D01*
X2352Y1636D02*
X2359Y1636D01*
X0Y1635D02*
X7Y1635D01*
X2352Y1635D02*
X2359Y1635D01*
X0Y1634D02*
X7Y1634D01*
X2352Y1634D02*
X2359Y1634D01*
X0Y1633D02*
X7Y1633D01*
X2352Y1633D02*
X2359Y1633D01*
X0Y1632D02*
X7Y1632D01*
X2352Y1632D02*
X2359Y1632D01*
X0Y1631D02*
X7Y1631D01*
X2352Y1631D02*
X2359Y1631D01*
X0Y1630D02*
X7Y1630D01*
X2352Y1630D02*
X2359Y1630D01*
X0Y1629D02*
X7Y1629D01*
X2352Y1629D02*
X2359Y1629D01*
X0Y1628D02*
X7Y1628D01*
X2352Y1628D02*
X2359Y1628D01*
X0Y1627D02*
X7Y1627D01*
X2352Y1627D02*
X2359Y1627D01*
X0Y1626D02*
X7Y1626D01*
X2352Y1626D02*
X2359Y1626D01*
X0Y1625D02*
X7Y1625D01*
X2352Y1625D02*
X2359Y1625D01*
X0Y1624D02*
X7Y1624D01*
X2352Y1624D02*
X2359Y1624D01*
X0Y1623D02*
X7Y1623D01*
X2352Y1623D02*
X2359Y1623D01*
X0Y1622D02*
X7Y1622D01*
X2352Y1622D02*
X2359Y1622D01*
X0Y1621D02*
X7Y1621D01*
X2352Y1621D02*
X2359Y1621D01*
X0Y1620D02*
X7Y1620D01*
X2352Y1620D02*
X2359Y1620D01*
X0Y1619D02*
X7Y1619D01*
X2352Y1619D02*
X2359Y1619D01*
X0Y1618D02*
X7Y1618D01*
X2352Y1618D02*
X2359Y1618D01*
X0Y1617D02*
X7Y1617D01*
X2352Y1617D02*
X2359Y1617D01*
X0Y1616D02*
X7Y1616D01*
X2352Y1616D02*
X2359Y1616D01*
X0Y1615D02*
X7Y1615D01*
X2352Y1615D02*
X2359Y1615D01*
X0Y1614D02*
X7Y1614D01*
X2352Y1614D02*
X2359Y1614D01*
X0Y1613D02*
X7Y1613D01*
X2352Y1613D02*
X2359Y1613D01*
X0Y1612D02*
X7Y1612D01*
X2352Y1612D02*
X2359Y1612D01*
X0Y1611D02*
X7Y1611D01*
X2352Y1611D02*
X2359Y1611D01*
X0Y1610D02*
X7Y1610D01*
X2352Y1610D02*
X2359Y1610D01*
X0Y1609D02*
X7Y1609D01*
X2352Y1609D02*
X2359Y1609D01*
X0Y1608D02*
X7Y1608D01*
X2352Y1608D02*
X2359Y1608D01*
X0Y1607D02*
X7Y1607D01*
X2352Y1607D02*
X2359Y1607D01*
X0Y1606D02*
X7Y1606D01*
X2352Y1606D02*
X2359Y1606D01*
X0Y1605D02*
X7Y1605D01*
X2352Y1605D02*
X2359Y1605D01*
X0Y1604D02*
X7Y1604D01*
X2352Y1604D02*
X2359Y1604D01*
X0Y1603D02*
X7Y1603D01*
X2352Y1603D02*
X2359Y1603D01*
X0Y1602D02*
X7Y1602D01*
X2352Y1602D02*
X2359Y1602D01*
X0Y1601D02*
X7Y1601D01*
X2352Y1601D02*
X2359Y1601D01*
X0Y1600D02*
X7Y1600D01*
X2352Y1600D02*
X2359Y1600D01*
X0Y1599D02*
X7Y1599D01*
X2352Y1599D02*
X2359Y1599D01*
X0Y1598D02*
X7Y1598D01*
X2352Y1598D02*
X2359Y1598D01*
X0Y1597D02*
X7Y1597D01*
X2352Y1597D02*
X2359Y1597D01*
X0Y1596D02*
X7Y1596D01*
X2352Y1596D02*
X2359Y1596D01*
X0Y1595D02*
X7Y1595D01*
X2352Y1595D02*
X2359Y1595D01*
X0Y1594D02*
X7Y1594D01*
X2352Y1594D02*
X2359Y1594D01*
X0Y1593D02*
X7Y1593D01*
X2352Y1593D02*
X2359Y1593D01*
X0Y1592D02*
X7Y1592D01*
X2352Y1592D02*
X2359Y1592D01*
X0Y1591D02*
X7Y1591D01*
X2352Y1591D02*
X2359Y1591D01*
X0Y1590D02*
X7Y1590D01*
X2352Y1590D02*
X2359Y1590D01*
X0Y1589D02*
X7Y1589D01*
X2352Y1589D02*
X2359Y1589D01*
X0Y1588D02*
X7Y1588D01*
X2352Y1588D02*
X2359Y1588D01*
X0Y1587D02*
X7Y1587D01*
X2352Y1587D02*
X2359Y1587D01*
X0Y1586D02*
X7Y1586D01*
X2352Y1586D02*
X2359Y1586D01*
X0Y1585D02*
X7Y1585D01*
X2352Y1585D02*
X2359Y1585D01*
X0Y1584D02*
X7Y1584D01*
X2352Y1584D02*
X2359Y1584D01*
X0Y1583D02*
X7Y1583D01*
X2352Y1583D02*
X2359Y1583D01*
X0Y1582D02*
X7Y1582D01*
X2352Y1582D02*
X2359Y1582D01*
X0Y1581D02*
X7Y1581D01*
X2352Y1581D02*
X2359Y1581D01*
X0Y1580D02*
X7Y1580D01*
X2352Y1580D02*
X2359Y1580D01*
X0Y1579D02*
X7Y1579D01*
X2352Y1579D02*
X2359Y1579D01*
X0Y1578D02*
X7Y1578D01*
X2352Y1578D02*
X2359Y1578D01*
X0Y1577D02*
X7Y1577D01*
X2352Y1577D02*
X2359Y1577D01*
X0Y1576D02*
X7Y1576D01*
X2352Y1576D02*
X2359Y1576D01*
X0Y1575D02*
X7Y1575D01*
X2352Y1575D02*
X2359Y1575D01*
X0Y1574D02*
X7Y1574D01*
X2352Y1574D02*
X2359Y1574D01*
X0Y1573D02*
X7Y1573D01*
X2352Y1573D02*
X2359Y1573D01*
X0Y1572D02*
X7Y1572D01*
X2352Y1572D02*
X2359Y1572D01*
X0Y1571D02*
X7Y1571D01*
X2352Y1571D02*
X2359Y1571D01*
X0Y1570D02*
X7Y1570D01*
X2352Y1570D02*
X2359Y1570D01*
X0Y1569D02*
X7Y1569D01*
X2352Y1569D02*
X2359Y1569D01*
X0Y1568D02*
X7Y1568D01*
X2352Y1568D02*
X2359Y1568D01*
X0Y1567D02*
X7Y1567D01*
X2352Y1567D02*
X2359Y1567D01*
X0Y1566D02*
X7Y1566D01*
X2352Y1566D02*
X2359Y1566D01*
X0Y1565D02*
X7Y1565D01*
X2352Y1565D02*
X2359Y1565D01*
X0Y1564D02*
X7Y1564D01*
X2352Y1564D02*
X2359Y1564D01*
X0Y1563D02*
X7Y1563D01*
X2352Y1563D02*
X2359Y1563D01*
X0Y1562D02*
X7Y1562D01*
X2352Y1562D02*
X2359Y1562D01*
X0Y1561D02*
X7Y1561D01*
X2352Y1561D02*
X2359Y1561D01*
X0Y1560D02*
X7Y1560D01*
X2352Y1560D02*
X2359Y1560D01*
X0Y1559D02*
X7Y1559D01*
X2352Y1559D02*
X2359Y1559D01*
X0Y1558D02*
X7Y1558D01*
X2352Y1558D02*
X2359Y1558D01*
X0Y1557D02*
X7Y1557D01*
X2352Y1557D02*
X2359Y1557D01*
X0Y1556D02*
X7Y1556D01*
X2352Y1556D02*
X2359Y1556D01*
X0Y1555D02*
X7Y1555D01*
X2352Y1555D02*
X2359Y1555D01*
X0Y1554D02*
X7Y1554D01*
X2352Y1554D02*
X2359Y1554D01*
X0Y1553D02*
X7Y1553D01*
X2352Y1553D02*
X2359Y1553D01*
X0Y1552D02*
X7Y1552D01*
X2352Y1552D02*
X2359Y1552D01*
X0Y1551D02*
X7Y1551D01*
X2352Y1551D02*
X2359Y1551D01*
X0Y1550D02*
X7Y1550D01*
X2352Y1550D02*
X2359Y1550D01*
X0Y1549D02*
X7Y1549D01*
X2352Y1549D02*
X2359Y1549D01*
X0Y1548D02*
X7Y1548D01*
X2352Y1548D02*
X2359Y1548D01*
X0Y1547D02*
X7Y1547D01*
X2352Y1547D02*
X2359Y1547D01*
X0Y1546D02*
X7Y1546D01*
X2352Y1546D02*
X2359Y1546D01*
X0Y1545D02*
X7Y1545D01*
X2352Y1545D02*
X2359Y1545D01*
X0Y1544D02*
X7Y1544D01*
X2352Y1544D02*
X2359Y1544D01*
X0Y1543D02*
X7Y1543D01*
X2352Y1543D02*
X2359Y1543D01*
X0Y1542D02*
X7Y1542D01*
X2352Y1542D02*
X2359Y1542D01*
X0Y1541D02*
X7Y1541D01*
X2352Y1541D02*
X2359Y1541D01*
X0Y1540D02*
X7Y1540D01*
X2352Y1540D02*
X2359Y1540D01*
X0Y1539D02*
X7Y1539D01*
X2352Y1539D02*
X2359Y1539D01*
X0Y1538D02*
X7Y1538D01*
X2352Y1538D02*
X2359Y1538D01*
X0Y1537D02*
X7Y1537D01*
X2352Y1537D02*
X2359Y1537D01*
X0Y1536D02*
X7Y1536D01*
X2352Y1536D02*
X2359Y1536D01*
X0Y1535D02*
X7Y1535D01*
X2352Y1535D02*
X2359Y1535D01*
X0Y1534D02*
X7Y1534D01*
X2352Y1534D02*
X2359Y1534D01*
X0Y1533D02*
X7Y1533D01*
X2352Y1533D02*
X2359Y1533D01*
X0Y1532D02*
X7Y1532D01*
X2352Y1532D02*
X2359Y1532D01*
X0Y1531D02*
X7Y1531D01*
X2352Y1531D02*
X2359Y1531D01*
X0Y1530D02*
X7Y1530D01*
X2352Y1530D02*
X2359Y1530D01*
X0Y1529D02*
X7Y1529D01*
X2352Y1529D02*
X2359Y1529D01*
X0Y1528D02*
X7Y1528D01*
X2352Y1528D02*
X2359Y1528D01*
X0Y1527D02*
X7Y1527D01*
X2352Y1527D02*
X2359Y1527D01*
X0Y1526D02*
X7Y1526D01*
X2352Y1526D02*
X2359Y1526D01*
X0Y1525D02*
X7Y1525D01*
X2352Y1525D02*
X2359Y1525D01*
X0Y1524D02*
X7Y1524D01*
X2352Y1524D02*
X2359Y1524D01*
X0Y1523D02*
X7Y1523D01*
X2352Y1523D02*
X2359Y1523D01*
X0Y1522D02*
X7Y1522D01*
X2352Y1522D02*
X2359Y1522D01*
X0Y1521D02*
X7Y1521D01*
X2352Y1521D02*
X2359Y1521D01*
X0Y1520D02*
X7Y1520D01*
X2352Y1520D02*
X2359Y1520D01*
X0Y1519D02*
X7Y1519D01*
X2352Y1519D02*
X2359Y1519D01*
X0Y1518D02*
X7Y1518D01*
X2352Y1518D02*
X2359Y1518D01*
X0Y1517D02*
X7Y1517D01*
X2352Y1517D02*
X2359Y1517D01*
X0Y1516D02*
X7Y1516D01*
X2352Y1516D02*
X2359Y1516D01*
X0Y1515D02*
X7Y1515D01*
X2352Y1515D02*
X2359Y1515D01*
X0Y1514D02*
X7Y1514D01*
X2352Y1514D02*
X2359Y1514D01*
X0Y1513D02*
X7Y1513D01*
X2352Y1513D02*
X2359Y1513D01*
X0Y1512D02*
X7Y1512D01*
X2352Y1512D02*
X2359Y1512D01*
X0Y1511D02*
X7Y1511D01*
X2352Y1511D02*
X2359Y1511D01*
X0Y1510D02*
X7Y1510D01*
X2352Y1510D02*
X2359Y1510D01*
X0Y1509D02*
X7Y1509D01*
X2352Y1509D02*
X2359Y1509D01*
X0Y1508D02*
X7Y1508D01*
X2352Y1508D02*
X2359Y1508D01*
X0Y1507D02*
X7Y1507D01*
X2352Y1507D02*
X2359Y1507D01*
X0Y1506D02*
X7Y1506D01*
X2352Y1506D02*
X2359Y1506D01*
X0Y1505D02*
X7Y1505D01*
X2352Y1505D02*
X2359Y1505D01*
X0Y1504D02*
X7Y1504D01*
X2352Y1504D02*
X2359Y1504D01*
X0Y1503D02*
X7Y1503D01*
X2352Y1503D02*
X2359Y1503D01*
X0Y1502D02*
X7Y1502D01*
X2352Y1502D02*
X2359Y1502D01*
X0Y1501D02*
X7Y1501D01*
X2352Y1501D02*
X2359Y1501D01*
X0Y1500D02*
X7Y1500D01*
X2352Y1500D02*
X2359Y1500D01*
X0Y1499D02*
X7Y1499D01*
X2352Y1499D02*
X2359Y1499D01*
X0Y1498D02*
X7Y1498D01*
X2352Y1498D02*
X2359Y1498D01*
X0Y1497D02*
X7Y1497D01*
X2352Y1497D02*
X2359Y1497D01*
X0Y1496D02*
X7Y1496D01*
X2352Y1496D02*
X2359Y1496D01*
X0Y1495D02*
X7Y1495D01*
X2352Y1495D02*
X2359Y1495D01*
X0Y1494D02*
X7Y1494D01*
X2352Y1494D02*
X2359Y1494D01*
X0Y1493D02*
X7Y1493D01*
X2352Y1493D02*
X2359Y1493D01*
X0Y1492D02*
X7Y1492D01*
X2352Y1492D02*
X2359Y1492D01*
X0Y1491D02*
X7Y1491D01*
X2352Y1491D02*
X2359Y1491D01*
X0Y1490D02*
X7Y1490D01*
X2352Y1490D02*
X2359Y1490D01*
X0Y1489D02*
X7Y1489D01*
X2352Y1489D02*
X2359Y1489D01*
X0Y1488D02*
X7Y1488D01*
X2352Y1488D02*
X2359Y1488D01*
X0Y1487D02*
X7Y1487D01*
X2352Y1487D02*
X2359Y1487D01*
X0Y1486D02*
X7Y1486D01*
X2352Y1486D02*
X2359Y1486D01*
X0Y1485D02*
X7Y1485D01*
X2352Y1485D02*
X2359Y1485D01*
X0Y1484D02*
X7Y1484D01*
X2352Y1484D02*
X2359Y1484D01*
X0Y1483D02*
X7Y1483D01*
X2352Y1483D02*
X2359Y1483D01*
X0Y1482D02*
X7Y1482D01*
X2352Y1482D02*
X2359Y1482D01*
X0Y1481D02*
X7Y1481D01*
X2352Y1481D02*
X2359Y1481D01*
X0Y1480D02*
X7Y1480D01*
X2352Y1480D02*
X2359Y1480D01*
X0Y1479D02*
X7Y1479D01*
X2352Y1479D02*
X2359Y1479D01*
X0Y1478D02*
X7Y1478D01*
X2352Y1478D02*
X2359Y1478D01*
X0Y1477D02*
X7Y1477D01*
X2352Y1477D02*
X2359Y1477D01*
X0Y1476D02*
X7Y1476D01*
X2352Y1476D02*
X2359Y1476D01*
X0Y1475D02*
X7Y1475D01*
X2352Y1475D02*
X2359Y1475D01*
X0Y1474D02*
X7Y1474D01*
X2352Y1474D02*
X2359Y1474D01*
X0Y1473D02*
X7Y1473D01*
X2352Y1473D02*
X2359Y1473D01*
X0Y1472D02*
X7Y1472D01*
X2352Y1472D02*
X2359Y1472D01*
X0Y1471D02*
X7Y1471D01*
X2352Y1471D02*
X2359Y1471D01*
X0Y1470D02*
X7Y1470D01*
X2352Y1470D02*
X2359Y1470D01*
X0Y1469D02*
X7Y1469D01*
X2352Y1469D02*
X2359Y1469D01*
X0Y1468D02*
X7Y1468D01*
X2352Y1468D02*
X2359Y1468D01*
X0Y1467D02*
X7Y1467D01*
X2352Y1467D02*
X2359Y1467D01*
X0Y1466D02*
X7Y1466D01*
X2352Y1466D02*
X2359Y1466D01*
X0Y1465D02*
X7Y1465D01*
X2352Y1465D02*
X2359Y1465D01*
X0Y1464D02*
X7Y1464D01*
X2352Y1464D02*
X2359Y1464D01*
X0Y1463D02*
X7Y1463D01*
X2352Y1463D02*
X2359Y1463D01*
X0Y1462D02*
X7Y1462D01*
X2352Y1462D02*
X2359Y1462D01*
X0Y1461D02*
X7Y1461D01*
X2352Y1461D02*
X2359Y1461D01*
X0Y1460D02*
X7Y1460D01*
X2352Y1460D02*
X2359Y1460D01*
X0Y1459D02*
X7Y1459D01*
X2352Y1459D02*
X2359Y1459D01*
X0Y1458D02*
X7Y1458D01*
X2352Y1458D02*
X2359Y1458D01*
X0Y1457D02*
X7Y1457D01*
X2352Y1457D02*
X2359Y1457D01*
X0Y1456D02*
X7Y1456D01*
X2352Y1456D02*
X2359Y1456D01*
X0Y1455D02*
X7Y1455D01*
X2352Y1455D02*
X2359Y1455D01*
X0Y1454D02*
X7Y1454D01*
X2352Y1454D02*
X2359Y1454D01*
X0Y1453D02*
X7Y1453D01*
X2352Y1453D02*
X2359Y1453D01*
X0Y1452D02*
X7Y1452D01*
X2352Y1452D02*
X2359Y1452D01*
X0Y1451D02*
X7Y1451D01*
X2352Y1451D02*
X2359Y1451D01*
X0Y1450D02*
X7Y1450D01*
X2352Y1450D02*
X2359Y1450D01*
X0Y1449D02*
X7Y1449D01*
X2352Y1449D02*
X2359Y1449D01*
X0Y1448D02*
X7Y1448D01*
X2352Y1448D02*
X2359Y1448D01*
X0Y1447D02*
X7Y1447D01*
X2352Y1447D02*
X2359Y1447D01*
X0Y1446D02*
X7Y1446D01*
X2352Y1446D02*
X2359Y1446D01*
X0Y1445D02*
X7Y1445D01*
X2352Y1445D02*
X2359Y1445D01*
X0Y1444D02*
X7Y1444D01*
X2352Y1444D02*
X2359Y1444D01*
X0Y1443D02*
X7Y1443D01*
X2352Y1443D02*
X2359Y1443D01*
X0Y1442D02*
X7Y1442D01*
X2352Y1442D02*
X2359Y1442D01*
X0Y1441D02*
X7Y1441D01*
X2352Y1441D02*
X2359Y1441D01*
X0Y1440D02*
X7Y1440D01*
X2352Y1440D02*
X2359Y1440D01*
X0Y1439D02*
X7Y1439D01*
X2352Y1439D02*
X2359Y1439D01*
X0Y1438D02*
X7Y1438D01*
X2352Y1438D02*
X2359Y1438D01*
X0Y1437D02*
X7Y1437D01*
X2352Y1437D02*
X2359Y1437D01*
X0Y1436D02*
X7Y1436D01*
X2352Y1436D02*
X2359Y1436D01*
X0Y1435D02*
X7Y1435D01*
X2352Y1435D02*
X2359Y1435D01*
X0Y1434D02*
X7Y1434D01*
X2352Y1434D02*
X2359Y1434D01*
X0Y1433D02*
X7Y1433D01*
X2352Y1433D02*
X2359Y1433D01*
X0Y1432D02*
X7Y1432D01*
X2352Y1432D02*
X2359Y1432D01*
X0Y1431D02*
X7Y1431D01*
X2352Y1431D02*
X2359Y1431D01*
X0Y1430D02*
X7Y1430D01*
X2352Y1430D02*
X2359Y1430D01*
X0Y1429D02*
X7Y1429D01*
X2352Y1429D02*
X2359Y1429D01*
X0Y1428D02*
X7Y1428D01*
X2352Y1428D02*
X2359Y1428D01*
X0Y1427D02*
X7Y1427D01*
X2352Y1427D02*
X2359Y1427D01*
X0Y1426D02*
X7Y1426D01*
X2352Y1426D02*
X2359Y1426D01*
X0Y1425D02*
X7Y1425D01*
X2352Y1425D02*
X2359Y1425D01*
X0Y1424D02*
X7Y1424D01*
X2352Y1424D02*
X2359Y1424D01*
X0Y1423D02*
X7Y1423D01*
X2352Y1423D02*
X2359Y1423D01*
X0Y1422D02*
X7Y1422D01*
X2352Y1422D02*
X2359Y1422D01*
X0Y1421D02*
X7Y1421D01*
X2352Y1421D02*
X2359Y1421D01*
X0Y1420D02*
X7Y1420D01*
X2352Y1420D02*
X2359Y1420D01*
X0Y1419D02*
X7Y1419D01*
X2352Y1419D02*
X2359Y1419D01*
X0Y1418D02*
X7Y1418D01*
X2352Y1418D02*
X2359Y1418D01*
X0Y1417D02*
X7Y1417D01*
X2352Y1417D02*
X2359Y1417D01*
X0Y1416D02*
X7Y1416D01*
X2352Y1416D02*
X2359Y1416D01*
X0Y1415D02*
X7Y1415D01*
X2352Y1415D02*
X2359Y1415D01*
X0Y1414D02*
X7Y1414D01*
X2352Y1414D02*
X2359Y1414D01*
X0Y1413D02*
X7Y1413D01*
X2352Y1413D02*
X2359Y1413D01*
X0Y1412D02*
X7Y1412D01*
X2352Y1412D02*
X2359Y1412D01*
X0Y1411D02*
X7Y1411D01*
X2352Y1411D02*
X2359Y1411D01*
X0Y1410D02*
X7Y1410D01*
X2352Y1410D02*
X2359Y1410D01*
X0Y1409D02*
X7Y1409D01*
X2352Y1409D02*
X2359Y1409D01*
X0Y1408D02*
X7Y1408D01*
X2352Y1408D02*
X2359Y1408D01*
X0Y1407D02*
X7Y1407D01*
X2352Y1407D02*
X2359Y1407D01*
X0Y1406D02*
X7Y1406D01*
X2352Y1406D02*
X2359Y1406D01*
X0Y1405D02*
X7Y1405D01*
X2352Y1405D02*
X2359Y1405D01*
X0Y1404D02*
X7Y1404D01*
X2352Y1404D02*
X2359Y1404D01*
X0Y1403D02*
X7Y1403D01*
X2352Y1403D02*
X2359Y1403D01*
X0Y1402D02*
X7Y1402D01*
X2352Y1402D02*
X2359Y1402D01*
X0Y1401D02*
X7Y1401D01*
X2352Y1401D02*
X2359Y1401D01*
X0Y1400D02*
X7Y1400D01*
X2352Y1400D02*
X2359Y1400D01*
X0Y1399D02*
X7Y1399D01*
X2352Y1399D02*
X2359Y1399D01*
X0Y1398D02*
X7Y1398D01*
X2352Y1398D02*
X2359Y1398D01*
X0Y1397D02*
X7Y1397D01*
X2352Y1397D02*
X2359Y1397D01*
X0Y1396D02*
X7Y1396D01*
X2352Y1396D02*
X2359Y1396D01*
X0Y1395D02*
X7Y1395D01*
X2352Y1395D02*
X2359Y1395D01*
X0Y1394D02*
X7Y1394D01*
X2352Y1394D02*
X2359Y1394D01*
X0Y1393D02*
X7Y1393D01*
X2352Y1393D02*
X2359Y1393D01*
X0Y1392D02*
X7Y1392D01*
X2352Y1392D02*
X2359Y1392D01*
X0Y1391D02*
X7Y1391D01*
X2352Y1391D02*
X2359Y1391D01*
X0Y1390D02*
X7Y1390D01*
X2352Y1390D02*
X2359Y1390D01*
X0Y1389D02*
X7Y1389D01*
X2352Y1389D02*
X2359Y1389D01*
X0Y1388D02*
X7Y1388D01*
X2352Y1388D02*
X2359Y1388D01*
X0Y1387D02*
X7Y1387D01*
X2352Y1387D02*
X2359Y1387D01*
X0Y1386D02*
X7Y1386D01*
X2352Y1386D02*
X2359Y1386D01*
X0Y1385D02*
X7Y1385D01*
X2352Y1385D02*
X2359Y1385D01*
X0Y1384D02*
X7Y1384D01*
X2352Y1384D02*
X2359Y1384D01*
X0Y1383D02*
X7Y1383D01*
X2352Y1383D02*
X2359Y1383D01*
X0Y1382D02*
X7Y1382D01*
X2352Y1382D02*
X2359Y1382D01*
X0Y1381D02*
X7Y1381D01*
X2352Y1381D02*
X2359Y1381D01*
X0Y1380D02*
X7Y1380D01*
X2352Y1380D02*
X2359Y1380D01*
X0Y1379D02*
X7Y1379D01*
X2352Y1379D02*
X2359Y1379D01*
X0Y1378D02*
X7Y1378D01*
X2352Y1378D02*
X2359Y1378D01*
X0Y1377D02*
X7Y1377D01*
X2352Y1377D02*
X2359Y1377D01*
X0Y1376D02*
X7Y1376D01*
X2352Y1376D02*
X2359Y1376D01*
X0Y1375D02*
X7Y1375D01*
X2352Y1375D02*
X2359Y1375D01*
X0Y1374D02*
X7Y1374D01*
X2352Y1374D02*
X2359Y1374D01*
X0Y1373D02*
X7Y1373D01*
X2352Y1373D02*
X2359Y1373D01*
X0Y1372D02*
X7Y1372D01*
X2352Y1372D02*
X2359Y1372D01*
X0Y1371D02*
X7Y1371D01*
X2352Y1371D02*
X2359Y1371D01*
X0Y1370D02*
X7Y1370D01*
X2352Y1370D02*
X2359Y1370D01*
X0Y1369D02*
X7Y1369D01*
X2352Y1369D02*
X2359Y1369D01*
X0Y1368D02*
X7Y1368D01*
X2352Y1368D02*
X2359Y1368D01*
X0Y1367D02*
X7Y1367D01*
X2352Y1367D02*
X2359Y1367D01*
X0Y1366D02*
X7Y1366D01*
X2352Y1366D02*
X2359Y1366D01*
X0Y1365D02*
X7Y1365D01*
X2352Y1365D02*
X2359Y1365D01*
X0Y1364D02*
X7Y1364D01*
X2352Y1364D02*
X2359Y1364D01*
X0Y1363D02*
X7Y1363D01*
X2352Y1363D02*
X2359Y1363D01*
X0Y1362D02*
X7Y1362D01*
X2352Y1362D02*
X2359Y1362D01*
X0Y1361D02*
X7Y1361D01*
X2352Y1361D02*
X2359Y1361D01*
X0Y1360D02*
X7Y1360D01*
X2352Y1360D02*
X2359Y1360D01*
X0Y1359D02*
X7Y1359D01*
X2352Y1359D02*
X2359Y1359D01*
X0Y1358D02*
X7Y1358D01*
X2352Y1358D02*
X2359Y1358D01*
X0Y1357D02*
X7Y1357D01*
X2352Y1357D02*
X2359Y1357D01*
X0Y1356D02*
X7Y1356D01*
X2352Y1356D02*
X2359Y1356D01*
X0Y1355D02*
X7Y1355D01*
X2352Y1355D02*
X2359Y1355D01*
X0Y1354D02*
X7Y1354D01*
X2352Y1354D02*
X2359Y1354D01*
X0Y1353D02*
X7Y1353D01*
X2352Y1353D02*
X2359Y1353D01*
X0Y1352D02*
X7Y1352D01*
X2352Y1352D02*
X2359Y1352D01*
X0Y1351D02*
X7Y1351D01*
X2352Y1351D02*
X2359Y1351D01*
X0Y1350D02*
X7Y1350D01*
X2352Y1350D02*
X2359Y1350D01*
X0Y1349D02*
X7Y1349D01*
X2352Y1349D02*
X2359Y1349D01*
X0Y1348D02*
X7Y1348D01*
X2352Y1348D02*
X2359Y1348D01*
X0Y1347D02*
X7Y1347D01*
X2352Y1347D02*
X2359Y1347D01*
X0Y1346D02*
X7Y1346D01*
X2352Y1346D02*
X2359Y1346D01*
X0Y1345D02*
X7Y1345D01*
X2352Y1345D02*
X2359Y1345D01*
X0Y1344D02*
X7Y1344D01*
X2352Y1344D02*
X2359Y1344D01*
X0Y1343D02*
X7Y1343D01*
X2352Y1343D02*
X2359Y1343D01*
X0Y1342D02*
X7Y1342D01*
X2352Y1342D02*
X2359Y1342D01*
X0Y1341D02*
X7Y1341D01*
X2352Y1341D02*
X2359Y1341D01*
X0Y1340D02*
X7Y1340D01*
X2352Y1340D02*
X2359Y1340D01*
X0Y1339D02*
X7Y1339D01*
X2352Y1339D02*
X2359Y1339D01*
X0Y1338D02*
X7Y1338D01*
X2352Y1338D02*
X2359Y1338D01*
X0Y1337D02*
X7Y1337D01*
X2352Y1337D02*
X2359Y1337D01*
X0Y1336D02*
X7Y1336D01*
X2352Y1336D02*
X2359Y1336D01*
X0Y1335D02*
X7Y1335D01*
X2352Y1335D02*
X2359Y1335D01*
X0Y1334D02*
X7Y1334D01*
X2352Y1334D02*
X2359Y1334D01*
X0Y1333D02*
X7Y1333D01*
X2352Y1333D02*
X2359Y1333D01*
X0Y1332D02*
X7Y1332D01*
X2352Y1332D02*
X2359Y1332D01*
X0Y1331D02*
X7Y1331D01*
X2352Y1331D02*
X2359Y1331D01*
X0Y1330D02*
X7Y1330D01*
X2352Y1330D02*
X2359Y1330D01*
X0Y1329D02*
X7Y1329D01*
X2352Y1329D02*
X2359Y1329D01*
X0Y1328D02*
X7Y1328D01*
X2352Y1328D02*
X2359Y1328D01*
X0Y1327D02*
X7Y1327D01*
X2352Y1327D02*
X2359Y1327D01*
X0Y1326D02*
X7Y1326D01*
X2352Y1326D02*
X2359Y1326D01*
X0Y1325D02*
X7Y1325D01*
X2352Y1325D02*
X2359Y1325D01*
X0Y1324D02*
X7Y1324D01*
X2352Y1324D02*
X2359Y1324D01*
X0Y1323D02*
X7Y1323D01*
X2352Y1323D02*
X2359Y1323D01*
X0Y1322D02*
X7Y1322D01*
X2352Y1322D02*
X2359Y1322D01*
X0Y1321D02*
X7Y1321D01*
X2352Y1321D02*
X2359Y1321D01*
X0Y1320D02*
X7Y1320D01*
X2352Y1320D02*
X2359Y1320D01*
X0Y1319D02*
X7Y1319D01*
X2352Y1319D02*
X2359Y1319D01*
X0Y1318D02*
X7Y1318D01*
X2352Y1318D02*
X2359Y1318D01*
X0Y1317D02*
X7Y1317D01*
X2352Y1317D02*
X2359Y1317D01*
X0Y1316D02*
X7Y1316D01*
X2352Y1316D02*
X2359Y1316D01*
X0Y1315D02*
X7Y1315D01*
X2352Y1315D02*
X2359Y1315D01*
X0Y1314D02*
X7Y1314D01*
X2352Y1314D02*
X2359Y1314D01*
X0Y1313D02*
X7Y1313D01*
X2352Y1313D02*
X2359Y1313D01*
X0Y1312D02*
X7Y1312D01*
X2352Y1312D02*
X2359Y1312D01*
X0Y1311D02*
X7Y1311D01*
X2352Y1311D02*
X2359Y1311D01*
X0Y1310D02*
X7Y1310D01*
X2352Y1310D02*
X2359Y1310D01*
X0Y1309D02*
X7Y1309D01*
X2352Y1309D02*
X2359Y1309D01*
X0Y1308D02*
X7Y1308D01*
X2352Y1308D02*
X2359Y1308D01*
X0Y1307D02*
X7Y1307D01*
X2352Y1307D02*
X2359Y1307D01*
X0Y1306D02*
X7Y1306D01*
X2352Y1306D02*
X2359Y1306D01*
X0Y1305D02*
X7Y1305D01*
X2352Y1305D02*
X2359Y1305D01*
X0Y1304D02*
X7Y1304D01*
X2352Y1304D02*
X2359Y1304D01*
X0Y1303D02*
X7Y1303D01*
X2352Y1303D02*
X2359Y1303D01*
X0Y1302D02*
X7Y1302D01*
X2352Y1302D02*
X2359Y1302D01*
X0Y1301D02*
X7Y1301D01*
X2352Y1301D02*
X2359Y1301D01*
X0Y1300D02*
X7Y1300D01*
X2352Y1300D02*
X2359Y1300D01*
X0Y1299D02*
X7Y1299D01*
X2352Y1299D02*
X2359Y1299D01*
X0Y1298D02*
X7Y1298D01*
X2352Y1298D02*
X2359Y1298D01*
X0Y1297D02*
X7Y1297D01*
X2352Y1297D02*
X2359Y1297D01*
X0Y1296D02*
X7Y1296D01*
X2352Y1296D02*
X2359Y1296D01*
X0Y1295D02*
X7Y1295D01*
X2352Y1295D02*
X2359Y1295D01*
X0Y1294D02*
X7Y1294D01*
X2352Y1294D02*
X2359Y1294D01*
X0Y1293D02*
X7Y1293D01*
X2352Y1293D02*
X2359Y1293D01*
X0Y1292D02*
X7Y1292D01*
X2352Y1292D02*
X2359Y1292D01*
X0Y1291D02*
X7Y1291D01*
X2352Y1291D02*
X2359Y1291D01*
X0Y1290D02*
X7Y1290D01*
X2352Y1290D02*
X2359Y1290D01*
X0Y1289D02*
X7Y1289D01*
X2352Y1289D02*
X2359Y1289D01*
X0Y1288D02*
X7Y1288D01*
X2352Y1288D02*
X2359Y1288D01*
X0Y1287D02*
X7Y1287D01*
X2352Y1287D02*
X2359Y1287D01*
X0Y1286D02*
X7Y1286D01*
X2352Y1286D02*
X2359Y1286D01*
X0Y1285D02*
X7Y1285D01*
X2352Y1285D02*
X2359Y1285D01*
X0Y1284D02*
X7Y1284D01*
X2352Y1284D02*
X2359Y1284D01*
X0Y1283D02*
X7Y1283D01*
X2352Y1283D02*
X2359Y1283D01*
X0Y1282D02*
X7Y1282D01*
X2352Y1282D02*
X2359Y1282D01*
X0Y1281D02*
X7Y1281D01*
X2352Y1281D02*
X2359Y1281D01*
X0Y1280D02*
X7Y1280D01*
X2352Y1280D02*
X2359Y1280D01*
X0Y1279D02*
X7Y1279D01*
X2352Y1279D02*
X2359Y1279D01*
X0Y1278D02*
X7Y1278D01*
X2352Y1278D02*
X2359Y1278D01*
X0Y1277D02*
X7Y1277D01*
X2352Y1277D02*
X2359Y1277D01*
X0Y1276D02*
X7Y1276D01*
X2352Y1276D02*
X2359Y1276D01*
X0Y1275D02*
X7Y1275D01*
X2352Y1275D02*
X2359Y1275D01*
X0Y1274D02*
X7Y1274D01*
X2352Y1274D02*
X2359Y1274D01*
X0Y1273D02*
X7Y1273D01*
X2352Y1273D02*
X2359Y1273D01*
X0Y1272D02*
X7Y1272D01*
X2352Y1272D02*
X2359Y1272D01*
X0Y1271D02*
X7Y1271D01*
X2352Y1271D02*
X2359Y1271D01*
X0Y1270D02*
X7Y1270D01*
X2352Y1270D02*
X2359Y1270D01*
X0Y1269D02*
X7Y1269D01*
X2352Y1269D02*
X2359Y1269D01*
X0Y1268D02*
X7Y1268D01*
X2352Y1268D02*
X2359Y1268D01*
X0Y1267D02*
X7Y1267D01*
X2352Y1267D02*
X2359Y1267D01*
X0Y1266D02*
X7Y1266D01*
X2352Y1266D02*
X2359Y1266D01*
X0Y1265D02*
X7Y1265D01*
X2352Y1265D02*
X2359Y1265D01*
X0Y1264D02*
X7Y1264D01*
X2352Y1264D02*
X2359Y1264D01*
X0Y1263D02*
X7Y1263D01*
X2352Y1263D02*
X2359Y1263D01*
X0Y1262D02*
X7Y1262D01*
X2352Y1262D02*
X2359Y1262D01*
X0Y1261D02*
X7Y1261D01*
X2352Y1261D02*
X2359Y1261D01*
X0Y1260D02*
X7Y1260D01*
X2352Y1260D02*
X2359Y1260D01*
X0Y1259D02*
X7Y1259D01*
X2352Y1259D02*
X2359Y1259D01*
X0Y1258D02*
X7Y1258D01*
X2352Y1258D02*
X2359Y1258D01*
X0Y1257D02*
X7Y1257D01*
X2352Y1257D02*
X2359Y1257D01*
X0Y1256D02*
X7Y1256D01*
X2352Y1256D02*
X2359Y1256D01*
X0Y1255D02*
X7Y1255D01*
X2352Y1255D02*
X2359Y1255D01*
X0Y1254D02*
X7Y1254D01*
X2352Y1254D02*
X2359Y1254D01*
X0Y1253D02*
X7Y1253D01*
X2352Y1253D02*
X2359Y1253D01*
X0Y1252D02*
X7Y1252D01*
X2352Y1252D02*
X2359Y1252D01*
X0Y1251D02*
X7Y1251D01*
X2352Y1251D02*
X2359Y1251D01*
X0Y1250D02*
X7Y1250D01*
X2352Y1250D02*
X2359Y1250D01*
X0Y1249D02*
X7Y1249D01*
X2352Y1249D02*
X2359Y1249D01*
X0Y1248D02*
X7Y1248D01*
X2352Y1248D02*
X2359Y1248D01*
X0Y1247D02*
X7Y1247D01*
X2352Y1247D02*
X2359Y1247D01*
X0Y1246D02*
X7Y1246D01*
X2352Y1246D02*
X2359Y1246D01*
X0Y1245D02*
X7Y1245D01*
X2352Y1245D02*
X2359Y1245D01*
X0Y1244D02*
X7Y1244D01*
X2352Y1244D02*
X2359Y1244D01*
X0Y1243D02*
X7Y1243D01*
X2352Y1243D02*
X2359Y1243D01*
X0Y1242D02*
X7Y1242D01*
X2352Y1242D02*
X2359Y1242D01*
X0Y1241D02*
X7Y1241D01*
X2352Y1241D02*
X2359Y1241D01*
X0Y1240D02*
X7Y1240D01*
X2352Y1240D02*
X2359Y1240D01*
X0Y1239D02*
X7Y1239D01*
X2352Y1239D02*
X2359Y1239D01*
X0Y1238D02*
X7Y1238D01*
X2352Y1238D02*
X2359Y1238D01*
X0Y1237D02*
X7Y1237D01*
X2352Y1237D02*
X2359Y1237D01*
X0Y1236D02*
X7Y1236D01*
X2352Y1236D02*
X2359Y1236D01*
X0Y1235D02*
X7Y1235D01*
X2352Y1235D02*
X2359Y1235D01*
X0Y1234D02*
X7Y1234D01*
X2352Y1234D02*
X2359Y1234D01*
X0Y1233D02*
X7Y1233D01*
X2352Y1233D02*
X2359Y1233D01*
X0Y1232D02*
X7Y1232D01*
X2352Y1232D02*
X2359Y1232D01*
X0Y1231D02*
X7Y1231D01*
X2352Y1231D02*
X2359Y1231D01*
X0Y1230D02*
X7Y1230D01*
X2352Y1230D02*
X2359Y1230D01*
X0Y1229D02*
X7Y1229D01*
X2352Y1229D02*
X2359Y1229D01*
X0Y1228D02*
X7Y1228D01*
X2352Y1228D02*
X2359Y1228D01*
X0Y1227D02*
X7Y1227D01*
X2352Y1227D02*
X2359Y1227D01*
X0Y1226D02*
X7Y1226D01*
X2352Y1226D02*
X2359Y1226D01*
X0Y1225D02*
X7Y1225D01*
X2352Y1225D02*
X2359Y1225D01*
X0Y1224D02*
X7Y1224D01*
X2352Y1224D02*
X2359Y1224D01*
X0Y1223D02*
X7Y1223D01*
X2352Y1223D02*
X2359Y1223D01*
X0Y1222D02*
X7Y1222D01*
X2352Y1222D02*
X2359Y1222D01*
X0Y1221D02*
X7Y1221D01*
X2352Y1221D02*
X2359Y1221D01*
X0Y1220D02*
X7Y1220D01*
X2352Y1220D02*
X2359Y1220D01*
X0Y1219D02*
X7Y1219D01*
X2352Y1219D02*
X2359Y1219D01*
X0Y1218D02*
X7Y1218D01*
X2352Y1218D02*
X2359Y1218D01*
X0Y1217D02*
X7Y1217D01*
X2352Y1217D02*
X2359Y1217D01*
X0Y1216D02*
X7Y1216D01*
X2352Y1216D02*
X2359Y1216D01*
X0Y1215D02*
X7Y1215D01*
X2352Y1215D02*
X2359Y1215D01*
X0Y1214D02*
X7Y1214D01*
X2352Y1214D02*
X2359Y1214D01*
X0Y1213D02*
X7Y1213D01*
X2352Y1213D02*
X2359Y1213D01*
X0Y1212D02*
X7Y1212D01*
X2352Y1212D02*
X2359Y1212D01*
X0Y1211D02*
X7Y1211D01*
X2352Y1211D02*
X2359Y1211D01*
X0Y1210D02*
X7Y1210D01*
X2352Y1210D02*
X2359Y1210D01*
X0Y1209D02*
X7Y1209D01*
X2352Y1209D02*
X2359Y1209D01*
X0Y1208D02*
X7Y1208D01*
X2352Y1208D02*
X2359Y1208D01*
X0Y1207D02*
X7Y1207D01*
X2352Y1207D02*
X2359Y1207D01*
X0Y1206D02*
X7Y1206D01*
X2352Y1206D02*
X2359Y1206D01*
X0Y1205D02*
X7Y1205D01*
X2352Y1205D02*
X2359Y1205D01*
X0Y1204D02*
X7Y1204D01*
X2352Y1204D02*
X2359Y1204D01*
X0Y1203D02*
X7Y1203D01*
X2352Y1203D02*
X2359Y1203D01*
X0Y1202D02*
X7Y1202D01*
X2352Y1202D02*
X2359Y1202D01*
X0Y1201D02*
X7Y1201D01*
X2352Y1201D02*
X2359Y1201D01*
X0Y1200D02*
X7Y1200D01*
X2352Y1200D02*
X2359Y1200D01*
X0Y1199D02*
X7Y1199D01*
X2352Y1199D02*
X2359Y1199D01*
X0Y1198D02*
X7Y1198D01*
X2352Y1198D02*
X2359Y1198D01*
X0Y1197D02*
X7Y1197D01*
X2352Y1197D02*
X2359Y1197D01*
X0Y1196D02*
X7Y1196D01*
X2352Y1196D02*
X2359Y1196D01*
X0Y1195D02*
X7Y1195D01*
X2352Y1195D02*
X2359Y1195D01*
X0Y1194D02*
X7Y1194D01*
X2352Y1194D02*
X2359Y1194D01*
X0Y1193D02*
X7Y1193D01*
X2352Y1193D02*
X2359Y1193D01*
X0Y1192D02*
X7Y1192D01*
X2352Y1192D02*
X2359Y1192D01*
X0Y1191D02*
X7Y1191D01*
X2352Y1191D02*
X2359Y1191D01*
X0Y1190D02*
X7Y1190D01*
X2352Y1190D02*
X2359Y1190D01*
X0Y1189D02*
X7Y1189D01*
X2352Y1189D02*
X2359Y1189D01*
X0Y1188D02*
X7Y1188D01*
X2352Y1188D02*
X2359Y1188D01*
X0Y1187D02*
X7Y1187D01*
X2352Y1187D02*
X2359Y1187D01*
X0Y1186D02*
X7Y1186D01*
X2352Y1186D02*
X2359Y1186D01*
X0Y1185D02*
X7Y1185D01*
X2352Y1185D02*
X2359Y1185D01*
X0Y1184D02*
X7Y1184D01*
X2352Y1184D02*
X2359Y1184D01*
X0Y1183D02*
X7Y1183D01*
X2352Y1183D02*
X2359Y1183D01*
X0Y1182D02*
X7Y1182D01*
X2352Y1182D02*
X2359Y1182D01*
X0Y1181D02*
X7Y1181D01*
X2352Y1181D02*
X2359Y1181D01*
X0Y1180D02*
X7Y1180D01*
X2352Y1180D02*
X2359Y1180D01*
X0Y1179D02*
X7Y1179D01*
X2352Y1179D02*
X2359Y1179D01*
X0Y1178D02*
X7Y1178D01*
X2352Y1178D02*
X2359Y1178D01*
X0Y1177D02*
X7Y1177D01*
X2352Y1177D02*
X2359Y1177D01*
X0Y1176D02*
X7Y1176D01*
X2352Y1176D02*
X2359Y1176D01*
X0Y1175D02*
X7Y1175D01*
X2352Y1175D02*
X2359Y1175D01*
X0Y1174D02*
X7Y1174D01*
X2352Y1174D02*
X2359Y1174D01*
X0Y1173D02*
X7Y1173D01*
X2352Y1173D02*
X2359Y1173D01*
X0Y1172D02*
X7Y1172D01*
X2352Y1172D02*
X2359Y1172D01*
X0Y1171D02*
X7Y1171D01*
X2352Y1171D02*
X2359Y1171D01*
X0Y1170D02*
X7Y1170D01*
X2352Y1170D02*
X2359Y1170D01*
X0Y1169D02*
X7Y1169D01*
X2352Y1169D02*
X2359Y1169D01*
X0Y1168D02*
X7Y1168D01*
X2352Y1168D02*
X2359Y1168D01*
X0Y1167D02*
X7Y1167D01*
X2352Y1167D02*
X2359Y1167D01*
X0Y1166D02*
X7Y1166D01*
X2352Y1166D02*
X2359Y1166D01*
X0Y1165D02*
X7Y1165D01*
X2352Y1165D02*
X2359Y1165D01*
X0Y1164D02*
X7Y1164D01*
X2352Y1164D02*
X2359Y1164D01*
X0Y1163D02*
X7Y1163D01*
X2352Y1163D02*
X2359Y1163D01*
X0Y1162D02*
X7Y1162D01*
X2352Y1162D02*
X2359Y1162D01*
X0Y1161D02*
X7Y1161D01*
X2352Y1161D02*
X2359Y1161D01*
X0Y1160D02*
X7Y1160D01*
X2352Y1160D02*
X2359Y1160D01*
X0Y1159D02*
X7Y1159D01*
X2352Y1159D02*
X2359Y1159D01*
X0Y1158D02*
X7Y1158D01*
X2352Y1158D02*
X2359Y1158D01*
X0Y1157D02*
X7Y1157D01*
X2352Y1157D02*
X2359Y1157D01*
X0Y1156D02*
X7Y1156D01*
X2352Y1156D02*
X2359Y1156D01*
X0Y1155D02*
X7Y1155D01*
X2352Y1155D02*
X2359Y1155D01*
X0Y1154D02*
X7Y1154D01*
X2352Y1154D02*
X2359Y1154D01*
X0Y1153D02*
X7Y1153D01*
X2352Y1153D02*
X2359Y1153D01*
X0Y1152D02*
X7Y1152D01*
X2352Y1152D02*
X2359Y1152D01*
X0Y1151D02*
X7Y1151D01*
X2352Y1151D02*
X2359Y1151D01*
X0Y1150D02*
X7Y1150D01*
X2352Y1150D02*
X2359Y1150D01*
X0Y1149D02*
X7Y1149D01*
X2352Y1149D02*
X2359Y1149D01*
X0Y1148D02*
X7Y1148D01*
X2352Y1148D02*
X2359Y1148D01*
X0Y1147D02*
X7Y1147D01*
X2352Y1147D02*
X2359Y1147D01*
X0Y1146D02*
X7Y1146D01*
X2352Y1146D02*
X2359Y1146D01*
X0Y1145D02*
X7Y1145D01*
X2352Y1145D02*
X2359Y1145D01*
X0Y1144D02*
X7Y1144D01*
X2352Y1144D02*
X2359Y1144D01*
X0Y1143D02*
X7Y1143D01*
X2352Y1143D02*
X2359Y1143D01*
X0Y1142D02*
X7Y1142D01*
X2352Y1142D02*
X2359Y1142D01*
X0Y1141D02*
X7Y1141D01*
X2352Y1141D02*
X2359Y1141D01*
X0Y1140D02*
X7Y1140D01*
X2352Y1140D02*
X2359Y1140D01*
X0Y1139D02*
X7Y1139D01*
X2352Y1139D02*
X2359Y1139D01*
X0Y1138D02*
X7Y1138D01*
X2352Y1138D02*
X2359Y1138D01*
X0Y1137D02*
X7Y1137D01*
X2352Y1137D02*
X2359Y1137D01*
X0Y1136D02*
X7Y1136D01*
X2352Y1136D02*
X2359Y1136D01*
X0Y1135D02*
X7Y1135D01*
X2352Y1135D02*
X2359Y1135D01*
X0Y1134D02*
X7Y1134D01*
X2352Y1134D02*
X2359Y1134D01*
X0Y1133D02*
X7Y1133D01*
X2352Y1133D02*
X2359Y1133D01*
X0Y1132D02*
X7Y1132D01*
X2352Y1132D02*
X2359Y1132D01*
X0Y1131D02*
X7Y1131D01*
X2352Y1131D02*
X2359Y1131D01*
X0Y1130D02*
X7Y1130D01*
X2352Y1130D02*
X2359Y1130D01*
X0Y1129D02*
X7Y1129D01*
X2352Y1129D02*
X2359Y1129D01*
X0Y1128D02*
X7Y1128D01*
X2352Y1128D02*
X2359Y1128D01*
X0Y1127D02*
X7Y1127D01*
X2352Y1127D02*
X2359Y1127D01*
X0Y1126D02*
X7Y1126D01*
X2352Y1126D02*
X2359Y1126D01*
X0Y1125D02*
X7Y1125D01*
X2352Y1125D02*
X2359Y1125D01*
X0Y1124D02*
X7Y1124D01*
X2352Y1124D02*
X2359Y1124D01*
X0Y1123D02*
X7Y1123D01*
X2352Y1123D02*
X2359Y1123D01*
X0Y1122D02*
X7Y1122D01*
X2352Y1122D02*
X2359Y1122D01*
X0Y1121D02*
X7Y1121D01*
X2352Y1121D02*
X2359Y1121D01*
X0Y1120D02*
X7Y1120D01*
X2352Y1120D02*
X2359Y1120D01*
X0Y1119D02*
X7Y1119D01*
X2352Y1119D02*
X2359Y1119D01*
X0Y1118D02*
X7Y1118D01*
X2352Y1118D02*
X2359Y1118D01*
X0Y1117D02*
X7Y1117D01*
X2352Y1117D02*
X2359Y1117D01*
X0Y1116D02*
X7Y1116D01*
X2352Y1116D02*
X2359Y1116D01*
X0Y1115D02*
X7Y1115D01*
X2352Y1115D02*
X2359Y1115D01*
X0Y1114D02*
X7Y1114D01*
X2352Y1114D02*
X2359Y1114D01*
X0Y1113D02*
X7Y1113D01*
X2352Y1113D02*
X2359Y1113D01*
X0Y1112D02*
X7Y1112D01*
X2352Y1112D02*
X2359Y1112D01*
X0Y1111D02*
X7Y1111D01*
X2352Y1111D02*
X2359Y1111D01*
X0Y1110D02*
X7Y1110D01*
X2352Y1110D02*
X2359Y1110D01*
X0Y1109D02*
X7Y1109D01*
X2352Y1109D02*
X2359Y1109D01*
X0Y1108D02*
X7Y1108D01*
X2352Y1108D02*
X2359Y1108D01*
X0Y1107D02*
X7Y1107D01*
X2352Y1107D02*
X2359Y1107D01*
X0Y1106D02*
X7Y1106D01*
X2352Y1106D02*
X2359Y1106D01*
X0Y1105D02*
X7Y1105D01*
X2352Y1105D02*
X2359Y1105D01*
X0Y1104D02*
X7Y1104D01*
X2352Y1104D02*
X2359Y1104D01*
X0Y1103D02*
X7Y1103D01*
X2352Y1103D02*
X2359Y1103D01*
X0Y1102D02*
X7Y1102D01*
X2352Y1102D02*
X2359Y1102D01*
X0Y1101D02*
X7Y1101D01*
X2352Y1101D02*
X2359Y1101D01*
X0Y1100D02*
X7Y1100D01*
X2352Y1100D02*
X2359Y1100D01*
X0Y1099D02*
X7Y1099D01*
X2352Y1099D02*
X2359Y1099D01*
X0Y1098D02*
X7Y1098D01*
X2352Y1098D02*
X2359Y1098D01*
X0Y1097D02*
X7Y1097D01*
X2352Y1097D02*
X2359Y1097D01*
X0Y1096D02*
X7Y1096D01*
X2352Y1096D02*
X2359Y1096D01*
X0Y1095D02*
X7Y1095D01*
X2352Y1095D02*
X2359Y1095D01*
X0Y1094D02*
X7Y1094D01*
X2352Y1094D02*
X2359Y1094D01*
X0Y1093D02*
X7Y1093D01*
X2352Y1093D02*
X2359Y1093D01*
X0Y1092D02*
X7Y1092D01*
X2352Y1092D02*
X2359Y1092D01*
X0Y1091D02*
X7Y1091D01*
X2352Y1091D02*
X2359Y1091D01*
X0Y1090D02*
X7Y1090D01*
X2352Y1090D02*
X2359Y1090D01*
X0Y1089D02*
X7Y1089D01*
X2352Y1089D02*
X2359Y1089D01*
X0Y1088D02*
X7Y1088D01*
X2352Y1088D02*
X2359Y1088D01*
X0Y1087D02*
X7Y1087D01*
X2352Y1087D02*
X2359Y1087D01*
X0Y1086D02*
X7Y1086D01*
X2352Y1086D02*
X2359Y1086D01*
X0Y1085D02*
X7Y1085D01*
X2352Y1085D02*
X2359Y1085D01*
X0Y1084D02*
X7Y1084D01*
X2352Y1084D02*
X2359Y1084D01*
X0Y1083D02*
X7Y1083D01*
X2352Y1083D02*
X2359Y1083D01*
X0Y1082D02*
X7Y1082D01*
X2352Y1082D02*
X2359Y1082D01*
X0Y1081D02*
X7Y1081D01*
X2352Y1081D02*
X2359Y1081D01*
X0Y1080D02*
X7Y1080D01*
X2352Y1080D02*
X2359Y1080D01*
X0Y1079D02*
X7Y1079D01*
X2352Y1079D02*
X2359Y1079D01*
X0Y1078D02*
X7Y1078D01*
X2352Y1078D02*
X2359Y1078D01*
X0Y1077D02*
X7Y1077D01*
X2352Y1077D02*
X2359Y1077D01*
X0Y1076D02*
X7Y1076D01*
X2352Y1076D02*
X2359Y1076D01*
X0Y1075D02*
X7Y1075D01*
X2352Y1075D02*
X2359Y1075D01*
X0Y1074D02*
X7Y1074D01*
X2352Y1074D02*
X2359Y1074D01*
X0Y1073D02*
X7Y1073D01*
X2352Y1073D02*
X2359Y1073D01*
X0Y1072D02*
X7Y1072D01*
X2352Y1072D02*
X2359Y1072D01*
X0Y1071D02*
X7Y1071D01*
X2352Y1071D02*
X2359Y1071D01*
X0Y1070D02*
X7Y1070D01*
X2352Y1070D02*
X2359Y1070D01*
X0Y1069D02*
X7Y1069D01*
X2352Y1069D02*
X2359Y1069D01*
X0Y1068D02*
X7Y1068D01*
X2352Y1068D02*
X2359Y1068D01*
X0Y1067D02*
X7Y1067D01*
X2352Y1067D02*
X2359Y1067D01*
X0Y1066D02*
X7Y1066D01*
X2352Y1066D02*
X2359Y1066D01*
X0Y1065D02*
X7Y1065D01*
X2352Y1065D02*
X2359Y1065D01*
X0Y1064D02*
X7Y1064D01*
X2352Y1064D02*
X2359Y1064D01*
X0Y1063D02*
X7Y1063D01*
X2352Y1063D02*
X2359Y1063D01*
X0Y1062D02*
X7Y1062D01*
X2352Y1062D02*
X2359Y1062D01*
X0Y1061D02*
X7Y1061D01*
X2352Y1061D02*
X2359Y1061D01*
X0Y1060D02*
X7Y1060D01*
X2352Y1060D02*
X2359Y1060D01*
X0Y1059D02*
X7Y1059D01*
X2352Y1059D02*
X2359Y1059D01*
X0Y1058D02*
X7Y1058D01*
X2352Y1058D02*
X2359Y1058D01*
X0Y1057D02*
X7Y1057D01*
X2352Y1057D02*
X2359Y1057D01*
X0Y1056D02*
X7Y1056D01*
X2352Y1056D02*
X2359Y1056D01*
X0Y1055D02*
X7Y1055D01*
X2352Y1055D02*
X2359Y1055D01*
X0Y1054D02*
X7Y1054D01*
X2352Y1054D02*
X2359Y1054D01*
X0Y1053D02*
X7Y1053D01*
X2352Y1053D02*
X2359Y1053D01*
X0Y1052D02*
X7Y1052D01*
X2352Y1052D02*
X2359Y1052D01*
X0Y1051D02*
X7Y1051D01*
X2352Y1051D02*
X2359Y1051D01*
X0Y1050D02*
X7Y1050D01*
X2352Y1050D02*
X2359Y1050D01*
X0Y1049D02*
X7Y1049D01*
X2352Y1049D02*
X2359Y1049D01*
X0Y1048D02*
X7Y1048D01*
X2352Y1048D02*
X2359Y1048D01*
X0Y1047D02*
X7Y1047D01*
X2352Y1047D02*
X2359Y1047D01*
X0Y1046D02*
X7Y1046D01*
X2352Y1046D02*
X2359Y1046D01*
X0Y1045D02*
X7Y1045D01*
X2352Y1045D02*
X2359Y1045D01*
X0Y1044D02*
X7Y1044D01*
X2352Y1044D02*
X2359Y1044D01*
X0Y1043D02*
X7Y1043D01*
X2352Y1043D02*
X2359Y1043D01*
X0Y1042D02*
X7Y1042D01*
X2352Y1042D02*
X2359Y1042D01*
X0Y1041D02*
X7Y1041D01*
X2352Y1041D02*
X2359Y1041D01*
X0Y1040D02*
X7Y1040D01*
X2352Y1040D02*
X2359Y1040D01*
X0Y1039D02*
X7Y1039D01*
X2352Y1039D02*
X2359Y1039D01*
X0Y1038D02*
X7Y1038D01*
X2352Y1038D02*
X2359Y1038D01*
X0Y1037D02*
X7Y1037D01*
X2352Y1037D02*
X2359Y1037D01*
X0Y1036D02*
X7Y1036D01*
X2352Y1036D02*
X2359Y1036D01*
X0Y1035D02*
X7Y1035D01*
X2352Y1035D02*
X2359Y1035D01*
X0Y1034D02*
X7Y1034D01*
X2352Y1034D02*
X2359Y1034D01*
X0Y1033D02*
X7Y1033D01*
X2352Y1033D02*
X2359Y1033D01*
X0Y1032D02*
X7Y1032D01*
X2352Y1032D02*
X2359Y1032D01*
X0Y1031D02*
X7Y1031D01*
X2352Y1031D02*
X2359Y1031D01*
X0Y1030D02*
X7Y1030D01*
X2352Y1030D02*
X2359Y1030D01*
X0Y1029D02*
X7Y1029D01*
X2352Y1029D02*
X2359Y1029D01*
X0Y1028D02*
X7Y1028D01*
X2352Y1028D02*
X2359Y1028D01*
X0Y1027D02*
X7Y1027D01*
X2352Y1027D02*
X2359Y1027D01*
X0Y1026D02*
X7Y1026D01*
X2352Y1026D02*
X2359Y1026D01*
X0Y1025D02*
X7Y1025D01*
X2352Y1025D02*
X2359Y1025D01*
X0Y1024D02*
X7Y1024D01*
X2352Y1024D02*
X2359Y1024D01*
X0Y1023D02*
X7Y1023D01*
X2352Y1023D02*
X2359Y1023D01*
X0Y1022D02*
X7Y1022D01*
X2352Y1022D02*
X2359Y1022D01*
X0Y1021D02*
X7Y1021D01*
X2352Y1021D02*
X2359Y1021D01*
X0Y1020D02*
X7Y1020D01*
X2352Y1020D02*
X2359Y1020D01*
X0Y1019D02*
X7Y1019D01*
X2352Y1019D02*
X2359Y1019D01*
X0Y1018D02*
X7Y1018D01*
X2352Y1018D02*
X2359Y1018D01*
X0Y1017D02*
X7Y1017D01*
X2352Y1017D02*
X2359Y1017D01*
X0Y1016D02*
X7Y1016D01*
X2352Y1016D02*
X2359Y1016D01*
X0Y1015D02*
X7Y1015D01*
X2352Y1015D02*
X2359Y1015D01*
X0Y1014D02*
X7Y1014D01*
X2352Y1014D02*
X2359Y1014D01*
X0Y1013D02*
X7Y1013D01*
X2352Y1013D02*
X2359Y1013D01*
X0Y1012D02*
X7Y1012D01*
X2352Y1012D02*
X2359Y1012D01*
X0Y1011D02*
X7Y1011D01*
X2352Y1011D02*
X2359Y1011D01*
X0Y1010D02*
X7Y1010D01*
X2352Y1010D02*
X2359Y1010D01*
X0Y1009D02*
X7Y1009D01*
X2352Y1009D02*
X2359Y1009D01*
X0Y1008D02*
X7Y1008D01*
X2352Y1008D02*
X2359Y1008D01*
X0Y1007D02*
X7Y1007D01*
X2352Y1007D02*
X2359Y1007D01*
X0Y1006D02*
X7Y1006D01*
X2352Y1006D02*
X2359Y1006D01*
X0Y1005D02*
X7Y1005D01*
X2352Y1005D02*
X2359Y1005D01*
X0Y1004D02*
X7Y1004D01*
X2352Y1004D02*
X2359Y1004D01*
X0Y1003D02*
X7Y1003D01*
X2352Y1003D02*
X2359Y1003D01*
X0Y1002D02*
X7Y1002D01*
X2352Y1002D02*
X2359Y1002D01*
X0Y1001D02*
X7Y1001D01*
X2352Y1001D02*
X2359Y1001D01*
X0Y1000D02*
X7Y1000D01*
X2352Y1000D02*
X2359Y1000D01*
X0Y999D02*
X7Y999D01*
X2352Y999D02*
X2359Y999D01*
X0Y998D02*
X7Y998D01*
X2352Y998D02*
X2359Y998D01*
X0Y997D02*
X7Y997D01*
X2352Y997D02*
X2359Y997D01*
X0Y996D02*
X7Y996D01*
X2352Y996D02*
X2359Y996D01*
X0Y995D02*
X7Y995D01*
X2352Y995D02*
X2359Y995D01*
X0Y994D02*
X7Y994D01*
X2352Y994D02*
X2359Y994D01*
X0Y993D02*
X7Y993D01*
X2352Y993D02*
X2359Y993D01*
X0Y992D02*
X7Y992D01*
X2352Y992D02*
X2359Y992D01*
X0Y991D02*
X7Y991D01*
X2352Y991D02*
X2359Y991D01*
X0Y990D02*
X7Y990D01*
X2352Y990D02*
X2359Y990D01*
X0Y989D02*
X7Y989D01*
X2352Y989D02*
X2359Y989D01*
X0Y988D02*
X7Y988D01*
X2352Y988D02*
X2359Y988D01*
X0Y987D02*
X7Y987D01*
X2352Y987D02*
X2359Y987D01*
X0Y986D02*
X7Y986D01*
X2352Y986D02*
X2359Y986D01*
X0Y985D02*
X7Y985D01*
X2352Y985D02*
X2359Y985D01*
X0Y984D02*
X7Y984D01*
X2352Y984D02*
X2359Y984D01*
X0Y983D02*
X7Y983D01*
X2352Y983D02*
X2359Y983D01*
X0Y982D02*
X7Y982D01*
X2352Y982D02*
X2359Y982D01*
X0Y981D02*
X7Y981D01*
X2352Y981D02*
X2359Y981D01*
X0Y980D02*
X7Y980D01*
X2352Y980D02*
X2359Y980D01*
X0Y979D02*
X7Y979D01*
X2352Y979D02*
X2359Y979D01*
X0Y978D02*
X7Y978D01*
X2352Y978D02*
X2359Y978D01*
X0Y977D02*
X7Y977D01*
X2352Y977D02*
X2359Y977D01*
X0Y976D02*
X7Y976D01*
X2352Y976D02*
X2359Y976D01*
X0Y975D02*
X7Y975D01*
X2352Y975D02*
X2359Y975D01*
X0Y974D02*
X7Y974D01*
X2352Y974D02*
X2359Y974D01*
X0Y973D02*
X7Y973D01*
X2352Y973D02*
X2359Y973D01*
X0Y972D02*
X7Y972D01*
X2352Y972D02*
X2359Y972D01*
X0Y971D02*
X7Y971D01*
X2352Y971D02*
X2359Y971D01*
X0Y970D02*
X7Y970D01*
X2352Y970D02*
X2359Y970D01*
X0Y969D02*
X7Y969D01*
X2352Y969D02*
X2359Y969D01*
X0Y968D02*
X7Y968D01*
X2352Y968D02*
X2359Y968D01*
X0Y967D02*
X7Y967D01*
X2352Y967D02*
X2359Y967D01*
X0Y966D02*
X7Y966D01*
X2352Y966D02*
X2359Y966D01*
X0Y965D02*
X7Y965D01*
X2352Y965D02*
X2359Y965D01*
X0Y964D02*
X7Y964D01*
X2352Y964D02*
X2359Y964D01*
X0Y963D02*
X7Y963D01*
X2352Y963D02*
X2359Y963D01*
X0Y962D02*
X7Y962D01*
X2352Y962D02*
X2359Y962D01*
X0Y961D02*
X7Y961D01*
X2352Y961D02*
X2359Y961D01*
X0Y960D02*
X7Y960D01*
X2352Y960D02*
X2359Y960D01*
X0Y959D02*
X7Y959D01*
X2352Y959D02*
X2359Y959D01*
X0Y958D02*
X7Y958D01*
X2352Y958D02*
X2359Y958D01*
X0Y957D02*
X7Y957D01*
X2352Y957D02*
X2359Y957D01*
X0Y956D02*
X7Y956D01*
X2352Y956D02*
X2359Y956D01*
X0Y955D02*
X7Y955D01*
X2352Y955D02*
X2359Y955D01*
X0Y954D02*
X7Y954D01*
X2352Y954D02*
X2359Y954D01*
X0Y953D02*
X7Y953D01*
X2352Y953D02*
X2359Y953D01*
X0Y952D02*
X7Y952D01*
X2352Y952D02*
X2359Y952D01*
X0Y951D02*
X7Y951D01*
X2352Y951D02*
X2359Y951D01*
X0Y950D02*
X7Y950D01*
X2352Y950D02*
X2359Y950D01*
X0Y949D02*
X7Y949D01*
X2352Y949D02*
X2359Y949D01*
X0Y948D02*
X7Y948D01*
X2352Y948D02*
X2359Y948D01*
X0Y947D02*
X7Y947D01*
X2352Y947D02*
X2359Y947D01*
X0Y946D02*
X7Y946D01*
X2352Y946D02*
X2359Y946D01*
X0Y945D02*
X7Y945D01*
X2352Y945D02*
X2359Y945D01*
X0Y944D02*
X7Y944D01*
X2352Y944D02*
X2359Y944D01*
X0Y943D02*
X7Y943D01*
X2352Y943D02*
X2359Y943D01*
X0Y942D02*
X7Y942D01*
X2352Y942D02*
X2359Y942D01*
X0Y941D02*
X7Y941D01*
X2352Y941D02*
X2359Y941D01*
X0Y940D02*
X7Y940D01*
X2352Y940D02*
X2359Y940D01*
X0Y939D02*
X7Y939D01*
X2352Y939D02*
X2359Y939D01*
X0Y938D02*
X7Y938D01*
X2352Y938D02*
X2359Y938D01*
X0Y937D02*
X7Y937D01*
X2352Y937D02*
X2359Y937D01*
X0Y936D02*
X7Y936D01*
X2352Y936D02*
X2359Y936D01*
X0Y935D02*
X7Y935D01*
X2352Y935D02*
X2359Y935D01*
X0Y934D02*
X7Y934D01*
X2352Y934D02*
X2359Y934D01*
X0Y933D02*
X7Y933D01*
X2352Y933D02*
X2359Y933D01*
X0Y932D02*
X7Y932D01*
X2352Y932D02*
X2359Y932D01*
X0Y931D02*
X7Y931D01*
X2352Y931D02*
X2359Y931D01*
X0Y930D02*
X7Y930D01*
X2352Y930D02*
X2359Y930D01*
X0Y929D02*
X7Y929D01*
X2352Y929D02*
X2359Y929D01*
X0Y928D02*
X7Y928D01*
X2352Y928D02*
X2359Y928D01*
X0Y927D02*
X7Y927D01*
X2352Y927D02*
X2359Y927D01*
X0Y926D02*
X7Y926D01*
X2352Y926D02*
X2359Y926D01*
X0Y925D02*
X7Y925D01*
X2352Y925D02*
X2359Y925D01*
X0Y924D02*
X7Y924D01*
X2352Y924D02*
X2359Y924D01*
X0Y923D02*
X7Y923D01*
X2352Y923D02*
X2359Y923D01*
X0Y922D02*
X7Y922D01*
X2352Y922D02*
X2359Y922D01*
X0Y921D02*
X7Y921D01*
X2352Y921D02*
X2359Y921D01*
X0Y920D02*
X7Y920D01*
X2352Y920D02*
X2359Y920D01*
X0Y919D02*
X7Y919D01*
X2352Y919D02*
X2359Y919D01*
X0Y918D02*
X7Y918D01*
X2352Y918D02*
X2359Y918D01*
X0Y917D02*
X7Y917D01*
X2352Y917D02*
X2359Y917D01*
X0Y916D02*
X7Y916D01*
X2352Y916D02*
X2359Y916D01*
X0Y915D02*
X7Y915D01*
X2352Y915D02*
X2359Y915D01*
X0Y914D02*
X7Y914D01*
X2352Y914D02*
X2359Y914D01*
X0Y913D02*
X7Y913D01*
X2352Y913D02*
X2359Y913D01*
X0Y912D02*
X7Y912D01*
X2352Y912D02*
X2359Y912D01*
X0Y911D02*
X7Y911D01*
X2352Y911D02*
X2359Y911D01*
X0Y910D02*
X7Y910D01*
X2352Y910D02*
X2359Y910D01*
X0Y909D02*
X7Y909D01*
X2352Y909D02*
X2359Y909D01*
X0Y908D02*
X7Y908D01*
X2352Y908D02*
X2359Y908D01*
X0Y907D02*
X7Y907D01*
X2352Y907D02*
X2359Y907D01*
X0Y906D02*
X7Y906D01*
X2352Y906D02*
X2359Y906D01*
X0Y905D02*
X7Y905D01*
X2352Y905D02*
X2359Y905D01*
X0Y904D02*
X7Y904D01*
X2352Y904D02*
X2359Y904D01*
X0Y903D02*
X7Y903D01*
X2352Y903D02*
X2359Y903D01*
X0Y902D02*
X7Y902D01*
X2352Y902D02*
X2359Y902D01*
X0Y901D02*
X7Y901D01*
X2352Y901D02*
X2359Y901D01*
X0Y900D02*
X7Y900D01*
X2352Y900D02*
X2359Y900D01*
X0Y899D02*
X7Y899D01*
X2352Y899D02*
X2359Y899D01*
X0Y898D02*
X7Y898D01*
X2352Y898D02*
X2359Y898D01*
X0Y897D02*
X7Y897D01*
X2352Y897D02*
X2359Y897D01*
X0Y896D02*
X7Y896D01*
X2352Y896D02*
X2359Y896D01*
X0Y895D02*
X7Y895D01*
X2352Y895D02*
X2359Y895D01*
X0Y894D02*
X7Y894D01*
X2352Y894D02*
X2359Y894D01*
X0Y893D02*
X7Y893D01*
X2352Y893D02*
X2359Y893D01*
X0Y892D02*
X7Y892D01*
X2352Y892D02*
X2359Y892D01*
X0Y891D02*
X7Y891D01*
X2352Y891D02*
X2359Y891D01*
X0Y890D02*
X7Y890D01*
X2352Y890D02*
X2359Y890D01*
X0Y889D02*
X7Y889D01*
X2352Y889D02*
X2359Y889D01*
X0Y888D02*
X7Y888D01*
X2352Y888D02*
X2359Y888D01*
X0Y887D02*
X7Y887D01*
X2352Y887D02*
X2359Y887D01*
X0Y886D02*
X7Y886D01*
X2352Y886D02*
X2359Y886D01*
X0Y885D02*
X7Y885D01*
X2352Y885D02*
X2359Y885D01*
X0Y884D02*
X7Y884D01*
X2352Y884D02*
X2359Y884D01*
X0Y883D02*
X7Y883D01*
X2352Y883D02*
X2359Y883D01*
X0Y882D02*
X7Y882D01*
X2352Y882D02*
X2359Y882D01*
X0Y881D02*
X7Y881D01*
X2352Y881D02*
X2359Y881D01*
X0Y880D02*
X7Y880D01*
X2352Y880D02*
X2359Y880D01*
X0Y879D02*
X7Y879D01*
X2352Y879D02*
X2359Y879D01*
X0Y878D02*
X7Y878D01*
X2352Y878D02*
X2359Y878D01*
X0Y877D02*
X7Y877D01*
X2352Y877D02*
X2359Y877D01*
X0Y876D02*
X7Y876D01*
X2352Y876D02*
X2359Y876D01*
X0Y875D02*
X7Y875D01*
X2352Y875D02*
X2359Y875D01*
X0Y874D02*
X7Y874D01*
X2352Y874D02*
X2359Y874D01*
X0Y873D02*
X7Y873D01*
X2352Y873D02*
X2359Y873D01*
X0Y872D02*
X7Y872D01*
X2352Y872D02*
X2359Y872D01*
X0Y871D02*
X7Y871D01*
X2352Y871D02*
X2359Y871D01*
X0Y870D02*
X7Y870D01*
X2352Y870D02*
X2359Y870D01*
X0Y869D02*
X7Y869D01*
X2352Y869D02*
X2359Y869D01*
X0Y868D02*
X7Y868D01*
X2352Y868D02*
X2359Y868D01*
X0Y867D02*
X7Y867D01*
X2352Y867D02*
X2359Y867D01*
X0Y866D02*
X7Y866D01*
X2352Y866D02*
X2359Y866D01*
X0Y865D02*
X7Y865D01*
X2352Y865D02*
X2359Y865D01*
X0Y864D02*
X7Y864D01*
X2352Y864D02*
X2359Y864D01*
X0Y863D02*
X7Y863D01*
X2352Y863D02*
X2359Y863D01*
X0Y862D02*
X7Y862D01*
X2352Y862D02*
X2359Y862D01*
X0Y861D02*
X7Y861D01*
X2352Y861D02*
X2359Y861D01*
X0Y860D02*
X7Y860D01*
X2352Y860D02*
X2359Y860D01*
X0Y859D02*
X7Y859D01*
X2352Y859D02*
X2359Y859D01*
X0Y858D02*
X7Y858D01*
X2352Y858D02*
X2359Y858D01*
X0Y857D02*
X7Y857D01*
X2352Y857D02*
X2359Y857D01*
X0Y856D02*
X7Y856D01*
X2352Y856D02*
X2359Y856D01*
X0Y855D02*
X7Y855D01*
X2352Y855D02*
X2359Y855D01*
X0Y854D02*
X7Y854D01*
X2352Y854D02*
X2359Y854D01*
X0Y853D02*
X7Y853D01*
X2352Y853D02*
X2359Y853D01*
X0Y852D02*
X7Y852D01*
X2352Y852D02*
X2359Y852D01*
X0Y851D02*
X7Y851D01*
X2352Y851D02*
X2359Y851D01*
X0Y850D02*
X7Y850D01*
X2352Y850D02*
X2359Y850D01*
X0Y849D02*
X7Y849D01*
X2352Y849D02*
X2359Y849D01*
X0Y848D02*
X7Y848D01*
X2352Y848D02*
X2359Y848D01*
X0Y847D02*
X7Y847D01*
X2352Y847D02*
X2359Y847D01*
X0Y846D02*
X7Y846D01*
X2352Y846D02*
X2359Y846D01*
X0Y845D02*
X7Y845D01*
X2352Y845D02*
X2359Y845D01*
X0Y844D02*
X7Y844D01*
X2352Y844D02*
X2359Y844D01*
X0Y843D02*
X7Y843D01*
X2352Y843D02*
X2359Y843D01*
X0Y842D02*
X7Y842D01*
X2352Y842D02*
X2359Y842D01*
X0Y841D02*
X7Y841D01*
X2352Y841D02*
X2359Y841D01*
X0Y840D02*
X7Y840D01*
X2352Y840D02*
X2359Y840D01*
X0Y839D02*
X7Y839D01*
X2352Y839D02*
X2359Y839D01*
X0Y838D02*
X7Y838D01*
X2352Y838D02*
X2359Y838D01*
X0Y837D02*
X7Y837D01*
X2352Y837D02*
X2359Y837D01*
X0Y836D02*
X7Y836D01*
X2352Y836D02*
X2359Y836D01*
X0Y835D02*
X7Y835D01*
X2352Y835D02*
X2359Y835D01*
X0Y834D02*
X7Y834D01*
X2352Y834D02*
X2359Y834D01*
X0Y833D02*
X7Y833D01*
X2352Y833D02*
X2359Y833D01*
X0Y832D02*
X7Y832D01*
X2352Y832D02*
X2359Y832D01*
X0Y831D02*
X7Y831D01*
X2352Y831D02*
X2359Y831D01*
X0Y830D02*
X7Y830D01*
X2352Y830D02*
X2359Y830D01*
X0Y829D02*
X7Y829D01*
X2352Y829D02*
X2359Y829D01*
X0Y828D02*
X7Y828D01*
X2352Y828D02*
X2359Y828D01*
X0Y827D02*
X7Y827D01*
X2352Y827D02*
X2359Y827D01*
X0Y826D02*
X7Y826D01*
X2352Y826D02*
X2359Y826D01*
X0Y825D02*
X7Y825D01*
X2352Y825D02*
X2359Y825D01*
X0Y824D02*
X7Y824D01*
X2352Y824D02*
X2359Y824D01*
X0Y823D02*
X7Y823D01*
X2352Y823D02*
X2359Y823D01*
X0Y822D02*
X7Y822D01*
X2352Y822D02*
X2359Y822D01*
X0Y821D02*
X7Y821D01*
X2352Y821D02*
X2359Y821D01*
X0Y820D02*
X7Y820D01*
X2352Y820D02*
X2359Y820D01*
X0Y819D02*
X7Y819D01*
X2352Y819D02*
X2359Y819D01*
X0Y818D02*
X7Y818D01*
X2352Y818D02*
X2359Y818D01*
X0Y817D02*
X7Y817D01*
X2352Y817D02*
X2359Y817D01*
X0Y816D02*
X7Y816D01*
X2352Y816D02*
X2359Y816D01*
X0Y815D02*
X7Y815D01*
X2352Y815D02*
X2359Y815D01*
X0Y814D02*
X7Y814D01*
X2352Y814D02*
X2359Y814D01*
X0Y813D02*
X7Y813D01*
X2352Y813D02*
X2359Y813D01*
X0Y812D02*
X7Y812D01*
X2352Y812D02*
X2359Y812D01*
X0Y811D02*
X7Y811D01*
X2352Y811D02*
X2359Y811D01*
X0Y810D02*
X7Y810D01*
X2352Y810D02*
X2359Y810D01*
X0Y809D02*
X7Y809D01*
X2352Y809D02*
X2359Y809D01*
X0Y808D02*
X7Y808D01*
X2352Y808D02*
X2359Y808D01*
X0Y807D02*
X7Y807D01*
X2352Y807D02*
X2359Y807D01*
X0Y806D02*
X7Y806D01*
X2352Y806D02*
X2359Y806D01*
X0Y805D02*
X7Y805D01*
X2352Y805D02*
X2359Y805D01*
X0Y804D02*
X7Y804D01*
X2352Y804D02*
X2359Y804D01*
X0Y803D02*
X7Y803D01*
X2352Y803D02*
X2359Y803D01*
X0Y802D02*
X7Y802D01*
X2352Y802D02*
X2359Y802D01*
X0Y801D02*
X7Y801D01*
X2352Y801D02*
X2359Y801D01*
X0Y800D02*
X7Y800D01*
X2352Y800D02*
X2359Y800D01*
X0Y799D02*
X7Y799D01*
X2352Y799D02*
X2359Y799D01*
X0Y798D02*
X7Y798D01*
X2352Y798D02*
X2359Y798D01*
X0Y797D02*
X7Y797D01*
X2352Y797D02*
X2359Y797D01*
X0Y796D02*
X7Y796D01*
X2352Y796D02*
X2359Y796D01*
X0Y795D02*
X7Y795D01*
X2352Y795D02*
X2359Y795D01*
X0Y794D02*
X7Y794D01*
X2352Y794D02*
X2359Y794D01*
X0Y793D02*
X7Y793D01*
X2352Y793D02*
X2359Y793D01*
X0Y792D02*
X7Y792D01*
X2352Y792D02*
X2359Y792D01*
X0Y791D02*
X7Y791D01*
X2352Y791D02*
X2359Y791D01*
X0Y790D02*
X7Y790D01*
X2352Y790D02*
X2359Y790D01*
X0Y789D02*
X7Y789D01*
X2352Y789D02*
X2359Y789D01*
X0Y788D02*
X7Y788D01*
X2352Y788D02*
X2359Y788D01*
X0Y787D02*
X7Y787D01*
X2352Y787D02*
X2359Y787D01*
X0Y786D02*
X7Y786D01*
X2352Y786D02*
X2359Y786D01*
X0Y785D02*
X7Y785D01*
X2352Y785D02*
X2359Y785D01*
X0Y784D02*
X7Y784D01*
X2352Y784D02*
X2359Y784D01*
X0Y783D02*
X7Y783D01*
X2352Y783D02*
X2359Y783D01*
X0Y782D02*
X7Y782D01*
X2352Y782D02*
X2359Y782D01*
X0Y781D02*
X7Y781D01*
X2352Y781D02*
X2359Y781D01*
X0Y780D02*
X7Y780D01*
X2352Y780D02*
X2359Y780D01*
X0Y779D02*
X7Y779D01*
X2352Y779D02*
X2359Y779D01*
X0Y778D02*
X7Y778D01*
X2352Y778D02*
X2359Y778D01*
X0Y777D02*
X7Y777D01*
X2352Y777D02*
X2359Y777D01*
X0Y776D02*
X7Y776D01*
X2352Y776D02*
X2359Y776D01*
X0Y775D02*
X7Y775D01*
X2352Y775D02*
X2359Y775D01*
X0Y774D02*
X7Y774D01*
X2352Y774D02*
X2359Y774D01*
X0Y773D02*
X7Y773D01*
X2352Y773D02*
X2359Y773D01*
X0Y772D02*
X7Y772D01*
X2352Y772D02*
X2359Y772D01*
X0Y771D02*
X7Y771D01*
X2352Y771D02*
X2359Y771D01*
X0Y770D02*
X7Y770D01*
X2352Y770D02*
X2359Y770D01*
X0Y769D02*
X7Y769D01*
X2352Y769D02*
X2359Y769D01*
X0Y768D02*
X7Y768D01*
X2352Y768D02*
X2359Y768D01*
X0Y767D02*
X7Y767D01*
X2352Y767D02*
X2359Y767D01*
X0Y766D02*
X7Y766D01*
X2352Y766D02*
X2359Y766D01*
X0Y765D02*
X7Y765D01*
X2352Y765D02*
X2359Y765D01*
X0Y764D02*
X7Y764D01*
X2352Y764D02*
X2359Y764D01*
X0Y763D02*
X7Y763D01*
X2352Y763D02*
X2359Y763D01*
X0Y762D02*
X7Y762D01*
X2352Y762D02*
X2359Y762D01*
X0Y761D02*
X7Y761D01*
X2352Y761D02*
X2359Y761D01*
X0Y760D02*
X7Y760D01*
X2352Y760D02*
X2359Y760D01*
X0Y759D02*
X7Y759D01*
X2352Y759D02*
X2359Y759D01*
X0Y758D02*
X7Y758D01*
X2352Y758D02*
X2359Y758D01*
X0Y757D02*
X7Y757D01*
X2352Y757D02*
X2359Y757D01*
X0Y756D02*
X7Y756D01*
X2352Y756D02*
X2359Y756D01*
X0Y755D02*
X7Y755D01*
X2352Y755D02*
X2359Y755D01*
X0Y754D02*
X7Y754D01*
X2352Y754D02*
X2359Y754D01*
X0Y753D02*
X7Y753D01*
X2352Y753D02*
X2359Y753D01*
X0Y752D02*
X7Y752D01*
X2352Y752D02*
X2359Y752D01*
X0Y751D02*
X7Y751D01*
X2352Y751D02*
X2359Y751D01*
X0Y750D02*
X7Y750D01*
X2352Y750D02*
X2359Y750D01*
X0Y749D02*
X7Y749D01*
X2352Y749D02*
X2359Y749D01*
X0Y748D02*
X7Y748D01*
X2352Y748D02*
X2359Y748D01*
X0Y747D02*
X7Y747D01*
X2352Y747D02*
X2359Y747D01*
X0Y746D02*
X7Y746D01*
X2352Y746D02*
X2359Y746D01*
X0Y745D02*
X7Y745D01*
X2352Y745D02*
X2359Y745D01*
X0Y744D02*
X7Y744D01*
X2352Y744D02*
X2359Y744D01*
X0Y743D02*
X7Y743D01*
X2352Y743D02*
X2359Y743D01*
X0Y742D02*
X7Y742D01*
X2352Y742D02*
X2359Y742D01*
X0Y741D02*
X7Y741D01*
X2352Y741D02*
X2359Y741D01*
X0Y740D02*
X7Y740D01*
X2352Y740D02*
X2359Y740D01*
X0Y739D02*
X7Y739D01*
X2352Y739D02*
X2359Y739D01*
X0Y738D02*
X7Y738D01*
X2352Y738D02*
X2359Y738D01*
X0Y737D02*
X7Y737D01*
X2352Y737D02*
X2359Y737D01*
X0Y736D02*
X7Y736D01*
X2352Y736D02*
X2359Y736D01*
X0Y735D02*
X7Y735D01*
X2352Y735D02*
X2359Y735D01*
X0Y734D02*
X7Y734D01*
X2352Y734D02*
X2359Y734D01*
X0Y733D02*
X7Y733D01*
X2352Y733D02*
X2359Y733D01*
X0Y732D02*
X7Y732D01*
X2352Y732D02*
X2359Y732D01*
X0Y731D02*
X7Y731D01*
X2352Y731D02*
X2359Y731D01*
X0Y730D02*
X7Y730D01*
X2352Y730D02*
X2359Y730D01*
X0Y729D02*
X7Y729D01*
X2352Y729D02*
X2359Y729D01*
X0Y728D02*
X7Y728D01*
X2352Y728D02*
X2359Y728D01*
X0Y727D02*
X7Y727D01*
X2352Y727D02*
X2359Y727D01*
X0Y726D02*
X7Y726D01*
X2352Y726D02*
X2359Y726D01*
X0Y725D02*
X7Y725D01*
X2352Y725D02*
X2359Y725D01*
X0Y724D02*
X7Y724D01*
X2352Y724D02*
X2359Y724D01*
X0Y723D02*
X7Y723D01*
X2352Y723D02*
X2359Y723D01*
X0Y722D02*
X7Y722D01*
X2352Y722D02*
X2359Y722D01*
X0Y721D02*
X7Y721D01*
X2352Y721D02*
X2359Y721D01*
X0Y720D02*
X7Y720D01*
X2352Y720D02*
X2359Y720D01*
X0Y719D02*
X7Y719D01*
X2352Y719D02*
X2359Y719D01*
X0Y718D02*
X7Y718D01*
X2352Y718D02*
X2359Y718D01*
X0Y717D02*
X7Y717D01*
X2352Y717D02*
X2359Y717D01*
X0Y716D02*
X7Y716D01*
X2352Y716D02*
X2359Y716D01*
X0Y715D02*
X7Y715D01*
X2352Y715D02*
X2359Y715D01*
X0Y714D02*
X7Y714D01*
X2352Y714D02*
X2359Y714D01*
X0Y713D02*
X7Y713D01*
X2352Y713D02*
X2359Y713D01*
X0Y712D02*
X7Y712D01*
X2352Y712D02*
X2359Y712D01*
X0Y711D02*
X7Y711D01*
X2352Y711D02*
X2359Y711D01*
X0Y710D02*
X7Y710D01*
X2352Y710D02*
X2359Y710D01*
X0Y709D02*
X7Y709D01*
X2352Y709D02*
X2359Y709D01*
X0Y708D02*
X7Y708D01*
X2352Y708D02*
X2359Y708D01*
X0Y707D02*
X7Y707D01*
X2352Y707D02*
X2359Y707D01*
X0Y706D02*
X7Y706D01*
X2352Y706D02*
X2359Y706D01*
X0Y705D02*
X7Y705D01*
X2352Y705D02*
X2359Y705D01*
X0Y704D02*
X7Y704D01*
X2352Y704D02*
X2359Y704D01*
X0Y703D02*
X7Y703D01*
X2352Y703D02*
X2359Y703D01*
X0Y702D02*
X7Y702D01*
X2352Y702D02*
X2359Y702D01*
X0Y701D02*
X7Y701D01*
X2352Y701D02*
X2359Y701D01*
X0Y700D02*
X7Y700D01*
X2352Y700D02*
X2359Y700D01*
X0Y699D02*
X7Y699D01*
X2352Y699D02*
X2359Y699D01*
X0Y698D02*
X7Y698D01*
X2352Y698D02*
X2359Y698D01*
X0Y697D02*
X7Y697D01*
X2352Y697D02*
X2359Y697D01*
X0Y696D02*
X7Y696D01*
X2352Y696D02*
X2359Y696D01*
X0Y695D02*
X7Y695D01*
X2352Y695D02*
X2359Y695D01*
X0Y694D02*
X7Y694D01*
X2352Y694D02*
X2359Y694D01*
X0Y693D02*
X7Y693D01*
X2352Y693D02*
X2359Y693D01*
X0Y692D02*
X7Y692D01*
X2352Y692D02*
X2359Y692D01*
X0Y691D02*
X7Y691D01*
X2352Y691D02*
X2359Y691D01*
X0Y690D02*
X7Y690D01*
X2352Y690D02*
X2359Y690D01*
X0Y689D02*
X7Y689D01*
X2352Y689D02*
X2359Y689D01*
X0Y688D02*
X7Y688D01*
X2352Y688D02*
X2359Y688D01*
X0Y687D02*
X7Y687D01*
X2352Y687D02*
X2359Y687D01*
X0Y686D02*
X7Y686D01*
X2352Y686D02*
X2359Y686D01*
X0Y685D02*
X7Y685D01*
X2352Y685D02*
X2359Y685D01*
X0Y684D02*
X7Y684D01*
X2352Y684D02*
X2359Y684D01*
X0Y683D02*
X7Y683D01*
X2352Y683D02*
X2359Y683D01*
X0Y682D02*
X7Y682D01*
X2352Y682D02*
X2359Y682D01*
X0Y681D02*
X7Y681D01*
X2352Y681D02*
X2359Y681D01*
X0Y680D02*
X7Y680D01*
X2352Y680D02*
X2359Y680D01*
X0Y679D02*
X7Y679D01*
X2352Y679D02*
X2359Y679D01*
X0Y678D02*
X7Y678D01*
X2352Y678D02*
X2359Y678D01*
X0Y677D02*
X7Y677D01*
X2352Y677D02*
X2359Y677D01*
X0Y676D02*
X7Y676D01*
X2352Y676D02*
X2359Y676D01*
X0Y675D02*
X7Y675D01*
X2352Y675D02*
X2359Y675D01*
X0Y674D02*
X7Y674D01*
X2352Y674D02*
X2359Y674D01*
X0Y673D02*
X7Y673D01*
X2352Y673D02*
X2359Y673D01*
X0Y672D02*
X7Y672D01*
X2352Y672D02*
X2359Y672D01*
X0Y671D02*
X7Y671D01*
X2352Y671D02*
X2359Y671D01*
X0Y670D02*
X7Y670D01*
X2352Y670D02*
X2359Y670D01*
X0Y669D02*
X7Y669D01*
X2352Y669D02*
X2359Y669D01*
X0Y668D02*
X7Y668D01*
X2352Y668D02*
X2359Y668D01*
X0Y667D02*
X7Y667D01*
X2352Y667D02*
X2359Y667D01*
X0Y666D02*
X7Y666D01*
X2352Y666D02*
X2359Y666D01*
X0Y665D02*
X7Y665D01*
X2352Y665D02*
X2359Y665D01*
X0Y664D02*
X7Y664D01*
X2352Y664D02*
X2359Y664D01*
X0Y663D02*
X7Y663D01*
X2352Y663D02*
X2359Y663D01*
X0Y662D02*
X7Y662D01*
X2352Y662D02*
X2359Y662D01*
X0Y661D02*
X7Y661D01*
X2352Y661D02*
X2359Y661D01*
X0Y660D02*
X7Y660D01*
X2352Y660D02*
X2359Y660D01*
X0Y659D02*
X7Y659D01*
X2352Y659D02*
X2359Y659D01*
X0Y658D02*
X7Y658D01*
X2352Y658D02*
X2359Y658D01*
X0Y657D02*
X7Y657D01*
X2352Y657D02*
X2359Y657D01*
X0Y656D02*
X7Y656D01*
X2352Y656D02*
X2359Y656D01*
X0Y655D02*
X7Y655D01*
X2352Y655D02*
X2359Y655D01*
X0Y654D02*
X7Y654D01*
X2352Y654D02*
X2359Y654D01*
X0Y653D02*
X7Y653D01*
X2352Y653D02*
X2359Y653D01*
X0Y652D02*
X7Y652D01*
X2352Y652D02*
X2359Y652D01*
X0Y651D02*
X7Y651D01*
X2352Y651D02*
X2359Y651D01*
X0Y650D02*
X7Y650D01*
X2352Y650D02*
X2359Y650D01*
X0Y649D02*
X7Y649D01*
X2352Y649D02*
X2359Y649D01*
X0Y648D02*
X7Y648D01*
X2352Y648D02*
X2359Y648D01*
X0Y647D02*
X7Y647D01*
X2352Y647D02*
X2359Y647D01*
X0Y646D02*
X7Y646D01*
X2352Y646D02*
X2359Y646D01*
X0Y645D02*
X7Y645D01*
X2352Y645D02*
X2359Y645D01*
X0Y644D02*
X7Y644D01*
X2352Y644D02*
X2359Y644D01*
X0Y643D02*
X7Y643D01*
X2352Y643D02*
X2359Y643D01*
X0Y642D02*
X7Y642D01*
X2352Y642D02*
X2359Y642D01*
X0Y641D02*
X7Y641D01*
X2352Y641D02*
X2359Y641D01*
X0Y640D02*
X7Y640D01*
X2352Y640D02*
X2359Y640D01*
X0Y639D02*
X7Y639D01*
X2352Y639D02*
X2359Y639D01*
X0Y638D02*
X7Y638D01*
X2352Y638D02*
X2359Y638D01*
X0Y637D02*
X7Y637D01*
X2352Y637D02*
X2359Y637D01*
X0Y636D02*
X7Y636D01*
X2352Y636D02*
X2359Y636D01*
X0Y635D02*
X7Y635D01*
X2352Y635D02*
X2359Y635D01*
X0Y634D02*
X7Y634D01*
X2352Y634D02*
X2359Y634D01*
X0Y633D02*
X7Y633D01*
X2352Y633D02*
X2359Y633D01*
X0Y632D02*
X7Y632D01*
X2352Y632D02*
X2359Y632D01*
X0Y631D02*
X7Y631D01*
X2352Y631D02*
X2359Y631D01*
X0Y630D02*
X7Y630D01*
X2352Y630D02*
X2359Y630D01*
X0Y629D02*
X7Y629D01*
X2352Y629D02*
X2359Y629D01*
X0Y628D02*
X7Y628D01*
X2352Y628D02*
X2359Y628D01*
X0Y627D02*
X7Y627D01*
X2352Y627D02*
X2359Y627D01*
X0Y626D02*
X7Y626D01*
X2352Y626D02*
X2359Y626D01*
X0Y625D02*
X7Y625D01*
X2352Y625D02*
X2359Y625D01*
X0Y624D02*
X7Y624D01*
X2352Y624D02*
X2359Y624D01*
X0Y623D02*
X7Y623D01*
X2352Y623D02*
X2359Y623D01*
X0Y622D02*
X7Y622D01*
X2352Y622D02*
X2359Y622D01*
X0Y621D02*
X7Y621D01*
X2352Y621D02*
X2359Y621D01*
X0Y620D02*
X7Y620D01*
X2352Y620D02*
X2359Y620D01*
X0Y619D02*
X7Y619D01*
X2352Y619D02*
X2359Y619D01*
X0Y618D02*
X7Y618D01*
X2352Y618D02*
X2359Y618D01*
X0Y617D02*
X7Y617D01*
X2352Y617D02*
X2359Y617D01*
X0Y616D02*
X7Y616D01*
X2352Y616D02*
X2359Y616D01*
X0Y615D02*
X7Y615D01*
X2352Y615D02*
X2359Y615D01*
X0Y614D02*
X7Y614D01*
X2352Y614D02*
X2359Y614D01*
X0Y613D02*
X7Y613D01*
X2352Y613D02*
X2359Y613D01*
X0Y612D02*
X7Y612D01*
X2352Y612D02*
X2359Y612D01*
X0Y611D02*
X7Y611D01*
X2352Y611D02*
X2359Y611D01*
X0Y610D02*
X7Y610D01*
X2352Y610D02*
X2359Y610D01*
X0Y609D02*
X7Y609D01*
X2352Y609D02*
X2359Y609D01*
X0Y608D02*
X7Y608D01*
X2352Y608D02*
X2359Y608D01*
X0Y607D02*
X7Y607D01*
X2352Y607D02*
X2359Y607D01*
X0Y606D02*
X7Y606D01*
X2352Y606D02*
X2359Y606D01*
X0Y605D02*
X7Y605D01*
X2352Y605D02*
X2359Y605D01*
X0Y604D02*
X7Y604D01*
X2352Y604D02*
X2359Y604D01*
X0Y603D02*
X7Y603D01*
X2352Y603D02*
X2359Y603D01*
X0Y602D02*
X7Y602D01*
X2352Y602D02*
X2359Y602D01*
X0Y601D02*
X7Y601D01*
X2352Y601D02*
X2359Y601D01*
X0Y600D02*
X7Y600D01*
X2352Y600D02*
X2359Y600D01*
X0Y599D02*
X7Y599D01*
X2352Y599D02*
X2359Y599D01*
X0Y598D02*
X7Y598D01*
X2352Y598D02*
X2359Y598D01*
X0Y597D02*
X7Y597D01*
X2352Y597D02*
X2359Y597D01*
X0Y596D02*
X7Y596D01*
X2352Y596D02*
X2359Y596D01*
X0Y595D02*
X7Y595D01*
X2352Y595D02*
X2359Y595D01*
X0Y594D02*
X7Y594D01*
X2352Y594D02*
X2359Y594D01*
X0Y593D02*
X7Y593D01*
X2352Y593D02*
X2359Y593D01*
X0Y592D02*
X7Y592D01*
X2352Y592D02*
X2359Y592D01*
X0Y591D02*
X7Y591D01*
X2352Y591D02*
X2359Y591D01*
X0Y590D02*
X7Y590D01*
X2352Y590D02*
X2359Y590D01*
X0Y589D02*
X7Y589D01*
X2352Y589D02*
X2359Y589D01*
X0Y588D02*
X7Y588D01*
X2352Y588D02*
X2359Y588D01*
X0Y587D02*
X7Y587D01*
X2352Y587D02*
X2359Y587D01*
X0Y586D02*
X7Y586D01*
X2352Y586D02*
X2359Y586D01*
X0Y585D02*
X7Y585D01*
X2352Y585D02*
X2359Y585D01*
X0Y584D02*
X7Y584D01*
X2352Y584D02*
X2359Y584D01*
X0Y583D02*
X7Y583D01*
X2352Y583D02*
X2359Y583D01*
X0Y582D02*
X7Y582D01*
X2352Y582D02*
X2359Y582D01*
X0Y581D02*
X7Y581D01*
X2352Y581D02*
X2359Y581D01*
X0Y580D02*
X7Y580D01*
X2352Y580D02*
X2359Y580D01*
X0Y579D02*
X7Y579D01*
X2352Y579D02*
X2359Y579D01*
X0Y578D02*
X7Y578D01*
X2352Y578D02*
X2359Y578D01*
X0Y577D02*
X7Y577D01*
X2352Y577D02*
X2359Y577D01*
X0Y576D02*
X7Y576D01*
X2352Y576D02*
X2359Y576D01*
X0Y575D02*
X7Y575D01*
X2352Y575D02*
X2359Y575D01*
X0Y574D02*
X7Y574D01*
X2352Y574D02*
X2359Y574D01*
X0Y573D02*
X7Y573D01*
X2352Y573D02*
X2359Y573D01*
X0Y572D02*
X7Y572D01*
X2352Y572D02*
X2359Y572D01*
X0Y571D02*
X7Y571D01*
X2352Y571D02*
X2359Y571D01*
X0Y570D02*
X7Y570D01*
X2352Y570D02*
X2359Y570D01*
X0Y569D02*
X7Y569D01*
X2352Y569D02*
X2359Y569D01*
X0Y568D02*
X7Y568D01*
X2352Y568D02*
X2359Y568D01*
X0Y567D02*
X7Y567D01*
X2352Y567D02*
X2359Y567D01*
X0Y566D02*
X7Y566D01*
X2352Y566D02*
X2359Y566D01*
X0Y565D02*
X7Y565D01*
X2352Y565D02*
X2359Y565D01*
X0Y564D02*
X7Y564D01*
X2352Y564D02*
X2359Y564D01*
X0Y563D02*
X7Y563D01*
X2352Y563D02*
X2359Y563D01*
X0Y562D02*
X7Y562D01*
X2352Y562D02*
X2359Y562D01*
X0Y561D02*
X7Y561D01*
X2352Y561D02*
X2359Y561D01*
X0Y560D02*
X7Y560D01*
X2352Y560D02*
X2359Y560D01*
X0Y559D02*
X7Y559D01*
X2352Y559D02*
X2359Y559D01*
X0Y558D02*
X7Y558D01*
X2352Y558D02*
X2359Y558D01*
X0Y557D02*
X7Y557D01*
X2352Y557D02*
X2359Y557D01*
X0Y556D02*
X7Y556D01*
X2352Y556D02*
X2359Y556D01*
X0Y555D02*
X7Y555D01*
X2352Y555D02*
X2359Y555D01*
X0Y554D02*
X7Y554D01*
X2352Y554D02*
X2359Y554D01*
X0Y553D02*
X7Y553D01*
X2352Y553D02*
X2359Y553D01*
X0Y552D02*
X7Y552D01*
X2352Y552D02*
X2359Y552D01*
X0Y551D02*
X7Y551D01*
X2352Y551D02*
X2359Y551D01*
X0Y550D02*
X7Y550D01*
X2352Y550D02*
X2359Y550D01*
X0Y549D02*
X7Y549D01*
X2352Y549D02*
X2359Y549D01*
X0Y548D02*
X7Y548D01*
X2352Y548D02*
X2359Y548D01*
X0Y547D02*
X7Y547D01*
X2352Y547D02*
X2359Y547D01*
X0Y546D02*
X7Y546D01*
X2352Y546D02*
X2359Y546D01*
X0Y545D02*
X7Y545D01*
X2352Y545D02*
X2359Y545D01*
X0Y544D02*
X7Y544D01*
X2352Y544D02*
X2359Y544D01*
X0Y543D02*
X7Y543D01*
X2352Y543D02*
X2359Y543D01*
X0Y542D02*
X7Y542D01*
X2352Y542D02*
X2359Y542D01*
X0Y541D02*
X7Y541D01*
X2352Y541D02*
X2359Y541D01*
X0Y540D02*
X7Y540D01*
X2352Y540D02*
X2359Y540D01*
X0Y539D02*
X7Y539D01*
X2352Y539D02*
X2359Y539D01*
X0Y538D02*
X7Y538D01*
X2352Y538D02*
X2359Y538D01*
X0Y537D02*
X7Y537D01*
X2352Y537D02*
X2359Y537D01*
X0Y536D02*
X7Y536D01*
X2352Y536D02*
X2359Y536D01*
X0Y535D02*
X7Y535D01*
X2352Y535D02*
X2359Y535D01*
X0Y534D02*
X7Y534D01*
X2352Y534D02*
X2359Y534D01*
X0Y533D02*
X7Y533D01*
X2352Y533D02*
X2359Y533D01*
X0Y532D02*
X7Y532D01*
X2352Y532D02*
X2359Y532D01*
X0Y531D02*
X7Y531D01*
X2352Y531D02*
X2359Y531D01*
X0Y530D02*
X7Y530D01*
X2352Y530D02*
X2359Y530D01*
X0Y529D02*
X7Y529D01*
X2352Y529D02*
X2359Y529D01*
X0Y528D02*
X7Y528D01*
X2352Y528D02*
X2359Y528D01*
X0Y527D02*
X7Y527D01*
X2352Y527D02*
X2359Y527D01*
X0Y526D02*
X7Y526D01*
X2352Y526D02*
X2359Y526D01*
X0Y525D02*
X7Y525D01*
X2352Y525D02*
X2359Y525D01*
X0Y524D02*
X7Y524D01*
X2352Y524D02*
X2359Y524D01*
X0Y523D02*
X7Y523D01*
X2352Y523D02*
X2359Y523D01*
X0Y522D02*
X7Y522D01*
X2352Y522D02*
X2359Y522D01*
X0Y521D02*
X7Y521D01*
X2352Y521D02*
X2359Y521D01*
X0Y520D02*
X7Y520D01*
X2352Y520D02*
X2359Y520D01*
X0Y519D02*
X7Y519D01*
X2352Y519D02*
X2359Y519D01*
X0Y518D02*
X7Y518D01*
X2352Y518D02*
X2359Y518D01*
X0Y517D02*
X7Y517D01*
X2352Y517D02*
X2359Y517D01*
X0Y516D02*
X7Y516D01*
X2352Y516D02*
X2359Y516D01*
X0Y515D02*
X7Y515D01*
X2352Y515D02*
X2359Y515D01*
X0Y514D02*
X7Y514D01*
X2352Y514D02*
X2359Y514D01*
X0Y513D02*
X7Y513D01*
X2352Y513D02*
X2359Y513D01*
X0Y512D02*
X7Y512D01*
X2352Y512D02*
X2359Y512D01*
X0Y511D02*
X7Y511D01*
X2352Y511D02*
X2359Y511D01*
X0Y510D02*
X7Y510D01*
X2352Y510D02*
X2359Y510D01*
X0Y509D02*
X7Y509D01*
X2352Y509D02*
X2359Y509D01*
X0Y508D02*
X7Y508D01*
X2352Y508D02*
X2359Y508D01*
X0Y507D02*
X7Y507D01*
X2352Y507D02*
X2359Y507D01*
X0Y506D02*
X7Y506D01*
X2352Y506D02*
X2359Y506D01*
X0Y505D02*
X7Y505D01*
X2352Y505D02*
X2359Y505D01*
X0Y504D02*
X7Y504D01*
X2352Y504D02*
X2359Y504D01*
X0Y503D02*
X7Y503D01*
X2352Y503D02*
X2359Y503D01*
X0Y502D02*
X7Y502D01*
X2352Y502D02*
X2359Y502D01*
X0Y501D02*
X7Y501D01*
X2352Y501D02*
X2359Y501D01*
X0Y500D02*
X7Y500D01*
X2352Y500D02*
X2359Y500D01*
X0Y499D02*
X7Y499D01*
X2352Y499D02*
X2359Y499D01*
X0Y498D02*
X7Y498D01*
X2352Y498D02*
X2359Y498D01*
X0Y497D02*
X7Y497D01*
X2352Y497D02*
X2359Y497D01*
X0Y496D02*
X7Y496D01*
X2352Y496D02*
X2359Y496D01*
X0Y495D02*
X7Y495D01*
X2352Y495D02*
X2359Y495D01*
X0Y494D02*
X7Y494D01*
X2352Y494D02*
X2359Y494D01*
X0Y493D02*
X7Y493D01*
X2352Y493D02*
X2359Y493D01*
X0Y492D02*
X7Y492D01*
X2352Y492D02*
X2359Y492D01*
X0Y491D02*
X7Y491D01*
X2352Y491D02*
X2359Y491D01*
X0Y490D02*
X7Y490D01*
X2352Y490D02*
X2359Y490D01*
X0Y489D02*
X7Y489D01*
X2352Y489D02*
X2359Y489D01*
X0Y488D02*
X7Y488D01*
X2352Y488D02*
X2359Y488D01*
X0Y487D02*
X7Y487D01*
X2352Y487D02*
X2359Y487D01*
X0Y486D02*
X7Y486D01*
X2352Y486D02*
X2359Y486D01*
X0Y485D02*
X7Y485D01*
X2352Y485D02*
X2359Y485D01*
X0Y484D02*
X7Y484D01*
X2352Y484D02*
X2359Y484D01*
X0Y483D02*
X7Y483D01*
X2352Y483D02*
X2359Y483D01*
X0Y482D02*
X7Y482D01*
X2352Y482D02*
X2359Y482D01*
X0Y481D02*
X7Y481D01*
X2352Y481D02*
X2359Y481D01*
X0Y480D02*
X7Y480D01*
X2352Y480D02*
X2359Y480D01*
X0Y479D02*
X7Y479D01*
X2352Y479D02*
X2359Y479D01*
X0Y478D02*
X7Y478D01*
X2352Y478D02*
X2359Y478D01*
X0Y477D02*
X7Y477D01*
X2352Y477D02*
X2359Y477D01*
X0Y476D02*
X7Y476D01*
X2352Y476D02*
X2359Y476D01*
X0Y475D02*
X7Y475D01*
X2352Y475D02*
X2359Y475D01*
X0Y474D02*
X7Y474D01*
X2352Y474D02*
X2359Y474D01*
X0Y473D02*
X7Y473D01*
X2352Y473D02*
X2359Y473D01*
X0Y472D02*
X7Y472D01*
X2352Y472D02*
X2359Y472D01*
X0Y471D02*
X7Y471D01*
X2352Y471D02*
X2359Y471D01*
X0Y470D02*
X7Y470D01*
X2352Y470D02*
X2359Y470D01*
X0Y469D02*
X7Y469D01*
X2352Y469D02*
X2359Y469D01*
X0Y468D02*
X7Y468D01*
X2352Y468D02*
X2359Y468D01*
X0Y467D02*
X7Y467D01*
X2352Y467D02*
X2359Y467D01*
X0Y466D02*
X7Y466D01*
X2352Y466D02*
X2359Y466D01*
X0Y465D02*
X7Y465D01*
X2352Y465D02*
X2359Y465D01*
X0Y464D02*
X7Y464D01*
X2352Y464D02*
X2359Y464D01*
X0Y463D02*
X7Y463D01*
X2352Y463D02*
X2359Y463D01*
X0Y462D02*
X7Y462D01*
X2352Y462D02*
X2359Y462D01*
X0Y461D02*
X7Y461D01*
X2352Y461D02*
X2359Y461D01*
X0Y460D02*
X7Y460D01*
X2352Y460D02*
X2359Y460D01*
X0Y459D02*
X7Y459D01*
X2352Y459D02*
X2359Y459D01*
X0Y458D02*
X7Y458D01*
X2352Y458D02*
X2359Y458D01*
X0Y457D02*
X7Y457D01*
X2352Y457D02*
X2359Y457D01*
X0Y456D02*
X7Y456D01*
X2352Y456D02*
X2359Y456D01*
X0Y455D02*
X7Y455D01*
X2352Y455D02*
X2359Y455D01*
X0Y454D02*
X7Y454D01*
X2352Y454D02*
X2359Y454D01*
X0Y453D02*
X7Y453D01*
X2352Y453D02*
X2359Y453D01*
X0Y452D02*
X7Y452D01*
X2352Y452D02*
X2359Y452D01*
X0Y451D02*
X7Y451D01*
X2352Y451D02*
X2359Y451D01*
X0Y450D02*
X7Y450D01*
X2352Y450D02*
X2359Y450D01*
X0Y449D02*
X7Y449D01*
X2352Y449D02*
X2359Y449D01*
X0Y448D02*
X7Y448D01*
X2352Y448D02*
X2359Y448D01*
X0Y447D02*
X7Y447D01*
X2352Y447D02*
X2359Y447D01*
X0Y446D02*
X7Y446D01*
X2352Y446D02*
X2359Y446D01*
X0Y445D02*
X7Y445D01*
X2352Y445D02*
X2359Y445D01*
X0Y444D02*
X7Y444D01*
X2352Y444D02*
X2359Y444D01*
X0Y443D02*
X7Y443D01*
X2352Y443D02*
X2359Y443D01*
X0Y442D02*
X7Y442D01*
X2352Y442D02*
X2359Y442D01*
X0Y441D02*
X7Y441D01*
X2352Y441D02*
X2359Y441D01*
X0Y440D02*
X7Y440D01*
X2352Y440D02*
X2359Y440D01*
X0Y439D02*
X7Y439D01*
X2352Y439D02*
X2359Y439D01*
X0Y438D02*
X7Y438D01*
X2352Y438D02*
X2359Y438D01*
X0Y437D02*
X7Y437D01*
X2352Y437D02*
X2359Y437D01*
X0Y436D02*
X7Y436D01*
X2352Y436D02*
X2359Y436D01*
X0Y435D02*
X7Y435D01*
X2352Y435D02*
X2359Y435D01*
X0Y434D02*
X7Y434D01*
X2352Y434D02*
X2359Y434D01*
X0Y433D02*
X7Y433D01*
X2352Y433D02*
X2359Y433D01*
X0Y432D02*
X7Y432D01*
X2352Y432D02*
X2359Y432D01*
X0Y431D02*
X7Y431D01*
X2352Y431D02*
X2359Y431D01*
X0Y430D02*
X7Y430D01*
X2352Y430D02*
X2359Y430D01*
X0Y429D02*
X7Y429D01*
X2352Y429D02*
X2359Y429D01*
X0Y428D02*
X7Y428D01*
X2352Y428D02*
X2359Y428D01*
X0Y427D02*
X7Y427D01*
X2352Y427D02*
X2359Y427D01*
X0Y426D02*
X7Y426D01*
X2352Y426D02*
X2359Y426D01*
X0Y425D02*
X7Y425D01*
X2352Y425D02*
X2359Y425D01*
X0Y424D02*
X7Y424D01*
X2352Y424D02*
X2359Y424D01*
X0Y423D02*
X7Y423D01*
X2352Y423D02*
X2359Y423D01*
X0Y422D02*
X7Y422D01*
X2352Y422D02*
X2359Y422D01*
X0Y421D02*
X7Y421D01*
X2352Y421D02*
X2359Y421D01*
X0Y420D02*
X7Y420D01*
X2352Y420D02*
X2359Y420D01*
X0Y419D02*
X7Y419D01*
X2352Y419D02*
X2359Y419D01*
X0Y418D02*
X7Y418D01*
X2352Y418D02*
X2359Y418D01*
X0Y417D02*
X7Y417D01*
X2352Y417D02*
X2359Y417D01*
X0Y416D02*
X7Y416D01*
X2352Y416D02*
X2359Y416D01*
X0Y415D02*
X7Y415D01*
X2352Y415D02*
X2359Y415D01*
X0Y414D02*
X7Y414D01*
X2352Y414D02*
X2359Y414D01*
X0Y413D02*
X7Y413D01*
X2352Y413D02*
X2359Y413D01*
X0Y412D02*
X7Y412D01*
X2352Y412D02*
X2359Y412D01*
X0Y411D02*
X7Y411D01*
X2352Y411D02*
X2359Y411D01*
X0Y410D02*
X7Y410D01*
X2352Y410D02*
X2359Y410D01*
X0Y409D02*
X7Y409D01*
X2352Y409D02*
X2359Y409D01*
X0Y408D02*
X7Y408D01*
X2352Y408D02*
X2359Y408D01*
X0Y407D02*
X7Y407D01*
X2352Y407D02*
X2359Y407D01*
X0Y406D02*
X7Y406D01*
X2352Y406D02*
X2359Y406D01*
X0Y405D02*
X7Y405D01*
X2352Y405D02*
X2359Y405D01*
X0Y404D02*
X7Y404D01*
X2352Y404D02*
X2359Y404D01*
X0Y403D02*
X7Y403D01*
X2352Y403D02*
X2359Y403D01*
X0Y402D02*
X7Y402D01*
X2352Y402D02*
X2359Y402D01*
X0Y401D02*
X7Y401D01*
X2352Y401D02*
X2359Y401D01*
X0Y400D02*
X7Y400D01*
X2352Y400D02*
X2359Y400D01*
X0Y399D02*
X7Y399D01*
X2352Y399D02*
X2359Y399D01*
X0Y398D02*
X7Y398D01*
X2352Y398D02*
X2359Y398D01*
X0Y397D02*
X7Y397D01*
X2352Y397D02*
X2359Y397D01*
X0Y396D02*
X7Y396D01*
X2352Y396D02*
X2359Y396D01*
X0Y395D02*
X7Y395D01*
X2352Y395D02*
X2359Y395D01*
X0Y394D02*
X7Y394D01*
X2352Y394D02*
X2359Y394D01*
X0Y393D02*
X7Y393D01*
X2352Y393D02*
X2359Y393D01*
X0Y392D02*
X7Y392D01*
X2352Y392D02*
X2359Y392D01*
X0Y391D02*
X7Y391D01*
X2352Y391D02*
X2359Y391D01*
X0Y390D02*
X7Y390D01*
X2352Y390D02*
X2359Y390D01*
X0Y389D02*
X7Y389D01*
X2352Y389D02*
X2359Y389D01*
X0Y388D02*
X7Y388D01*
X2352Y388D02*
X2359Y388D01*
X0Y387D02*
X7Y387D01*
X2352Y387D02*
X2359Y387D01*
X0Y386D02*
X7Y386D01*
X2352Y386D02*
X2359Y386D01*
X0Y385D02*
X7Y385D01*
X2352Y385D02*
X2359Y385D01*
X0Y384D02*
X7Y384D01*
X2352Y384D02*
X2359Y384D01*
X0Y383D02*
X7Y383D01*
X2352Y383D02*
X2359Y383D01*
X0Y382D02*
X7Y382D01*
X2352Y382D02*
X2359Y382D01*
X0Y381D02*
X7Y381D01*
X2352Y381D02*
X2359Y381D01*
X0Y380D02*
X7Y380D01*
X2352Y380D02*
X2359Y380D01*
X0Y379D02*
X7Y379D01*
X2352Y379D02*
X2359Y379D01*
X0Y378D02*
X7Y378D01*
X2352Y378D02*
X2359Y378D01*
X0Y377D02*
X7Y377D01*
X2352Y377D02*
X2359Y377D01*
X0Y376D02*
X7Y376D01*
X2352Y376D02*
X2359Y376D01*
X0Y375D02*
X7Y375D01*
X2352Y375D02*
X2359Y375D01*
X0Y374D02*
X7Y374D01*
X2352Y374D02*
X2359Y374D01*
X0Y373D02*
X7Y373D01*
X2352Y373D02*
X2359Y373D01*
X0Y372D02*
X7Y372D01*
X2352Y372D02*
X2359Y372D01*
X0Y371D02*
X7Y371D01*
X2352Y371D02*
X2359Y371D01*
X0Y370D02*
X7Y370D01*
X2352Y370D02*
X2359Y370D01*
X0Y369D02*
X7Y369D01*
X2352Y369D02*
X2359Y369D01*
X0Y368D02*
X7Y368D01*
X2352Y368D02*
X2359Y368D01*
X0Y367D02*
X7Y367D01*
X2352Y367D02*
X2359Y367D01*
X0Y366D02*
X7Y366D01*
X2352Y366D02*
X2359Y366D01*
X0Y365D02*
X7Y365D01*
X2352Y365D02*
X2359Y365D01*
X0Y364D02*
X7Y364D01*
X2352Y364D02*
X2359Y364D01*
X0Y363D02*
X7Y363D01*
X2352Y363D02*
X2359Y363D01*
X0Y362D02*
X7Y362D01*
X2352Y362D02*
X2359Y362D01*
X0Y361D02*
X7Y361D01*
X2352Y361D02*
X2359Y361D01*
X0Y360D02*
X7Y360D01*
X2352Y360D02*
X2359Y360D01*
X0Y359D02*
X7Y359D01*
X2352Y359D02*
X2359Y359D01*
X0Y358D02*
X7Y358D01*
X2352Y358D02*
X2359Y358D01*
X0Y357D02*
X7Y357D01*
X2352Y357D02*
X2359Y357D01*
X0Y356D02*
X7Y356D01*
X2352Y356D02*
X2359Y356D01*
X0Y355D02*
X7Y355D01*
X2352Y355D02*
X2359Y355D01*
X0Y354D02*
X7Y354D01*
X2352Y354D02*
X2359Y354D01*
X0Y353D02*
X7Y353D01*
X2352Y353D02*
X2359Y353D01*
X0Y352D02*
X7Y352D01*
X2352Y352D02*
X2359Y352D01*
X0Y351D02*
X7Y351D01*
X2352Y351D02*
X2359Y351D01*
X0Y350D02*
X7Y350D01*
X2352Y350D02*
X2359Y350D01*
X0Y349D02*
X7Y349D01*
X2352Y349D02*
X2359Y349D01*
X0Y348D02*
X7Y348D01*
X2352Y348D02*
X2359Y348D01*
X0Y347D02*
X7Y347D01*
X2352Y347D02*
X2359Y347D01*
X0Y346D02*
X7Y346D01*
X2352Y346D02*
X2359Y346D01*
X0Y345D02*
X7Y345D01*
X2352Y345D02*
X2359Y345D01*
X0Y344D02*
X7Y344D01*
X2352Y344D02*
X2359Y344D01*
X0Y343D02*
X7Y343D01*
X2352Y343D02*
X2359Y343D01*
X0Y342D02*
X7Y342D01*
X2352Y342D02*
X2359Y342D01*
X0Y341D02*
X7Y341D01*
X2352Y341D02*
X2359Y341D01*
X0Y340D02*
X7Y340D01*
X2352Y340D02*
X2359Y340D01*
X0Y339D02*
X7Y339D01*
X2352Y339D02*
X2359Y339D01*
X0Y338D02*
X7Y338D01*
X2352Y338D02*
X2359Y338D01*
X0Y337D02*
X7Y337D01*
X2352Y337D02*
X2359Y337D01*
X0Y336D02*
X7Y336D01*
X2352Y336D02*
X2359Y336D01*
X0Y335D02*
X7Y335D01*
X2352Y335D02*
X2359Y335D01*
X0Y334D02*
X7Y334D01*
X2352Y334D02*
X2359Y334D01*
X0Y333D02*
X7Y333D01*
X2352Y333D02*
X2359Y333D01*
X0Y332D02*
X7Y332D01*
X2352Y332D02*
X2359Y332D01*
X0Y331D02*
X7Y331D01*
X2352Y331D02*
X2359Y331D01*
X0Y330D02*
X7Y330D01*
X2352Y330D02*
X2359Y330D01*
X0Y329D02*
X7Y329D01*
X2352Y329D02*
X2359Y329D01*
X0Y328D02*
X7Y328D01*
X2352Y328D02*
X2359Y328D01*
X0Y327D02*
X7Y327D01*
X2352Y327D02*
X2359Y327D01*
X0Y326D02*
X7Y326D01*
X2352Y326D02*
X2359Y326D01*
X0Y325D02*
X7Y325D01*
X2352Y325D02*
X2359Y325D01*
X0Y324D02*
X7Y324D01*
X2352Y324D02*
X2359Y324D01*
X0Y323D02*
X7Y323D01*
X2352Y323D02*
X2359Y323D01*
X0Y322D02*
X7Y322D01*
X2352Y322D02*
X2359Y322D01*
X0Y321D02*
X7Y321D01*
X2352Y321D02*
X2359Y321D01*
X0Y320D02*
X7Y320D01*
X2352Y320D02*
X2359Y320D01*
X0Y319D02*
X7Y319D01*
X2352Y319D02*
X2359Y319D01*
X0Y318D02*
X7Y318D01*
X2352Y318D02*
X2359Y318D01*
X0Y317D02*
X7Y317D01*
X2352Y317D02*
X2359Y317D01*
X0Y316D02*
X7Y316D01*
X2352Y316D02*
X2359Y316D01*
X0Y315D02*
X7Y315D01*
X2352Y315D02*
X2359Y315D01*
X0Y314D02*
X7Y314D01*
X2352Y314D02*
X2359Y314D01*
X0Y313D02*
X7Y313D01*
X2352Y313D02*
X2359Y313D01*
X0Y312D02*
X7Y312D01*
X2352Y312D02*
X2359Y312D01*
X0Y311D02*
X7Y311D01*
X2352Y311D02*
X2359Y311D01*
X0Y310D02*
X7Y310D01*
X2352Y310D02*
X2359Y310D01*
X0Y309D02*
X7Y309D01*
X2352Y309D02*
X2359Y309D01*
X0Y308D02*
X7Y308D01*
X2352Y308D02*
X2359Y308D01*
X0Y307D02*
X7Y307D01*
X2352Y307D02*
X2359Y307D01*
X0Y306D02*
X7Y306D01*
X2352Y306D02*
X2359Y306D01*
X0Y305D02*
X7Y305D01*
X2352Y305D02*
X2359Y305D01*
X0Y304D02*
X7Y304D01*
X2352Y304D02*
X2359Y304D01*
X0Y303D02*
X7Y303D01*
X2352Y303D02*
X2359Y303D01*
X0Y302D02*
X7Y302D01*
X2352Y302D02*
X2359Y302D01*
X0Y301D02*
X7Y301D01*
X2352Y301D02*
X2359Y301D01*
X0Y300D02*
X7Y300D01*
X2352Y300D02*
X2359Y300D01*
X0Y299D02*
X7Y299D01*
X2352Y299D02*
X2359Y299D01*
X0Y298D02*
X7Y298D01*
X2352Y298D02*
X2359Y298D01*
X0Y297D02*
X7Y297D01*
X2352Y297D02*
X2359Y297D01*
X0Y296D02*
X7Y296D01*
X2352Y296D02*
X2359Y296D01*
X0Y295D02*
X7Y295D01*
X2352Y295D02*
X2359Y295D01*
X0Y294D02*
X7Y294D01*
X2352Y294D02*
X2359Y294D01*
X0Y293D02*
X7Y293D01*
X2352Y293D02*
X2359Y293D01*
X0Y292D02*
X7Y292D01*
X2352Y292D02*
X2359Y292D01*
X0Y291D02*
X7Y291D01*
X2352Y291D02*
X2359Y291D01*
X0Y290D02*
X7Y290D01*
X2352Y290D02*
X2359Y290D01*
X0Y289D02*
X7Y289D01*
X2352Y289D02*
X2359Y289D01*
X0Y288D02*
X7Y288D01*
X2352Y288D02*
X2359Y288D01*
X0Y287D02*
X7Y287D01*
X2352Y287D02*
X2359Y287D01*
X0Y286D02*
X7Y286D01*
X2352Y286D02*
X2359Y286D01*
X0Y285D02*
X7Y285D01*
X2352Y285D02*
X2359Y285D01*
X0Y284D02*
X7Y284D01*
X2352Y284D02*
X2359Y284D01*
X0Y283D02*
X7Y283D01*
X2352Y283D02*
X2359Y283D01*
X0Y282D02*
X7Y282D01*
X2352Y282D02*
X2359Y282D01*
X0Y281D02*
X7Y281D01*
X2352Y281D02*
X2359Y281D01*
X0Y280D02*
X7Y280D01*
X2352Y280D02*
X2359Y280D01*
X0Y279D02*
X7Y279D01*
X2352Y279D02*
X2359Y279D01*
X0Y278D02*
X7Y278D01*
X2352Y278D02*
X2359Y278D01*
X0Y277D02*
X7Y277D01*
X2352Y277D02*
X2359Y277D01*
X0Y276D02*
X7Y276D01*
X2352Y276D02*
X2359Y276D01*
X0Y275D02*
X7Y275D01*
X2352Y275D02*
X2359Y275D01*
X0Y274D02*
X7Y274D01*
X2352Y274D02*
X2359Y274D01*
X0Y273D02*
X7Y273D01*
X2352Y273D02*
X2359Y273D01*
X0Y272D02*
X7Y272D01*
X2352Y272D02*
X2359Y272D01*
X0Y271D02*
X7Y271D01*
X2352Y271D02*
X2359Y271D01*
X0Y270D02*
X7Y270D01*
X2352Y270D02*
X2359Y270D01*
X0Y269D02*
X7Y269D01*
X2352Y269D02*
X2359Y269D01*
X0Y268D02*
X7Y268D01*
X2352Y268D02*
X2359Y268D01*
X0Y267D02*
X7Y267D01*
X2352Y267D02*
X2359Y267D01*
X0Y266D02*
X7Y266D01*
X2352Y266D02*
X2359Y266D01*
X0Y265D02*
X7Y265D01*
X2352Y265D02*
X2359Y265D01*
X0Y264D02*
X7Y264D01*
X2352Y264D02*
X2359Y264D01*
X0Y263D02*
X7Y263D01*
X2352Y263D02*
X2359Y263D01*
X0Y262D02*
X7Y262D01*
X2352Y262D02*
X2359Y262D01*
X0Y261D02*
X7Y261D01*
X2352Y261D02*
X2359Y261D01*
X0Y260D02*
X7Y260D01*
X2352Y260D02*
X2359Y260D01*
X0Y259D02*
X7Y259D01*
X2352Y259D02*
X2359Y259D01*
X0Y258D02*
X7Y258D01*
X2352Y258D02*
X2359Y258D01*
X0Y257D02*
X7Y257D01*
X2352Y257D02*
X2359Y257D01*
X0Y256D02*
X7Y256D01*
X2352Y256D02*
X2359Y256D01*
X0Y255D02*
X7Y255D01*
X2352Y255D02*
X2359Y255D01*
X0Y254D02*
X7Y254D01*
X2352Y254D02*
X2359Y254D01*
X0Y253D02*
X7Y253D01*
X2352Y253D02*
X2359Y253D01*
X0Y252D02*
X7Y252D01*
X2352Y252D02*
X2359Y252D01*
X0Y251D02*
X7Y251D01*
X2352Y251D02*
X2359Y251D01*
X0Y250D02*
X7Y250D01*
X2352Y250D02*
X2359Y250D01*
X0Y249D02*
X7Y249D01*
X2352Y249D02*
X2359Y249D01*
X0Y248D02*
X7Y248D01*
X2352Y248D02*
X2359Y248D01*
X0Y247D02*
X7Y247D01*
X2352Y247D02*
X2359Y247D01*
X0Y246D02*
X7Y246D01*
X2352Y246D02*
X2359Y246D01*
X0Y245D02*
X7Y245D01*
X2352Y245D02*
X2359Y245D01*
X0Y244D02*
X7Y244D01*
X2352Y244D02*
X2359Y244D01*
X0Y243D02*
X7Y243D01*
X2352Y243D02*
X2359Y243D01*
X0Y242D02*
X7Y242D01*
X2352Y242D02*
X2359Y242D01*
X0Y241D02*
X7Y241D01*
X2352Y241D02*
X2359Y241D01*
X0Y240D02*
X7Y240D01*
X2352Y240D02*
X2359Y240D01*
X0Y239D02*
X7Y239D01*
X2352Y239D02*
X2359Y239D01*
X0Y238D02*
X7Y238D01*
X2352Y238D02*
X2359Y238D01*
X0Y237D02*
X7Y237D01*
X2352Y237D02*
X2359Y237D01*
X0Y236D02*
X7Y236D01*
X2352Y236D02*
X2359Y236D01*
X0Y235D02*
X7Y235D01*
X2352Y235D02*
X2359Y235D01*
X0Y234D02*
X7Y234D01*
X2352Y234D02*
X2359Y234D01*
X0Y233D02*
X7Y233D01*
X2352Y233D02*
X2359Y233D01*
X0Y232D02*
X7Y232D01*
X2352Y232D02*
X2359Y232D01*
X0Y231D02*
X7Y231D01*
X2352Y231D02*
X2359Y231D01*
X0Y230D02*
X7Y230D01*
X2352Y230D02*
X2359Y230D01*
X0Y229D02*
X7Y229D01*
X2352Y229D02*
X2359Y229D01*
X0Y228D02*
X7Y228D01*
X2352Y228D02*
X2359Y228D01*
X0Y227D02*
X7Y227D01*
X2352Y227D02*
X2359Y227D01*
X0Y226D02*
X7Y226D01*
X2352Y226D02*
X2359Y226D01*
X0Y225D02*
X7Y225D01*
X2352Y225D02*
X2359Y225D01*
X0Y224D02*
X7Y224D01*
X2352Y224D02*
X2359Y224D01*
X0Y223D02*
X7Y223D01*
X2352Y223D02*
X2359Y223D01*
X0Y222D02*
X7Y222D01*
X2352Y222D02*
X2359Y222D01*
X0Y221D02*
X7Y221D01*
X2352Y221D02*
X2359Y221D01*
X0Y220D02*
X7Y220D01*
X2352Y220D02*
X2359Y220D01*
X0Y219D02*
X7Y219D01*
X2352Y219D02*
X2359Y219D01*
X0Y218D02*
X7Y218D01*
X2352Y218D02*
X2359Y218D01*
X0Y217D02*
X7Y217D01*
X2352Y217D02*
X2359Y217D01*
X0Y216D02*
X7Y216D01*
X2352Y216D02*
X2359Y216D01*
X0Y215D02*
X7Y215D01*
X2352Y215D02*
X2359Y215D01*
X0Y214D02*
X7Y214D01*
X2352Y214D02*
X2359Y214D01*
X0Y213D02*
X7Y213D01*
X2352Y213D02*
X2359Y213D01*
X0Y212D02*
X7Y212D01*
X2352Y212D02*
X2359Y212D01*
X0Y211D02*
X7Y211D01*
X2352Y211D02*
X2359Y211D01*
X0Y210D02*
X7Y210D01*
X2352Y210D02*
X2359Y210D01*
X0Y209D02*
X7Y209D01*
X2352Y209D02*
X2359Y209D01*
X0Y208D02*
X7Y208D01*
X2352Y208D02*
X2359Y208D01*
X0Y207D02*
X7Y207D01*
X2352Y207D02*
X2359Y207D01*
X0Y206D02*
X7Y206D01*
X2352Y206D02*
X2359Y206D01*
X0Y205D02*
X7Y205D01*
X2352Y205D02*
X2359Y205D01*
X0Y204D02*
X7Y204D01*
X2352Y204D02*
X2359Y204D01*
X0Y203D02*
X7Y203D01*
X2352Y203D02*
X2359Y203D01*
X0Y202D02*
X7Y202D01*
X2352Y202D02*
X2359Y202D01*
X0Y201D02*
X7Y201D01*
X2352Y201D02*
X2359Y201D01*
X0Y200D02*
X7Y200D01*
X2352Y200D02*
X2359Y200D01*
X0Y199D02*
X7Y199D01*
X2352Y199D02*
X2359Y199D01*
X0Y198D02*
X7Y198D01*
X2352Y198D02*
X2359Y198D01*
X0Y197D02*
X7Y197D01*
X2352Y197D02*
X2359Y197D01*
X0Y196D02*
X7Y196D01*
X2352Y196D02*
X2359Y196D01*
X0Y195D02*
X7Y195D01*
X2352Y195D02*
X2359Y195D01*
X0Y194D02*
X7Y194D01*
X2352Y194D02*
X2359Y194D01*
X0Y193D02*
X7Y193D01*
X2352Y193D02*
X2359Y193D01*
X0Y192D02*
X7Y192D01*
X2352Y192D02*
X2359Y192D01*
X0Y191D02*
X7Y191D01*
X2352Y191D02*
X2359Y191D01*
X0Y190D02*
X7Y190D01*
X2352Y190D02*
X2359Y190D01*
X0Y189D02*
X7Y189D01*
X2352Y189D02*
X2359Y189D01*
X0Y188D02*
X7Y188D01*
X2352Y188D02*
X2359Y188D01*
X0Y187D02*
X7Y187D01*
X2352Y187D02*
X2359Y187D01*
X0Y186D02*
X7Y186D01*
X2352Y186D02*
X2359Y186D01*
X0Y185D02*
X7Y185D01*
X2352Y185D02*
X2359Y185D01*
X0Y184D02*
X7Y184D01*
X2352Y184D02*
X2359Y184D01*
X0Y183D02*
X7Y183D01*
X2352Y183D02*
X2359Y183D01*
X0Y182D02*
X7Y182D01*
X2352Y182D02*
X2359Y182D01*
X0Y181D02*
X7Y181D01*
X2352Y181D02*
X2359Y181D01*
X0Y180D02*
X7Y180D01*
X2352Y180D02*
X2359Y180D01*
X0Y179D02*
X7Y179D01*
X2352Y179D02*
X2359Y179D01*
X0Y178D02*
X7Y178D01*
X2352Y178D02*
X2359Y178D01*
X0Y177D02*
X7Y177D01*
X2352Y177D02*
X2359Y177D01*
X0Y176D02*
X7Y176D01*
X2352Y176D02*
X2359Y176D01*
X0Y175D02*
X7Y175D01*
X2352Y175D02*
X2359Y175D01*
X0Y174D02*
X7Y174D01*
X2352Y174D02*
X2359Y174D01*
X0Y173D02*
X7Y173D01*
X2352Y173D02*
X2359Y173D01*
X0Y172D02*
X7Y172D01*
X2352Y172D02*
X2359Y172D01*
X0Y171D02*
X7Y171D01*
X2352Y171D02*
X2359Y171D01*
X0Y170D02*
X7Y170D01*
X2352Y170D02*
X2359Y170D01*
X0Y169D02*
X7Y169D01*
X2352Y169D02*
X2359Y169D01*
X0Y168D02*
X7Y168D01*
X2352Y168D02*
X2359Y168D01*
X0Y167D02*
X7Y167D01*
X2352Y167D02*
X2359Y167D01*
X0Y166D02*
X7Y166D01*
X2352Y166D02*
X2359Y166D01*
X0Y165D02*
X7Y165D01*
X2352Y165D02*
X2359Y165D01*
X0Y164D02*
X7Y164D01*
X2352Y164D02*
X2359Y164D01*
X0Y163D02*
X7Y163D01*
X2352Y163D02*
X2359Y163D01*
X0Y162D02*
X7Y162D01*
X2352Y162D02*
X2359Y162D01*
X0Y161D02*
X7Y161D01*
X2352Y161D02*
X2359Y161D01*
X0Y160D02*
X7Y160D01*
X2352Y160D02*
X2359Y160D01*
X0Y159D02*
X7Y159D01*
X2352Y159D02*
X2359Y159D01*
X0Y158D02*
X7Y158D01*
X2352Y158D02*
X2359Y158D01*
X0Y157D02*
X7Y157D01*
X2352Y157D02*
X2359Y157D01*
X0Y156D02*
X7Y156D01*
X2352Y156D02*
X2359Y156D01*
X0Y155D02*
X7Y155D01*
X2352Y155D02*
X2359Y155D01*
X0Y154D02*
X7Y154D01*
X2352Y154D02*
X2359Y154D01*
X0Y153D02*
X7Y153D01*
X2352Y153D02*
X2359Y153D01*
X0Y152D02*
X7Y152D01*
X2352Y152D02*
X2359Y152D01*
X0Y151D02*
X7Y151D01*
X2352Y151D02*
X2359Y151D01*
X0Y150D02*
X7Y150D01*
X2352Y150D02*
X2359Y150D01*
X0Y149D02*
X7Y149D01*
X2352Y149D02*
X2359Y149D01*
X0Y148D02*
X7Y148D01*
X2352Y148D02*
X2359Y148D01*
X0Y147D02*
X7Y147D01*
X2352Y147D02*
X2359Y147D01*
X0Y146D02*
X7Y146D01*
X2352Y146D02*
X2359Y146D01*
X0Y145D02*
X7Y145D01*
X2352Y145D02*
X2359Y145D01*
X0Y144D02*
X7Y144D01*
X2352Y144D02*
X2359Y144D01*
X0Y143D02*
X7Y143D01*
X2352Y143D02*
X2359Y143D01*
X0Y142D02*
X7Y142D01*
X2352Y142D02*
X2359Y142D01*
X0Y141D02*
X7Y141D01*
X2352Y141D02*
X2359Y141D01*
X0Y140D02*
X7Y140D01*
X2352Y140D02*
X2359Y140D01*
X0Y139D02*
X7Y139D01*
X2352Y139D02*
X2359Y139D01*
X0Y138D02*
X7Y138D01*
X2352Y138D02*
X2359Y138D01*
X0Y137D02*
X7Y137D01*
X2352Y137D02*
X2359Y137D01*
X0Y136D02*
X7Y136D01*
X2352Y136D02*
X2359Y136D01*
X0Y135D02*
X7Y135D01*
X2352Y135D02*
X2359Y135D01*
X0Y134D02*
X7Y134D01*
X2352Y134D02*
X2359Y134D01*
X0Y133D02*
X7Y133D01*
X2352Y133D02*
X2359Y133D01*
X0Y132D02*
X7Y132D01*
X2352Y132D02*
X2359Y132D01*
X0Y131D02*
X7Y131D01*
X2352Y131D02*
X2359Y131D01*
X0Y130D02*
X7Y130D01*
X2352Y130D02*
X2359Y130D01*
X0Y129D02*
X7Y129D01*
X2352Y129D02*
X2359Y129D01*
X0Y128D02*
X7Y128D01*
X2352Y128D02*
X2359Y128D01*
X0Y127D02*
X7Y127D01*
X2352Y127D02*
X2359Y127D01*
X0Y126D02*
X7Y126D01*
X2352Y126D02*
X2359Y126D01*
X0Y125D02*
X7Y125D01*
X2352Y125D02*
X2359Y125D01*
X0Y124D02*
X7Y124D01*
X2352Y124D02*
X2359Y124D01*
X0Y123D02*
X7Y123D01*
X2352Y123D02*
X2359Y123D01*
X0Y122D02*
X7Y122D01*
X2352Y122D02*
X2359Y122D01*
X0Y121D02*
X7Y121D01*
X2352Y121D02*
X2359Y121D01*
X0Y120D02*
X7Y120D01*
X2352Y120D02*
X2359Y120D01*
X0Y119D02*
X7Y119D01*
X2352Y119D02*
X2359Y119D01*
X0Y118D02*
X7Y118D01*
X2352Y118D02*
X2359Y118D01*
X0Y117D02*
X7Y117D01*
X2352Y117D02*
X2359Y117D01*
X0Y116D02*
X7Y116D01*
X2352Y116D02*
X2359Y116D01*
X0Y115D02*
X7Y115D01*
X2352Y115D02*
X2359Y115D01*
X0Y114D02*
X7Y114D01*
X2352Y114D02*
X2359Y114D01*
X0Y113D02*
X7Y113D01*
X2352Y113D02*
X2359Y113D01*
X0Y112D02*
X7Y112D01*
X2352Y112D02*
X2359Y112D01*
X0Y111D02*
X7Y111D01*
X2352Y111D02*
X2359Y111D01*
X0Y110D02*
X7Y110D01*
X2352Y110D02*
X2359Y110D01*
X0Y109D02*
X7Y109D01*
X2352Y109D02*
X2359Y109D01*
X0Y108D02*
X7Y108D01*
X2352Y108D02*
X2359Y108D01*
X0Y107D02*
X7Y107D01*
X2352Y107D02*
X2359Y107D01*
X0Y106D02*
X7Y106D01*
X2352Y106D02*
X2359Y106D01*
X0Y105D02*
X7Y105D01*
X2352Y105D02*
X2359Y105D01*
X0Y104D02*
X7Y104D01*
X2352Y104D02*
X2359Y104D01*
X0Y103D02*
X7Y103D01*
X2352Y103D02*
X2359Y103D01*
X0Y102D02*
X7Y102D01*
X2352Y102D02*
X2359Y102D01*
X0Y101D02*
X7Y101D01*
X2352Y101D02*
X2359Y101D01*
X0Y100D02*
X7Y100D01*
X2352Y100D02*
X2359Y100D01*
X0Y99D02*
X7Y99D01*
X2352Y99D02*
X2359Y99D01*
X0Y98D02*
X7Y98D01*
X2352Y98D02*
X2359Y98D01*
X0Y97D02*
X7Y97D01*
X2352Y97D02*
X2359Y97D01*
X0Y96D02*
X7Y96D01*
X2352Y96D02*
X2359Y96D01*
X0Y95D02*
X7Y95D01*
X2352Y95D02*
X2359Y95D01*
X0Y94D02*
X7Y94D01*
X2352Y94D02*
X2359Y94D01*
X0Y93D02*
X7Y93D01*
X2352Y93D02*
X2359Y93D01*
X0Y92D02*
X7Y92D01*
X2352Y92D02*
X2359Y92D01*
X0Y91D02*
X7Y91D01*
X2352Y91D02*
X2359Y91D01*
X0Y90D02*
X7Y90D01*
X2352Y90D02*
X2359Y90D01*
X0Y89D02*
X7Y89D01*
X2352Y89D02*
X2359Y89D01*
X0Y88D02*
X7Y88D01*
X2352Y88D02*
X2359Y88D01*
X0Y87D02*
X7Y87D01*
X2352Y87D02*
X2359Y87D01*
X0Y86D02*
X7Y86D01*
X2352Y86D02*
X2359Y86D01*
X0Y85D02*
X7Y85D01*
X2352Y85D02*
X2359Y85D01*
X0Y84D02*
X7Y84D01*
X2352Y84D02*
X2359Y84D01*
X0Y83D02*
X7Y83D01*
X2352Y83D02*
X2359Y83D01*
X0Y82D02*
X6Y82D01*
X2352Y82D02*
X2359Y82D01*
X0Y81D02*
X6Y81D01*
X2352Y81D02*
X2359Y81D01*
X0Y80D02*
X6Y80D01*
X2352Y80D02*
X2359Y80D01*
X0Y79D02*
X6Y79D01*
X2352Y79D02*
X2359Y79D01*
X0Y78D02*
X6Y78D01*
X2352Y78D02*
X2359Y78D01*
X0Y77D02*
X6Y77D01*
X2352Y77D02*
X2359Y77D01*
X0Y76D02*
X6Y76D01*
X2352Y76D02*
X2359Y76D01*
X0Y75D02*
X6Y75D01*
X2352Y75D02*
X2359Y75D01*
X0Y74D02*
X7Y74D01*
X2352Y74D02*
X2359Y74D01*
X0Y73D02*
X7Y73D01*
X2352Y73D02*
X2359Y73D01*
X0Y72D02*
X7Y72D01*
X2352Y72D02*
X2359Y72D01*
X0Y71D02*
X7Y71D01*
X2352Y71D02*
X2359Y71D01*
X0Y70D02*
X7Y70D01*
X2352Y70D02*
X2359Y70D01*
X0Y69D02*
X7Y69D01*
X2352Y69D02*
X2359Y69D01*
X0Y68D02*
X7Y68D01*
X2352Y68D02*
X2359Y68D01*
X0Y67D02*
X7Y67D01*
X2352Y67D02*
X2359Y67D01*
X0Y66D02*
X7Y66D01*
X2352Y66D02*
X2359Y66D01*
X0Y65D02*
X7Y65D01*
X2352Y65D02*
X2359Y65D01*
X0Y64D02*
X7Y64D01*
X2352Y64D02*
X2359Y64D01*
X0Y63D02*
X7Y63D01*
X2352Y63D02*
X2359Y63D01*
X0Y62D02*
X7Y62D01*
X2352Y62D02*
X2359Y62D01*
X0Y61D02*
X7Y61D01*
X2352Y61D02*
X2359Y61D01*
X0Y60D02*
X7Y60D01*
X2352Y60D02*
X2359Y60D01*
X0Y59D02*
X7Y59D01*
X2352Y59D02*
X2359Y59D01*
X0Y58D02*
X7Y58D01*
X2352Y58D02*
X2359Y58D01*
X0Y57D02*
X7Y57D01*
X2352Y57D02*
X2359Y57D01*
X0Y56D02*
X7Y56D01*
X2352Y56D02*
X2359Y56D01*
X0Y55D02*
X7Y55D01*
X2352Y55D02*
X2359Y55D01*
X0Y54D02*
X7Y54D01*
X2352Y54D02*
X2359Y54D01*
X0Y53D02*
X7Y53D01*
X2352Y53D02*
X2359Y53D01*
X0Y52D02*
X7Y52D01*
X2352Y52D02*
X2359Y52D01*
X0Y51D02*
X7Y51D01*
X2352Y51D02*
X2359Y51D01*
X0Y50D02*
X7Y50D01*
X2352Y50D02*
X2359Y50D01*
X0Y49D02*
X7Y49D01*
X2352Y49D02*
X2359Y49D01*
X0Y48D02*
X7Y48D01*
X2352Y48D02*
X2359Y48D01*
X0Y47D02*
X7Y47D01*
X2352Y47D02*
X2359Y47D01*
X0Y46D02*
X7Y46D01*
X2352Y46D02*
X2359Y46D01*
X0Y45D02*
X7Y45D01*
X2352Y45D02*
X2359Y45D01*
X0Y44D02*
X7Y44D01*
X2352Y44D02*
X2359Y44D01*
X0Y43D02*
X7Y43D01*
X2352Y43D02*
X2359Y43D01*
X0Y42D02*
X7Y42D01*
X2352Y42D02*
X2359Y42D01*
X0Y41D02*
X7Y41D01*
X2352Y41D02*
X2359Y41D01*
X0Y40D02*
X7Y40D01*
X2352Y40D02*
X2359Y40D01*
X0Y39D02*
X7Y39D01*
X2352Y39D02*
X2359Y39D01*
X0Y38D02*
X7Y38D01*
X2352Y38D02*
X2359Y38D01*
X0Y37D02*
X7Y37D01*
X2352Y37D02*
X2359Y37D01*
X0Y36D02*
X7Y36D01*
X2352Y36D02*
X2359Y36D01*
X0Y35D02*
X7Y35D01*
X2352Y35D02*
X2359Y35D01*
X0Y34D02*
X7Y34D01*
X2352Y34D02*
X2359Y34D01*
X0Y33D02*
X7Y33D01*
X2352Y33D02*
X2359Y33D01*
X0Y32D02*
X7Y32D01*
X2352Y32D02*
X2359Y32D01*
X0Y31D02*
X7Y31D01*
X2352Y31D02*
X2359Y31D01*
X0Y30D02*
X7Y30D01*
X2352Y30D02*
X2359Y30D01*
X0Y29D02*
X7Y29D01*
X2352Y29D02*
X2359Y29D01*
X0Y28D02*
X7Y28D01*
X2352Y28D02*
X2359Y28D01*
X0Y27D02*
X7Y27D01*
X2352Y27D02*
X2359Y27D01*
X0Y26D02*
X7Y26D01*
X2352Y26D02*
X2359Y26D01*
X0Y25D02*
X7Y25D01*
X2352Y25D02*
X2359Y25D01*
X0Y24D02*
X7Y24D01*
X2352Y24D02*
X2359Y24D01*
X0Y23D02*
X7Y23D01*
X2352Y23D02*
X2359Y23D01*
X0Y22D02*
X7Y22D01*
X2352Y22D02*
X2359Y22D01*
X0Y21D02*
X7Y21D01*
X2352Y21D02*
X2359Y21D01*
X0Y20D02*
X7Y20D01*
X2352Y20D02*
X2359Y20D01*
X0Y19D02*
X7Y19D01*
X2352Y19D02*
X2359Y19D01*
X0Y18D02*
X7Y18D01*
X2352Y18D02*
X2359Y18D01*
X0Y17D02*
X7Y17D01*
X2352Y17D02*
X2359Y17D01*
X0Y16D02*
X7Y16D01*
X2352Y16D02*
X2359Y16D01*
X0Y15D02*
X7Y15D01*
X2352Y15D02*
X2359Y15D01*
X0Y14D02*
X7Y14D01*
X2352Y14D02*
X2359Y14D01*
X0Y13D02*
X7Y13D01*
X2352Y13D02*
X2359Y13D01*
X0Y12D02*
X7Y12D01*
X2352Y12D02*
X2359Y12D01*
X0Y11D02*
X7Y11D01*
X2352Y11D02*
X2359Y11D01*
X0Y10D02*
X7Y10D01*
X2352Y10D02*
X2359Y10D01*
X0Y9D02*
X2359Y9D01*
X0Y8D02*
X2359Y8D01*
X0Y7D02*
X2359Y7D01*
X0Y6D02*
X2359Y6D01*
X0Y5D02*
X2359Y5D01*
X0Y4D02*
X2359Y4D01*
X0Y3D02*
X2359Y3D01*
X0Y2D02*
X2359Y2D01*
D02*
G04 End of Silk0*
M02*