G04 MADE WITH FRITZING*
G04 WWW.FRITZING.ORG*
G04 DOUBLE SIDED*
G04 HOLES PLATED*
G04 CONTOUR ON CENTER OF CONTOUR VECTOR*
%ASAXBY*%
%FSLAX23Y23*%
%MOIN*%
%OFA0B0*%
%SFA1.0B1.0*%
%ADD10C,0.080000*%
%ADD11C,0.075000*%
%ADD12C,0.052000*%
%ADD13C,0.078000*%
%ADD14C,0.070000*%
%ADD15R,0.080000X0.080000*%
%ADD16C,0.024000*%
%ADD17R,0.001000X0.001000*%
%LNCOPPER1*%
G90*
G70*
G54D10*
X130Y878D03*
X130Y778D03*
X130Y528D03*
X130Y391D03*
G54D11*
X1730Y1028D03*
X1730Y1428D03*
G54D10*
X2230Y1728D03*
X2230Y1628D03*
X2230Y1528D03*
X2080Y1328D03*
X2080Y1228D03*
X2080Y1128D03*
G54D12*
X1530Y428D03*
X1530Y528D03*
X1530Y628D03*
X1530Y728D03*
X1530Y828D03*
X1530Y928D03*
X1530Y1028D03*
X1530Y1128D03*
X1530Y1228D03*
X1530Y1328D03*
X1530Y1428D03*
X1530Y1528D03*
X1530Y1628D03*
X1530Y1728D03*
X1530Y1828D03*
X530Y1828D03*
X530Y1728D03*
X530Y1628D03*
X530Y1528D03*
X530Y1428D03*
X530Y1328D03*
X530Y1228D03*
X530Y1128D03*
X530Y1028D03*
X530Y928D03*
X530Y828D03*
X530Y728D03*
X530Y628D03*
X530Y528D03*
X530Y428D03*
G54D13*
X1930Y1928D03*
X1930Y1828D03*
X1930Y1728D03*
X1930Y1628D03*
X2230Y728D03*
X2130Y728D03*
X2030Y728D03*
X1930Y728D03*
X1830Y728D03*
X1730Y728D03*
G54D14*
X2135Y278D03*
X1880Y278D03*
X2135Y278D03*
X1880Y278D03*
G54D13*
X130Y1528D03*
X130Y1428D03*
X130Y1328D03*
X130Y1228D03*
X130Y1128D03*
G54D15*
X130Y878D03*
X130Y528D03*
X2230Y1728D03*
X2080Y1328D03*
G54D16*
X324Y526D02*
X161Y528D01*
D02*
X324Y526D02*
X499Y528D01*
D02*
X161Y878D02*
X330Y877D01*
D02*
X330Y877D02*
X324Y526D01*
D02*
X1627Y1730D02*
X1627Y1628D01*
D02*
X1560Y1729D02*
X1627Y1730D01*
D02*
X1627Y1628D02*
X1899Y1628D01*
D02*
X1730Y1528D02*
X1630Y1476D01*
D02*
X1830Y1476D02*
X1730Y1528D01*
D02*
X1630Y1476D02*
X1381Y1476D01*
D02*
X1381Y528D02*
X1499Y528D01*
D02*
X1381Y1476D02*
X1381Y528D01*
D02*
X2030Y1476D02*
X1830Y1476D01*
D02*
X2030Y1928D02*
X2030Y1476D01*
D02*
X1960Y1928D02*
X2030Y1928D01*
D02*
X1730Y758D02*
X1730Y1000D01*
D02*
X1830Y1328D02*
X1830Y828D01*
D02*
X1830Y828D02*
X1830Y758D01*
D02*
X1560Y1328D02*
X1681Y1328D01*
D02*
X1681Y1328D02*
X1830Y1328D01*
D02*
X630Y278D02*
X630Y428D01*
D02*
X630Y428D02*
X560Y428D01*
D02*
X1730Y278D02*
X630Y278D01*
D02*
X1730Y698D02*
X1730Y278D01*
D02*
X2080Y1628D02*
X2080Y2028D01*
D02*
X2080Y2028D02*
X1130Y2028D01*
D02*
X1130Y2028D02*
X1130Y1728D01*
D02*
X1130Y1728D02*
X560Y1728D01*
D02*
X2198Y1628D02*
X2080Y1628D01*
D02*
X2230Y1128D02*
X2111Y1128D01*
D02*
X2230Y1497D02*
X2230Y1128D01*
D02*
X1230Y1878D02*
X1830Y1878D01*
D02*
X1830Y1878D02*
X1831Y1827D01*
D02*
X1230Y430D02*
X1230Y1878D01*
D02*
X1831Y1827D02*
X1899Y1828D01*
D02*
X1499Y429D02*
X1230Y430D01*
D02*
X160Y1128D02*
X499Y1128D01*
D02*
X160Y1228D02*
X499Y1228D01*
D02*
X160Y1328D02*
X499Y1328D01*
D02*
X30Y1528D02*
X30Y391D01*
D02*
X99Y1528D02*
X30Y1528D01*
D02*
X30Y391D02*
X98Y391D01*
G54D17*
X502Y1855D02*
X559Y1855D01*
X1499Y1855D02*
X1556Y1855D01*
X497Y1854D02*
X564Y1854D01*
X1495Y1854D02*
X1561Y1854D01*
X495Y1853D02*
X566Y1853D01*
X1492Y1853D02*
X1564Y1853D01*
X493Y1852D02*
X568Y1852D01*
X1490Y1852D02*
X1566Y1852D01*
X491Y1851D02*
X570Y1851D01*
X1488Y1851D02*
X1567Y1851D01*
X489Y1850D02*
X571Y1850D01*
X1487Y1850D02*
X1569Y1850D01*
X488Y1849D02*
X573Y1849D01*
X1486Y1849D02*
X1570Y1849D01*
X487Y1848D02*
X574Y1848D01*
X1484Y1848D02*
X1571Y1848D01*
X486Y1847D02*
X575Y1847D01*
X1483Y1847D02*
X1572Y1847D01*
X485Y1846D02*
X576Y1846D01*
X1483Y1846D02*
X1573Y1846D01*
X484Y1845D02*
X528Y1845D01*
X533Y1845D02*
X576Y1845D01*
X1482Y1845D02*
X1524Y1845D01*
X1530Y1845D02*
X1574Y1845D01*
X484Y1844D02*
X524Y1844D01*
X537Y1844D02*
X577Y1844D01*
X1481Y1844D02*
X1520Y1844D01*
X1534Y1844D02*
X1575Y1844D01*
X483Y1843D02*
X522Y1843D01*
X539Y1843D02*
X578Y1843D01*
X1480Y1843D02*
X1518Y1843D01*
X1536Y1843D02*
X1575Y1843D01*
X482Y1842D02*
X520Y1842D01*
X541Y1842D02*
X578Y1842D01*
X1480Y1842D02*
X1517Y1842D01*
X1537Y1842D02*
X1576Y1842D01*
X482Y1841D02*
X519Y1841D01*
X542Y1841D02*
X579Y1841D01*
X1479Y1841D02*
X1516Y1841D01*
X1538Y1841D02*
X1576Y1841D01*
X481Y1840D02*
X518Y1840D01*
X543Y1840D02*
X579Y1840D01*
X1479Y1840D02*
X1515Y1840D01*
X1539Y1840D02*
X1577Y1840D01*
X481Y1839D02*
X517Y1839D01*
X544Y1839D02*
X580Y1839D01*
X1478Y1839D02*
X1514Y1839D01*
X1540Y1839D02*
X1577Y1839D01*
X481Y1838D02*
X516Y1838D01*
X544Y1838D02*
X580Y1838D01*
X1478Y1838D02*
X1513Y1838D01*
X1541Y1838D02*
X1578Y1838D01*
X480Y1837D02*
X516Y1837D01*
X545Y1837D02*
X581Y1837D01*
X1478Y1837D02*
X1512Y1837D01*
X1542Y1837D02*
X1578Y1837D01*
X480Y1836D02*
X515Y1836D01*
X546Y1836D02*
X581Y1836D01*
X1477Y1836D02*
X1512Y1836D01*
X1542Y1836D02*
X1578Y1836D01*
X480Y1835D02*
X515Y1835D01*
X546Y1835D02*
X581Y1835D01*
X1477Y1835D02*
X1512Y1835D01*
X1543Y1835D02*
X1579Y1835D01*
X479Y1834D02*
X515Y1834D01*
X546Y1834D02*
X581Y1834D01*
X1477Y1834D02*
X1511Y1834D01*
X1543Y1834D02*
X1579Y1834D01*
X479Y1833D02*
X514Y1833D01*
X547Y1833D02*
X582Y1833D01*
X1477Y1833D02*
X1511Y1833D01*
X1543Y1833D02*
X1579Y1833D01*
X479Y1832D02*
X514Y1832D01*
X547Y1832D02*
X582Y1832D01*
X1477Y1832D02*
X1511Y1832D01*
X1543Y1832D02*
X1579Y1832D01*
X479Y1831D02*
X514Y1831D01*
X547Y1831D02*
X582Y1831D01*
X1476Y1831D02*
X1511Y1831D01*
X1544Y1831D02*
X1579Y1831D01*
X479Y1830D02*
X514Y1830D01*
X547Y1830D02*
X582Y1830D01*
X1476Y1830D02*
X1510Y1830D01*
X1544Y1830D02*
X1579Y1830D01*
X479Y1829D02*
X514Y1829D01*
X547Y1829D02*
X582Y1829D01*
X1476Y1829D02*
X1510Y1829D01*
X1544Y1829D02*
X1579Y1829D01*
X479Y1828D02*
X514Y1828D01*
X547Y1828D02*
X582Y1828D01*
X1476Y1828D02*
X1510Y1828D01*
X1544Y1828D02*
X1579Y1828D01*
X479Y1827D02*
X514Y1827D01*
X547Y1827D02*
X582Y1827D01*
X1476Y1827D02*
X1511Y1827D01*
X1544Y1827D02*
X1579Y1827D01*
X479Y1826D02*
X514Y1826D01*
X547Y1826D02*
X582Y1826D01*
X1477Y1826D02*
X1511Y1826D01*
X1543Y1826D02*
X1579Y1826D01*
X479Y1825D02*
X514Y1825D01*
X547Y1825D02*
X582Y1825D01*
X1477Y1825D02*
X1511Y1825D01*
X1543Y1825D02*
X1579Y1825D01*
X480Y1824D02*
X515Y1824D01*
X546Y1824D02*
X581Y1824D01*
X1477Y1824D02*
X1511Y1824D01*
X1543Y1824D02*
X1579Y1824D01*
X480Y1823D02*
X515Y1823D01*
X546Y1823D02*
X581Y1823D01*
X1477Y1823D02*
X1512Y1823D01*
X1543Y1823D02*
X1579Y1823D01*
X480Y1822D02*
X516Y1822D01*
X545Y1822D02*
X581Y1822D01*
X1477Y1822D02*
X1512Y1822D01*
X1542Y1822D02*
X1578Y1822D01*
X480Y1821D02*
X516Y1821D01*
X545Y1821D02*
X581Y1821D01*
X1478Y1821D02*
X1513Y1821D01*
X1541Y1821D02*
X1578Y1821D01*
X481Y1820D02*
X517Y1820D01*
X544Y1820D02*
X580Y1820D01*
X1478Y1820D02*
X1513Y1820D01*
X1541Y1820D02*
X1578Y1820D01*
X481Y1819D02*
X517Y1819D01*
X543Y1819D02*
X580Y1819D01*
X1478Y1819D02*
X1514Y1819D01*
X1540Y1819D02*
X1577Y1819D01*
X482Y1818D02*
X518Y1818D01*
X543Y1818D02*
X579Y1818D01*
X1479Y1818D02*
X1515Y1818D01*
X1539Y1818D02*
X1577Y1818D01*
X482Y1817D02*
X519Y1817D01*
X541Y1817D02*
X579Y1817D01*
X1480Y1817D02*
X1516Y1817D01*
X1538Y1817D02*
X1576Y1817D01*
X483Y1816D02*
X521Y1816D01*
X540Y1816D02*
X578Y1816D01*
X1480Y1816D02*
X1517Y1816D01*
X1537Y1816D02*
X1576Y1816D01*
X483Y1815D02*
X522Y1815D01*
X539Y1815D02*
X578Y1815D01*
X1481Y1815D02*
X1519Y1815D01*
X1535Y1815D02*
X1575Y1815D01*
X484Y1814D02*
X525Y1814D01*
X536Y1814D02*
X577Y1814D01*
X1481Y1814D02*
X1521Y1814D01*
X1533Y1814D02*
X1574Y1814D01*
X485Y1813D02*
X576Y1813D01*
X1482Y1813D02*
X1573Y1813D01*
X486Y1812D02*
X575Y1812D01*
X1483Y1812D02*
X1573Y1812D01*
X486Y1811D02*
X574Y1811D01*
X1484Y1811D02*
X1572Y1811D01*
X488Y1810D02*
X573Y1810D01*
X1485Y1810D02*
X1571Y1810D01*
X489Y1809D02*
X572Y1809D01*
X1486Y1809D02*
X1569Y1809D01*
X490Y1808D02*
X571Y1808D01*
X1487Y1808D02*
X1568Y1808D01*
X492Y1807D02*
X569Y1807D01*
X1489Y1807D02*
X1567Y1807D01*
X494Y1806D02*
X567Y1806D01*
X1491Y1806D02*
X1565Y1806D01*
X496Y1805D02*
X565Y1805D01*
X1493Y1805D02*
X1563Y1805D01*
X499Y1804D02*
X562Y1804D01*
X1496Y1804D02*
X1559Y1804D01*
X502Y1755D02*
X559Y1755D01*
X1499Y1755D02*
X1557Y1755D01*
X497Y1754D02*
X564Y1754D01*
X1494Y1754D02*
X1561Y1754D01*
X494Y1753D02*
X566Y1753D01*
X1492Y1753D02*
X1564Y1753D01*
X493Y1752D02*
X568Y1752D01*
X1490Y1752D02*
X1566Y1752D01*
X491Y1751D02*
X570Y1751D01*
X1488Y1751D02*
X1568Y1751D01*
X489Y1750D02*
X571Y1750D01*
X1487Y1750D02*
X1569Y1750D01*
X488Y1749D02*
X573Y1749D01*
X1486Y1749D02*
X1570Y1749D01*
X487Y1748D02*
X574Y1748D01*
X1484Y1748D02*
X1571Y1748D01*
X486Y1747D02*
X575Y1747D01*
X1483Y1747D02*
X1572Y1747D01*
X485Y1746D02*
X576Y1746D01*
X1483Y1746D02*
X1573Y1746D01*
X484Y1745D02*
X528Y1745D01*
X533Y1745D02*
X576Y1745D01*
X1482Y1745D02*
X1524Y1745D01*
X1530Y1745D02*
X1574Y1745D01*
X484Y1744D02*
X524Y1744D01*
X537Y1744D02*
X577Y1744D01*
X1481Y1744D02*
X1520Y1744D01*
X1534Y1744D02*
X1575Y1744D01*
X483Y1743D02*
X522Y1743D01*
X539Y1743D02*
X578Y1743D01*
X1480Y1743D02*
X1518Y1743D01*
X1536Y1743D02*
X1575Y1743D01*
X482Y1742D02*
X520Y1742D01*
X541Y1742D02*
X578Y1742D01*
X1480Y1742D02*
X1517Y1742D01*
X1537Y1742D02*
X1576Y1742D01*
X482Y1741D02*
X519Y1741D01*
X542Y1741D02*
X579Y1741D01*
X1479Y1741D02*
X1516Y1741D01*
X1539Y1741D02*
X1576Y1741D01*
X481Y1740D02*
X518Y1740D01*
X543Y1740D02*
X580Y1740D01*
X1479Y1740D02*
X1515Y1740D01*
X1540Y1740D02*
X1577Y1740D01*
X481Y1739D02*
X517Y1739D01*
X544Y1739D02*
X580Y1739D01*
X1478Y1739D02*
X1514Y1739D01*
X1540Y1739D02*
X1577Y1739D01*
X481Y1738D02*
X516Y1738D01*
X544Y1738D02*
X580Y1738D01*
X1478Y1738D02*
X1513Y1738D01*
X1541Y1738D02*
X1578Y1738D01*
X480Y1737D02*
X516Y1737D01*
X545Y1737D02*
X581Y1737D01*
X1478Y1737D02*
X1512Y1737D01*
X1542Y1737D02*
X1578Y1737D01*
X480Y1736D02*
X515Y1736D01*
X546Y1736D02*
X581Y1736D01*
X1477Y1736D02*
X1512Y1736D01*
X1542Y1736D02*
X1578Y1736D01*
X480Y1735D02*
X515Y1735D01*
X546Y1735D02*
X581Y1735D01*
X1477Y1735D02*
X1512Y1735D01*
X1543Y1735D02*
X1579Y1735D01*
X479Y1734D02*
X515Y1734D01*
X546Y1734D02*
X581Y1734D01*
X1477Y1734D02*
X1511Y1734D01*
X1543Y1734D02*
X1579Y1734D01*
X479Y1733D02*
X514Y1733D01*
X547Y1733D02*
X582Y1733D01*
X1477Y1733D02*
X1511Y1733D01*
X1543Y1733D02*
X1579Y1733D01*
X479Y1732D02*
X514Y1732D01*
X547Y1732D02*
X582Y1732D01*
X1477Y1732D02*
X1511Y1732D01*
X1544Y1732D02*
X1579Y1732D01*
X479Y1731D02*
X514Y1731D01*
X547Y1731D02*
X582Y1731D01*
X1476Y1731D02*
X1511Y1731D01*
X1544Y1731D02*
X1579Y1731D01*
X479Y1730D02*
X514Y1730D01*
X547Y1730D02*
X582Y1730D01*
X1476Y1730D02*
X1510Y1730D01*
X1544Y1730D02*
X1579Y1730D01*
X479Y1729D02*
X514Y1729D01*
X547Y1729D02*
X582Y1729D01*
X1476Y1729D02*
X1510Y1729D01*
X1544Y1729D02*
X1579Y1729D01*
X479Y1728D02*
X514Y1728D01*
X547Y1728D02*
X582Y1728D01*
X1476Y1728D02*
X1511Y1728D01*
X1544Y1728D02*
X1579Y1728D01*
X479Y1727D02*
X514Y1727D01*
X547Y1727D02*
X582Y1727D01*
X1476Y1727D02*
X1511Y1727D01*
X1544Y1727D02*
X1579Y1727D01*
X479Y1726D02*
X514Y1726D01*
X547Y1726D02*
X582Y1726D01*
X1477Y1726D02*
X1511Y1726D01*
X1543Y1726D02*
X1579Y1726D01*
X479Y1725D02*
X514Y1725D01*
X547Y1725D02*
X582Y1725D01*
X1477Y1725D02*
X1511Y1725D01*
X1543Y1725D02*
X1579Y1725D01*
X480Y1724D02*
X515Y1724D01*
X546Y1724D02*
X581Y1724D01*
X1477Y1724D02*
X1511Y1724D01*
X1543Y1724D02*
X1579Y1724D01*
X480Y1723D02*
X515Y1723D01*
X546Y1723D02*
X581Y1723D01*
X1477Y1723D02*
X1512Y1723D01*
X1543Y1723D02*
X1579Y1723D01*
X480Y1722D02*
X516Y1722D01*
X545Y1722D02*
X581Y1722D01*
X1477Y1722D02*
X1512Y1722D01*
X1542Y1722D02*
X1578Y1722D01*
X480Y1721D02*
X516Y1721D01*
X545Y1721D02*
X581Y1721D01*
X1478Y1721D02*
X1513Y1721D01*
X1542Y1721D02*
X1578Y1721D01*
X481Y1720D02*
X517Y1720D01*
X544Y1720D02*
X580Y1720D01*
X1478Y1720D02*
X1513Y1720D01*
X1541Y1720D02*
X1578Y1720D01*
X481Y1719D02*
X517Y1719D01*
X543Y1719D02*
X580Y1719D01*
X1479Y1719D02*
X1514Y1719D01*
X1540Y1719D02*
X1577Y1719D01*
X482Y1718D02*
X518Y1718D01*
X543Y1718D02*
X579Y1718D01*
X1479Y1718D02*
X1515Y1718D01*
X1539Y1718D02*
X1577Y1718D01*
X482Y1717D02*
X519Y1717D01*
X541Y1717D02*
X579Y1717D01*
X1480Y1717D02*
X1516Y1717D01*
X1538Y1717D02*
X1576Y1717D01*
X483Y1716D02*
X521Y1716D01*
X540Y1716D02*
X578Y1716D01*
X1480Y1716D02*
X1517Y1716D01*
X1537Y1716D02*
X1576Y1716D01*
X483Y1715D02*
X523Y1715D01*
X538Y1715D02*
X578Y1715D01*
X1481Y1715D02*
X1519Y1715D01*
X1535Y1715D02*
X1575Y1715D01*
X484Y1714D02*
X525Y1714D01*
X536Y1714D02*
X577Y1714D01*
X1481Y1714D02*
X1522Y1714D01*
X1533Y1714D02*
X1574Y1714D01*
X485Y1713D02*
X576Y1713D01*
X1482Y1713D02*
X1573Y1713D01*
X486Y1712D02*
X575Y1712D01*
X1483Y1712D02*
X1573Y1712D01*
X487Y1711D02*
X574Y1711D01*
X1484Y1711D02*
X1572Y1711D01*
X488Y1710D02*
X573Y1710D01*
X1485Y1710D02*
X1571Y1710D01*
X489Y1709D02*
X572Y1709D01*
X1486Y1709D02*
X1569Y1709D01*
X490Y1708D02*
X571Y1708D01*
X1488Y1708D02*
X1568Y1708D01*
X492Y1707D02*
X569Y1707D01*
X1489Y1707D02*
X1567Y1707D01*
X494Y1706D02*
X567Y1706D01*
X1491Y1706D02*
X1565Y1706D01*
X496Y1705D02*
X565Y1705D01*
X1493Y1705D02*
X1563Y1705D01*
X499Y1704D02*
X562Y1704D01*
X1496Y1704D02*
X1559Y1704D01*
X501Y1655D02*
X559Y1655D01*
X1499Y1655D02*
X1557Y1655D01*
X497Y1654D02*
X564Y1654D01*
X1494Y1654D02*
X1561Y1654D01*
X494Y1653D02*
X566Y1653D01*
X1492Y1653D02*
X1564Y1653D01*
X493Y1652D02*
X568Y1652D01*
X1490Y1652D02*
X1566Y1652D01*
X491Y1651D02*
X570Y1651D01*
X1488Y1651D02*
X1568Y1651D01*
X489Y1650D02*
X571Y1650D01*
X1487Y1650D02*
X1569Y1650D01*
X488Y1649D02*
X573Y1649D01*
X1486Y1649D02*
X1570Y1649D01*
X487Y1648D02*
X574Y1648D01*
X1484Y1648D02*
X1571Y1648D01*
X486Y1647D02*
X575Y1647D01*
X1483Y1647D02*
X1572Y1647D01*
X485Y1646D02*
X576Y1646D01*
X1483Y1646D02*
X1573Y1646D01*
X484Y1645D02*
X527Y1645D01*
X534Y1645D02*
X576Y1645D01*
X1482Y1645D02*
X1524Y1645D01*
X1530Y1645D02*
X1574Y1645D01*
X484Y1644D02*
X524Y1644D01*
X537Y1644D02*
X577Y1644D01*
X1481Y1644D02*
X1520Y1644D01*
X1534Y1644D02*
X1575Y1644D01*
X483Y1643D02*
X522Y1643D01*
X539Y1643D02*
X578Y1643D01*
X1480Y1643D02*
X1518Y1643D01*
X1536Y1643D02*
X1575Y1643D01*
X482Y1642D02*
X520Y1642D01*
X541Y1642D02*
X578Y1642D01*
X1480Y1642D02*
X1517Y1642D01*
X1537Y1642D02*
X1576Y1642D01*
X482Y1641D02*
X519Y1641D01*
X542Y1641D02*
X579Y1641D01*
X1479Y1641D02*
X1516Y1641D01*
X1539Y1641D02*
X1576Y1641D01*
X481Y1640D02*
X518Y1640D01*
X543Y1640D02*
X580Y1640D01*
X1479Y1640D02*
X1515Y1640D01*
X1540Y1640D02*
X1577Y1640D01*
X481Y1639D02*
X517Y1639D01*
X544Y1639D02*
X580Y1639D01*
X1478Y1639D02*
X1514Y1639D01*
X1540Y1639D02*
X1577Y1639D01*
X480Y1638D02*
X516Y1638D01*
X544Y1638D02*
X580Y1638D01*
X1478Y1638D02*
X1513Y1638D01*
X1541Y1638D02*
X1578Y1638D01*
X480Y1637D02*
X516Y1637D01*
X545Y1637D02*
X581Y1637D01*
X1478Y1637D02*
X1512Y1637D01*
X1542Y1637D02*
X1578Y1637D01*
X480Y1636D02*
X515Y1636D01*
X546Y1636D02*
X581Y1636D01*
X1477Y1636D02*
X1512Y1636D01*
X1542Y1636D02*
X1578Y1636D01*
X480Y1635D02*
X515Y1635D01*
X546Y1635D02*
X581Y1635D01*
X1477Y1635D02*
X1512Y1635D01*
X1543Y1635D02*
X1579Y1635D01*
X479Y1634D02*
X515Y1634D01*
X546Y1634D02*
X581Y1634D01*
X1477Y1634D02*
X1511Y1634D01*
X1543Y1634D02*
X1579Y1634D01*
X479Y1633D02*
X514Y1633D01*
X547Y1633D02*
X582Y1633D01*
X1477Y1633D02*
X1511Y1633D01*
X1543Y1633D02*
X1579Y1633D01*
X479Y1632D02*
X514Y1632D01*
X547Y1632D02*
X582Y1632D01*
X1477Y1632D02*
X1511Y1632D01*
X1543Y1632D02*
X1579Y1632D01*
X479Y1631D02*
X514Y1631D01*
X547Y1631D02*
X582Y1631D01*
X1476Y1631D02*
X1511Y1631D01*
X1544Y1631D02*
X1579Y1631D01*
X479Y1630D02*
X514Y1630D01*
X547Y1630D02*
X582Y1630D01*
X1476Y1630D02*
X1510Y1630D01*
X1544Y1630D02*
X1579Y1630D01*
X479Y1629D02*
X514Y1629D01*
X547Y1629D02*
X582Y1629D01*
X1476Y1629D02*
X1510Y1629D01*
X1544Y1629D02*
X1579Y1629D01*
X479Y1628D02*
X514Y1628D01*
X547Y1628D02*
X582Y1628D01*
X1476Y1628D02*
X1510Y1628D01*
X1544Y1628D02*
X1579Y1628D01*
X479Y1627D02*
X514Y1627D01*
X547Y1627D02*
X582Y1627D01*
X1476Y1627D02*
X1511Y1627D01*
X1544Y1627D02*
X1579Y1627D01*
X479Y1626D02*
X514Y1626D01*
X547Y1626D02*
X582Y1626D01*
X1477Y1626D02*
X1511Y1626D01*
X1543Y1626D02*
X1579Y1626D01*
X479Y1625D02*
X514Y1625D01*
X547Y1625D02*
X582Y1625D01*
X1477Y1625D02*
X1511Y1625D01*
X1543Y1625D02*
X1579Y1625D01*
X480Y1624D02*
X515Y1624D01*
X546Y1624D02*
X581Y1624D01*
X1477Y1624D02*
X1511Y1624D01*
X1543Y1624D02*
X1579Y1624D01*
X480Y1623D02*
X515Y1623D01*
X546Y1623D02*
X581Y1623D01*
X1477Y1623D02*
X1512Y1623D01*
X1542Y1623D02*
X1579Y1623D01*
X480Y1622D02*
X516Y1622D01*
X545Y1622D02*
X581Y1622D01*
X1477Y1622D02*
X1512Y1622D01*
X1542Y1622D02*
X1578Y1622D01*
X480Y1621D02*
X516Y1621D01*
X545Y1621D02*
X581Y1621D01*
X1478Y1621D02*
X1513Y1621D01*
X1541Y1621D02*
X1578Y1621D01*
X481Y1620D02*
X517Y1620D01*
X544Y1620D02*
X580Y1620D01*
X1478Y1620D02*
X1513Y1620D01*
X1541Y1620D02*
X1578Y1620D01*
X481Y1619D02*
X518Y1619D01*
X543Y1619D02*
X580Y1619D01*
X1479Y1619D02*
X1514Y1619D01*
X1540Y1619D02*
X1577Y1619D01*
X482Y1618D02*
X518Y1618D01*
X542Y1618D02*
X579Y1618D01*
X1479Y1618D02*
X1515Y1618D01*
X1539Y1618D02*
X1577Y1618D01*
X482Y1617D02*
X520Y1617D01*
X541Y1617D02*
X579Y1617D01*
X1480Y1617D02*
X1516Y1617D01*
X1538Y1617D02*
X1576Y1617D01*
X483Y1616D02*
X521Y1616D01*
X540Y1616D02*
X578Y1616D01*
X1480Y1616D02*
X1517Y1616D01*
X1537Y1616D02*
X1576Y1616D01*
X483Y1615D02*
X523Y1615D01*
X538Y1615D02*
X578Y1615D01*
X1481Y1615D02*
X1519Y1615D01*
X1535Y1615D02*
X1575Y1615D01*
X484Y1614D02*
X525Y1614D01*
X536Y1614D02*
X577Y1614D01*
X1481Y1614D02*
X1522Y1614D01*
X1532Y1614D02*
X1574Y1614D01*
X485Y1613D02*
X576Y1613D01*
X1482Y1613D02*
X1573Y1613D01*
X486Y1612D02*
X575Y1612D01*
X1483Y1612D02*
X1573Y1612D01*
X487Y1611D02*
X574Y1611D01*
X1484Y1611D02*
X1572Y1611D01*
X488Y1610D02*
X573Y1610D01*
X1485Y1610D02*
X1571Y1610D01*
X489Y1609D02*
X572Y1609D01*
X1486Y1609D02*
X1569Y1609D01*
X490Y1608D02*
X571Y1608D01*
X1488Y1608D02*
X1568Y1608D01*
X492Y1607D02*
X569Y1607D01*
X1489Y1607D02*
X1566Y1607D01*
X494Y1606D02*
X567Y1606D01*
X1491Y1606D02*
X1565Y1606D01*
X496Y1605D02*
X565Y1605D01*
X1493Y1605D02*
X1562Y1605D01*
X499Y1604D02*
X562Y1604D01*
X1497Y1604D02*
X1559Y1604D01*
X501Y1555D02*
X560Y1555D01*
X1499Y1555D02*
X1557Y1555D01*
X497Y1554D02*
X564Y1554D01*
X1494Y1554D02*
X1561Y1554D01*
X494Y1553D02*
X567Y1553D01*
X1492Y1553D02*
X1564Y1553D01*
X493Y1552D02*
X568Y1552D01*
X1490Y1552D02*
X1566Y1552D01*
X491Y1551D02*
X570Y1551D01*
X1488Y1551D02*
X1568Y1551D01*
X489Y1550D02*
X571Y1550D01*
X1487Y1550D02*
X1569Y1550D01*
X488Y1549D02*
X573Y1549D01*
X1486Y1549D02*
X1570Y1549D01*
X487Y1548D02*
X574Y1548D01*
X1484Y1548D02*
X1571Y1548D01*
X486Y1547D02*
X575Y1547D01*
X1483Y1547D02*
X1572Y1547D01*
X485Y1546D02*
X576Y1546D01*
X1483Y1546D02*
X1573Y1546D01*
X484Y1545D02*
X527Y1545D01*
X534Y1545D02*
X577Y1545D01*
X1482Y1545D02*
X1524Y1545D01*
X1531Y1545D02*
X1574Y1545D01*
X484Y1544D02*
X523Y1544D01*
X537Y1544D02*
X577Y1544D01*
X1481Y1544D02*
X1520Y1544D01*
X1534Y1544D02*
X1575Y1544D01*
X483Y1543D02*
X522Y1543D01*
X539Y1543D02*
X578Y1543D01*
X1480Y1543D02*
X1518Y1543D01*
X1536Y1543D02*
X1575Y1543D01*
X482Y1542D02*
X520Y1542D01*
X541Y1542D02*
X578Y1542D01*
X1480Y1542D02*
X1517Y1542D01*
X1538Y1542D02*
X1576Y1542D01*
X482Y1541D02*
X519Y1541D01*
X542Y1541D02*
X579Y1541D01*
X1479Y1541D02*
X1515Y1541D01*
X1539Y1541D02*
X1576Y1541D01*
X481Y1540D02*
X518Y1540D01*
X543Y1540D02*
X580Y1540D01*
X1479Y1540D02*
X1514Y1540D01*
X1540Y1540D02*
X1577Y1540D01*
X481Y1539D02*
X517Y1539D01*
X544Y1539D02*
X580Y1539D01*
X1478Y1539D02*
X1514Y1539D01*
X1541Y1539D02*
X1577Y1539D01*
X480Y1538D02*
X516Y1538D01*
X545Y1538D02*
X580Y1538D01*
X1478Y1538D02*
X1513Y1538D01*
X1541Y1538D02*
X1578Y1538D01*
X480Y1537D02*
X516Y1537D01*
X545Y1537D02*
X581Y1537D01*
X1478Y1537D02*
X1512Y1537D01*
X1542Y1537D02*
X1578Y1537D01*
X480Y1536D02*
X515Y1536D01*
X546Y1536D02*
X581Y1536D01*
X1477Y1536D02*
X1512Y1536D01*
X1542Y1536D02*
X1578Y1536D01*
X480Y1535D02*
X515Y1535D01*
X546Y1535D02*
X581Y1535D01*
X1477Y1535D02*
X1511Y1535D01*
X1543Y1535D02*
X1579Y1535D01*
X479Y1534D02*
X514Y1534D01*
X547Y1534D02*
X581Y1534D01*
X1477Y1534D02*
X1511Y1534D01*
X1543Y1534D02*
X1579Y1534D01*
X479Y1533D02*
X514Y1533D01*
X547Y1533D02*
X582Y1533D01*
X1477Y1533D02*
X1511Y1533D01*
X1543Y1533D02*
X1579Y1533D01*
X479Y1532D02*
X514Y1532D01*
X547Y1532D02*
X582Y1532D01*
X1477Y1532D02*
X1511Y1532D01*
X1544Y1532D02*
X1579Y1532D01*
X479Y1531D02*
X514Y1531D01*
X547Y1531D02*
X582Y1531D01*
X1476Y1531D02*
X1510Y1531D01*
X1544Y1531D02*
X1579Y1531D01*
X479Y1530D02*
X514Y1530D01*
X547Y1530D02*
X582Y1530D01*
X1476Y1530D02*
X1510Y1530D01*
X1544Y1530D02*
X1579Y1530D01*
X479Y1529D02*
X514Y1529D01*
X547Y1529D02*
X582Y1529D01*
X1476Y1529D02*
X1510Y1529D01*
X1544Y1529D02*
X1579Y1529D01*
X479Y1528D02*
X514Y1528D01*
X547Y1528D02*
X582Y1528D01*
X1476Y1528D02*
X1510Y1528D01*
X1544Y1528D02*
X1579Y1528D01*
X479Y1527D02*
X514Y1527D01*
X547Y1527D02*
X582Y1527D01*
X1476Y1527D02*
X1510Y1527D01*
X1544Y1527D02*
X1579Y1527D01*
X479Y1526D02*
X514Y1526D01*
X547Y1526D02*
X582Y1526D01*
X1477Y1526D02*
X1511Y1526D01*
X1544Y1526D02*
X1579Y1526D01*
X479Y1525D02*
X514Y1525D01*
X547Y1525D02*
X582Y1525D01*
X1477Y1525D02*
X1511Y1525D01*
X1543Y1525D02*
X1579Y1525D01*
X480Y1524D02*
X515Y1524D01*
X546Y1524D02*
X581Y1524D01*
X1477Y1524D02*
X1511Y1524D01*
X1543Y1524D02*
X1579Y1524D01*
X480Y1523D02*
X515Y1523D01*
X546Y1523D02*
X581Y1523D01*
X1477Y1523D02*
X1512Y1523D01*
X1543Y1523D02*
X1579Y1523D01*
X480Y1522D02*
X515Y1522D01*
X545Y1522D02*
X581Y1522D01*
X1477Y1522D02*
X1512Y1522D01*
X1542Y1522D02*
X1578Y1522D01*
X480Y1521D02*
X516Y1521D01*
X545Y1521D02*
X581Y1521D01*
X1478Y1521D02*
X1513Y1521D01*
X1542Y1521D02*
X1578Y1521D01*
X481Y1520D02*
X517Y1520D01*
X544Y1520D02*
X580Y1520D01*
X1478Y1520D02*
X1513Y1520D01*
X1541Y1520D02*
X1578Y1520D01*
X481Y1519D02*
X517Y1519D01*
X544Y1519D02*
X580Y1519D01*
X1479Y1519D02*
X1514Y1519D01*
X1540Y1519D02*
X1577Y1519D01*
X482Y1518D02*
X518Y1518D01*
X543Y1518D02*
X579Y1518D01*
X1479Y1518D02*
X1515Y1518D01*
X1539Y1518D02*
X1577Y1518D01*
X482Y1517D02*
X519Y1517D01*
X541Y1517D02*
X579Y1517D01*
X1480Y1517D02*
X1516Y1517D01*
X1538Y1517D02*
X1576Y1517D01*
X483Y1516D02*
X521Y1516D01*
X540Y1516D02*
X578Y1516D01*
X1480Y1516D02*
X1517Y1516D01*
X1537Y1516D02*
X1576Y1516D01*
X483Y1515D02*
X523Y1515D01*
X538Y1515D02*
X578Y1515D01*
X1481Y1515D02*
X1519Y1515D01*
X1535Y1515D02*
X1575Y1515D01*
X484Y1514D02*
X525Y1514D01*
X536Y1514D02*
X577Y1514D01*
X1481Y1514D02*
X1522Y1514D01*
X1533Y1514D02*
X1574Y1514D01*
X485Y1513D02*
X576Y1513D01*
X1482Y1513D02*
X1573Y1513D01*
X486Y1512D02*
X575Y1512D01*
X1483Y1512D02*
X1573Y1512D01*
X487Y1511D02*
X574Y1511D01*
X1484Y1511D02*
X1572Y1511D01*
X488Y1510D02*
X573Y1510D01*
X1485Y1510D02*
X1571Y1510D01*
X489Y1509D02*
X572Y1509D01*
X1486Y1509D02*
X1569Y1509D01*
X490Y1508D02*
X571Y1508D01*
X1488Y1508D02*
X1568Y1508D01*
X492Y1507D02*
X569Y1507D01*
X1489Y1507D02*
X1566Y1507D01*
X494Y1506D02*
X567Y1506D01*
X1491Y1506D02*
X1565Y1506D01*
X496Y1505D02*
X565Y1505D01*
X1493Y1505D02*
X1562Y1505D01*
X499Y1504D02*
X562Y1504D01*
X1497Y1504D02*
X1559Y1504D01*
X500Y1455D02*
X559Y1455D01*
X1498Y1455D02*
X1557Y1455D01*
X496Y1454D02*
X563Y1454D01*
X1494Y1454D02*
X1562Y1454D01*
X493Y1453D02*
X566Y1453D01*
X1492Y1453D02*
X1564Y1453D01*
X491Y1452D02*
X567Y1452D01*
X1490Y1452D02*
X1566Y1452D01*
X490Y1451D02*
X569Y1451D01*
X1488Y1451D02*
X1568Y1451D01*
X488Y1450D02*
X571Y1450D01*
X1487Y1450D02*
X1569Y1450D01*
X487Y1449D02*
X572Y1449D01*
X1486Y1449D02*
X1570Y1449D01*
X486Y1448D02*
X573Y1448D01*
X1484Y1448D02*
X1571Y1448D01*
X485Y1447D02*
X574Y1447D01*
X1483Y1447D02*
X1572Y1447D01*
X484Y1446D02*
X575Y1446D01*
X1483Y1446D02*
X1573Y1446D01*
X483Y1445D02*
X526Y1445D01*
X533Y1445D02*
X576Y1445D01*
X1482Y1445D02*
X1524Y1445D01*
X1530Y1445D02*
X1574Y1445D01*
X482Y1444D02*
X523Y1444D01*
X536Y1444D02*
X576Y1444D01*
X1481Y1444D02*
X1520Y1444D01*
X1534Y1444D02*
X1575Y1444D01*
X482Y1443D02*
X521Y1443D01*
X538Y1443D02*
X577Y1443D01*
X1480Y1443D02*
X1518Y1443D01*
X1536Y1443D02*
X1575Y1443D01*
X481Y1442D02*
X519Y1442D01*
X540Y1442D02*
X577Y1442D01*
X1480Y1442D02*
X1517Y1442D01*
X1537Y1442D02*
X1576Y1442D01*
X481Y1441D02*
X518Y1441D01*
X541Y1441D02*
X578Y1441D01*
X1479Y1441D02*
X1516Y1441D01*
X1538Y1441D02*
X1576Y1441D01*
X480Y1440D02*
X517Y1440D01*
X542Y1440D02*
X579Y1440D01*
X1479Y1440D02*
X1515Y1440D01*
X1539Y1440D02*
X1577Y1440D01*
X480Y1439D02*
X516Y1439D01*
X543Y1439D02*
X579Y1439D01*
X1478Y1439D02*
X1514Y1439D01*
X1540Y1439D02*
X1577Y1439D01*
X479Y1438D02*
X516Y1438D01*
X543Y1438D02*
X579Y1438D01*
X1478Y1438D02*
X1513Y1438D01*
X1541Y1438D02*
X1578Y1438D01*
X479Y1437D02*
X515Y1437D01*
X544Y1437D02*
X580Y1437D01*
X1478Y1437D02*
X1513Y1437D01*
X1542Y1437D02*
X1578Y1437D01*
X479Y1436D02*
X514Y1436D01*
X544Y1436D02*
X580Y1436D01*
X1477Y1436D02*
X1512Y1436D01*
X1542Y1436D02*
X1578Y1436D01*
X479Y1435D02*
X514Y1435D01*
X545Y1435D02*
X580Y1435D01*
X1477Y1435D02*
X1512Y1435D01*
X1542Y1435D02*
X1579Y1435D01*
X478Y1434D02*
X514Y1434D01*
X545Y1434D02*
X580Y1434D01*
X1477Y1434D02*
X1511Y1434D01*
X1543Y1434D02*
X1579Y1434D01*
X478Y1433D02*
X513Y1433D01*
X545Y1433D02*
X581Y1433D01*
X1477Y1433D02*
X1511Y1433D01*
X1543Y1433D02*
X1579Y1433D01*
X478Y1432D02*
X513Y1432D01*
X546Y1432D02*
X581Y1432D01*
X1477Y1432D02*
X1511Y1432D01*
X1543Y1432D02*
X1579Y1432D01*
X478Y1431D02*
X513Y1431D01*
X546Y1431D02*
X581Y1431D01*
X1476Y1431D02*
X1511Y1431D01*
X1543Y1431D02*
X1579Y1431D01*
X478Y1430D02*
X513Y1430D01*
X546Y1430D02*
X581Y1430D01*
X1476Y1430D02*
X1511Y1430D01*
X1544Y1430D02*
X1579Y1430D01*
X478Y1429D02*
X513Y1429D01*
X546Y1429D02*
X581Y1429D01*
X1476Y1429D02*
X1511Y1429D01*
X1544Y1429D02*
X1579Y1429D01*
X478Y1428D02*
X513Y1428D01*
X546Y1428D02*
X581Y1428D01*
X1476Y1428D02*
X1511Y1428D01*
X1543Y1428D02*
X1579Y1428D01*
X478Y1427D02*
X513Y1427D01*
X546Y1427D02*
X581Y1427D01*
X1476Y1427D02*
X1511Y1427D01*
X1543Y1427D02*
X1579Y1427D01*
X478Y1426D02*
X513Y1426D01*
X546Y1426D02*
X581Y1426D01*
X1477Y1426D02*
X1511Y1426D01*
X1543Y1426D02*
X1579Y1426D01*
X478Y1425D02*
X514Y1425D01*
X545Y1425D02*
X580Y1425D01*
X1477Y1425D02*
X1511Y1425D01*
X1543Y1425D02*
X1579Y1425D01*
X479Y1424D02*
X514Y1424D01*
X545Y1424D02*
X580Y1424D01*
X1477Y1424D02*
X1512Y1424D01*
X1543Y1424D02*
X1579Y1424D01*
X479Y1423D02*
X514Y1423D01*
X545Y1423D02*
X580Y1423D01*
X1477Y1423D02*
X1512Y1423D01*
X1542Y1423D02*
X1578Y1423D01*
X479Y1422D02*
X515Y1422D01*
X544Y1422D02*
X580Y1422D01*
X1477Y1422D02*
X1512Y1422D01*
X1542Y1422D02*
X1578Y1422D01*
X479Y1421D02*
X515Y1421D01*
X544Y1421D02*
X579Y1421D01*
X1478Y1421D02*
X1513Y1421D01*
X1541Y1421D02*
X1578Y1421D01*
X480Y1420D02*
X516Y1420D01*
X543Y1420D02*
X579Y1420D01*
X1478Y1420D02*
X1514Y1420D01*
X1541Y1420D02*
X1578Y1420D01*
X480Y1419D02*
X517Y1419D01*
X542Y1419D02*
X579Y1419D01*
X1479Y1419D02*
X1514Y1419D01*
X1540Y1419D02*
X1577Y1419D01*
X481Y1418D02*
X518Y1418D01*
X541Y1418D02*
X578Y1418D01*
X1479Y1418D02*
X1515Y1418D01*
X1539Y1418D02*
X1577Y1418D01*
X481Y1417D02*
X519Y1417D01*
X540Y1417D02*
X578Y1417D01*
X1480Y1417D02*
X1516Y1417D01*
X1538Y1417D02*
X1576Y1417D01*
X482Y1416D02*
X520Y1416D01*
X539Y1416D02*
X577Y1416D01*
X1480Y1416D02*
X1518Y1416D01*
X1536Y1416D02*
X1575Y1416D01*
X482Y1415D02*
X522Y1415D01*
X537Y1415D02*
X577Y1415D01*
X1481Y1415D02*
X1520Y1415D01*
X1535Y1415D02*
X1575Y1415D01*
X483Y1414D02*
X525Y1414D01*
X534Y1414D02*
X576Y1414D01*
X1481Y1414D02*
X1522Y1414D01*
X1532Y1414D02*
X1574Y1414D01*
X484Y1413D02*
X575Y1413D01*
X1482Y1413D02*
X1573Y1413D01*
X485Y1412D02*
X574Y1412D01*
X1483Y1412D02*
X1573Y1412D01*
X486Y1411D02*
X573Y1411D01*
X1484Y1411D02*
X1572Y1411D01*
X487Y1410D02*
X572Y1410D01*
X1485Y1410D02*
X1570Y1410D01*
X488Y1409D02*
X571Y1409D01*
X1486Y1409D02*
X1569Y1409D01*
X489Y1408D02*
X570Y1408D01*
X1488Y1408D02*
X1568Y1408D01*
X491Y1407D02*
X568Y1407D01*
X1489Y1407D02*
X1566Y1407D01*
X493Y1406D02*
X566Y1406D01*
X1491Y1406D02*
X1565Y1406D01*
X495Y1405D02*
X564Y1405D01*
X1493Y1405D02*
X1562Y1405D01*
X498Y1404D02*
X560Y1404D01*
X1497Y1404D02*
X1559Y1404D01*
X501Y1355D02*
X560Y1355D01*
X1498Y1355D02*
X1558Y1355D01*
X497Y1354D02*
X564Y1354D01*
X1494Y1354D02*
X1562Y1354D01*
X494Y1353D02*
X567Y1353D01*
X1492Y1353D02*
X1564Y1353D01*
X492Y1352D02*
X568Y1352D01*
X1490Y1352D02*
X1566Y1352D01*
X491Y1351D02*
X570Y1351D01*
X1488Y1351D02*
X1568Y1351D01*
X489Y1350D02*
X572Y1350D01*
X1487Y1350D02*
X1569Y1350D01*
X488Y1349D02*
X573Y1349D01*
X1485Y1349D02*
X1570Y1349D01*
X487Y1348D02*
X574Y1348D01*
X1484Y1348D02*
X1571Y1348D01*
X486Y1347D02*
X575Y1347D01*
X1483Y1347D02*
X1572Y1347D01*
X485Y1346D02*
X576Y1346D01*
X1483Y1346D02*
X1573Y1346D01*
X484Y1345D02*
X527Y1345D01*
X534Y1345D02*
X577Y1345D01*
X1482Y1345D02*
X1524Y1345D01*
X1531Y1345D02*
X1574Y1345D01*
X483Y1344D02*
X524Y1344D01*
X537Y1344D02*
X577Y1344D01*
X1481Y1344D02*
X1520Y1344D01*
X1534Y1344D02*
X1575Y1344D01*
X483Y1343D02*
X522Y1343D01*
X539Y1343D02*
X578Y1343D01*
X1480Y1343D02*
X1518Y1343D01*
X1536Y1343D02*
X1575Y1343D01*
X482Y1342D02*
X520Y1342D01*
X541Y1342D02*
X579Y1342D01*
X1480Y1342D02*
X1517Y1342D01*
X1537Y1342D02*
X1576Y1342D01*
X482Y1341D02*
X519Y1341D01*
X542Y1341D02*
X579Y1341D01*
X1479Y1341D02*
X1516Y1341D01*
X1538Y1341D02*
X1576Y1341D01*
X481Y1340D02*
X518Y1340D01*
X543Y1340D02*
X580Y1340D01*
X1479Y1340D02*
X1515Y1340D01*
X1539Y1340D02*
X1577Y1340D01*
X481Y1339D02*
X517Y1339D01*
X544Y1339D02*
X580Y1339D01*
X1478Y1339D02*
X1514Y1339D01*
X1540Y1339D02*
X1577Y1339D01*
X480Y1338D02*
X517Y1338D01*
X544Y1338D02*
X580Y1338D01*
X1478Y1338D02*
X1513Y1338D01*
X1541Y1338D02*
X1578Y1338D01*
X480Y1337D02*
X516Y1337D01*
X545Y1337D02*
X581Y1337D01*
X1478Y1337D02*
X1513Y1337D01*
X1542Y1337D02*
X1578Y1337D01*
X480Y1336D02*
X515Y1336D01*
X545Y1336D02*
X581Y1336D01*
X1477Y1336D02*
X1512Y1336D01*
X1542Y1336D02*
X1578Y1336D01*
X480Y1335D02*
X515Y1335D01*
X546Y1335D02*
X581Y1335D01*
X1477Y1335D02*
X1512Y1335D01*
X1542Y1335D02*
X1579Y1335D01*
X479Y1334D02*
X515Y1334D01*
X546Y1334D02*
X581Y1334D01*
X1477Y1334D02*
X1511Y1334D01*
X1543Y1334D02*
X1579Y1334D01*
X479Y1333D02*
X514Y1333D01*
X546Y1333D02*
X582Y1333D01*
X1477Y1333D02*
X1511Y1333D01*
X1543Y1333D02*
X1579Y1333D01*
X479Y1332D02*
X514Y1332D01*
X547Y1332D02*
X582Y1332D01*
X1477Y1332D02*
X1511Y1332D01*
X1543Y1332D02*
X1579Y1332D01*
X479Y1331D02*
X514Y1331D01*
X547Y1331D02*
X582Y1331D01*
X1476Y1331D02*
X1511Y1331D01*
X1543Y1331D02*
X1579Y1331D01*
X479Y1330D02*
X514Y1330D01*
X547Y1330D02*
X582Y1330D01*
X1476Y1330D02*
X1511Y1330D01*
X1544Y1330D02*
X1579Y1330D01*
X479Y1329D02*
X514Y1329D01*
X547Y1329D02*
X582Y1329D01*
X1476Y1329D02*
X1511Y1329D01*
X1544Y1329D02*
X1579Y1329D01*
X479Y1328D02*
X514Y1328D01*
X547Y1328D02*
X582Y1328D01*
X1476Y1328D02*
X1511Y1328D01*
X1543Y1328D02*
X1579Y1328D01*
X479Y1327D02*
X514Y1327D01*
X547Y1327D02*
X582Y1327D01*
X1476Y1327D02*
X1511Y1327D01*
X1543Y1327D02*
X1579Y1327D01*
X479Y1326D02*
X514Y1326D01*
X547Y1326D02*
X582Y1326D01*
X1477Y1326D02*
X1511Y1326D01*
X1543Y1326D02*
X1579Y1326D01*
X479Y1325D02*
X515Y1325D01*
X546Y1325D02*
X582Y1325D01*
X1477Y1325D02*
X1511Y1325D01*
X1543Y1325D02*
X1579Y1325D01*
X480Y1324D02*
X515Y1324D01*
X546Y1324D02*
X581Y1324D01*
X1477Y1324D02*
X1512Y1324D01*
X1543Y1324D02*
X1579Y1324D01*
X480Y1323D02*
X515Y1323D01*
X546Y1323D02*
X581Y1323D01*
X1477Y1323D02*
X1512Y1323D01*
X1542Y1323D02*
X1578Y1323D01*
X480Y1322D02*
X516Y1322D01*
X545Y1322D02*
X581Y1322D01*
X1477Y1322D02*
X1512Y1322D01*
X1542Y1322D02*
X1578Y1322D01*
X480Y1321D02*
X516Y1321D01*
X545Y1321D02*
X580Y1321D01*
X1478Y1321D02*
X1513Y1321D01*
X1541Y1321D02*
X1578Y1321D01*
X481Y1320D02*
X517Y1320D01*
X544Y1320D02*
X580Y1320D01*
X1478Y1320D02*
X1514Y1320D01*
X1541Y1320D02*
X1578Y1320D01*
X481Y1319D02*
X518Y1319D01*
X543Y1319D02*
X580Y1319D01*
X1479Y1319D02*
X1514Y1319D01*
X1540Y1319D02*
X1577Y1319D01*
X482Y1318D02*
X519Y1318D01*
X542Y1318D02*
X579Y1318D01*
X1479Y1318D02*
X1515Y1318D01*
X1539Y1318D02*
X1577Y1318D01*
X482Y1317D02*
X520Y1317D01*
X541Y1317D02*
X579Y1317D01*
X1480Y1317D02*
X1517Y1317D01*
X1538Y1317D02*
X1576Y1317D01*
X483Y1316D02*
X521Y1316D01*
X540Y1316D02*
X578Y1316D01*
X1480Y1316D02*
X1518Y1316D01*
X1536Y1316D02*
X1575Y1316D01*
X483Y1315D02*
X523Y1315D01*
X538Y1315D02*
X578Y1315D01*
X1481Y1315D02*
X1520Y1315D01*
X1535Y1315D02*
X1575Y1315D01*
X484Y1314D02*
X526Y1314D01*
X535Y1314D02*
X577Y1314D01*
X1482Y1314D02*
X1522Y1314D01*
X1532Y1314D02*
X1574Y1314D01*
X485Y1313D02*
X576Y1313D01*
X1482Y1313D02*
X1573Y1313D01*
X486Y1312D02*
X575Y1312D01*
X1483Y1312D02*
X1573Y1312D01*
X487Y1311D02*
X574Y1311D01*
X1484Y1311D02*
X1572Y1311D01*
X488Y1310D02*
X573Y1310D01*
X1485Y1310D02*
X1570Y1310D01*
X489Y1309D02*
X572Y1309D01*
X1486Y1309D02*
X1569Y1309D01*
X490Y1308D02*
X571Y1308D01*
X1488Y1308D02*
X1568Y1308D01*
X492Y1307D02*
X569Y1307D01*
X1489Y1307D02*
X1566Y1307D01*
X494Y1306D02*
X567Y1306D01*
X1491Y1306D02*
X1564Y1306D01*
X496Y1305D02*
X565Y1305D01*
X1493Y1305D02*
X1562Y1305D01*
X499Y1304D02*
X561Y1304D01*
X1497Y1304D02*
X1559Y1304D01*
X501Y1255D02*
X560Y1255D01*
X1498Y1255D02*
X1558Y1255D01*
X497Y1254D02*
X564Y1254D01*
X1494Y1254D02*
X1562Y1254D01*
X494Y1253D02*
X567Y1253D01*
X1492Y1253D02*
X1564Y1253D01*
X492Y1252D02*
X569Y1252D01*
X1490Y1252D02*
X1566Y1252D01*
X491Y1251D02*
X570Y1251D01*
X1488Y1251D02*
X1568Y1251D01*
X489Y1250D02*
X572Y1250D01*
X1487Y1250D02*
X1569Y1250D01*
X488Y1249D02*
X573Y1249D01*
X1485Y1249D02*
X1570Y1249D01*
X487Y1248D02*
X574Y1248D01*
X1484Y1248D02*
X1571Y1248D01*
X486Y1247D02*
X575Y1247D01*
X1483Y1247D02*
X1572Y1247D01*
X485Y1246D02*
X576Y1246D01*
X1483Y1246D02*
X1573Y1246D01*
X484Y1245D02*
X527Y1245D01*
X534Y1245D02*
X577Y1245D01*
X1482Y1245D02*
X1523Y1245D01*
X1531Y1245D02*
X1574Y1245D01*
X483Y1244D02*
X524Y1244D01*
X537Y1244D02*
X577Y1244D01*
X1481Y1244D02*
X1520Y1244D01*
X1534Y1244D02*
X1575Y1244D01*
X483Y1243D02*
X522Y1243D01*
X539Y1243D02*
X578Y1243D01*
X1480Y1243D02*
X1518Y1243D01*
X1536Y1243D02*
X1575Y1243D01*
X482Y1242D02*
X520Y1242D01*
X541Y1242D02*
X579Y1242D01*
X1480Y1242D02*
X1517Y1242D01*
X1537Y1242D02*
X1576Y1242D01*
X482Y1241D02*
X519Y1241D01*
X542Y1241D02*
X579Y1241D01*
X1479Y1241D02*
X1516Y1241D01*
X1538Y1241D02*
X1576Y1241D01*
X481Y1240D02*
X518Y1240D01*
X543Y1240D02*
X580Y1240D01*
X1479Y1240D02*
X1515Y1240D01*
X1539Y1240D02*
X1577Y1240D01*
X481Y1239D02*
X517Y1239D01*
X544Y1239D02*
X580Y1239D01*
X1478Y1239D02*
X1514Y1239D01*
X1540Y1239D02*
X1577Y1239D01*
X480Y1238D02*
X517Y1238D01*
X544Y1238D02*
X580Y1238D01*
X1478Y1238D02*
X1513Y1238D01*
X1541Y1238D02*
X1578Y1238D01*
X480Y1237D02*
X516Y1237D01*
X545Y1237D02*
X581Y1237D01*
X1478Y1237D02*
X1513Y1237D01*
X1542Y1237D02*
X1578Y1237D01*
X480Y1236D02*
X515Y1236D01*
X545Y1236D02*
X581Y1236D01*
X1477Y1236D02*
X1512Y1236D01*
X1542Y1236D02*
X1578Y1236D01*
X480Y1235D02*
X515Y1235D01*
X546Y1235D02*
X581Y1235D01*
X1477Y1235D02*
X1512Y1235D01*
X1542Y1235D02*
X1579Y1235D01*
X479Y1234D02*
X515Y1234D01*
X546Y1234D02*
X581Y1234D01*
X1477Y1234D02*
X1511Y1234D01*
X1543Y1234D02*
X1579Y1234D01*
X479Y1233D02*
X514Y1233D01*
X547Y1233D02*
X582Y1233D01*
X1477Y1233D02*
X1511Y1233D01*
X1543Y1233D02*
X1579Y1233D01*
X479Y1232D02*
X514Y1232D01*
X547Y1232D02*
X582Y1232D01*
X1477Y1232D02*
X1511Y1232D01*
X1543Y1232D02*
X1579Y1232D01*
X479Y1231D02*
X514Y1231D01*
X547Y1231D02*
X582Y1231D01*
X1476Y1231D02*
X1511Y1231D01*
X1543Y1231D02*
X1579Y1231D01*
X479Y1230D02*
X514Y1230D01*
X547Y1230D02*
X582Y1230D01*
X1476Y1230D02*
X1511Y1230D01*
X1544Y1230D02*
X1579Y1230D01*
X479Y1229D02*
X514Y1229D01*
X547Y1229D02*
X582Y1229D01*
X1476Y1229D02*
X1511Y1229D01*
X1544Y1229D02*
X1579Y1229D01*
X479Y1228D02*
X514Y1228D01*
X547Y1228D02*
X582Y1228D01*
X1476Y1228D02*
X1511Y1228D01*
X1543Y1228D02*
X1579Y1228D01*
X479Y1227D02*
X514Y1227D01*
X547Y1227D02*
X582Y1227D01*
X1476Y1227D02*
X1511Y1227D01*
X1543Y1227D02*
X1579Y1227D01*
X479Y1226D02*
X514Y1226D01*
X547Y1226D02*
X582Y1226D01*
X1477Y1226D02*
X1511Y1226D01*
X1543Y1226D02*
X1579Y1226D01*
X479Y1225D02*
X515Y1225D01*
X546Y1225D02*
X581Y1225D01*
X1477Y1225D02*
X1511Y1225D01*
X1543Y1225D02*
X1579Y1225D01*
X480Y1224D02*
X515Y1224D01*
X546Y1224D02*
X581Y1224D01*
X1477Y1224D02*
X1512Y1224D01*
X1543Y1224D02*
X1579Y1224D01*
X480Y1223D02*
X515Y1223D01*
X546Y1223D02*
X581Y1223D01*
X1477Y1223D02*
X1512Y1223D01*
X1542Y1223D02*
X1578Y1223D01*
X480Y1222D02*
X516Y1222D01*
X545Y1222D02*
X581Y1222D01*
X1477Y1222D02*
X1512Y1222D01*
X1542Y1222D02*
X1578Y1222D01*
X480Y1221D02*
X516Y1221D01*
X545Y1221D02*
X580Y1221D01*
X1478Y1221D02*
X1513Y1221D01*
X1541Y1221D02*
X1578Y1221D01*
X481Y1220D02*
X517Y1220D01*
X544Y1220D02*
X580Y1220D01*
X1478Y1220D02*
X1514Y1220D01*
X1540Y1220D02*
X1578Y1220D01*
X481Y1219D02*
X518Y1219D01*
X543Y1219D02*
X580Y1219D01*
X1479Y1219D02*
X1515Y1219D01*
X1540Y1219D02*
X1577Y1219D01*
X482Y1218D02*
X519Y1218D01*
X542Y1218D02*
X579Y1218D01*
X1479Y1218D02*
X1515Y1218D01*
X1539Y1218D02*
X1577Y1218D01*
X482Y1217D02*
X520Y1217D01*
X541Y1217D02*
X579Y1217D01*
X1480Y1217D02*
X1517Y1217D01*
X1538Y1217D02*
X1576Y1217D01*
X483Y1216D02*
X521Y1216D01*
X540Y1216D02*
X578Y1216D01*
X1480Y1216D02*
X1518Y1216D01*
X1536Y1216D02*
X1575Y1216D01*
X483Y1215D02*
X523Y1215D01*
X538Y1215D02*
X578Y1215D01*
X1481Y1215D02*
X1520Y1215D01*
X1534Y1215D02*
X1575Y1215D01*
X484Y1214D02*
X526Y1214D01*
X535Y1214D02*
X577Y1214D01*
X1482Y1214D02*
X1522Y1214D01*
X1532Y1214D02*
X1574Y1214D01*
X485Y1213D02*
X576Y1213D01*
X1482Y1213D02*
X1573Y1213D01*
X486Y1212D02*
X575Y1212D01*
X1483Y1212D02*
X1572Y1212D01*
X487Y1211D02*
X574Y1211D01*
X1484Y1211D02*
X1572Y1211D01*
X488Y1210D02*
X573Y1210D01*
X1485Y1210D02*
X1570Y1210D01*
X489Y1209D02*
X572Y1209D01*
X1486Y1209D02*
X1569Y1209D01*
X490Y1208D02*
X571Y1208D01*
X1488Y1208D02*
X1568Y1208D01*
X492Y1207D02*
X569Y1207D01*
X1489Y1207D02*
X1566Y1207D01*
X494Y1206D02*
X567Y1206D01*
X1491Y1206D02*
X1564Y1206D01*
X496Y1205D02*
X565Y1205D01*
X1494Y1205D02*
X1562Y1205D01*
X500Y1204D02*
X561Y1204D01*
X1497Y1204D02*
X1559Y1204D01*
X500Y1155D02*
X561Y1155D01*
X1498Y1155D02*
X1558Y1155D01*
X496Y1154D02*
X564Y1154D01*
X1494Y1154D02*
X1562Y1154D01*
X494Y1153D02*
X567Y1153D01*
X1492Y1153D02*
X1564Y1153D01*
X492Y1152D02*
X569Y1152D01*
X1490Y1152D02*
X1566Y1152D01*
X490Y1151D02*
X570Y1151D01*
X1488Y1151D02*
X1568Y1151D01*
X489Y1150D02*
X572Y1150D01*
X1487Y1150D02*
X1569Y1150D01*
X488Y1149D02*
X573Y1149D01*
X1485Y1149D02*
X1570Y1149D01*
X487Y1148D02*
X574Y1148D01*
X1484Y1148D02*
X1572Y1148D01*
X486Y1147D02*
X575Y1147D01*
X1483Y1147D02*
X1572Y1147D01*
X485Y1146D02*
X576Y1146D01*
X1482Y1146D02*
X1573Y1146D01*
X484Y1145D02*
X527Y1145D01*
X534Y1145D02*
X577Y1145D01*
X1482Y1145D02*
X1523Y1145D01*
X1531Y1145D02*
X1574Y1145D01*
X483Y1144D02*
X523Y1144D01*
X537Y1144D02*
X577Y1144D01*
X1481Y1144D02*
X1520Y1144D01*
X1534Y1144D02*
X1575Y1144D01*
X483Y1143D02*
X522Y1143D01*
X539Y1143D02*
X578Y1143D01*
X1480Y1143D02*
X1518Y1143D01*
X1536Y1143D02*
X1575Y1143D01*
X482Y1142D02*
X520Y1142D01*
X541Y1142D02*
X579Y1142D01*
X1480Y1142D02*
X1517Y1142D01*
X1537Y1142D02*
X1576Y1142D01*
X482Y1141D02*
X519Y1141D01*
X542Y1141D02*
X579Y1141D01*
X1479Y1141D02*
X1516Y1141D01*
X1539Y1141D02*
X1577Y1141D01*
X481Y1140D02*
X518Y1140D01*
X543Y1140D02*
X580Y1140D01*
X1479Y1140D02*
X1515Y1140D01*
X1540Y1140D02*
X1577Y1140D01*
X481Y1139D02*
X517Y1139D01*
X544Y1139D02*
X580Y1139D01*
X1478Y1139D02*
X1514Y1139D01*
X1540Y1139D02*
X1578Y1139D01*
X480Y1138D02*
X516Y1138D01*
X544Y1138D02*
X580Y1138D01*
X1478Y1138D02*
X1513Y1138D01*
X1541Y1138D02*
X1578Y1138D01*
X480Y1137D02*
X516Y1137D01*
X545Y1137D02*
X581Y1137D01*
X1477Y1137D02*
X1513Y1137D01*
X1542Y1137D02*
X1578Y1137D01*
X480Y1136D02*
X515Y1136D01*
X546Y1136D02*
X581Y1136D01*
X1477Y1136D02*
X1512Y1136D01*
X1542Y1136D02*
X1578Y1136D01*
X480Y1135D02*
X515Y1135D01*
X546Y1135D02*
X581Y1135D01*
X1477Y1135D02*
X1512Y1135D01*
X1543Y1135D02*
X1579Y1135D01*
X479Y1134D02*
X515Y1134D01*
X546Y1134D02*
X581Y1134D01*
X1477Y1134D02*
X1511Y1134D01*
X1543Y1134D02*
X1579Y1134D01*
X479Y1133D02*
X514Y1133D01*
X547Y1133D02*
X582Y1133D01*
X1477Y1133D02*
X1511Y1133D01*
X1543Y1133D02*
X1579Y1133D01*
X479Y1132D02*
X514Y1132D01*
X547Y1132D02*
X582Y1132D01*
X1477Y1132D02*
X1511Y1132D01*
X1543Y1132D02*
X1579Y1132D01*
X479Y1131D02*
X514Y1131D01*
X547Y1131D02*
X582Y1131D01*
X1476Y1131D02*
X1511Y1131D01*
X1544Y1131D02*
X1579Y1131D01*
X479Y1130D02*
X514Y1130D01*
X547Y1130D02*
X582Y1130D01*
X1476Y1130D02*
X1511Y1130D01*
X1544Y1130D02*
X1579Y1130D01*
X479Y1129D02*
X514Y1129D01*
X547Y1129D02*
X582Y1129D01*
X1476Y1129D02*
X1511Y1129D01*
X1544Y1129D02*
X1579Y1129D01*
X479Y1128D02*
X514Y1128D01*
X547Y1128D02*
X582Y1128D01*
X1476Y1128D02*
X1511Y1128D01*
X1544Y1128D02*
X1579Y1128D01*
X479Y1127D02*
X514Y1127D01*
X547Y1127D02*
X582Y1127D01*
X1477Y1127D02*
X1511Y1127D01*
X1543Y1127D02*
X1579Y1127D01*
X479Y1126D02*
X514Y1126D01*
X547Y1126D02*
X582Y1126D01*
X1477Y1126D02*
X1511Y1126D01*
X1543Y1126D02*
X1579Y1126D01*
X479Y1125D02*
X515Y1125D01*
X546Y1125D02*
X581Y1125D01*
X1477Y1125D02*
X1511Y1125D01*
X1543Y1125D02*
X1579Y1125D01*
X480Y1124D02*
X515Y1124D01*
X546Y1124D02*
X581Y1124D01*
X1477Y1124D02*
X1512Y1124D01*
X1543Y1124D02*
X1579Y1124D01*
X480Y1123D02*
X515Y1123D01*
X546Y1123D02*
X581Y1123D01*
X1477Y1123D02*
X1512Y1123D01*
X1542Y1123D02*
X1579Y1123D01*
X480Y1122D02*
X516Y1122D01*
X545Y1122D02*
X581Y1122D01*
X1477Y1122D02*
X1512Y1122D01*
X1542Y1122D02*
X1578Y1122D01*
X480Y1121D02*
X516Y1121D01*
X545Y1121D02*
X580Y1121D01*
X1478Y1121D02*
X1513Y1121D01*
X1541Y1121D02*
X1578Y1121D01*
X481Y1120D02*
X517Y1120D01*
X544Y1120D02*
X580Y1120D01*
X1478Y1120D02*
X1514Y1120D01*
X1541Y1120D02*
X1578Y1120D01*
X481Y1119D02*
X518Y1119D01*
X543Y1119D02*
X580Y1119D01*
X1479Y1119D02*
X1514Y1119D01*
X1540Y1119D02*
X1577Y1119D01*
X482Y1118D02*
X519Y1118D01*
X542Y1118D02*
X579Y1118D01*
X1479Y1118D02*
X1515Y1118D01*
X1539Y1118D02*
X1577Y1118D01*
X482Y1117D02*
X520Y1117D01*
X541Y1117D02*
X579Y1117D01*
X1480Y1117D02*
X1517Y1117D01*
X1538Y1117D02*
X1576Y1117D01*
X483Y1116D02*
X521Y1116D01*
X540Y1116D02*
X578Y1116D01*
X1480Y1116D02*
X1518Y1116D01*
X1536Y1116D02*
X1576Y1116D01*
X483Y1115D02*
X523Y1115D01*
X538Y1115D02*
X577Y1115D01*
X1481Y1115D02*
X1520Y1115D01*
X1535Y1115D02*
X1575Y1115D01*
X484Y1114D02*
X526Y1114D01*
X535Y1114D02*
X577Y1114D01*
X1482Y1114D02*
X1522Y1114D01*
X1532Y1114D02*
X1574Y1114D01*
X485Y1113D02*
X576Y1113D01*
X1482Y1113D02*
X1573Y1113D01*
X486Y1112D02*
X575Y1112D01*
X1483Y1112D02*
X1572Y1112D01*
X487Y1111D02*
X574Y1111D01*
X1484Y1111D02*
X1572Y1111D01*
X488Y1110D02*
X573Y1110D01*
X1485Y1110D02*
X1570Y1110D01*
X489Y1109D02*
X572Y1109D01*
X1487Y1109D02*
X1569Y1109D01*
X490Y1108D02*
X571Y1108D01*
X1488Y1108D02*
X1568Y1108D01*
X492Y1107D02*
X569Y1107D01*
X1490Y1107D02*
X1566Y1107D01*
X494Y1106D02*
X567Y1106D01*
X1491Y1106D02*
X1564Y1106D01*
X496Y1105D02*
X565Y1105D01*
X1494Y1105D02*
X1562Y1105D01*
X500Y1104D02*
X561Y1104D01*
X1497Y1104D02*
X1559Y1104D01*
X500Y1055D02*
X561Y1055D01*
X1498Y1055D02*
X1558Y1055D01*
X496Y1054D02*
X564Y1054D01*
X1494Y1054D02*
X1562Y1054D01*
X494Y1053D02*
X567Y1053D01*
X1491Y1053D02*
X1564Y1053D01*
X492Y1052D02*
X569Y1052D01*
X1490Y1052D02*
X1566Y1052D01*
X490Y1051D02*
X570Y1051D01*
X1488Y1051D02*
X1568Y1051D01*
X489Y1050D02*
X572Y1050D01*
X1487Y1050D02*
X1569Y1050D01*
X488Y1049D02*
X573Y1049D01*
X1485Y1049D02*
X1570Y1049D01*
X487Y1048D02*
X574Y1048D01*
X1484Y1048D02*
X1571Y1048D01*
X486Y1047D02*
X575Y1047D01*
X1483Y1047D02*
X1572Y1047D01*
X485Y1046D02*
X576Y1046D01*
X1482Y1046D02*
X1573Y1046D01*
X484Y1045D02*
X526Y1045D01*
X535Y1045D02*
X577Y1045D01*
X1482Y1045D02*
X1523Y1045D01*
X1531Y1045D02*
X1574Y1045D01*
X483Y1044D02*
X523Y1044D01*
X538Y1044D02*
X577Y1044D01*
X1481Y1044D02*
X1520Y1044D01*
X1534Y1044D02*
X1575Y1044D01*
X483Y1043D02*
X521Y1043D01*
X540Y1043D02*
X578Y1043D01*
X1480Y1043D02*
X1518Y1043D01*
X1536Y1043D02*
X1575Y1043D01*
X482Y1042D02*
X520Y1042D01*
X541Y1042D02*
X579Y1042D01*
X1480Y1042D02*
X1517Y1042D01*
X1537Y1042D02*
X1576Y1042D01*
X482Y1041D02*
X519Y1041D01*
X542Y1041D02*
X579Y1041D01*
X1479Y1041D02*
X1516Y1041D01*
X1539Y1041D02*
X1577Y1041D01*
X481Y1040D02*
X518Y1040D01*
X543Y1040D02*
X580Y1040D01*
X1479Y1040D02*
X1515Y1040D01*
X1539Y1040D02*
X1577Y1040D01*
X481Y1039D02*
X517Y1039D01*
X544Y1039D02*
X580Y1039D01*
X1478Y1039D02*
X1514Y1039D01*
X1540Y1039D02*
X1577Y1039D01*
X480Y1038D02*
X516Y1038D01*
X545Y1038D02*
X580Y1038D01*
X1478Y1038D02*
X1513Y1038D01*
X1541Y1038D02*
X1578Y1038D01*
X480Y1037D02*
X516Y1037D01*
X545Y1037D02*
X581Y1037D01*
X1477Y1037D02*
X1513Y1037D01*
X1542Y1037D02*
X1578Y1037D01*
X480Y1036D02*
X515Y1036D01*
X546Y1036D02*
X581Y1036D01*
X1477Y1036D02*
X1512Y1036D01*
X1542Y1036D02*
X1578Y1036D01*
X480Y1035D02*
X515Y1035D01*
X546Y1035D02*
X581Y1035D01*
X1477Y1035D02*
X1512Y1035D01*
X1543Y1035D02*
X1579Y1035D01*
X479Y1034D02*
X514Y1034D01*
X546Y1034D02*
X581Y1034D01*
X1477Y1034D02*
X1511Y1034D01*
X1543Y1034D02*
X1579Y1034D01*
X479Y1033D02*
X514Y1033D01*
X547Y1033D02*
X582Y1033D01*
X1477Y1033D02*
X1511Y1033D01*
X1543Y1033D02*
X1579Y1033D01*
X479Y1032D02*
X514Y1032D01*
X547Y1032D02*
X582Y1032D01*
X1476Y1032D02*
X1511Y1032D01*
X1543Y1032D02*
X1579Y1032D01*
X479Y1031D02*
X514Y1031D01*
X547Y1031D02*
X582Y1031D01*
X1476Y1031D02*
X1511Y1031D01*
X1543Y1031D02*
X1579Y1031D01*
X479Y1030D02*
X514Y1030D01*
X547Y1030D02*
X582Y1030D01*
X1476Y1030D02*
X1511Y1030D01*
X1544Y1030D02*
X1579Y1030D01*
X479Y1029D02*
X514Y1029D01*
X547Y1029D02*
X582Y1029D01*
X1476Y1029D02*
X1511Y1029D01*
X1544Y1029D02*
X1579Y1029D01*
X479Y1028D02*
X514Y1028D01*
X547Y1028D02*
X582Y1028D01*
X1476Y1028D02*
X1511Y1028D01*
X1543Y1028D02*
X1579Y1028D01*
X479Y1027D02*
X514Y1027D01*
X547Y1027D02*
X582Y1027D01*
X1476Y1027D02*
X1511Y1027D01*
X1543Y1027D02*
X1579Y1027D01*
X479Y1026D02*
X514Y1026D01*
X547Y1026D02*
X582Y1026D01*
X1477Y1026D02*
X1511Y1026D01*
X1543Y1026D02*
X1579Y1026D01*
X479Y1025D02*
X514Y1025D01*
X547Y1025D02*
X581Y1025D01*
X1477Y1025D02*
X1511Y1025D01*
X1543Y1025D02*
X1579Y1025D01*
X480Y1024D02*
X515Y1024D01*
X546Y1024D02*
X581Y1024D01*
X1477Y1024D02*
X1512Y1024D01*
X1543Y1024D02*
X1579Y1024D01*
X480Y1023D02*
X515Y1023D01*
X546Y1023D02*
X581Y1023D01*
X1477Y1023D02*
X1512Y1023D01*
X1542Y1023D02*
X1578Y1023D01*
X480Y1022D02*
X516Y1022D01*
X545Y1022D02*
X581Y1022D01*
X1477Y1022D02*
X1513Y1022D01*
X1542Y1022D02*
X1578Y1022D01*
X480Y1021D02*
X516Y1021D01*
X545Y1021D02*
X580Y1021D01*
X1478Y1021D02*
X1513Y1021D01*
X1541Y1021D02*
X1578Y1021D01*
X481Y1020D02*
X517Y1020D01*
X544Y1020D02*
X580Y1020D01*
X1478Y1020D02*
X1514Y1020D01*
X1540Y1020D02*
X1577Y1020D01*
X481Y1019D02*
X518Y1019D01*
X543Y1019D02*
X580Y1019D01*
X1479Y1019D02*
X1515Y1019D01*
X1540Y1019D02*
X1577Y1019D01*
X482Y1018D02*
X519Y1018D01*
X542Y1018D02*
X579Y1018D01*
X1479Y1018D02*
X1515Y1018D01*
X1539Y1018D02*
X1577Y1018D01*
X482Y1017D02*
X520Y1017D01*
X541Y1017D02*
X579Y1017D01*
X1480Y1017D02*
X1517Y1017D01*
X1538Y1017D02*
X1576Y1017D01*
X483Y1016D02*
X521Y1016D01*
X540Y1016D02*
X578Y1016D01*
X1480Y1016D02*
X1518Y1016D01*
X1536Y1016D02*
X1575Y1016D01*
X483Y1015D02*
X523Y1015D01*
X538Y1015D02*
X577Y1015D01*
X1481Y1015D02*
X1520Y1015D01*
X1534Y1015D02*
X1575Y1015D01*
X484Y1014D02*
X526Y1014D01*
X535Y1014D02*
X577Y1014D01*
X1482Y1014D02*
X1523Y1014D01*
X1532Y1014D02*
X1574Y1014D01*
X485Y1013D02*
X576Y1013D01*
X1482Y1013D02*
X1573Y1013D01*
X486Y1012D02*
X575Y1012D01*
X1483Y1012D02*
X1572Y1012D01*
X487Y1011D02*
X574Y1011D01*
X1484Y1011D02*
X1572Y1011D01*
X488Y1010D02*
X573Y1010D01*
X1485Y1010D02*
X1570Y1010D01*
X489Y1009D02*
X572Y1009D01*
X1487Y1009D02*
X1569Y1009D01*
X490Y1008D02*
X570Y1008D01*
X1488Y1008D02*
X1568Y1008D01*
X492Y1007D02*
X569Y1007D01*
X1490Y1007D02*
X1566Y1007D01*
X494Y1006D02*
X567Y1006D01*
X1491Y1006D02*
X1564Y1006D01*
X496Y1005D02*
X565Y1005D01*
X1494Y1005D02*
X1562Y1005D01*
X500Y1004D02*
X561Y1004D01*
X1497Y1004D02*
X1558Y1004D01*
X500Y955D02*
X561Y955D01*
X1497Y955D02*
X1558Y955D01*
X496Y954D02*
X565Y954D01*
X1494Y954D02*
X1562Y954D01*
X494Y953D02*
X567Y953D01*
X1491Y953D02*
X1564Y953D01*
X492Y952D02*
X569Y952D01*
X1490Y952D02*
X1566Y952D01*
X490Y951D02*
X570Y951D01*
X1488Y951D02*
X1568Y951D01*
X489Y950D02*
X572Y950D01*
X1487Y950D02*
X1569Y950D01*
X488Y949D02*
X573Y949D01*
X1485Y949D02*
X1570Y949D01*
X487Y948D02*
X574Y948D01*
X1484Y948D02*
X1572Y948D01*
X486Y947D02*
X575Y947D01*
X1483Y947D02*
X1572Y947D01*
X485Y946D02*
X576Y946D01*
X1482Y946D02*
X1573Y946D01*
X484Y945D02*
X526Y945D01*
X535Y945D02*
X577Y945D01*
X1482Y945D02*
X1523Y945D01*
X1531Y945D02*
X1574Y945D01*
X483Y944D02*
X523Y944D01*
X538Y944D02*
X577Y944D01*
X1481Y944D02*
X1520Y944D01*
X1534Y944D02*
X1575Y944D01*
X483Y943D02*
X522Y943D01*
X539Y943D02*
X578Y943D01*
X1480Y943D02*
X1518Y943D01*
X1536Y943D02*
X1575Y943D01*
X482Y942D02*
X520Y942D01*
X541Y942D02*
X579Y942D01*
X1480Y942D02*
X1517Y942D01*
X1537Y942D02*
X1576Y942D01*
X482Y941D02*
X519Y941D01*
X542Y941D02*
X579Y941D01*
X1479Y941D02*
X1516Y941D01*
X1539Y941D02*
X1577Y941D01*
X481Y940D02*
X518Y940D01*
X543Y940D02*
X580Y940D01*
X1479Y940D02*
X1515Y940D01*
X1540Y940D02*
X1577Y940D01*
X481Y939D02*
X517Y939D01*
X544Y939D02*
X580Y939D01*
X1478Y939D02*
X1514Y939D01*
X1540Y939D02*
X1578Y939D01*
X480Y938D02*
X516Y938D01*
X544Y938D02*
X580Y938D01*
X1478Y938D02*
X1513Y938D01*
X1541Y938D02*
X1578Y938D01*
X480Y937D02*
X516Y937D01*
X545Y937D02*
X581Y937D01*
X1477Y937D02*
X1513Y937D01*
X1542Y937D02*
X1578Y937D01*
X480Y936D02*
X515Y936D01*
X546Y936D02*
X581Y936D01*
X1477Y936D02*
X1512Y936D01*
X1542Y936D02*
X1578Y936D01*
X480Y935D02*
X515Y935D01*
X546Y935D02*
X581Y935D01*
X1477Y935D02*
X1512Y935D01*
X1543Y935D02*
X1579Y935D01*
X479Y934D02*
X515Y934D01*
X546Y934D02*
X581Y934D01*
X1477Y934D02*
X1511Y934D01*
X1543Y934D02*
X1579Y934D01*
X479Y933D02*
X514Y933D01*
X547Y933D02*
X582Y933D01*
X1477Y933D02*
X1511Y933D01*
X1543Y933D02*
X1579Y933D01*
X479Y932D02*
X514Y932D01*
X547Y932D02*
X582Y932D01*
X1476Y932D02*
X1511Y932D01*
X1543Y932D02*
X1579Y932D01*
X479Y931D02*
X514Y931D01*
X547Y931D02*
X582Y931D01*
X1476Y931D02*
X1511Y931D01*
X1543Y931D02*
X1579Y931D01*
X479Y930D02*
X514Y930D01*
X547Y930D02*
X582Y930D01*
X1476Y930D02*
X1511Y930D01*
X1544Y930D02*
X1579Y930D01*
X479Y929D02*
X514Y929D01*
X547Y929D02*
X582Y929D01*
X1476Y929D02*
X1511Y929D01*
X1544Y929D02*
X1579Y929D01*
X479Y928D02*
X514Y928D01*
X547Y928D02*
X582Y928D01*
X1476Y928D02*
X1511Y928D01*
X1543Y928D02*
X1579Y928D01*
X479Y927D02*
X514Y927D01*
X547Y927D02*
X582Y927D01*
X1476Y927D02*
X1511Y927D01*
X1543Y927D02*
X1579Y927D01*
X479Y926D02*
X514Y926D01*
X547Y926D02*
X582Y926D01*
X1477Y926D02*
X1511Y926D01*
X1543Y926D02*
X1579Y926D01*
X479Y925D02*
X515Y925D01*
X546Y925D02*
X581Y925D01*
X1477Y925D02*
X1511Y925D01*
X1543Y925D02*
X1579Y925D01*
X480Y924D02*
X515Y924D01*
X546Y924D02*
X581Y924D01*
X1477Y924D02*
X1512Y924D01*
X1543Y924D02*
X1579Y924D01*
X480Y923D02*
X515Y923D01*
X546Y923D02*
X581Y923D01*
X1477Y923D02*
X1512Y923D01*
X1542Y923D02*
X1578Y923D01*
X480Y922D02*
X516Y922D01*
X545Y922D02*
X581Y922D01*
X1477Y922D02*
X1513Y922D01*
X1542Y922D02*
X1578Y922D01*
X480Y921D02*
X516Y921D01*
X544Y921D02*
X580Y921D01*
X1478Y921D02*
X1513Y921D01*
X1541Y921D02*
X1578Y921D01*
X481Y920D02*
X517Y920D01*
X544Y920D02*
X580Y920D01*
X1478Y920D02*
X1514Y920D01*
X1540Y920D02*
X1577Y920D01*
X481Y919D02*
X518Y919D01*
X543Y919D02*
X580Y919D01*
X1479Y919D02*
X1515Y919D01*
X1540Y919D02*
X1577Y919D01*
X482Y918D02*
X519Y918D01*
X542Y918D02*
X579Y918D01*
X1479Y918D02*
X1515Y918D01*
X1539Y918D02*
X1576Y918D01*
X482Y917D02*
X520Y917D01*
X541Y917D02*
X579Y917D01*
X1480Y917D02*
X1517Y917D01*
X1537Y917D02*
X1576Y917D01*
X483Y916D02*
X521Y916D01*
X540Y916D02*
X578Y916D01*
X1480Y916D02*
X1518Y916D01*
X1536Y916D02*
X1575Y916D01*
X483Y915D02*
X523Y915D01*
X538Y915D02*
X577Y915D01*
X1481Y915D02*
X1520Y915D01*
X1534Y915D02*
X1575Y915D01*
X484Y914D02*
X526Y914D01*
X535Y914D02*
X577Y914D01*
X1482Y914D02*
X1523Y914D01*
X1531Y914D02*
X1574Y914D01*
X485Y913D02*
X576Y913D01*
X1482Y913D02*
X1573Y913D01*
X486Y912D02*
X575Y912D01*
X1483Y912D02*
X1572Y912D01*
X487Y911D02*
X574Y911D01*
X1484Y911D02*
X1571Y911D01*
X488Y910D02*
X573Y910D01*
X1485Y910D02*
X1570Y910D01*
X489Y909D02*
X572Y909D01*
X1487Y909D02*
X1569Y909D01*
X490Y908D02*
X570Y908D01*
X1488Y908D02*
X1568Y908D01*
X492Y907D02*
X569Y907D01*
X1490Y907D02*
X1566Y907D01*
X494Y906D02*
X567Y906D01*
X1491Y906D02*
X1564Y906D01*
X496Y905D02*
X564Y905D01*
X1494Y905D02*
X1562Y905D01*
X500Y904D02*
X561Y904D01*
X1498Y904D02*
X1558Y904D01*
X500Y855D02*
X561Y855D01*
X1497Y855D02*
X1559Y855D01*
X496Y854D02*
X565Y854D01*
X1494Y854D02*
X1562Y854D01*
X494Y853D02*
X567Y853D01*
X1491Y853D02*
X1564Y853D01*
X492Y852D02*
X569Y852D01*
X1489Y852D02*
X1566Y852D01*
X490Y851D02*
X571Y851D01*
X1488Y851D02*
X1568Y851D01*
X489Y850D02*
X572Y850D01*
X1487Y850D02*
X1569Y850D01*
X488Y849D02*
X573Y849D01*
X1485Y849D02*
X1570Y849D01*
X487Y848D02*
X574Y848D01*
X1484Y848D02*
X1572Y848D01*
X486Y847D02*
X575Y847D01*
X1483Y847D02*
X1573Y847D01*
X485Y846D02*
X576Y846D01*
X1482Y846D02*
X1573Y846D01*
X484Y845D02*
X526Y845D01*
X535Y845D02*
X577Y845D01*
X1482Y845D02*
X1523Y845D01*
X1531Y845D02*
X1574Y845D01*
X483Y844D02*
X523Y844D01*
X538Y844D02*
X577Y844D01*
X1481Y844D02*
X1520Y844D01*
X1534Y844D02*
X1575Y844D01*
X483Y843D02*
X521Y843D01*
X539Y843D02*
X578Y843D01*
X1480Y843D02*
X1518Y843D01*
X1536Y843D02*
X1576Y843D01*
X482Y842D02*
X520Y842D01*
X541Y842D02*
X579Y842D01*
X1480Y842D02*
X1517Y842D01*
X1537Y842D02*
X1576Y842D01*
X482Y841D02*
X519Y841D01*
X542Y841D02*
X579Y841D01*
X1479Y841D02*
X1516Y841D01*
X1539Y841D02*
X1577Y841D01*
X481Y840D02*
X518Y840D01*
X543Y840D02*
X580Y840D01*
X1479Y840D02*
X1515Y840D01*
X1540Y840D02*
X1577Y840D01*
X481Y839D02*
X517Y839D01*
X544Y839D02*
X580Y839D01*
X1478Y839D02*
X1514Y839D01*
X1540Y839D02*
X1578Y839D01*
X480Y838D02*
X516Y838D01*
X544Y838D02*
X580Y838D01*
X1478Y838D02*
X1513Y838D01*
X1541Y838D02*
X1578Y838D01*
X480Y837D02*
X516Y837D01*
X545Y837D02*
X581Y837D01*
X1477Y837D02*
X1513Y837D01*
X1542Y837D02*
X1578Y837D01*
X480Y836D02*
X515Y836D01*
X546Y836D02*
X581Y836D01*
X1477Y836D02*
X1512Y836D01*
X1542Y836D02*
X1579Y836D01*
X480Y835D02*
X515Y835D01*
X546Y835D02*
X581Y835D01*
X1477Y835D02*
X1512Y835D01*
X1543Y835D02*
X1579Y835D01*
X479Y834D02*
X515Y834D01*
X546Y834D02*
X581Y834D01*
X1477Y834D02*
X1511Y834D01*
X1543Y834D02*
X1579Y834D01*
X479Y833D02*
X514Y833D01*
X547Y833D02*
X582Y833D01*
X1477Y833D02*
X1511Y833D01*
X1543Y833D02*
X1579Y833D01*
X479Y832D02*
X514Y832D01*
X547Y832D02*
X582Y832D01*
X1477Y832D02*
X1511Y832D01*
X1543Y832D02*
X1579Y832D01*
X479Y831D02*
X514Y831D01*
X547Y831D02*
X582Y831D01*
X1476Y831D02*
X1511Y831D01*
X1543Y831D02*
X1579Y831D01*
X479Y830D02*
X514Y830D01*
X547Y830D02*
X582Y830D01*
X1476Y830D02*
X1511Y830D01*
X1544Y830D02*
X1579Y830D01*
X479Y829D02*
X514Y829D01*
X547Y829D02*
X582Y829D01*
X1476Y829D02*
X1511Y829D01*
X1544Y829D02*
X1579Y829D01*
X479Y828D02*
X514Y828D01*
X547Y828D02*
X582Y828D01*
X1476Y828D02*
X1511Y828D01*
X1543Y828D02*
X1579Y828D01*
X479Y827D02*
X514Y827D01*
X547Y827D02*
X582Y827D01*
X1477Y827D02*
X1511Y827D01*
X1543Y827D02*
X1579Y827D01*
X479Y826D02*
X514Y826D01*
X547Y826D02*
X582Y826D01*
X1477Y826D02*
X1511Y826D01*
X1543Y826D02*
X1579Y826D01*
X479Y825D02*
X515Y825D01*
X546Y825D02*
X581Y825D01*
X1477Y825D02*
X1511Y825D01*
X1543Y825D02*
X1579Y825D01*
X480Y824D02*
X515Y824D01*
X546Y824D02*
X581Y824D01*
X1477Y824D02*
X1512Y824D01*
X1543Y824D02*
X1579Y824D01*
X480Y823D02*
X515Y823D01*
X546Y823D02*
X581Y823D01*
X1477Y823D02*
X1512Y823D01*
X1542Y823D02*
X1578Y823D01*
X480Y822D02*
X516Y822D01*
X545Y822D02*
X581Y822D01*
X1478Y822D02*
X1513Y822D01*
X1542Y822D02*
X1578Y822D01*
X480Y821D02*
X516Y821D01*
X544Y821D02*
X580Y821D01*
X1478Y821D02*
X1513Y821D01*
X1541Y821D02*
X1578Y821D01*
X481Y820D02*
X517Y820D01*
X544Y820D02*
X580Y820D01*
X1478Y820D02*
X1514Y820D01*
X1540Y820D02*
X1578Y820D01*
X481Y819D02*
X518Y819D01*
X543Y819D02*
X580Y819D01*
X1479Y819D02*
X1515Y819D01*
X1540Y819D02*
X1577Y819D01*
X482Y818D02*
X519Y818D01*
X542Y818D02*
X579Y818D01*
X1479Y818D02*
X1516Y818D01*
X1539Y818D02*
X1577Y818D01*
X482Y817D02*
X520Y817D01*
X541Y817D02*
X579Y817D01*
X1480Y817D02*
X1517Y817D01*
X1537Y817D02*
X1576Y817D01*
X483Y816D02*
X521Y816D01*
X539Y816D02*
X578Y816D01*
X1480Y816D02*
X1518Y816D01*
X1536Y816D02*
X1575Y816D01*
X483Y815D02*
X523Y815D01*
X538Y815D02*
X577Y815D01*
X1481Y815D02*
X1520Y815D01*
X1534Y815D02*
X1575Y815D01*
X484Y814D02*
X526Y814D01*
X535Y814D02*
X577Y814D01*
X1482Y814D02*
X1523Y814D01*
X1531Y814D02*
X1574Y814D01*
X485Y813D02*
X576Y813D01*
X1482Y813D02*
X1573Y813D01*
X486Y812D02*
X575Y812D01*
X1483Y812D02*
X1572Y812D01*
X487Y811D02*
X574Y811D01*
X1484Y811D02*
X1572Y811D01*
X488Y810D02*
X573Y810D01*
X1485Y810D02*
X1570Y810D01*
X489Y809D02*
X572Y809D01*
X1487Y809D02*
X1569Y809D01*
X490Y808D02*
X570Y808D01*
X1488Y808D02*
X1568Y808D01*
X492Y807D02*
X569Y807D01*
X1490Y807D02*
X1566Y807D01*
X494Y806D02*
X567Y806D01*
X1492Y806D02*
X1564Y806D01*
X497Y805D02*
X564Y805D01*
X1494Y805D02*
X1562Y805D01*
X500Y804D02*
X560Y804D01*
X1498Y804D02*
X1558Y804D01*
X500Y755D02*
X561Y755D01*
X1497Y755D02*
X1559Y755D01*
X496Y754D02*
X565Y754D01*
X1494Y754D02*
X1562Y754D01*
X494Y753D02*
X567Y753D01*
X1491Y753D02*
X1564Y753D01*
X492Y752D02*
X569Y752D01*
X1489Y752D02*
X1566Y752D01*
X490Y751D02*
X571Y751D01*
X1488Y751D02*
X1568Y751D01*
X489Y750D02*
X572Y750D01*
X1486Y750D02*
X1569Y750D01*
X488Y749D02*
X573Y749D01*
X1485Y749D02*
X1570Y749D01*
X487Y748D02*
X574Y748D01*
X1484Y748D02*
X1572Y748D01*
X486Y747D02*
X575Y747D01*
X1483Y747D02*
X1572Y747D01*
X485Y746D02*
X576Y746D01*
X1482Y746D02*
X1573Y746D01*
X484Y745D02*
X526Y745D01*
X535Y745D02*
X577Y745D01*
X1482Y745D02*
X1522Y745D01*
X1532Y745D02*
X1574Y745D01*
X483Y744D02*
X523Y744D01*
X538Y744D02*
X577Y744D01*
X1481Y744D02*
X1520Y744D01*
X1534Y744D02*
X1575Y744D01*
X483Y743D02*
X521Y743D01*
X540Y743D02*
X578Y743D01*
X1480Y743D02*
X1518Y743D01*
X1536Y743D02*
X1575Y743D01*
X482Y742D02*
X520Y742D01*
X541Y742D02*
X579Y742D01*
X1480Y742D02*
X1516Y742D01*
X1538Y742D02*
X1576Y742D01*
X482Y741D02*
X519Y741D01*
X542Y741D02*
X579Y741D01*
X1479Y741D02*
X1515Y741D01*
X1539Y741D02*
X1577Y741D01*
X481Y740D02*
X518Y740D01*
X543Y740D02*
X580Y740D01*
X1479Y740D02*
X1514Y740D01*
X1540Y740D02*
X1577Y740D01*
X481Y739D02*
X517Y739D01*
X544Y739D02*
X580Y739D01*
X1478Y739D02*
X1514Y739D01*
X1541Y739D02*
X1578Y739D01*
X480Y738D02*
X516Y738D01*
X545Y738D02*
X580Y738D01*
X1478Y738D02*
X1513Y738D01*
X1541Y738D02*
X1578Y738D01*
X480Y737D02*
X516Y737D01*
X545Y737D02*
X581Y737D01*
X1477Y737D02*
X1512Y737D01*
X1542Y737D02*
X1578Y737D01*
X480Y736D02*
X515Y736D01*
X546Y736D02*
X581Y736D01*
X1477Y736D02*
X1512Y736D01*
X1542Y736D02*
X1578Y736D01*
X480Y735D02*
X515Y735D01*
X546Y735D02*
X581Y735D01*
X1477Y735D02*
X1511Y735D01*
X1543Y735D02*
X1579Y735D01*
X479Y734D02*
X514Y734D01*
X546Y734D02*
X582Y734D01*
X1477Y734D02*
X1511Y734D01*
X1543Y734D02*
X1579Y734D01*
X479Y733D02*
X514Y733D01*
X547Y733D02*
X582Y733D01*
X1477Y733D02*
X1511Y733D01*
X1543Y733D02*
X1579Y733D01*
X479Y732D02*
X514Y732D01*
X547Y732D02*
X582Y732D01*
X1476Y732D02*
X1511Y732D01*
X1544Y732D02*
X1579Y732D01*
X479Y731D02*
X514Y731D01*
X547Y731D02*
X582Y731D01*
X1476Y731D02*
X1510Y731D01*
X1544Y731D02*
X1579Y731D01*
X479Y730D02*
X514Y730D01*
X547Y730D02*
X582Y730D01*
X1476Y730D02*
X1510Y730D01*
X1544Y730D02*
X1579Y730D01*
X479Y729D02*
X514Y729D01*
X547Y729D02*
X582Y729D01*
X1476Y729D02*
X1510Y729D01*
X1544Y729D02*
X1579Y729D01*
X479Y728D02*
X514Y728D01*
X547Y728D02*
X582Y728D01*
X1476Y728D02*
X1510Y728D01*
X1544Y728D02*
X1579Y728D01*
X479Y727D02*
X514Y727D01*
X547Y727D02*
X582Y727D01*
X1477Y727D02*
X1511Y727D01*
X1544Y727D02*
X1579Y727D01*
X479Y726D02*
X514Y726D01*
X547Y726D02*
X582Y726D01*
X1477Y726D02*
X1511Y726D01*
X1543Y726D02*
X1579Y726D01*
X479Y725D02*
X514Y725D01*
X546Y725D02*
X581Y725D01*
X1477Y725D02*
X1511Y725D01*
X1543Y725D02*
X1579Y725D01*
X480Y724D02*
X515Y724D01*
X546Y724D02*
X581Y724D01*
X1477Y724D02*
X1511Y724D01*
X1543Y724D02*
X1579Y724D01*
X480Y723D02*
X515Y723D01*
X546Y723D02*
X581Y723D01*
X1477Y723D02*
X1512Y723D01*
X1542Y723D02*
X1578Y723D01*
X480Y722D02*
X516Y722D01*
X545Y722D02*
X581Y722D01*
X1478Y722D02*
X1512Y722D01*
X1542Y722D02*
X1578Y722D01*
X480Y721D02*
X516Y721D01*
X545Y721D02*
X580Y721D01*
X1478Y721D02*
X1513Y721D01*
X1541Y721D02*
X1578Y721D01*
X481Y720D02*
X517Y720D01*
X544Y720D02*
X580Y720D01*
X1478Y720D02*
X1514Y720D01*
X1541Y720D02*
X1577Y720D01*
X481Y719D02*
X518Y719D01*
X543Y719D02*
X580Y719D01*
X1479Y719D02*
X1514Y719D01*
X1540Y719D02*
X1577Y719D01*
X482Y718D02*
X519Y718D01*
X542Y718D02*
X579Y718D01*
X1479Y718D02*
X1515Y718D01*
X1539Y718D02*
X1576Y718D01*
X482Y717D02*
X520Y717D01*
X541Y717D02*
X579Y717D01*
X1480Y717D02*
X1517Y717D01*
X1538Y717D02*
X1576Y717D01*
X483Y716D02*
X521Y716D01*
X540Y716D02*
X578Y716D01*
X1480Y716D02*
X1518Y716D01*
X1536Y716D02*
X1575Y716D01*
X483Y715D02*
X523Y715D01*
X538Y715D02*
X577Y715D01*
X1481Y715D02*
X1520Y715D01*
X1534Y715D02*
X1575Y715D01*
X484Y714D02*
X526Y714D01*
X535Y714D02*
X577Y714D01*
X1482Y714D02*
X1523Y714D01*
X1531Y714D02*
X1574Y714D01*
X485Y713D02*
X576Y713D01*
X1483Y713D02*
X1573Y713D01*
X486Y712D02*
X575Y712D01*
X1483Y712D02*
X1572Y712D01*
X487Y711D02*
X574Y711D01*
X1484Y711D02*
X1571Y711D01*
X488Y710D02*
X573Y710D01*
X1485Y710D02*
X1570Y710D01*
X489Y709D02*
X572Y709D01*
X1487Y709D02*
X1569Y709D01*
X491Y708D02*
X570Y708D01*
X1488Y708D02*
X1568Y708D01*
X492Y707D02*
X569Y707D01*
X1490Y707D02*
X1566Y707D01*
X494Y706D02*
X567Y706D01*
X1492Y706D02*
X1564Y706D01*
X497Y705D02*
X564Y705D01*
X1494Y705D02*
X1562Y705D01*
X501Y704D02*
X560Y704D01*
X1498Y704D02*
X1558Y704D01*
X499Y655D02*
X561Y655D01*
X1497Y655D02*
X1559Y655D01*
X496Y654D02*
X565Y654D01*
X1493Y654D02*
X1562Y654D01*
X494Y653D02*
X567Y653D01*
X1491Y653D02*
X1565Y653D01*
X492Y652D02*
X569Y652D01*
X1489Y652D02*
X1566Y652D01*
X490Y651D02*
X571Y651D01*
X1488Y651D02*
X1568Y651D01*
X489Y650D02*
X572Y650D01*
X1486Y650D02*
X1569Y650D01*
X488Y649D02*
X573Y649D01*
X1485Y649D02*
X1571Y649D01*
X487Y648D02*
X574Y648D01*
X1484Y648D02*
X1572Y648D01*
X486Y647D02*
X575Y647D01*
X1483Y647D02*
X1573Y647D01*
X485Y646D02*
X576Y646D01*
X1482Y646D02*
X1573Y646D01*
X484Y645D02*
X526Y645D01*
X535Y645D02*
X577Y645D01*
X1482Y645D02*
X1522Y645D01*
X1532Y645D02*
X1574Y645D01*
X483Y644D02*
X523Y644D01*
X538Y644D02*
X578Y644D01*
X1481Y644D02*
X1520Y644D01*
X1535Y644D02*
X1575Y644D01*
X483Y643D02*
X521Y643D01*
X540Y643D02*
X578Y643D01*
X1480Y643D02*
X1518Y643D01*
X1536Y643D02*
X1576Y643D01*
X482Y642D02*
X520Y642D01*
X541Y642D02*
X579Y642D01*
X1480Y642D02*
X1516Y642D01*
X1538Y642D02*
X1576Y642D01*
X482Y641D02*
X519Y641D01*
X542Y641D02*
X579Y641D01*
X1479Y641D02*
X1515Y641D01*
X1539Y641D02*
X1577Y641D01*
X481Y640D02*
X518Y640D01*
X543Y640D02*
X580Y640D01*
X1479Y640D02*
X1514Y640D01*
X1540Y640D02*
X1577Y640D01*
X481Y639D02*
X517Y639D01*
X544Y639D02*
X580Y639D01*
X1478Y639D02*
X1514Y639D01*
X1541Y639D02*
X1578Y639D01*
X480Y638D02*
X516Y638D01*
X545Y638D02*
X580Y638D01*
X1478Y638D02*
X1513Y638D01*
X1541Y638D02*
X1578Y638D01*
X480Y637D02*
X516Y637D01*
X545Y637D02*
X581Y637D01*
X1477Y637D02*
X1512Y637D01*
X1542Y637D02*
X1578Y637D01*
X480Y636D02*
X515Y636D01*
X546Y636D02*
X581Y636D01*
X1477Y636D02*
X1512Y636D01*
X1542Y636D02*
X1579Y636D01*
X480Y635D02*
X515Y635D01*
X546Y635D02*
X581Y635D01*
X1477Y635D02*
X1511Y635D01*
X1543Y635D02*
X1579Y635D01*
X479Y634D02*
X514Y634D01*
X546Y634D02*
X582Y634D01*
X1477Y634D02*
X1511Y634D01*
X1543Y634D02*
X1579Y634D01*
X479Y633D02*
X514Y633D01*
X547Y633D02*
X582Y633D01*
X1477Y633D02*
X1511Y633D01*
X1543Y633D02*
X1579Y633D01*
X479Y632D02*
X514Y632D01*
X547Y632D02*
X582Y632D01*
X1476Y632D02*
X1511Y632D01*
X1544Y632D02*
X1579Y632D01*
X479Y631D02*
X514Y631D01*
X547Y631D02*
X582Y631D01*
X1476Y631D02*
X1511Y631D01*
X1544Y631D02*
X1579Y631D01*
X479Y630D02*
X514Y630D01*
X547Y630D02*
X582Y630D01*
X1476Y630D02*
X1510Y630D01*
X1544Y630D02*
X1579Y630D01*
X479Y629D02*
X514Y629D01*
X547Y629D02*
X582Y629D01*
X1476Y629D02*
X1510Y629D01*
X1544Y629D02*
X1579Y629D01*
X479Y628D02*
X514Y628D01*
X547Y628D02*
X582Y628D01*
X1476Y628D02*
X1511Y628D01*
X1544Y628D02*
X1579Y628D01*
X479Y627D02*
X514Y627D01*
X547Y627D02*
X582Y627D01*
X1477Y627D02*
X1511Y627D01*
X1544Y627D02*
X1579Y627D01*
X479Y626D02*
X514Y626D01*
X547Y626D02*
X582Y626D01*
X1477Y626D02*
X1511Y626D01*
X1543Y626D02*
X1579Y626D01*
X479Y625D02*
X514Y625D01*
X546Y625D02*
X581Y625D01*
X1477Y625D02*
X1511Y625D01*
X1543Y625D02*
X1579Y625D01*
X480Y624D02*
X515Y624D01*
X546Y624D02*
X581Y624D01*
X1477Y624D02*
X1511Y624D01*
X1543Y624D02*
X1579Y624D01*
X480Y623D02*
X515Y623D01*
X546Y623D02*
X581Y623D01*
X1477Y623D02*
X1512Y623D01*
X1542Y623D02*
X1578Y623D01*
X480Y622D02*
X516Y622D01*
X545Y622D02*
X581Y622D01*
X1478Y622D02*
X1512Y622D01*
X1542Y622D02*
X1578Y622D01*
X480Y621D02*
X516Y621D01*
X545Y621D02*
X580Y621D01*
X1478Y621D02*
X1513Y621D01*
X1541Y621D02*
X1578Y621D01*
X481Y620D02*
X517Y620D01*
X544Y620D02*
X580Y620D01*
X1478Y620D02*
X1514Y620D01*
X1541Y620D02*
X1578Y620D01*
X481Y619D02*
X518Y619D01*
X543Y619D02*
X580Y619D01*
X1479Y619D02*
X1514Y619D01*
X1540Y619D02*
X1577Y619D01*
X482Y618D02*
X519Y618D01*
X542Y618D02*
X579Y618D01*
X1479Y618D02*
X1515Y618D01*
X1539Y618D02*
X1577Y618D01*
X482Y617D02*
X520Y617D01*
X541Y617D02*
X578Y617D01*
X1480Y617D02*
X1517Y617D01*
X1538Y617D02*
X1576Y617D01*
X483Y616D02*
X521Y616D01*
X540Y616D02*
X578Y616D01*
X1480Y616D02*
X1518Y616D01*
X1536Y616D02*
X1575Y616D01*
X484Y615D02*
X523Y615D01*
X538Y615D02*
X577Y615D01*
X1481Y615D02*
X1520Y615D01*
X1534Y615D02*
X1575Y615D01*
X484Y614D02*
X526Y614D01*
X535Y614D02*
X577Y614D01*
X1482Y614D02*
X1523Y614D01*
X1531Y614D02*
X1574Y614D01*
X485Y613D02*
X576Y613D01*
X1483Y613D02*
X1573Y613D01*
X486Y612D02*
X575Y612D01*
X1483Y612D02*
X1572Y612D01*
X487Y611D02*
X574Y611D01*
X1484Y611D02*
X1571Y611D01*
X488Y610D02*
X573Y610D01*
X1486Y610D02*
X1570Y610D01*
X489Y609D02*
X572Y609D01*
X1487Y609D02*
X1569Y609D01*
X491Y608D02*
X570Y608D01*
X1488Y608D02*
X1568Y608D01*
X492Y607D02*
X568Y607D01*
X1490Y607D02*
X1566Y607D01*
X494Y606D02*
X567Y606D01*
X1492Y606D02*
X1564Y606D01*
X497Y605D02*
X564Y605D01*
X1494Y605D02*
X1562Y605D01*
X501Y604D02*
X560Y604D01*
X1498Y604D02*
X1557Y604D01*
X499Y555D02*
X562Y555D01*
X1497Y555D02*
X1559Y555D01*
X496Y554D02*
X565Y554D01*
X1493Y554D02*
X1562Y554D01*
X494Y553D02*
X567Y553D01*
X1491Y553D02*
X1565Y553D01*
X492Y552D02*
X569Y552D01*
X1489Y552D02*
X1566Y552D01*
X490Y551D02*
X571Y551D01*
X1488Y551D02*
X1568Y551D01*
X489Y550D02*
X572Y550D01*
X1486Y550D02*
X1569Y550D01*
X488Y549D02*
X573Y549D01*
X1485Y549D02*
X1571Y549D01*
X487Y548D02*
X574Y548D01*
X1484Y548D02*
X1572Y548D01*
X486Y547D02*
X575Y547D01*
X1483Y547D02*
X1573Y547D01*
X485Y546D02*
X576Y546D01*
X1482Y546D02*
X1573Y546D01*
X484Y545D02*
X526Y545D01*
X535Y545D02*
X577Y545D01*
X1481Y545D02*
X1522Y545D01*
X1532Y545D02*
X1574Y545D01*
X483Y544D02*
X523Y544D01*
X538Y544D02*
X578Y544D01*
X1481Y544D02*
X1520Y544D01*
X1535Y544D02*
X1575Y544D01*
X483Y543D02*
X521Y543D01*
X540Y543D02*
X578Y543D01*
X1480Y543D02*
X1518Y543D01*
X1536Y543D02*
X1576Y543D01*
X482Y542D02*
X520Y542D01*
X541Y542D02*
X579Y542D01*
X1480Y542D02*
X1516Y542D01*
X1538Y542D02*
X1576Y542D01*
X482Y541D02*
X519Y541D01*
X542Y541D02*
X579Y541D01*
X1479Y541D02*
X1515Y541D01*
X1539Y541D02*
X1577Y541D01*
X481Y540D02*
X518Y540D01*
X543Y540D02*
X580Y540D01*
X1479Y540D02*
X1514Y540D01*
X1540Y540D02*
X1577Y540D01*
X481Y539D02*
X517Y539D01*
X544Y539D02*
X580Y539D01*
X1478Y539D02*
X1513Y539D01*
X1541Y539D02*
X1578Y539D01*
X480Y538D02*
X516Y538D01*
X545Y538D02*
X581Y538D01*
X1478Y538D02*
X1513Y538D01*
X1541Y538D02*
X1578Y538D01*
X480Y537D02*
X516Y537D01*
X545Y537D02*
X581Y537D01*
X1477Y537D02*
X1512Y537D01*
X1542Y537D02*
X1578Y537D01*
X480Y536D02*
X515Y536D01*
X546Y536D02*
X581Y536D01*
X1477Y536D02*
X1512Y536D01*
X1542Y536D02*
X1578Y536D01*
X480Y535D02*
X515Y535D01*
X546Y535D02*
X581Y535D01*
X1477Y535D02*
X1511Y535D01*
X1543Y535D02*
X1579Y535D01*
X479Y534D02*
X514Y534D01*
X547Y534D02*
X582Y534D01*
X1477Y534D02*
X1511Y534D01*
X1543Y534D02*
X1579Y534D01*
X479Y533D02*
X514Y533D01*
X547Y533D02*
X582Y533D01*
X1477Y533D02*
X1511Y533D01*
X1543Y533D02*
X1579Y533D01*
X479Y532D02*
X514Y532D01*
X547Y532D02*
X582Y532D01*
X1476Y532D02*
X1511Y532D01*
X1544Y532D02*
X1579Y532D01*
X479Y531D02*
X514Y531D01*
X547Y531D02*
X582Y531D01*
X1476Y531D02*
X1510Y531D01*
X1544Y531D02*
X1579Y531D01*
X479Y530D02*
X514Y530D01*
X547Y530D02*
X582Y530D01*
X1476Y530D02*
X1510Y530D01*
X1544Y530D02*
X1579Y530D01*
X479Y529D02*
X514Y529D01*
X547Y529D02*
X582Y529D01*
X1476Y529D02*
X1510Y529D01*
X1544Y529D02*
X1579Y529D01*
X479Y528D02*
X514Y528D01*
X547Y528D02*
X582Y528D01*
X1476Y528D02*
X1511Y528D01*
X1544Y528D02*
X1579Y528D01*
X479Y527D02*
X514Y527D01*
X547Y527D02*
X582Y527D01*
X1477Y527D02*
X1511Y527D01*
X1544Y527D02*
X1579Y527D01*
X479Y526D02*
X514Y526D01*
X547Y526D02*
X582Y526D01*
X1477Y526D02*
X1511Y526D01*
X1543Y526D02*
X1579Y526D01*
X479Y525D02*
X514Y525D01*
X546Y525D02*
X581Y525D01*
X1477Y525D02*
X1511Y525D01*
X1543Y525D02*
X1579Y525D01*
X480Y524D02*
X515Y524D01*
X546Y524D02*
X581Y524D01*
X1477Y524D02*
X1511Y524D01*
X1543Y524D02*
X1579Y524D01*
X480Y523D02*
X515Y523D01*
X546Y523D02*
X581Y523D01*
X1477Y523D02*
X1512Y523D01*
X1542Y523D02*
X1578Y523D01*
X480Y522D02*
X516Y522D01*
X545Y522D02*
X581Y522D01*
X1478Y522D02*
X1512Y522D01*
X1542Y522D02*
X1578Y522D01*
X480Y521D02*
X516Y521D01*
X545Y521D02*
X580Y521D01*
X1478Y521D02*
X1513Y521D01*
X1541Y521D02*
X1578Y521D01*
X481Y520D02*
X517Y520D01*
X544Y520D02*
X580Y520D01*
X1478Y520D02*
X1514Y520D01*
X1541Y520D02*
X1577Y520D01*
X481Y519D02*
X518Y519D01*
X543Y519D02*
X580Y519D01*
X1479Y519D02*
X1514Y519D01*
X1540Y519D02*
X1577Y519D01*
X482Y518D02*
X519Y518D01*
X542Y518D02*
X579Y518D01*
X1479Y518D02*
X1515Y518D01*
X1539Y518D02*
X1576Y518D01*
X482Y517D02*
X520Y517D01*
X541Y517D02*
X578Y517D01*
X1480Y517D02*
X1517Y517D01*
X1538Y517D02*
X1576Y517D01*
X483Y516D02*
X521Y516D01*
X540Y516D02*
X578Y516D01*
X1480Y516D02*
X1518Y516D01*
X1536Y516D02*
X1575Y516D01*
X484Y515D02*
X523Y515D01*
X538Y515D02*
X577Y515D01*
X1481Y515D02*
X1520Y515D01*
X1534Y515D02*
X1575Y515D01*
X484Y514D02*
X526Y514D01*
X534Y514D02*
X577Y514D01*
X1482Y514D02*
X1523Y514D01*
X1531Y514D02*
X1574Y514D01*
X485Y513D02*
X576Y513D01*
X1483Y513D02*
X1573Y513D01*
X486Y512D02*
X575Y512D01*
X1483Y512D02*
X1572Y512D01*
X487Y511D02*
X574Y511D01*
X1484Y511D02*
X1571Y511D01*
X488Y510D02*
X573Y510D01*
X1486Y510D02*
X1570Y510D01*
X489Y509D02*
X572Y509D01*
X1487Y509D02*
X1569Y509D01*
X491Y508D02*
X570Y508D01*
X1488Y508D02*
X1568Y508D01*
X492Y507D02*
X568Y507D01*
X1490Y507D02*
X1566Y507D01*
X494Y506D02*
X567Y506D01*
X1492Y506D02*
X1564Y506D01*
X497Y505D02*
X564Y505D01*
X1494Y505D02*
X1561Y505D01*
X501Y504D02*
X560Y504D01*
X1498Y504D02*
X1557Y504D01*
X499Y455D02*
X562Y455D01*
X1496Y455D02*
X1559Y455D01*
X496Y454D02*
X565Y454D01*
X1493Y454D02*
X1562Y454D01*
X494Y453D02*
X567Y453D01*
X1491Y453D02*
X1565Y453D01*
X492Y452D02*
X569Y452D01*
X1489Y452D02*
X1566Y452D01*
X490Y451D02*
X571Y451D01*
X1487Y451D02*
X1568Y451D01*
X489Y450D02*
X572Y450D01*
X1486Y450D02*
X1569Y450D01*
X488Y449D02*
X573Y449D01*
X1485Y449D02*
X1570Y449D01*
X487Y448D02*
X574Y448D01*
X1484Y448D02*
X1572Y448D01*
X486Y447D02*
X575Y447D01*
X1483Y447D02*
X1572Y447D01*
X485Y446D02*
X576Y446D01*
X1482Y446D02*
X1573Y446D01*
X484Y445D02*
X526Y445D01*
X535Y445D02*
X577Y445D01*
X1481Y445D02*
X1522Y445D01*
X1532Y445D02*
X1574Y445D01*
X483Y444D02*
X523Y444D01*
X538Y444D02*
X578Y444D01*
X1481Y444D02*
X1520Y444D01*
X1534Y444D02*
X1575Y444D01*
X483Y443D02*
X521Y443D01*
X540Y443D02*
X578Y443D01*
X1480Y443D02*
X1518Y443D01*
X1536Y443D02*
X1575Y443D01*
X482Y442D02*
X520Y442D01*
X541Y442D02*
X579Y442D01*
X1480Y442D02*
X1516Y442D01*
X1538Y442D02*
X1576Y442D01*
X482Y441D02*
X519Y441D01*
X542Y441D02*
X579Y441D01*
X1479Y441D02*
X1515Y441D01*
X1539Y441D02*
X1577Y441D01*
X481Y440D02*
X518Y440D01*
X543Y440D02*
X580Y440D01*
X1478Y440D02*
X1514Y440D01*
X1540Y440D02*
X1577Y440D01*
X481Y439D02*
X517Y439D01*
X544Y439D02*
X580Y439D01*
X1478Y439D02*
X1514Y439D01*
X1540Y439D02*
X1577Y439D01*
X480Y438D02*
X516Y438D01*
X545Y438D02*
X581Y438D01*
X1478Y438D02*
X1513Y438D01*
X1541Y438D02*
X1578Y438D01*
X480Y437D02*
X516Y437D01*
X545Y437D02*
X581Y437D01*
X1477Y437D02*
X1512Y437D01*
X1542Y437D02*
X1578Y437D01*
X480Y436D02*
X515Y436D01*
X546Y436D02*
X581Y436D01*
X1477Y436D02*
X1512Y436D01*
X1542Y436D02*
X1578Y436D01*
X480Y435D02*
X515Y435D01*
X546Y435D02*
X581Y435D01*
X1477Y435D02*
X1512Y435D01*
X1542Y435D02*
X1579Y435D01*
X479Y434D02*
X515Y434D01*
X546Y434D02*
X582Y434D01*
X1477Y434D02*
X1511Y434D01*
X1543Y434D02*
X1579Y434D01*
X479Y433D02*
X514Y433D01*
X547Y433D02*
X582Y433D01*
X1477Y433D02*
X1511Y433D01*
X1543Y433D02*
X1579Y433D01*
X479Y432D02*
X514Y432D01*
X547Y432D02*
X582Y432D01*
X1476Y432D02*
X1511Y432D01*
X1543Y432D02*
X1579Y432D01*
X479Y431D02*
X514Y431D01*
X547Y431D02*
X582Y431D01*
X1476Y431D02*
X1511Y431D01*
X1543Y431D02*
X1579Y431D01*
X479Y430D02*
X514Y430D01*
X547Y430D02*
X582Y430D01*
X1476Y430D02*
X1511Y430D01*
X1543Y430D02*
X1579Y430D01*
X479Y429D02*
X514Y429D01*
X547Y429D02*
X582Y429D01*
X1476Y429D02*
X1511Y429D01*
X1543Y429D02*
X1579Y429D01*
X479Y428D02*
X514Y428D01*
X547Y428D02*
X582Y428D01*
X1476Y428D02*
X1511Y428D01*
X1543Y428D02*
X1579Y428D01*
X479Y427D02*
X514Y427D01*
X547Y427D02*
X582Y427D01*
X1476Y427D02*
X1511Y427D01*
X1543Y427D02*
X1579Y427D01*
X479Y426D02*
X514Y426D01*
X546Y426D02*
X582Y426D01*
X1477Y426D02*
X1511Y426D01*
X1543Y426D02*
X1579Y426D01*
X479Y425D02*
X515Y425D01*
X546Y425D02*
X581Y425D01*
X1477Y425D02*
X1511Y425D01*
X1543Y425D02*
X1579Y425D01*
X480Y424D02*
X515Y424D01*
X546Y424D02*
X581Y424D01*
X1477Y424D02*
X1512Y424D01*
X1542Y424D02*
X1579Y424D01*
X480Y423D02*
X515Y423D01*
X545Y423D02*
X581Y423D01*
X1477Y423D02*
X1512Y423D01*
X1542Y423D02*
X1578Y423D01*
X480Y422D02*
X516Y422D01*
X545Y422D02*
X581Y422D01*
X1477Y422D02*
X1513Y422D01*
X1541Y422D02*
X1578Y422D01*
X480Y421D02*
X517Y421D01*
X544Y421D02*
X580Y421D01*
X1478Y421D02*
X1513Y421D01*
X1541Y421D02*
X1578Y421D01*
X481Y420D02*
X517Y420D01*
X544Y420D02*
X580Y420D01*
X1478Y420D02*
X1514Y420D01*
X1540Y420D02*
X1577Y420D01*
X481Y419D02*
X518Y419D01*
X543Y419D02*
X580Y419D01*
X1479Y419D02*
X1515Y419D01*
X1539Y419D02*
X1577Y419D01*
X482Y418D02*
X519Y418D01*
X542Y418D02*
X579Y418D01*
X1479Y418D02*
X1516Y418D01*
X1538Y418D02*
X1576Y418D01*
X482Y417D02*
X520Y417D01*
X541Y417D02*
X578Y417D01*
X1480Y417D02*
X1517Y417D01*
X1537Y417D02*
X1576Y417D01*
X483Y416D02*
X522Y416D01*
X539Y416D02*
X578Y416D01*
X1480Y416D02*
X1518Y416D01*
X1536Y416D02*
X1575Y416D01*
X484Y415D02*
X524Y415D01*
X537Y415D02*
X577Y415D01*
X1481Y415D02*
X1520Y415D01*
X1534Y415D02*
X1575Y415D01*
X484Y414D02*
X527Y414D01*
X534Y414D02*
X576Y414D01*
X1482Y414D02*
X1523Y414D01*
X1531Y414D02*
X1574Y414D01*
X485Y413D02*
X576Y413D01*
X1483Y413D02*
X1573Y413D01*
X486Y412D02*
X575Y412D01*
X1483Y412D02*
X1572Y412D01*
X487Y411D02*
X574Y411D01*
X1484Y411D02*
X1571Y411D01*
X488Y410D02*
X573Y410D01*
X1486Y410D02*
X1570Y410D01*
X489Y409D02*
X571Y409D01*
X1487Y409D02*
X1569Y409D01*
X491Y408D02*
X570Y408D01*
X1488Y408D02*
X1567Y408D01*
X493Y407D02*
X568Y407D01*
X1490Y407D02*
X1566Y407D01*
X494Y406D02*
X566Y406D01*
X1492Y406D02*
X1564Y406D01*
X497Y405D02*
X564Y405D01*
X1494Y405D02*
X1561Y405D01*
X501Y404D02*
X560Y404D01*
X1499Y404D02*
X1557Y404D01*
D02*
G04 End of Copper1*
M02*