; NON-PLATED HOLES START AT T1
; THROUGH (PLATED) HOLES START AT T100
M48
INCH
T1C0.125984
T2C0.086614
T100C0.038000
T101C0.035433
T102C0.040000
T103C0.035000
%
T1
X000787Y019700
X022795Y000783
X000752Y000767
X022820Y019714
T2
X014932Y000778
X014928Y019475
X005511Y019475
X005518Y000775
T100
X005295Y009283
X015295Y012283
X005295Y018283
X001295Y013283
X021295Y007283
X019295Y018283
X015295Y011283
X005295Y005283
X001295Y011283
X019295Y007283
X005295Y017283
X017295Y007283
X015295Y016283
X020295Y007283
X015295Y018283
X015295Y007283
X005295Y014283
X015295Y004283
X015295Y008283
X001295Y015283
X015295Y006283
X015295Y010283
X015295Y015283
X005295Y007283
X005295Y015283
X001295Y014283
X005295Y008283
X022295Y007283
X005295Y012283
X005295Y010283
X015295Y009283
X015295Y014283
X015295Y013283
X019295Y016283
X005295Y006283
X005295Y016283
X019295Y017283
X015295Y005283
X019295Y019283
X001295Y012283
X005295Y004283
X005295Y013283
X015295Y017283
X005295Y011283
X018295Y007283
T101
X018795Y002783
X021354Y002783
T102
X001295Y008783
X020795Y012283
X020795Y011283
X001295Y003905
X020795Y013283
X022295Y016283
X022295Y015283
X022295Y017283
X001295Y007783
X001295Y005283
T103
X017295Y014283
X017295Y010283
T00
M30
