; NON-PLATED HOLES START AT T1
; THROUGH (PLATED) HOLES START AT T100
M48
INCH
T1C0.086614
T2C0.125984
T100C0.040000
T101C0.035000
T102C0.035433
T103C0.038000
%
T1
X014698Y019485
X014701Y000788
X005287Y000785
X005280Y019485
T2
X000787Y019700
X000752Y000767
X022795Y000783
X022820Y019714
T100
X020565Y012293
X022065Y016293
X001065Y003915
X020565Y013293
X022065Y017293
X001065Y005293
X001065Y007793
X001065Y008793
X020565Y011293
X022065Y015293
T101
X017065Y014293
X017065Y010293
T102
X021124Y002793
X018565Y002793
T103
X021065Y007293
X005065Y014293
X015065Y011293
X005065Y006293
X015065Y016293
X019065Y016293
X015065Y008293
X005065Y012293
X001065Y012293
X005065Y004293
X005065Y017293
X015065Y014293
X005065Y009293
X015065Y006293
X019065Y019293
X005065Y010293
X005065Y015293
X015065Y012293
X005065Y007293
X015065Y004293
X015065Y017293
X019065Y017293
X015065Y009293
X005065Y013293
X001065Y013293
X015065Y010293
X005065Y005293
X005065Y018293
X015065Y015293
X015065Y007293
X017065Y007293
X019065Y007293
X005065Y011293
X001065Y011293
X018065Y007293
X005065Y016293
X015065Y013293
X005065Y008293
X015065Y005293
X015065Y018293
X019065Y018293
X020065Y007293
X022065Y007293
T00
M30
